<?xml version="1.0" standalone="yes"?><svg version="1.1" xmlns = 'http://www.w3.org/2000/svg'><defs><font id='web' horiz-adv-x="1000">
<font-face font-family="web" descent="-436" cap-height="1516" units-per-em="2048" bbox="-188,-555,2933,2228" x-height="1087" ascent="1612" />
<missing-glyph horiz-adv-x="1024" d="M 0 1434 L 1024 1434 L 1024 0 L 0 0 L 0 1434 Z M 102 102 L 922 102 L 922 1331 L 102 1331 L 102 102 Z" /><glyph horiz-adv-x="1024" d="" unicode=" " />
<glyph horiz-adv-x="2048" d="" unicode=" " />
<glyph horiz-adv-x="666" d="" unicode=" " />
<glyph horiz-adv-x="410" d="" unicode=" " />
<glyph horiz-adv-x="1331" d="M 123 530 L 123 748 L 1208 748 L 1208 530 L 123 530 Z" unicode="‒" />
<glyph horiz-adv-x="1331" d="M 123 530 L 123 748 L 1208 748 L 1208 530 L 123 530 Z" unicode="–" />
<glyph horiz-adv-x="1915" d="M 123 530 L 123 748 L 1792 748 L 1792 530 L 123 530 Z" unicode="—" />
<glyph horiz-adv-x="2048" d="M 0 748 L 2048 748 L 2048 530 L 0 530 L 0 748 Z" unicode="―" />
<glyph horiz-adv-x="565" d="M 147 1020 L 147 1264 L 279 1516 L 395 1516 L 324 1286 L 418 1286 L 418 1020 L 147 1020 Z" unicode="‘" />
<glyph horiz-adv-x="565" d="M 170 1020 L 242 1249 L 147 1249 L 147 1516 L 418 1516 L 418 1272 L 287 1020 L 170 1020 Z" unicode="’" />
<glyph horiz-adv-x="565" d="M 170 -229 L 242 0 L 147 0 L 147 266 L 418 266 L 418 23 L 287 -229 L 170 -229 Z" unicode="‚" />
<glyph horiz-adv-x="1010" d="M 592 1020 L 592 1264 L 723 1516 L 840 1516 L 768 1286 L 862 1286 L 862 1020 L 592 1020 Z M 147 1020 L 147 1264 L 279 1516 L 395 1516 L 324 1286 L 418 1286 L 418 1020 L 147 1020 Z" unicode="“" />
<glyph horiz-adv-x="1010" d="M 614 1020 L 686 1249 L 592 1249 L 592 1516 L 862 1516 L 862 1272 L 731 1020 L 614 1020 Z M 170 1020 L 242 1249 L 147 1249 L 147 1516 L 418 1516 L 418 1272 L 287 1020 L 170 1020 Z" unicode="”" />
<glyph horiz-adv-x="1010" d="M 614 -229 L 686 0 L 592 0 L 592 266 L 862 266 L 862 23 L 731 -229 L 614 -229 Z M 170 -229 L 242 0 L 147 0 L 147 266 L 418 266 L 418 23 L 287 -229 L 170 -229 Z" unicode="„" />
<glyph horiz-adv-x="514" d="" unicode=" " />
<glyph horiz-adv-x="694" d="M 262 453 L 195 1516 L 510 1516 L 442 453 L 262 453 Z M 211 0 L 211 256 L 494 256 L 494 0 L 211 0 Z" unicode="!" />
<glyph horiz-adv-x="895" d="M 561 979 L 526 1380 L 526 1516 L 750 1516 L 750 1380 L 715 979 L 561 979 Z M 180 979 L 145 1380 L 145 1516 L 369 1516 L 369 1380 L 334 979 L 180 979 Z" unicode="&#x22;" />
<glyph horiz-adv-x="1516" d="M 213 0 L 297 408 L 68 408 L 68 598 L 338 598 L 403 918 L 156 918 L 156 1108 L 444 1108 L 530 1516 L 758 1516 L 674 1108 L 969 1108 L 1055 1516 L 1282 1516 L 1196 1108 L 1448 1108 L 1448 918 L 1157 918 L 1090 598 L 1360 598 L 1360 408 L 1051 408 L 965 0 L 737 0 L 821 408 L 526 408 L 440 0 L 213 0 Z M 565 598 L 862 598 L 928 918 L 633 918 L 565 598 Z" unicode="#" />
<glyph horiz-adv-x="1368" d="M 602 -14 C 535 -8 476 3 424 23 C 372 43 325 67 284 96 C 243 124 208 156 178 190 C 148 224 122 260 100 297 L 279 418 C 321 356 367 304 418 261 C 468 218 532 191 610 180 L 610 684 C 550 699 492 717 436 737 C 380 757 330 784 287 816 C 244 848 209 888 183 936 C 156 984 143 1042 143 1112 C 143 1230 184 1328 266 1404 C 348 1480 460 1522 602 1532 L 602 1677 L 766 1677 L 766 1528 C 823 1521 873 1509 917 1493 C 961 1476 1000 1456 1034 1432 C 1068 1408 1098 1382 1124 1354 C 1150 1325 1173 1295 1194 1264 L 1020 1128 C 987 1178 951 1221 913 1256 C 875 1291 824 1314 760 1325 L 760 870 C 826 852 890 833 950 811 C 1010 789 1062 761 1108 727 C 1153 693 1188 651 1214 601 C 1240 551 1253 490 1253 418 C 1253 360 1243 307 1223 257 C 1203 207 1173 163 1133 125 C 1093 87 1042 55 981 31 C 919 6 848 -8 766 -14 L 766 -190 L 602 -190 L 602 -14 Z M 760 178 C 838 184 900 204 946 237 C 992 270 1016 323 1016 395 C 1016 465 993 518 947 554 C 901 590 839 619 760 643 L 760 178 Z M 610 1333 C 531 1326 473 1304 436 1268 C 399 1232 381 1187 381 1135 C 381 1070 401 1022 442 991 C 483 959 539 933 610 911 L 610 1333 Z" unicode="$" />
<glyph horiz-adv-x="2154" d="M 485 580 C 425 580 371 591 324 614 C 277 637 237 669 205 711 C 172 753 147 803 130 862 C 112 920 104 985 104 1057 C 104 1130 113 1196 131 1256 C 149 1316 174 1366 208 1408 C 241 1449 281 1481 328 1505 C 375 1528 428 1540 487 1540 C 545 1540 598 1528 646 1506 C 693 1484 733 1452 766 1410 C 798 1368 823 1318 840 1258 C 857 1198 866 1133 866 1061 C 866 989 857 924 840 865 C 823 805 798 754 766 712 C 733 670 693 637 646 614 C 598 591 545 580 485 580 Z M 1669 -20 C 1609 -20 1555 -8 1508 14 C 1461 37 1421 69 1388 111 C 1355 153 1330 203 1313 262 C 1296 320 1288 385 1288 457 C 1288 530 1296 596 1314 655 C 1332 713 1357 764 1391 806 C 1425 848 1465 881 1512 904 C 1559 926 1612 938 1671 938 C 1729 938 1782 926 1828 904 C 1874 881 1914 849 1947 807 C 1980 765 2005 715 2023 657 C 2041 598 2050 533 2050 461 C 2050 389 2041 324 2023 265 C 2005 205 1980 154 1947 112 C 1914 70 1874 37 1827 14 C 1780 -8 1727 -20 1669 -20 Z M 514 0 L 1419 1516 L 1640 1516 L 735 0 L 514 0 Z M 1669 158 C 1726 158 1768 185 1796 240 C 1823 294 1837 367 1837 459 C 1837 554 1823 628 1796 680 C 1768 732 1726 758 1669 758 C 1610 758 1567 731 1540 678 C 1512 624 1499 552 1499 461 C 1499 365 1513 290 1541 237 C 1569 184 1611 158 1669 158 Z M 487 760 C 544 760 586 787 613 841 C 639 895 653 967 653 1059 C 653 1154 639 1228 612 1280 C 584 1332 542 1358 485 1358 C 427 1358 385 1331 358 1278 C 330 1224 317 1152 317 1061 C 317 965 331 891 359 839 C 387 786 429 760 487 760 Z" unicode="%" />
<glyph horiz-adv-x="1503" d="M 578 -29 C 494 -29 420 -19 355 1 C 290 21 235 49 190 85 C 145 121 111 163 88 213 C 64 262 53 316 53 375 C 53 433 62 486 82 532 C 101 578 126 620 158 656 C 189 692 226 725 268 754 C 310 782 355 808 403 831 C 371 890 347 947 330 1002 C 313 1057 305 1113 305 1171 C 305 1219 312 1265 328 1310 C 344 1355 368 1395 401 1430 C 434 1465 475 1493 525 1513 C 575 1533 634 1544 702 1544 C 765 1544 819 1535 864 1518 C 909 1501 947 1478 977 1449 C 1007 1419 1029 1385 1043 1347 C 1057 1309 1065 1269 1065 1229 C 1065 1174 1055 1125 1035 1081 C 1015 1037 989 998 956 963 C 923 928 885 897 841 869 C 797 841 751 815 702 791 C 732 745 769 696 813 643 C 888 546 956 468 1018 408 C 1049 455 1075 509 1095 571 C 1115 633 1131 699 1141 770 L 1364 770 C 1352 681 1331 595 1303 513 C 1274 430 1236 354 1188 285 C 1237 252 1285 228 1332 213 C 1379 197 1428 190 1479 190 L 1479 -20 C 1388 -17 1308 -6 1238 13 C 1168 33 1098 66 1030 113 C 972 69 907 34 834 9 C 761 -16 676 -29 578 -29 Z M 616 930 C 649 947 680 965 708 985 C 736 1004 760 1024 780 1046 C 800 1068 817 1092 829 1119 C 841 1145 848 1175 848 1208 C 848 1246 835 1280 811 1308 C 786 1336 751 1350 707 1350 C 656 1350 616 1337 586 1311 C 556 1285 541 1243 541 1186 C 541 1143 547 1101 559 1060 C 571 1019 590 976 616 930 Z M 600 176 C 650 176 697 180 739 190 C 781 200 822 218 862 244 C 825 279 787 318 748 362 C 709 406 667 456 623 514 C 599 544 577 572 557 599 C 536 625 516 652 498 680 C 440 644 394 604 360 559 C 326 514 309 464 309 408 C 309 328 334 270 386 232 C 437 194 508 176 600 176 Z" unicode="&#x26;" />
<glyph horiz-adv-x="514" d="M 180 979 L 145 1380 L 145 1516 L 369 1516 L 369 1380 L 334 979 L 180 979 Z" unicode="'" />
<glyph horiz-adv-x="821" d="M 625 -420 C 458 -279 330 -128 240 31 C 150 191 106 372 106 573 C 106 775 150 956 240 1116 C 330 1276 458 1426 625 1567 L 741 1442 C 629 1328 539 1199 473 1054 C 406 908 373 748 373 573 C 373 397 406 235 474 89 C 541 -57 632 -188 748 -303 L 625 -420 Z" unicode="(" />
<glyph horiz-adv-x="821" d="M 74 -303 C 188 -188 279 -57 347 89 C 415 235 449 397 449 573 C 449 748 415 908 348 1054 C 281 1199 192 1328 80 1442 L 197 1567 C 363 1426 490 1276 580 1116 C 670 956 715 775 715 573 C 715 372 670 191 580 31 C 490 -128 363 -279 197 -420 L 74 -303 Z" unicode=")" />
<glyph horiz-adv-x="1040" d="M 369 662 L 223 745 L 424 1036 L 72 1012 L 72 1171 L 426 1147 L 223 1438 L 369 1524 L 520 1202 L 672 1524 L 817 1438 L 616 1147 L 969 1171 L 969 1012 L 616 1036 L 817 745 L 674 662 L 520 981 L 369 662 Z" unicode="*" />
<glyph horiz-adv-x="1315" d="M 553 168 L 553 598 L 137 598 L 137 801 L 553 801 L 553 1231 L 762 1231 L 762 801 L 1180 801 L 1180 598 L 762 598 L 762 168 L 553 168 Z" unicode="+" />
<glyph horiz-adv-x="565" d="M 178 -229 L 250 0 L 141 0 L 141 266 L 424 266 L 424 35 L 295 -229 L 178 -229 Z" unicode="," />
<glyph horiz-adv-x="731" d="M 113 553 L 113 733 L 618 733 L 618 553 L 113 553 Z" unicode="-" />
<glyph horiz-adv-x="565" d="M 141 0 L 141 266 L 424 266 L 424 0 L 141 0 Z" unicode="." />
<glyph horiz-adv-x="1235" d="M 47 0 L 928 1516 L 1188 1516 L 307 0 L 47 0 Z" unicode="/" />
<glyph horiz-adv-x="1389" d="M 696 -29 C 600 -29 515 -10 441 27 C 367 65 304 118 253 187 C 201 256 162 339 135 435 C 107 531 94 639 94 758 C 94 876 107 984 135 1080 C 162 1176 201 1259 253 1328 C 304 1397 367 1450 441 1488 C 515 1525 600 1544 696 1544 C 792 1544 876 1525 950 1488 C 1024 1450 1086 1397 1137 1328 C 1188 1259 1227 1176 1254 1080 C 1280 984 1294 876 1294 758 C 1294 639 1280 531 1254 435 C 1227 339 1188 256 1137 187 C 1086 118 1024 65 950 27 C 876 -10 792 -29 696 -29 Z M 696 197 C 806 197 891 242 950 334 C 1008 425 1038 566 1038 758 C 1038 947 1007 1087 947 1178 C 886 1269 802 1315 696 1315 C 584 1315 498 1269 439 1179 C 379 1089 350 948 350 758 C 350 566 380 425 442 334 C 504 242 588 197 696 197 Z" unicode="0" />
<glyph horiz-adv-x="918" d="M 88 0 L 88 225 L 367 225 L 367 1255 C 329 1236 285 1220 234 1206 C 183 1192 136 1186 92 1186 L 92 1417 C 150 1419 204 1428 252 1444 C 300 1460 341 1484 375 1516 L 616 1516 L 616 225 L 864 225 L 864 0 L 88 0 Z" unicode="1" />
<glyph horiz-adv-x="1235" d="M 72 0 L 72 33 C 72 87 78 142 90 197 C 102 251 126 306 160 362 C 194 418 242 475 304 534 C 366 593 447 655 547 719 C 604 755 653 788 694 818 C 735 847 769 876 795 904 C 821 932 840 961 852 991 C 864 1021 870 1056 870 1096 C 870 1166 848 1220 805 1258 C 762 1296 705 1315 633 1315 C 565 1315 501 1295 440 1256 C 378 1217 324 1162 276 1092 L 86 1223 C 147 1317 223 1394 314 1454 C 405 1514 515 1544 645 1544 C 719 1544 785 1533 844 1513 C 902 1493 952 1464 993 1426 C 1034 1388 1065 1343 1087 1290 C 1109 1236 1120 1178 1120 1114 C 1120 1067 1115 1023 1105 983 C 1095 942 1076 901 1050 860 C 1023 819 986 778 940 737 C 893 696 834 652 762 606 C 640 528 548 458 485 398 C 422 337 384 279 371 225 L 1128 225 L 1128 0 L 72 0 Z" unicode="2" />
<glyph horiz-adv-x="1249" d="M 600 -29 C 480 -29 372 -6 277 38 C 182 83 102 150 37 238 L 215 381 C 267 311 325 262 389 236 C 453 210 522 197 596 197 C 690 197 764 215 820 252 C 875 288 903 348 903 430 C 903 525 868 592 799 632 C 730 672 624 692 481 692 L 412 692 L 412 901 L 487 901 C 561 901 622 906 670 916 C 718 926 757 941 786 961 C 814 981 834 1004 845 1032 C 856 1059 862 1089 862 1122 C 862 1183 842 1230 802 1263 C 762 1296 696 1313 602 1313 C 536 1313 473 1300 411 1275 C 349 1249 296 1213 252 1167 L 102 1327 C 165 1392 242 1444 333 1483 C 423 1522 521 1542 627 1542 C 709 1542 780 1532 841 1513 C 901 1494 952 1468 992 1434 C 1032 1400 1063 1360 1083 1313 C 1103 1266 1114 1215 1114 1159 C 1114 1067 1089 991 1041 931 C 993 870 924 828 836 805 C 948 781 1029 737 1080 671 C 1131 605 1157 522 1157 420 C 1157 351 1143 289 1117 234 C 1090 179 1052 132 1004 93 C 956 54 897 24 829 3 C 761 -18 684 -29 600 -29 Z" unicode="3" />
<glyph horiz-adv-x="1325" d="M 786 0 L 786 311 L 49 311 L 49 512 L 739 1516 L 1034 1516 L 1034 532 L 1290 532 L 1290 311 L 1034 311 L 1034 0 L 786 0 Z M 326 532 L 786 532 L 786 1210 L 782 1210 L 326 532 Z" unicode="4" />
<glyph horiz-adv-x="1225" d="M 592 -29 C 474 -29 369 -8 277 33 C 185 75 108 131 47 201 L 205 369 C 257 321 312 280 372 247 C 431 213 500 197 580 197 C 636 197 684 204 725 219 C 765 234 799 255 826 283 C 852 310 872 342 885 380 C 898 417 905 458 905 502 C 905 602 878 677 825 726 C 771 774 699 799 608 799 C 545 799 488 788 438 766 C 387 744 341 706 301 653 L 131 709 L 190 1516 L 1063 1516 L 1044 1290 L 389 1290 L 358 899 C 388 930 428 957 480 979 C 531 1001 596 1012 676 1012 C 750 1012 818 999 878 975 C 938 950 989 916 1031 872 C 1073 828 1104 776 1126 715 C 1148 653 1159 585 1159 510 C 1159 430 1146 358 1120 293 C 1094 227 1056 171 1007 123 C 958 75 898 37 828 11 C 758 -15 679 -29 592 -29 Z" unicode="5" />
<glyph horiz-adv-x="1303" d="M 680 -29 C 592 -29 513 -13 441 18 C 369 50 308 97 257 161 C 205 224 165 303 137 398 C 108 493 94 604 94 731 C 94 865 111 982 146 1083 C 181 1184 228 1269 288 1337 C 347 1405 416 1457 496 1492 C 576 1526 660 1544 750 1544 C 836 1544 912 1531 979 1506 C 1045 1480 1099 1452 1141 1421 L 1018 1233 C 982 1257 942 1278 897 1295 C 851 1312 799 1321 739 1321 C 681 1321 629 1308 582 1284 C 535 1259 495 1224 461 1179 C 427 1134 400 1080 380 1016 C 360 952 348 880 346 801 C 398 847 456 885 522 917 C 588 949 662 965 745 965 C 817 965 883 954 943 934 C 1002 913 1053 882 1095 842 C 1137 802 1170 752 1194 693 C 1217 633 1229 565 1229 487 C 1229 411 1214 341 1186 277 C 1157 213 1118 159 1068 114 C 1018 69 959 34 893 9 C 826 -16 755 -29 680 -29 Z M 692 188 C 784 188 856 214 908 266 C 959 318 985 389 985 479 C 985 519 979 555 969 589 C 959 622 942 651 920 675 C 898 699 868 717 832 731 C 796 745 751 752 698 752 C 626 752 557 737 493 707 C 429 677 380 642 348 602 C 357 456 393 350 455 285 C 517 220 596 188 692 188 Z" unicode="6" />
<glyph horiz-adv-x="1112" d="M 197 0 L 801 1290 L 55 1290 L 55 1516 L 1065 1516 L 1065 1307 L 459 0 L 197 0 Z" unicode="7" />
<glyph horiz-adv-x="1280" d="M 641 -35 C 549 -35 467 -24 395 -4 C 323 16 262 45 212 82 C 162 118 124 162 98 213 C 72 263 59 319 59 381 C 59 431 68 477 86 518 C 104 559 129 596 161 630 C 193 663 231 693 275 721 C 319 748 368 773 422 797 C 376 818 336 841 300 865 C 264 889 233 915 208 944 C 182 972 163 1005 149 1041 C 135 1077 129 1119 129 1167 C 129 1215 140 1261 162 1307 C 184 1353 216 1394 259 1430 C 302 1466 356 1495 420 1517 C 484 1539 557 1550 641 1550 C 727 1550 801 1539 865 1517 C 929 1495 982 1466 1024 1430 C 1066 1394 1097 1353 1119 1307 C 1140 1261 1151 1215 1151 1167 C 1151 1083 1125 1012 1075 954 C 1024 895 952 845 858 803 C 912 778 962 753 1007 728 C 1052 702 1090 673 1122 641 C 1153 608 1177 570 1195 528 C 1212 486 1221 437 1221 381 C 1221 321 1208 265 1182 214 C 1156 162 1118 118 1068 82 C 1018 45 957 16 885 -4 C 813 -24 732 -35 641 -35 Z M 657 891 C 743 930 805 968 844 1006 C 883 1044 903 1091 903 1149 C 903 1173 898 1197 888 1219 C 878 1241 863 1262 842 1281 C 821 1299 794 1314 761 1325 C 727 1335 687 1341 641 1341 C 551 1341 484 1322 441 1285 C 398 1247 377 1203 377 1153 C 377 1090 400 1040 447 1003 C 494 966 564 929 657 891 Z M 641 172 C 739 172 817 191 876 231 C 935 271 965 325 965 395 C 965 463 936 520 880 565 C 823 610 737 656 623 702 C 521 656 445 609 393 563 C 341 517 315 461 315 395 C 315 327 344 272 403 232 C 462 192 541 172 641 172 Z" unicode="8" />
<glyph horiz-adv-x="1303" d="M 553 -29 C 467 -29 390 -16 323 9 C 256 34 202 62 162 94 L 285 283 C 320 258 360 236 405 218 C 450 199 503 190 563 190 C 620 190 672 202 720 227 C 767 251 808 286 842 332 C 876 378 902 433 922 497 C 942 561 953 634 956 715 C 904 668 846 629 780 598 C 714 566 640 551 557 551 C 485 551 419 561 359 581 C 299 601 248 632 206 672 C 164 712 131 762 108 822 C 85 881 74 950 74 1028 C 74 1104 88 1174 117 1238 C 145 1301 184 1355 234 1400 C 284 1445 342 1480 409 1506 C 476 1531 547 1544 623 1544 C 710 1544 789 1528 861 1497 C 933 1465 994 1418 1045 1355 C 1096 1291 1136 1212 1165 1117 C 1193 1022 1208 911 1208 784 C 1208 650 1190 533 1156 432 C 1121 331 1074 246 1015 178 C 955 110 886 58 806 23 C 726 -11 641 -29 553 -29 Z M 604 764 C 676 764 745 779 809 809 C 873 839 921 873 954 913 C 943 1059 907 1164 846 1228 C 784 1291 706 1323 610 1323 C 517 1323 445 1297 394 1247 C 342 1196 317 1126 317 1036 C 317 996 321 960 331 927 C 341 893 357 865 380 841 C 402 817 432 798 469 784 C 505 770 550 764 604 764 Z" unicode="9" />
<glyph horiz-adv-x="584" d="M 152 819 L 152 1087 L 432 1087 L 432 819 L 152 819 Z M 152 0 L 152 266 L 432 266 L 432 0 L 152 0 Z" unicode=":" />
<glyph horiz-adv-x="584" d="M 184 -229 L 256 0 L 152 0 L 152 266 L 432 266 L 432 39 L 301 -229 L 184 -229 Z M 152 819 L 152 1087 L 432 1087 L 432 819 L 152 819 Z" unicode=";" />
<glyph horiz-adv-x="1315" d="M 1200 119 L 117 590 L 117 737 L 1200 1208 L 1200 995 L 391 664 L 1200 332 L 1200 119 Z" unicode="&#x3C;" />
<glyph horiz-adv-x="1315" d="M 139 809 L 139 995 L 1174 995 L 1174 809 L 139 809 Z M 139 342 L 139 528 L 1174 528 L 1174 342 L 139 342 Z" unicode="=" />
<glyph horiz-adv-x="1315" d="M 123 119 L 123 332 L 932 664 L 123 995 L 123 1208 L 1206 737 L 1206 590 L 123 119 Z" unicode="&#x3E;" />
<glyph horiz-adv-x="1171" d="M 434 449 C 431 473 429 496 429 520 C 428 543 428 567 428 592 C 428 667 445 730 480 781 C 514 832 564 875 629 911 C 661 930 690 948 715 964 C 739 980 760 997 776 1015 C 792 1033 804 1053 812 1075 C 819 1097 823 1123 823 1153 C 823 1205 802 1245 761 1275 C 720 1304 662 1319 588 1319 C 549 1319 512 1313 478 1303 C 443 1293 411 1279 381 1263 C 351 1247 323 1228 298 1207 C 272 1186 250 1165 231 1143 L 70 1288 C 100 1323 133 1356 169 1388 C 205 1420 245 1447 289 1470 C 333 1493 382 1511 436 1524 C 489 1537 547 1544 610 1544 C 686 1544 754 1534 812 1516 C 870 1498 918 1472 957 1440 C 996 1407 1025 1368 1045 1322 C 1065 1276 1075 1225 1075 1171 C 1075 1122 1068 1079 1055 1043 C 1042 1007 1024 974 1002 946 C 980 917 953 892 923 870 C 892 848 859 828 825 809 C 780 784 745 761 721 741 C 696 721 677 698 665 672 C 653 646 646 615 644 580 C 642 545 641 501 641 449 L 434 449 Z M 397 0 L 397 256 L 678 256 L 678 0 L 397 0 Z" unicode="?" />
<glyph horiz-adv-x="1778" d="M 877 -29 C 757 -29 650 -9 554 29 C 458 68 375 122 307 191 C 239 260 186 343 148 439 C 110 535 92 641 92 756 C 92 870 111 976 150 1072 C 189 1168 244 1252 315 1322 C 386 1392 470 1446 568 1485 C 666 1524 773 1544 891 1544 C 1008 1544 1115 1525 1213 1488 C 1311 1450 1394 1398 1464 1330 C 1534 1262 1588 1181 1627 1087 C 1666 993 1686 890 1686 778 C 1686 708 1677 645 1659 588 C 1641 530 1615 481 1583 441 C 1550 401 1510 370 1464 348 C 1418 326 1365 315 1307 315 C 1231 315 1172 328 1130 354 C 1088 380 1059 418 1044 469 C 1002 427 955 394 903 370 C 851 346 789 334 717 334 C 631 334 561 360 509 414 C 456 467 430 547 430 653 C 430 735 440 809 462 877 C 483 945 512 1003 548 1051 C 584 1099 627 1137 677 1164 C 727 1190 780 1204 838 1204 C 900 1204 950 1193 988 1173 C 1025 1153 1057 1128 1085 1098 L 1100 1188 L 1296 1188 L 1200 580 C 1193 533 1200 496 1222 470 C 1244 443 1281 430 1333 430 C 1399 430 1454 458 1498 516 C 1542 573 1565 658 1565 772 C 1565 869 1548 958 1515 1038 C 1482 1118 1436 1187 1377 1245 C 1317 1302 1246 1347 1164 1379 C 1081 1411 990 1427 891 1427 C 789 1427 698 1410 616 1377 C 534 1343 464 1297 404 1238 C 344 1178 299 1108 267 1026 C 235 944 219 854 219 756 C 219 657 234 566 266 483 C 297 399 342 328 400 269 C 458 209 528 163 610 130 C 692 96 783 80 883 80 C 961 80 1033 88 1097 106 C 1161 124 1223 150 1282 186 L 1337 98 C 1275 58 1205 27 1127 5 C 1049 -17 965 -29 877 -29 Z M 788 487 C 863 487 936 520 1006 588 L 1063 950 C 1035 981 1007 1004 977 1018 C 947 1032 911 1040 870 1040 C 832 1040 798 1029 768 1009 C 738 989 712 962 692 929 C 672 895 656 856 645 812 C 634 767 629 721 629 674 C 629 549 682 487 788 487 Z" unicode="@" />
<glyph horiz-adv-x="1427" d="M 51 0 L 588 1522 L 840 1522 L 1376 0 L 1114 0 L 991 360 L 416 360 L 291 0 L 51 0 Z M 494 586 L 915 586 L 709 1200 L 705 1200 L 494 586 Z" unicode="A" />
<glyph horiz-adv-x="1438" d="M 172 0 L 172 1516 L 745 1516 C 820 1516 890 1509 955 1496 C 1020 1483 1076 1461 1123 1431 C 1170 1401 1207 1362 1234 1314 C 1260 1266 1274 1208 1274 1139 C 1274 1033 1248 953 1197 897 C 1145 841 1082 805 1006 791 L 1006 786 C 1052 778 1094 764 1132 746 C 1170 728 1204 704 1232 675 C 1260 645 1281 609 1296 566 C 1311 523 1319 473 1319 416 C 1319 346 1305 285 1279 233 C 1252 181 1215 138 1167 103 C 1119 68 1063 42 997 25 C 931 8 860 0 782 0 L 172 0 Z M 424 221 L 756 221 C 865 221 944 238 993 274 C 1042 310 1067 366 1067 442 C 1067 524 1037 581 979 615 C 920 649 837 666 729 666 L 424 666 L 424 221 Z M 424 883 L 721 883 C 821 883 898 899 950 931 C 1002 963 1028 1016 1028 1090 C 1028 1163 1004 1215 956 1245 C 908 1275 831 1290 725 1290 L 424 1290 L 424 883 Z" unicode="B" />
<glyph horiz-adv-x="1468" d="M 764 -29 C 666 -29 577 -12 495 21 C 413 55 343 105 285 171 C 226 237 180 319 147 417 C 114 515 98 630 98 762 C 98 888 114 1000 148 1098 C 182 1196 228 1277 288 1343 C 347 1409 417 1459 499 1493 C 580 1527 668 1544 764 1544 C 851 1544 928 1532 994 1509 C 1060 1486 1117 1454 1164 1412 C 1211 1370 1250 1321 1281 1264 C 1311 1206 1335 1143 1352 1073 L 1108 1004 C 1092 1054 1075 1097 1057 1135 C 1039 1173 1016 1204 989 1230 C 961 1255 929 1274 893 1287 C 856 1300 812 1307 762 1307 C 633 1307 533 1259 462 1165 C 391 1071 356 937 356 764 C 356 582 392 444 464 348 C 536 252 637 205 766 205 C 864 205 942 230 1000 281 C 1058 332 1101 415 1130 530 L 1374 475 C 1355 399 1329 331 1296 269 C 1263 207 1222 154 1172 110 C 1122 66 1064 32 996 8 C 928 -16 851 -29 764 -29 Z" unicode="C" />
<glyph horiz-adv-x="1491" d="M 172 0 L 172 1516 L 604 1516 C 722 1516 830 1501 927 1473 C 1024 1444 1107 1399 1175 1338 C 1243 1277 1296 1199 1334 1105 C 1372 1010 1391 896 1391 764 C 1391 628 1371 512 1333 416 C 1295 320 1241 241 1172 179 C 1103 117 1020 71 924 43 C 828 14 721 0 604 0 L 172 0 Z M 428 229 L 627 229 C 800 229 928 270 1011 353 C 1093 435 1135 572 1135 764 C 1135 946 1093 1078 1010 1158 C 926 1238 797 1278 623 1278 L 428 1278 L 428 229 Z" unicode="D" />
<glyph horiz-adv-x="1272" d="M 172 0 L 172 1516 L 1151 1516 L 1151 1278 L 428 1278 L 428 901 L 958 901 L 958 674 L 428 674 L 428 233 L 1192 233 L 1192 0 L 172 0 Z" unicode="E" />
<glyph horiz-adv-x="1184" d="M 172 0 L 172 1516 L 1126 1516 L 1126 1278 L 428 1278 L 428 872 L 934 872 L 934 645 L 428 645 L 428 0 L 172 0 Z" unicode="F" />
<glyph horiz-adv-x="1526" d="M 745 -29 C 636 -29 541 -9 461 29 C 380 68 313 123 259 193 C 205 263 164 347 138 444 C 111 541 98 648 98 764 C 98 885 113 994 145 1090 C 177 1186 222 1268 281 1336 C 339 1404 409 1455 491 1491 C 573 1526 664 1544 766 1544 C 909 1544 1031 1507 1133 1434 C 1235 1361 1308 1239 1354 1067 L 1116 1004 C 1082 1117 1037 1196 982 1240 C 926 1284 854 1307 764 1307 C 718 1307 672 1299 624 1283 C 576 1267 532 1239 492 1198 C 452 1157 419 1102 394 1033 C 368 964 356 876 356 770 C 356 663 367 573 391 501 C 414 429 445 370 484 326 C 523 282 568 250 618 230 C 668 210 720 201 774 201 C 875 201 957 230 1021 288 C 1084 346 1120 431 1128 543 L 823 543 L 823 750 L 1374 750 L 1374 0 L 1163 0 L 1163 219 L 1159 219 C 1147 191 1129 163 1107 134 C 1084 104 1056 78 1022 54 C 988 30 948 10 902 -5 C 856 -21 804 -29 745 -29 Z" unicode="G" />
<glyph horiz-adv-x="1544" d="M 172 0 L 172 1516 L 428 1516 L 428 911 L 1116 911 L 1116 1516 L 1372 1516 L 1372 0 L 1116 0 L 1116 674 L 428 674 L 428 0 L 172 0 Z" unicode="H" />
<glyph horiz-adv-x="635" d="M 188 0 L 188 1516 L 446 1516 L 446 0 L 188 0 Z" unicode="I" />
<glyph horiz-adv-x="1065" d="M 449 -29 C 357 -29 278 -13 213 17 C 147 47 89 90 37 145 L 197 303 C 224 275 257 250 296 228 C 334 206 380 195 432 195 C 467 195 499 199 527 207 C 555 215 579 229 599 249 C 619 269 634 295 644 329 C 654 362 659 404 659 455 L 659 1516 L 915 1516 L 915 420 C 915 278 874 167 793 89 C 712 10 597 -29 449 -29 Z" unicode="J" />
<glyph horiz-adv-x="1430" d="M 172 0 L 172 1516 L 428 1516 L 428 811 L 1024 1516 L 1327 1516 L 811 932 L 1391 0 L 1098 0 L 643 735 L 428 498 L 428 0 L 172 0 Z" unicode="K" />
<glyph horiz-adv-x="1184" d="M 172 0 L 172 1516 L 428 1516 L 428 233 L 1126 233 L 1126 0 L 172 0 Z" unicode="L" />
<glyph horiz-adv-x="1829" d="M 172 0 L 172 1516 L 510 1516 L 915 313 L 920 313 L 1313 1516 L 1657 1516 L 1657 0 L 1409 0 L 1409 1130 L 1405 1130 C 1394 1078 1381 1027 1365 977 C 1349 926 1332 874 1315 821 L 1020 0 L 793 0 L 500 821 C 490 848 481 873 474 897 C 466 920 459 944 451 968 C 443 992 436 1017 430 1044 C 423 1071 416 1103 408 1141 L 403 1141 L 403 0 L 172 0 Z" unicode="M" />
<glyph horiz-adv-x="1563" d="M 172 0 L 172 1516 L 432 1516 L 1149 434 L 1153 434 L 1153 1516 L 1391 1516 L 1391 0 L 1157 0 L 414 1104 L 410 1104 L 410 0 L 172 0 Z" unicode="N" />
<glyph horiz-adv-x="1565" d="M 784 -29 C 687 -29 597 -11 514 22 C 430 56 358 107 297 173 C 235 239 187 321 151 419 C 115 517 98 630 98 758 C 98 884 115 997 151 1095 C 187 1193 235 1276 297 1342 C 358 1408 430 1459 514 1493 C 597 1527 687 1544 784 1544 C 880 1544 969 1527 1053 1493 C 1136 1459 1208 1408 1270 1342 C 1331 1276 1379 1193 1414 1095 C 1448 997 1466 884 1466 758 C 1466 630 1448 517 1414 419 C 1379 321 1331 239 1270 173 C 1208 107 1136 56 1053 22 C 969 -11 880 -29 784 -29 Z M 784 203 C 847 203 905 215 957 239 C 1009 263 1054 299 1091 347 C 1128 394 1157 452 1177 521 C 1197 590 1208 669 1208 758 C 1208 846 1197 925 1177 994 C 1157 1063 1128 1121 1091 1167 C 1054 1213 1009 1249 957 1273 C 905 1297 847 1309 784 1309 C 654 1309 551 1261 473 1167 C 395 1073 356 936 356 758 C 356 578 395 441 473 346 C 551 250 654 203 784 203 Z" unicode="O" />
<glyph horiz-adv-x="1358" d="M 172 0 L 172 1516 L 702 1516 C 784 1516 860 1508 931 1492 C 1002 1476 1064 1450 1117 1414 C 1169 1378 1211 1330 1241 1271 C 1271 1211 1286 1138 1286 1051 C 1286 959 1269 882 1237 822 C 1204 761 1161 712 1107 676 C 1053 639 990 613 918 598 C 846 582 772 575 694 575 L 426 575 L 426 0 L 172 0 Z M 426 799 L 707 799 C 820 799 903 817 955 855 C 1007 892 1034 954 1034 1042 C 1034 1126 1007 1187 955 1225 C 903 1263 819 1282 705 1282 L 426 1282 L 426 799 Z" unicode="P" />
<glyph horiz-adv-x="1565" d="M 1116 -395 C 1035 -395 965 -385 907 -366 C 848 -347 799 -321 759 -287 C 719 -253 689 -212 669 -165 C 649 -117 638 -66 637 -10 C 560 3 489 30 423 71 C 357 112 299 165 251 230 C 202 295 164 372 137 461 C 109 549 96 648 96 758 C 96 884 114 997 151 1095 C 188 1193 238 1276 301 1342 C 363 1408 436 1459 520 1493 C 603 1527 690 1544 782 1544 C 874 1544 960 1527 1042 1493 C 1124 1459 1196 1408 1259 1342 C 1322 1276 1372 1193 1409 1095 C 1445 997 1464 884 1464 758 C 1464 644 1449 542 1420 452 C 1390 362 1350 284 1300 219 C 1250 153 1190 101 1120 61 C 1050 21 976 -4 897 -16 C 905 -53 917 -82 935 -103 C 952 -124 974 -140 1000 -152 C 1026 -164 1058 -171 1094 -174 C 1130 -176 1173 -178 1221 -178 L 1325 -178 L 1325 -395 L 1116 -395 Z M 782 199 C 845 199 903 211 955 235 C 1007 259 1052 296 1089 344 C 1126 392 1155 450 1175 520 C 1195 590 1206 669 1206 758 C 1206 846 1195 925 1175 994 C 1155 1063 1126 1121 1089 1167 C 1052 1213 1007 1249 955 1273 C 903 1297 845 1309 782 1309 C 652 1309 549 1261 471 1167 C 393 1073 354 936 354 758 C 354 669 364 590 385 520 C 405 450 434 392 472 344 C 509 296 554 259 607 235 C 659 211 718 199 782 199 Z" unicode="Q" />
<glyph horiz-adv-x="1415" d="M 172 0 L 172 1516 L 715 1516 C 896 1516 1036 1479 1135 1405 C 1234 1331 1284 1216 1284 1061 C 1284 939 1254 844 1196 774 C 1137 704 1054 657 948 631 L 1305 0 L 1030 0 L 690 598 L 424 598 L 424 0 L 172 0 Z M 424 821 L 705 821 C 811 821 892 837 948 870 C 1004 903 1032 965 1032 1055 C 1032 1142 1004 1202 949 1234 C 893 1266 811 1282 702 1282 L 424 1282 L 424 821 Z" unicode="R" />
<glyph horiz-adv-x="1380" d="M 702 -29 C 552 -29 424 6 320 77 C 216 148 140 241 92 356 L 295 463 C 383 287 523 199 713 199 C 805 199 880 214 937 245 C 993 275 1022 325 1022 395 C 1022 427 1015 456 1003 481 C 991 505 971 528 944 549 C 916 569 881 588 837 606 C 793 624 740 642 678 662 C 604 683 535 705 471 728 C 407 750 351 778 303 812 C 255 845 217 886 190 935 C 163 983 150 1044 150 1116 C 150 1180 162 1238 187 1291 C 212 1343 247 1388 293 1426 C 339 1464 393 1493 457 1513 C 521 1533 591 1544 668 1544 C 742 1544 809 1535 869 1518 C 928 1501 981 1478 1028 1448 C 1074 1418 1115 1383 1149 1344 C 1183 1305 1211 1263 1235 1219 L 1049 1090 C 1003 1166 948 1221 884 1257 C 820 1293 747 1311 666 1311 C 581 1311 516 1296 470 1267 C 424 1237 401 1195 401 1139 C 401 1103 407 1072 421 1048 C 435 1024 456 1002 486 982 C 515 962 552 943 598 927 C 643 911 696 894 758 877 C 828 856 895 833 958 809 C 1021 784 1076 754 1123 720 C 1170 685 1207 643 1234 594 C 1260 544 1274 484 1274 414 C 1274 352 1261 295 1235 241 C 1209 187 1171 139 1123 99 C 1075 59 1015 27 944 5 C 873 -17 792 -29 702 -29 Z" unicode="S" />
<glyph horiz-adv-x="1300" d="M 522 0 L 522 1278 L 55 1278 L 55 1516 L 1245 1516 L 1245 1278 L 778 1278 L 778 0 L 522 0 Z" unicode="T" />
<glyph horiz-adv-x="1477" d="M 739 -25 C 634 -25 545 -11 471 17 C 397 45 336 84 288 135 C 240 185 206 246 184 317 C 162 388 152 467 152 553 L 152 1516 L 408 1516 L 408 575 C 408 459 434 368 486 304 C 538 239 623 207 741 207 C 857 207 941 238 994 302 C 1046 365 1073 455 1073 573 L 1073 1516 L 1325 1516 L 1325 555 C 1325 469 1312 390 1288 319 C 1263 248 1226 187 1178 136 C 1130 84 1069 45 996 17 C 923 -11 837 -25 739 -25 Z" unicode="U" />
<glyph horiz-adv-x="1397" d="M 578 -6 L 51 1516 L 311 1516 L 702 334 L 707 334 L 1104 1516 L 1346 1516 L 819 -6 L 578 -6 Z" unicode="V" />
<glyph horiz-adv-x="1933" d="M 463 0 L 59 1516 L 317 1516 L 510 731 C 524 669 538 610 552 554 C 566 497 578 439 590 379 L 594 379 C 604 437 616 495 629 552 C 642 608 656 667 672 729 L 854 1516 L 1100 1516 L 1288 725 C 1304 661 1319 603 1332 551 C 1345 499 1357 441 1368 379 L 1372 379 C 1377 411 1382 441 1388 469 C 1394 496 1400 523 1406 550 C 1412 576 1418 603 1425 630 C 1432 656 1439 686 1446 719 L 1634 1516 L 1874 1516 L 1475 0 L 1251 0 L 979 1161 L 975 1161 L 688 0 L 463 0 Z" unicode="W" />
<glyph horiz-adv-x="1427" d="M 66 0 L 569 805 L 119 1516 L 412 1516 L 727 1008 L 1032 1516 L 1298 1516 L 856 805 L 1362 0 L 1079 0 L 705 600 L 334 0 L 66 0 Z" unicode="X" />
<glyph horiz-adv-x="1354" d="M 547 0 L 547 653 L 31 1516 L 301 1516 L 680 870 L 1057 1516 L 1323 1516 L 805 653 L 805 0 L 547 0 Z" unicode="Y" />
<glyph horiz-adv-x="1321" d="M 72 0 L 72 178 L 909 1300 L 127 1300 L 127 1516 L 1231 1516 L 1231 1331 L 403 209 L 1231 209 L 1231 0 L 72 0 Z" unicode="Z" />
<glyph horiz-adv-x="862" d="M 158 -410 L 158 1516 L 788 1516 L 788 1335 L 412 1335 L 412 -229 L 788 -229 L 788 -410 L 158 -410 Z" unicode="[" />
<glyph horiz-adv-x="1194" d="M 907 0 L 27 1516 L 287 1516 L 1167 0 L 907 0 Z" unicode="\" />
<glyph horiz-adv-x="862" d="M 74 -410 L 74 -229 L 451 -229 L 451 1333 L 74 1333 L 74 1516 L 705 1516 L 705 -410 L 74 -410 Z" unicode="]" />
<glyph horiz-adv-x="1315" d="M 588 1516 L 735 1516 L 1206 678 L 993 678 L 662 1260 L 330 678 L 117 678 L 588 1516 Z" unicode="^" />
<glyph horiz-adv-x="1024" d="M 0 -297 L 0 -115 L 1024 -115 L 1024 -297 L 0 -297 Z" unicode="_" />
<glyph horiz-adv-x="1024" d="M 240 1542 L 512 1542 L 705 1202 L 539 1202 L 240 1542 Z" unicode="`" />
<glyph horiz-adv-x="1157" d="M 379 -16 C 335 -16 294 -10 257 2 C 219 14 187 31 160 55 C 132 78 111 107 95 142 C 79 177 72 217 72 262 C 72 320 85 374 111 424 C 137 473 178 516 236 554 C 293 591 366 623 456 650 C 545 676 653 697 780 713 L 780 745 C 780 799 765 839 737 864 C 708 888 663 901 602 901 C 525 901 456 885 396 855 C 335 824 282 790 236 754 L 113 911 C 171 964 245 1010 334 1049 C 422 1088 523 1108 637 1108 C 709 1108 770 1099 820 1082 C 870 1065 910 1040 941 1006 C 971 972 993 931 1007 882 C 1021 833 1028 777 1028 715 L 1028 266 C 1028 200 1030 146 1035 104 C 1039 62 1047 27 1059 0 L 805 0 C 798 23 792 44 787 63 C 782 82 780 107 780 139 C 724 81 663 41 599 18 C 534 -4 461 -16 379 -16 Z M 471 178 C 536 178 594 189 645 212 C 695 234 740 265 780 303 L 780 543 C 628 522 514 493 436 455 C 358 417 319 369 319 309 C 319 265 332 233 360 211 C 387 189 424 178 471 178 Z" unicode="a" />
<glyph horiz-adv-x="1251" d="M 705 -16 C 645 -16 588 -4 534 18 C 480 41 433 75 393 121 L 393 0 L 141 0 L 141 1516 L 393 1516 L 393 944 C 428 988 474 1026 531 1059 C 587 1091 657 1108 739 1108 C 800 1108 857 1096 910 1073 C 962 1049 1008 1014 1046 967 C 1084 920 1114 861 1136 791 C 1158 721 1169 639 1169 545 C 1169 450 1157 368 1135 298 C 1113 228 1081 169 1041 123 C 1001 76 952 41 895 18 C 837 -4 774 -16 705 -16 Z M 649 184 C 745 184 813 213 855 272 C 897 330 918 421 918 543 C 918 659 895 746 849 805 C 803 863 739 893 657 893 C 605 893 556 879 509 851 C 461 823 423 791 393 756 L 393 319 C 427 275 467 242 513 219 C 559 195 604 184 649 184 Z" unicode="b" />
<glyph horiz-adv-x="1116" d="M 588 -23 C 525 -23 463 -12 402 10 C 341 32 287 65 239 111 C 191 157 153 215 124 286 C 94 357 80 443 80 543 C 80 646 95 733 127 805 C 158 877 199 935 250 981 C 300 1026 357 1058 419 1078 C 481 1098 542 1108 602 1108 C 668 1108 727 1099 777 1082 C 827 1065 869 1042 904 1013 C 938 983 968 949 992 911 C 1016 873 1036 833 1053 791 L 840 715 C 797 836 716 897 598 897 C 562 897 529 890 497 878 C 465 866 437 846 413 818 C 389 790 369 753 355 708 C 341 663 334 608 334 543 C 334 427 356 338 401 276 C 446 214 510 184 594 184 C 651 184 700 196 741 221 C 782 245 818 296 848 373 L 1057 297 C 1037 253 1014 211 988 173 C 961 134 929 100 892 72 C 854 43 811 20 761 3 C 711 -14 653 -23 588 -23 Z" unicode="c" />
<glyph horiz-adv-x="1251" d="M 512 -16 C 450 -16 393 -4 341 17 C 288 39 242 74 204 120 C 166 166 136 224 114 294 C 92 364 82 446 82 541 C 82 635 93 717 116 788 C 138 859 170 918 210 965 C 250 1012 298 1048 356 1072 C 413 1096 477 1108 547 1108 C 605 1108 662 1096 717 1073 C 771 1049 818 1015 858 971 L 858 1516 L 1110 1516 L 1110 266 C 1110 200 1112 146 1117 104 C 1121 62 1130 27 1143 0 L 883 0 C 875 15 869 36 865 64 C 860 92 858 119 858 147 C 818 101 771 62 717 31 C 662 0 594 -16 512 -16 Z M 594 190 C 646 190 695 204 742 232 C 789 260 828 292 858 328 L 858 764 C 824 807 784 840 738 864 C 692 887 647 899 602 899 C 506 899 438 868 396 808 C 354 747 334 656 334 535 C 334 418 356 331 402 275 C 448 218 512 190 594 190 Z" unicode="d" />
<glyph horiz-adv-x="1155" d="M 604 -23 C 536 -23 470 -12 407 9 C 344 30 288 63 240 109 C 192 155 153 213 124 285 C 94 357 80 443 80 543 C 80 646 96 733 129 805 C 161 877 203 935 254 981 C 304 1026 360 1058 422 1078 C 483 1098 542 1108 598 1108 C 659 1108 718 1098 776 1078 C 833 1058 884 1026 928 980 C 972 934 1008 873 1035 798 C 1061 723 1075 630 1075 520 L 1075 461 L 332 461 C 337 362 367 290 421 245 C 475 200 542 178 623 178 C 693 178 751 189 797 212 C 843 234 886 265 928 305 L 1061 174 C 1003 111 937 62 863 28 C 789 -5 702 -23 604 -23 Z M 844 649 C 828 818 746 903 596 903 C 564 903 535 898 507 890 C 479 881 453 866 429 846 C 405 825 384 799 368 767 C 352 735 341 695 336 649 L 844 649 Z" unicode="e" />
<glyph horiz-adv-x="766" d="M 236 0 L 236 887 L 47 887 L 47 1087 L 236 1087 L 236 1198 C 236 1243 241 1285 252 1325 C 262 1364 281 1398 308 1428 C 334 1458 370 1481 415 1497 C 460 1513 518 1522 588 1522 C 600 1522 613 1521 628 1521 C 643 1520 658 1519 672 1518 C 686 1516 700 1515 712 1513 C 724 1511 733 1511 737 1511 L 737 1317 C 729 1319 716 1321 699 1323 C 682 1324 666 1325 651 1325 C 627 1325 606 1323 586 1319 C 566 1315 549 1307 535 1297 C 521 1287 509 1272 500 1254 C 491 1236 487 1212 487 1184 L 487 1087 L 725 1087 L 725 887 L 487 887 L 487 0 L 236 0 Z" unicode="f" />
<glyph horiz-adv-x="1202" d="M 551 -422 C 457 -422 376 -415 310 -402 C 244 -389 190 -371 148 -348 C 106 -324 76 -296 56 -264 C 36 -231 27 -195 27 -156 C 27 -101 42 -54 74 -16 C 105 21 149 52 205 74 C 149 102 121 147 121 207 C 121 247 135 284 164 318 C 192 352 227 381 268 406 C 212 441 169 485 140 538 C 110 591 96 651 96 719 C 96 775 106 826 128 873 C 149 920 179 961 218 996 C 256 1031 304 1058 361 1078 C 417 1098 481 1108 553 1108 C 628 1108 693 1097 748 1075 C 803 1053 849 1025 887 993 C 922 1020 965 1044 1015 1064 C 1065 1084 1112 1096 1157 1100 L 1157 895 C 1132 895 1103 893 1070 889 C 1036 885 1002 877 967 866 C 993 825 1006 776 1006 719 C 1006 661 995 609 975 562 C 954 515 924 474 885 440 C 846 406 799 379 743 360 C 687 341 623 332 553 332 C 521 332 495 334 474 338 C 452 342 428 347 401 354 C 385 344 371 334 361 323 C 351 312 346 299 346 285 C 346 263 354 247 372 238 C 390 229 423 223 471 219 L 664 207 C 744 201 812 192 869 178 C 925 164 972 146 1008 122 C 1044 98 1071 68 1087 34 C 1103 0 1112 -42 1112 -90 C 1112 -146 1098 -194 1071 -236 C 1043 -278 1005 -312 956 -340 C 907 -367 848 -387 779 -401 C 710 -415 634 -422 551 -422 Z M 557 506 C 627 506 681 523 719 558 C 757 592 776 643 776 711 C 776 779 757 830 720 866 C 682 902 627 920 555 920 C 485 920 431 901 392 865 C 353 829 334 777 334 711 C 334 643 353 592 393 558 C 433 523 487 506 557 506 Z M 590 -240 C 682 -240 755 -228 809 -206 C 862 -183 889 -152 889 -113 C 889 -93 884 -77 876 -63 C 868 -49 853 -38 833 -28 C 813 -18 784 -11 748 -6 C 712 0 666 4 612 8 L 424 20 C 402 20 380 22 358 27 C 322 10 297 -10 281 -35 C 265 -59 258 -85 258 -113 C 258 -160 285 -193 341 -212 C 396 -230 479 -240 590 -240 Z" unicode="g" />
<glyph horiz-adv-x="1235" d="M 141 0 L 141 1516 L 395 1516 L 395 940 C 413 958 434 976 460 996 C 485 1016 514 1034 547 1050 C 579 1066 616 1080 657 1091 C 698 1102 743 1108 793 1108 C 888 1108 964 1080 1021 1025 C 1077 969 1106 888 1106 780 L 1106 0 L 852 0 L 852 717 C 852 834 798 893 690 893 C 634 893 582 880 535 854 C 488 828 441 794 395 752 L 395 0 L 141 0 Z" unicode="h" />
<glyph horiz-adv-x="557" d="M 152 0 L 152 1087 L 406 1087 L 406 0 L 152 0 Z M 150 1276 L 150 1495 L 408 1495 L 408 1276 L 150 1276 Z" unicode="i" />
<glyph horiz-adv-x="557" d="M 102 -414 C 90 -414 76 -413 60 -413 C 44 -412 29 -411 14 -410 C 0 -408 -14 -407 -26 -405 C -38 -403 -47 -402 -51 -401 L -51 -225 C -41 -227 -29 -229 -14 -231 C 0 -232 15 -233 31 -233 C 70 -233 100 -222 121 -201 C 141 -180 152 -145 152 -96 L 152 1087 L 406 1087 L 406 -135 C 406 -171 401 -207 393 -241 C 385 -275 370 -305 348 -331 C 326 -356 295 -376 256 -391 C 216 -406 165 -414 102 -414 Z M 150 1276 L 150 1495 L 408 1495 L 408 1276 L 150 1276 Z" unicode="j" />
<glyph horiz-adv-x="1153" d="M 141 0 L 141 1516 L 393 1516 L 393 612 L 805 1087 L 1081 1087 L 727 690 L 1112 0 L 848 0 L 567 504 L 393 313 L 393 0 L 141 0 Z" unicode="k" />
<glyph horiz-adv-x="557" d="M 152 0 L 152 1516 L 406 1516 L 406 0 L 152 0 Z" unicode="l" />
<glyph horiz-adv-x="1892" d="M 141 0 L 141 1087 L 393 1087 L 393 938 C 435 984 487 1024 549 1058 C 610 1091 682 1108 766 1108 C 811 1108 850 1103 883 1094 C 915 1085 943 1073 966 1058 C 989 1043 1008 1024 1024 1002 C 1039 980 1052 956 1063 930 C 1106 977 1159 1018 1223 1054 C 1287 1090 1360 1108 1444 1108 C 1554 1108 1635 1078 1685 1018 C 1735 958 1761 878 1761 780 L 1761 0 L 1509 0 L 1509 717 C 1509 778 1498 823 1477 851 C 1456 879 1416 893 1356 893 C 1304 893 1256 880 1213 854 C 1170 828 1125 794 1077 752 L 1077 0 L 825 0 L 825 717 C 825 778 814 823 793 851 C 772 879 732 893 672 893 C 621 893 574 880 530 854 C 486 828 441 794 393 752 L 393 0 L 141 0 Z" unicode="m" />
<glyph horiz-adv-x="1235" d="M 143 0 L 143 1087 L 395 1087 L 395 913 C 415 936 439 959 465 983 C 491 1006 520 1027 553 1045 C 585 1063 621 1078 659 1090 C 697 1102 739 1108 784 1108 C 884 1108 962 1082 1020 1030 C 1077 978 1106 898 1106 791 L 1106 0 L 854 0 L 854 719 C 854 779 841 824 815 854 C 789 884 747 899 690 899 C 634 899 582 886 535 861 C 488 835 441 801 395 758 L 395 0 L 143 0 Z" unicode="n" />
<glyph horiz-adv-x="1221" d="M 610 -23 C 544 -23 480 -12 417 10 C 353 32 297 65 247 111 C 197 157 156 215 126 286 C 95 357 80 443 80 543 C 80 642 95 727 125 799 C 155 871 194 929 244 975 C 294 1021 350 1054 414 1076 C 478 1097 543 1108 610 1108 C 676 1108 740 1097 804 1076 C 867 1054 924 1021 974 975 C 1024 929 1064 871 1095 799 C 1125 727 1141 642 1141 543 C 1141 443 1125 357 1095 286 C 1064 215 1024 157 974 111 C 924 65 867 32 804 10 C 740 -12 676 -23 610 -23 Z M 610 188 C 702 188 771 219 817 281 C 863 343 887 431 887 543 C 887 593 881 639 870 683 C 859 726 842 763 820 794 C 797 824 768 848 734 866 C 699 884 658 893 610 893 C 518 893 449 862 403 801 C 357 739 334 653 334 543 C 334 491 339 443 350 400 C 361 357 378 320 400 289 C 422 257 451 233 486 215 C 521 197 562 188 610 188 Z" unicode="o" />
<glyph horiz-adv-x="1251" d="M 141 -410 L 141 1087 L 393 1087 L 393 944 C 428 988 474 1026 531 1059 C 587 1091 657 1108 739 1108 C 800 1108 857 1096 910 1073 C 962 1049 1008 1014 1046 967 C 1084 920 1114 861 1136 791 C 1158 721 1169 639 1169 545 C 1169 450 1157 368 1135 298 C 1113 228 1081 169 1041 123 C 1001 76 952 41 895 18 C 837 -4 774 -16 705 -16 C 645 -16 588 -4 534 18 C 480 41 433 75 393 121 L 393 -410 L 141 -410 Z M 649 184 C 745 184 813 213 855 272 C 897 330 918 421 918 543 C 918 659 895 746 849 805 C 803 863 739 893 657 893 C 605 893 556 879 509 851 C 461 823 423 791 393 756 L 393 319 C 427 275 467 242 513 219 C 559 195 604 184 649 184 Z" unicode="p" />
<glyph horiz-adv-x="1251" d="M 858 -410 L 858 147 C 818 101 771 62 717 31 C 662 0 594 -16 512 -16 C 450 -16 393 -4 341 17 C 288 39 242 74 204 120 C 166 166 136 224 114 294 C 92 364 82 446 82 541 C 82 635 93 717 116 788 C 138 859 170 918 210 965 C 250 1012 298 1048 356 1072 C 413 1096 477 1108 547 1108 C 605 1108 662 1096 717 1073 C 771 1049 818 1015 858 971 L 858 1087 L 1110 1087 L 1110 -410 L 858 -410 Z M 594 190 C 646 190 695 204 742 232 C 789 260 828 292 858 328 L 858 764 C 824 807 784 840 738 864 C 692 887 647 899 602 899 C 506 899 438 868 396 808 C 354 747 334 656 334 535 C 334 418 356 331 402 275 C 448 218 512 190 594 190 Z" unicode="q" />
<glyph horiz-adv-x="844" d="M 141 0 L 141 1087 L 393 1087 L 393 909 L 397 909 C 431 963 479 1010 541 1049 C 602 1088 684 1108 788 1108 L 805 1108 L 797 877 C 789 878 778 879 762 880 C 746 880 735 881 729 881 C 647 881 579 863 526 828 C 472 793 428 746 393 688 L 393 0 L 141 0 Z" unicode="r" />
<glyph horiz-adv-x="1071" d="M 539 -23 C 437 -23 344 -6 260 25 C 175 57 108 99 59 150 L 197 303 C 237 267 287 237 346 212 C 404 186 469 174 539 174 C 607 174 660 183 698 202 C 736 221 756 253 756 299 C 756 321 749 339 736 354 C 723 369 706 382 684 393 C 662 404 636 413 607 421 C 577 428 546 436 514 444 C 467 455 419 467 371 481 C 323 495 279 514 239 538 C 199 562 167 594 142 634 C 116 674 104 725 104 788 C 104 836 114 879 134 918 C 154 957 181 991 217 1019 C 252 1047 294 1068 344 1084 C 393 1100 448 1108 508 1108 C 612 1108 698 1094 767 1066 C 835 1038 898 1000 954 954 L 834 791 C 813 807 790 822 765 836 C 739 850 713 863 686 874 C 658 885 631 894 604 900 C 576 906 550 909 526 909 C 456 909 408 898 382 877 C 355 856 342 830 342 799 C 342 777 348 758 361 743 C 374 728 391 715 412 704 C 433 693 458 684 487 677 C 515 669 546 662 580 655 C 626 644 673 632 723 619 C 772 606 816 588 856 564 C 895 540 928 508 954 468 C 980 428 993 376 993 313 C 993 255 981 205 957 163 C 933 121 901 86 859 59 C 817 31 769 11 714 -2 C 658 -16 600 -23 539 -23 Z" unicode="s" />
<glyph horiz-adv-x="825" d="M 563 -14 C 493 -14 437 -7 393 5 C 349 18 315 37 291 61 C 266 85 249 116 240 154 C 231 192 227 235 227 285 L 227 887 L 39 887 L 39 1087 L 227 1087 L 227 1466 L 479 1466 L 479 1087 L 760 1087 L 760 887 L 479 887 L 479 348 C 479 289 490 247 512 222 C 534 196 576 184 639 184 C 658 184 678 185 698 188 C 718 191 735 195 748 199 L 748 0 C 740 -1 729 -3 715 -5 C 701 -7 685 -8 668 -10 C 651 -11 633 -12 615 -13 C 597 -13 579 -14 563 -14 Z" unicode="t" />
<glyph horiz-adv-x="1235" d="M 442 -20 C 346 -20 270 7 214 62 C 157 117 129 199 129 307 L 129 1087 L 383 1087 L 383 367 C 383 249 437 190 545 190 C 601 190 652 203 699 229 C 746 255 793 289 840 332 L 840 1087 L 1094 1087 L 1094 0 L 840 0 L 840 147 C 822 128 800 109 775 89 C 749 69 720 50 688 34 C 655 18 618 5 577 -5 C 536 -15 491 -20 442 -20 Z" unicode="u" />
<glyph horiz-adv-x="1079" d="M 412 -2 L 18 1087 L 283 1087 L 549 285 L 553 285 L 817 1087 L 1061 1087 L 668 -2 L 412 -2 Z" unicode="v" />
<glyph horiz-adv-x="1563" d="M 348 0 L 25 1087 L 281 1087 L 399 637 C 407 605 415 576 422 550 C 428 523 435 496 441 470 C 447 443 454 415 461 386 C 467 356 474 325 481 291 L 485 291 C 493 327 501 360 508 390 C 514 419 521 447 527 474 C 533 500 540 527 548 554 C 555 580 563 609 571 641 L 686 1087 L 891 1087 L 1012 633 C 1020 603 1027 574 1035 548 C 1043 521 1050 494 1056 468 C 1062 441 1068 413 1074 385 C 1080 356 1087 325 1096 291 L 1100 291 C 1108 326 1115 358 1122 387 C 1129 415 1136 443 1142 469 C 1148 495 1154 520 1162 546 C 1170 571 1178 599 1186 629 L 1309 1087 L 1538 1087 L 1214 0 L 979 0 L 782 756 L 778 756 L 582 0 L 348 0 Z" unicode="w" />
<glyph horiz-adv-x="1092" d="M 39 0 L 418 561 L 66 1087 L 334 1087 L 561 739 L 780 1087 L 1040 1087 L 684 561 L 1061 0 L 793 0 L 543 381 L 297 0 L 39 0 Z" unicode="x" />
<glyph horiz-adv-x="1120" d="M 256 -422 C 190 -422 138 -418 98 -410 C 58 -402 25 -395 -2 -389 L 55 -186 C 70 -190 94 -195 126 -201 C 158 -206 196 -209 240 -209 C 284 -209 320 -199 346 -180 C 372 -161 394 -130 412 -86 L 442 -6 L 25 1087 L 287 1087 L 567 295 L 571 295 L 850 1087 L 1100 1087 L 637 -119 C 619 -166 599 -208 577 -246 C 555 -284 530 -316 500 -342 C 470 -368 435 -387 395 -401 C 355 -415 309 -422 256 -422 Z" unicode="y" />
<glyph horiz-adv-x="1065" d="M 70 0 L 70 145 L 649 887 L 113 887 L 113 1087 L 965 1087 L 965 936 L 383 195 L 999 195 L 999 0 L 70 0 Z" unicode="z" />
<glyph horiz-adv-x="852" d="M 567 -410 C 473 -410 402 -383 356 -331 C 310 -278 287 -207 287 -117 L 287 217 C 287 267 282 308 272 340 C 262 371 248 396 230 414 C 212 432 188 445 160 452 C 131 459 97 463 59 463 L 59 643 C 97 643 131 646 160 653 C 188 660 212 673 230 691 C 248 709 262 734 272 766 C 282 797 287 838 287 889 L 287 1223 C 287 1313 310 1384 356 1437 C 402 1489 473 1516 567 1516 L 791 1516 L 791 1335 L 700 1335 C 644 1335 603 1321 578 1294 C 553 1266 541 1227 541 1176 L 541 860 C 541 809 537 767 529 733 C 521 699 510 670 495 646 C 480 622 462 603 440 589 C 418 575 394 564 367 555 L 367 551 C 394 541 418 530 440 516 C 462 502 480 484 495 460 C 510 436 521 407 529 373 C 537 339 541 296 541 246 L 541 -70 C 541 -121 553 -160 578 -188 C 603 -215 644 -229 700 -229 L 791 -229 L 791 -410 L 567 -410 Z" unicode="{" />
<glyph horiz-adv-x="772" d="M 262 -410 L 262 1516 L 510 1516 L 510 -410 L 262 -410 Z" unicode="|" />
<glyph horiz-adv-x="852" d="M 61 -410 L 61 -229 L 152 -229 C 208 -229 248 -215 273 -188 C 298 -160 311 -121 311 -70 L 311 266 C 311 316 314 358 322 390 C 330 422 341 448 356 470 C 371 491 389 507 411 519 C 433 531 457 541 485 551 L 485 555 C 457 564 433 574 411 586 C 389 598 371 614 356 636 C 341 657 330 684 322 716 C 314 748 311 789 311 840 L 311 1176 C 311 1227 299 1267 275 1296 C 251 1324 212 1339 156 1339 L 66 1339 L 61 1516 L 305 1516 C 399 1516 465 1493 505 1447 C 545 1401 565 1333 565 1243 L 565 889 C 565 838 569 797 579 766 C 589 734 603 709 621 691 C 639 673 663 660 692 653 C 720 646 754 643 793 643 L 793 463 C 754 463 720 459 692 452 C 663 445 639 432 621 414 C 603 396 589 371 579 340 C 569 308 565 267 565 217 L 565 -137 C 565 -227 545 -295 505 -341 C 465 -387 399 -410 305 -410 L 61 -410 Z" unicode="}" />
<glyph horiz-adv-x="1315" d="M 934 537 C 894 538 847 546 794 560 C 741 574 688 590 635 606 C 581 622 532 638 486 652 C 440 666 405 674 381 676 C 353 678 331 673 314 660 C 297 647 287 622 283 584 L 129 606 C 139 704 167 775 213 817 C 258 859 314 879 381 877 C 421 875 469 866 523 852 C 577 838 630 822 682 805 C 734 788 782 772 828 758 C 874 744 909 736 934 735 C 961 733 983 739 1001 752 C 1019 765 1030 791 1034 831 L 1186 813 C 1174 713 1146 642 1101 598 C 1056 554 1000 533 934 537 Z" unicode="~" />
<glyph horiz-adv-x="1038" d="M 520 -426 C 454 -426 397 -414 347 -391 C 297 -367 255 -334 222 -290 C 188 -246 163 -194 145 -134 C 127 -73 119 -4 119 72 C 119 146 127 214 145 276 C 163 338 188 391 222 435 C 255 479 297 513 347 537 C 397 561 454 573 520 573 C 584 573 641 561 691 537 C 741 513 783 479 817 435 C 851 391 877 338 895 276 C 913 214 922 146 922 72 C 922 -4 913 -73 895 -134 C 877 -194 851 -246 817 -290 C 783 -334 741 -367 691 -391 C 641 -414 584 -426 520 -426 Z M 520 -262 C 587 -262 636 -233 668 -177 C 699 -120 715 -37 715 72 C 715 178 698 260 666 318 C 634 376 585 406 520 406 C 452 406 402 376 371 318 C 339 260 324 178 324 72 C 324 -37 340 -120 373 -177 C 405 -233 454 -262 520 -262 Z" unicode="₀" />
<glyph horiz-adv-x="756" d="M 135 -244 L 309 -244 L 309 381 C 285 370 258 361 228 353 C 197 345 167 342 137 342 L 137 494 C 219 496 279 517 317 555 L 516 555 L 516 -244 L 672 -244 L 672 -410 L 135 -410 L 135 -244 Z" unicode="₁" />
<glyph horiz-adv-x="952" d="M 125 -358 C 125 -324 128 -289 135 -255 C 141 -220 155 -185 177 -149 C 198 -113 228 -77 267 -41 C 306 -4 358 34 422 74 C 457 95 487 114 512 132 C 536 149 556 165 570 180 C 584 195 595 211 601 227 C 607 243 610 263 610 285 C 610 320 599 348 578 369 C 557 390 526 401 485 401 C 447 401 409 389 373 365 C 337 341 304 302 274 246 L 129 344 C 173 422 224 480 282 518 C 340 556 410 575 492 575 C 596 575 676 548 730 496 C 784 444 811 375 811 289 C 811 260 807 232 799 204 C 791 176 778 148 759 122 C 740 95 715 68 684 42 C 652 15 612 -11 563 -39 C 495 -78 446 -114 416 -147 C 386 -180 367 -210 360 -238 L 815 -238 L 815 -408 L 125 -408 L 125 -358 Z" unicode="₂" />
<glyph horiz-adv-x="952" d="M 471 -424 C 393 -424 321 -407 257 -374 C 192 -340 139 -291 98 -225 L 227 -117 C 263 -169 300 -204 340 -224 C 379 -244 418 -254 457 -254 C 514 -254 556 -241 583 -216 C 609 -190 623 -158 623 -119 C 623 -69 606 -33 572 -9 C 538 15 481 27 399 27 L 330 27 L 330 174 L 403 174 C 478 174 530 184 560 206 C 589 227 604 257 604 297 C 604 328 593 353 572 373 C 551 393 517 403 471 403 C 435 403 399 394 362 378 C 325 362 288 335 252 297 L 135 420 C 235 523 352 575 487 575 C 595 575 675 550 729 502 C 782 454 809 392 809 317 C 809 271 797 229 773 191 C 749 153 710 126 657 109 C 721 89 767 59 795 19 C 822 -20 836 -68 836 -123 C 836 -217 802 -290 736 -344 C 670 -397 581 -424 471 -424 Z" unicode="₃" />
<glyph horiz-adv-x="969" d="M 539 -197 L 100 -197 L 100 -68 L 528 555 L 741 555 L 741 -35 L 895 -35 L 895 -197 L 741 -197 L 741 -410 L 539 -410 L 539 -197 Z M 549 -45 L 549 324 L 301 -45 L 549 -45 Z" unicode="₄" />
<glyph horiz-adv-x="924" d="M 444 -426 C 360 -426 291 -412 235 -385 C 179 -357 130 -320 88 -274 L 188 -147 C 220 -183 258 -211 302 -233 C 346 -255 392 -266 440 -266 C 503 -266 550 -249 581 -215 C 611 -181 627 -138 627 -86 C 627 -28 611 14 581 44 C 550 73 510 88 461 88 C 424 88 392 80 366 65 C 339 50 313 27 287 -4 L 141 43 L 178 555 L 764 555 L 752 391 L 336 391 L 319 166 C 337 185 361 201 393 214 C 424 226 465 233 516 233 C 561 233 602 226 640 213 C 677 199 710 179 738 153 C 766 126 787 93 803 53 C 819 13 827 -32 827 -86 C 827 -142 817 -191 799 -233 C 781 -275 755 -311 721 -340 C 687 -368 646 -390 600 -404 C 553 -418 501 -426 444 -426 Z" unicode="₅" />
<glyph horiz-adv-x="975" d="M 512 -426 C 388 -426 291 -386 222 -306 C 153 -226 119 -104 119 59 C 119 148 129 225 150 290 C 171 354 201 407 239 449 C 277 491 322 522 374 542 C 425 562 481 573 543 573 C 612 573 671 563 721 545 C 770 527 810 505 840 481 L 752 338 C 720 361 688 378 655 390 C 622 402 584 408 541 408 C 468 408 414 384 379 338 C 343 291 323 217 319 115 C 352 143 387 167 425 185 C 462 203 511 213 571 213 C 665 213 741 187 797 136 C 853 84 881 8 881 -94 C 881 -192 849 -272 785 -334 C 721 -395 630 -426 512 -426 Z M 514 -270 C 568 -270 610 -255 640 -225 C 669 -195 684 -154 684 -102 C 684 -50 671 -10 645 18 C 619 46 576 61 518 61 C 474 61 437 52 406 35 C 375 18 347 -4 322 -33 C 328 -111 349 -170 383 -210 C 417 -250 460 -270 514 -270 Z" unicode="₆" />
<glyph horiz-adv-x="852" d="M 545 385 L 92 385 L 92 555 L 762 555 L 762 401 L 391 -410 L 178 -410 L 545 385 Z" unicode="₇" />
<glyph horiz-adv-x="958" d="M 479 -426 C 355 -426 259 -402 193 -354 C 127 -306 94 -243 94 -164 C 94 -101 114 -49 155 -7 C 196 34 248 68 311 96 C 256 123 214 154 184 188 C 154 222 139 269 139 328 C 139 359 146 389 160 419 C 174 448 196 474 224 497 C 252 520 287 538 329 552 C 371 566 421 573 479 573 C 537 573 588 566 630 552 C 672 538 708 520 736 497 C 764 474 784 448 798 419 C 812 389 819 359 819 328 C 819 276 803 231 772 194 C 740 157 697 126 643 102 C 708 72 761 38 802 0 C 843 -38 864 -92 864 -164 C 864 -242 831 -305 765 -353 C 699 -401 603 -426 479 -426 Z M 477 -289 C 537 -289 583 -276 615 -252 C 647 -227 664 -194 664 -154 C 664 -114 646 -79 610 -51 C 574 -22 524 5 459 33 C 401 7 359 -20 331 -50 C 303 -79 289 -114 289 -154 C 289 -194 305 -227 338 -252 C 370 -276 417 -289 477 -289 Z M 496 162 C 540 184 574 205 597 226 C 619 247 631 275 631 309 C 631 339 619 366 596 391 C 572 415 535 428 483 428 C 433 428 395 416 370 393 C 344 369 332 343 332 313 C 332 276 344 247 370 227 C 395 207 437 185 496 162 Z" unicode="₈" />
<glyph horiz-adv-x="975" d="M 432 -426 C 362 -426 303 -417 253 -399 C 203 -381 163 -360 133 -336 L 221 -197 C 252 -219 284 -236 318 -247 C 352 -258 390 -264 432 -264 C 504 -264 559 -241 595 -195 C 631 -149 650 -75 653 27 C 620 0 585 -23 549 -43 C 512 -62 463 -72 403 -72 C 309 -72 234 -45 178 8 C 122 61 94 138 94 240 C 94 338 125 418 188 480 C 251 542 343 573 463 573 C 585 573 681 533 751 453 C 821 373 856 252 856 88 C 856 0 844 -77 821 -142 C 797 -207 766 -261 728 -303 C 689 -345 644 -376 593 -396 C 541 -416 488 -426 432 -426 Z M 455 80 C 498 80 535 88 566 106 C 596 124 625 146 651 174 C 644 253 624 313 591 353 C 557 393 514 414 461 414 C 405 414 362 399 333 369 C 303 339 289 298 289 246 C 289 194 302 153 328 124 C 354 94 396 80 455 80 Z" unicode="₉" />
<glyph horiz-adv-x="514" d="" unicode=" " />
<glyph horiz-adv-x="694" d="M 184 0 L 252 1063 L 432 1063 L 500 0 L 184 0 Z M 201 1260 L 201 1516 L 483 1516 L 483 1260 L 201 1260 Z" unicode="¡" />
<glyph horiz-adv-x="1124" d="M 348 35 C 271 75 207 138 156 222 C 105 306 80 413 80 543 C 80 643 95 729 127 801 C 158 873 199 931 250 976 C 300 1021 357 1054 419 1076 C 481 1097 542 1108 602 1108 L 629 1108 C 638 1108 647 1107 655 1106 L 713 1307 L 852 1307 L 786 1079 C 860 1053 917 1013 958 961 C 999 909 1032 852 1057 791 L 854 715 C 838 758 819 793 797 820 C 775 846 749 866 721 879 L 524 186 C 535 183 546 181 558 180 C 569 178 581 178 594 178 C 650 178 700 191 746 218 C 792 244 830 296 862 373 L 1061 297 C 1041 253 1018 211 991 173 C 963 134 931 100 893 72 C 855 43 811 20 761 3 C 711 -14 653 -23 588 -23 C 549 -23 511 -18 473 -10 L 401 -264 L 260 -264 L 348 35 Z M 602 901 L 598 901 C 562 901 527 894 493 882 C 459 870 428 850 402 823 C 375 795 354 758 338 712 C 322 666 315 609 315 543 C 315 470 323 409 341 360 C 358 311 382 272 414 242 L 602 901 Z" unicode="¢" />
<glyph horiz-adv-x="1346" d="M 182 690 L 182 858 L 367 858 C 342 902 321 946 304 991 C 287 1036 279 1085 279 1139 C 279 1196 288 1249 308 1299 C 328 1349 356 1392 394 1428 C 432 1464 477 1493 530 1513 C 583 1533 643 1544 711 1544 C 791 1544 858 1532 914 1510 C 969 1488 1014 1458 1049 1420 C 1084 1382 1111 1340 1129 1293 C 1147 1246 1161 1198 1169 1149 L 942 1106 C 938 1138 931 1168 921 1196 C 911 1223 898 1247 881 1267 C 864 1287 842 1303 815 1315 C 787 1327 755 1333 717 1333 C 653 1333 604 1315 572 1279 C 540 1243 524 1197 524 1141 C 524 1090 534 1042 556 997 C 577 952 601 906 629 858 L 987 858 L 987 690 L 709 690 C 722 656 732 620 740 582 C 748 544 752 503 752 459 C 752 382 738 311 711 246 C 742 226 773 210 804 196 C 834 182 867 176 903 176 C 970 176 1015 192 1039 226 C 1063 259 1076 317 1079 401 L 1303 401 C 1303 343 1297 289 1285 237 C 1273 185 1254 140 1226 100 C 1198 60 1161 29 1115 6 C 1069 -17 1012 -29 942 -29 C 871 -29 809 -16 756 8 C 702 32 654 62 610 96 C 570 56 524 26 472 4 C 419 -18 360 -29 295 -29 C 263 -29 233 -24 203 -15 C 173 -6 146 7 122 25 C 98 43 78 67 63 95 C 48 123 41 157 41 197 C 41 277 66 339 117 383 C 167 427 231 449 309 449 C 351 449 390 441 426 427 C 461 413 496 395 530 375 C 531 385 532 396 532 406 L 532 438 C 532 486 525 530 512 571 C 498 612 482 652 463 690 L 182 690 Z M 479 209 C 450 233 422 254 395 271 C 367 288 339 297 311 297 C 279 297 254 288 236 270 C 218 252 209 230 209 203 C 209 175 218 153 236 136 C 254 119 279 111 309 111 C 347 111 381 119 409 136 C 437 153 460 177 479 209 Z" unicode="£" />
<glyph horiz-adv-x="1343" d="M 543 0 L 543 199 L 166 199 L 166 369 L 543 369 L 543 512 L 166 512 L 166 682 L 537 682 L 39 1516 L 307 1516 L 674 891 L 1040 1516 L 1305 1516 L 803 682 L 1180 682 L 1180 512 L 799 512 L 799 369 L 1180 369 L 1180 199 L 799 199 L 799 0 L 543 0 Z" unicode="¥" />
<glyph horiz-adv-x="772" d="M 262 678 L 262 1516 L 510 1516 L 510 678 L 262 678 Z M 262 -410 L 262 428 L 510 428 L 510 -410 L 262 -410 Z" unicode="¦" />
<glyph horiz-adv-x="1149" d="M 573 -410 C 499 -410 437 -401 387 -385 C 336 -368 294 -346 260 -319 C 226 -292 199 -261 180 -225 C 161 -189 146 -153 135 -117 L 324 -39 C 342 -96 369 -141 404 -173 C 439 -205 492 -221 563 -221 C 630 -221 676 -207 700 -180 C 724 -152 737 -119 737 -80 C 737 -34 716 6 675 43 C 634 79 570 122 483 172 C 428 203 378 233 332 263 C 286 292 247 323 214 355 C 180 387 154 422 136 460 C 118 498 109 542 109 592 C 109 631 115 667 129 701 C 143 735 160 765 181 791 C 202 817 226 841 253 863 C 279 884 306 902 332 918 C 272 964 230 1008 206 1051 C 182 1094 170 1144 170 1202 C 170 1247 179 1290 197 1332 C 215 1374 242 1410 277 1442 C 312 1473 354 1498 404 1516 C 454 1534 511 1544 575 1544 C 650 1544 714 1535 766 1519 C 818 1503 861 1481 895 1454 C 929 1426 956 1395 976 1360 C 996 1324 1011 1288 1022 1251 L 823 1167 C 804 1224 774 1271 734 1307 C 694 1343 644 1362 586 1362 C 518 1362 471 1347 443 1318 C 415 1288 401 1254 401 1214 C 401 1169 422 1128 466 1091 C 510 1054 576 1011 664 963 C 720 931 770 900 816 871 C 862 841 901 811 934 779 C 966 747 992 711 1010 673 C 1028 635 1038 591 1038 543 C 1038 503 1031 466 1018 433 C 1005 399 988 369 967 342 C 946 314 922 290 896 269 C 869 248 843 230 817 215 C 875 168 915 123 937 81 C 958 39 969 -10 969 -68 C 969 -112 960 -155 943 -197 C 926 -239 901 -275 867 -307 C 833 -338 792 -363 743 -382 C 694 -400 637 -410 573 -410 Z M 680 309 C 728 333 764 361 789 393 C 814 424 827 458 827 496 C 827 522 823 545 815 566 C 807 587 792 608 770 630 C 748 651 718 674 680 699 C 642 724 592 755 532 791 L 467 825 C 423 802 387 774 361 742 C 335 710 322 675 322 639 C 322 611 326 587 334 567 C 342 547 357 526 379 505 C 401 483 431 460 469 435 C 507 409 556 379 616 344 L 680 309 Z" unicode="§" />
<glyph horiz-adv-x="1065" d="M 213 1444 L 442 1444 L 442 1196 L 213 1196 L 213 1444 Z M 618 1444 L 848 1444 L 848 1196 L 618 1196 L 618 1444 Z" unicode="¨" />
<glyph horiz-adv-x="1772" d="M 885 -29 C 774 -29 671 -8 575 31 C 479 71 397 127 327 198 C 257 269 202 352 162 447 C 122 542 102 645 102 756 C 102 866 122 969 162 1065 C 202 1160 258 1243 329 1314 C 400 1385 483 1441 579 1482 C 675 1523 778 1544 889 1544 C 999 1544 1102 1523 1197 1483 C 1291 1443 1373 1387 1443 1316 C 1513 1245 1568 1162 1608 1068 C 1648 973 1669 870 1669 760 C 1669 649 1648 546 1608 450 C 1568 354 1512 271 1441 200 C 1370 129 1287 73 1193 32 C 1098 -8 995 -29 885 -29 Z M 889 90 C 981 90 1067 107 1147 141 C 1226 175 1295 223 1354 283 C 1412 343 1458 413 1491 493 C 1523 573 1540 661 1540 756 C 1540 850 1523 937 1490 1019 C 1456 1100 1410 1171 1352 1231 C 1293 1291 1224 1338 1144 1373 C 1064 1407 977 1425 885 1425 C 791 1425 705 1408 625 1374 C 545 1340 476 1293 418 1233 C 359 1173 313 1102 280 1022 C 247 941 231 854 231 760 C 231 665 247 577 281 496 C 315 415 361 345 420 285 C 478 225 548 177 629 142 C 709 107 796 90 889 90 Z M 881 317 C 771 317 683 356 617 436 C 551 515 518 625 518 766 C 518 902 550 1010 616 1090 C 682 1170 771 1210 885 1210 C 979 1210 1052 1185 1106 1136 C 1159 1087 1195 1021 1214 938 L 1067 899 C 1051 953 1030 996 1004 1026 C 978 1056 939 1071 887 1071 C 823 1071 772 1043 736 988 C 700 932 682 858 682 766 C 682 670 699 596 735 542 C 770 488 821 461 887 461 C 937 461 977 476 1007 507 C 1036 537 1058 583 1073 645 L 1147 625 C 1166 619 1183 614 1198 611 C 1213 607 1222 606 1225 606 C 1201 517 1162 447 1108 395 C 1053 343 977 317 881 317 Z" unicode="©" />
<glyph horiz-adv-x="889" d="M 311 745 C 247 745 194 761 152 795 C 110 829 90 878 90 942 C 90 1025 128 1093 204 1147 C 280 1200 408 1236 586 1255 L 586 1280 C 586 1355 546 1393 467 1393 C 415 1393 367 1383 325 1365 C 283 1346 243 1321 207 1290 L 119 1395 C 161 1434 211 1467 269 1495 C 327 1522 401 1536 492 1536 C 588 1536 658 1512 702 1465 C 746 1418 768 1350 768 1260 L 768 948 C 768 903 769 866 773 837 C 776 807 783 782 793 760 L 604 760 C 593 792 587 828 586 866 C 547 828 505 798 461 777 C 417 755 367 745 311 745 Z M 375 889 C 419 889 459 897 493 914 C 527 931 558 952 586 977 L 586 1149 C 524 1141 473 1131 433 1119 C 393 1107 361 1094 337 1080 C 313 1066 296 1050 286 1032 C 276 1014 272 995 272 975 C 272 946 281 924 300 910 C 318 896 343 889 375 889 Z" unicode="ª" />
<glyph horiz-adv-x="1204" d="M 391 0 L 66 545 L 391 1087 L 637 1087 L 324 545 L 637 0 L 391 0 Z M 874 0 L 547 545 L 874 1087 L 1118 1087 L 803 545 L 1118 0 L 874 0 Z" unicode="«" />
<glyph horiz-adv-x="1309" d="M 1171 176 L 967 176 L 967 600 L 137 600 L 137 817 L 1171 817 L 1171 176 Z" unicode="¬" />
<glyph horiz-adv-x="903" d="M 450 894 C 404 894 361 902 321 919 C 281 935 246 958 217 988 C 187 1018 164 1053 148 1093 C 131 1133 123 1176 123 1222 C 123 1268 131 1312 148 1352 C 165 1392 188 1426 218 1456 C 248 1485 283 1508 323 1525 C 363 1542 407 1551 454 1551 C 500 1551 543 1542 583 1526 C 623 1509 657 1486 686 1457 C 715 1427 738 1393 755 1353 C 771 1313 780 1270 780 1224 C 780 1177 771 1134 754 1094 C 737 1054 714 1019 684 989 C 654 959 620 936 580 919 C 540 902 496 894 450 894 Z M 454 962 C 490 962 523 968 555 982 C 586 995 613 1013 636 1036 C 659 1059 677 1086 691 1118 C 704 1150 711 1184 711 1222 C 711 1258 704 1293 691 1325 C 677 1357 659 1384 636 1408 C 612 1431 585 1449 553 1463 C 521 1476 486 1483 450 1483 C 413 1483 379 1476 348 1463 C 316 1450 289 1432 266 1409 C 243 1385 225 1358 212 1326 C 198 1294 192 1260 192 1224 C 192 1186 198 1152 212 1120 C 225 1088 243 1061 267 1037 C 290 1013 318 995 350 982 C 382 968 416 962 454 962 Z M 323 1410 L 463 1410 C 508 1410 543 1400 567 1380 C 591 1360 604 1331 604 1291 C 604 1261 597 1237 585 1221 C 572 1205 554 1192 532 1183 C 536 1178 541 1169 549 1156 C 556 1142 564 1128 572 1113 C 580 1098 588 1084 596 1070 C 603 1056 609 1047 613 1043 L 521 1043 L 447 1171 L 407 1171 L 407 1043 L 323 1043 L 323 1410 Z M 458 1242 C 478 1242 494 1245 505 1252 C 515 1258 521 1270 521 1286 C 521 1315 500 1330 459 1330 L 407 1330 L 407 1242 L 458 1242 Z" unicode="®" />
<glyph horiz-adv-x="1024" d="M 193 1382 L 831 1382 L 831 1196 L 193 1196 L 193 1382 Z" unicode="¯" />
<glyph horiz-adv-x="840" d="M 420 920 C 374 920 333 927 295 943 C 257 959 223 980 195 1008 C 166 1035 144 1068 128 1106 C 112 1144 104 1185 104 1231 C 104 1275 112 1317 128 1355 C 144 1393 166 1426 195 1454 C 223 1481 257 1502 295 1518 C 333 1534 374 1542 420 1542 C 464 1542 506 1534 544 1519 C 582 1504 616 1483 645 1455 C 673 1427 695 1394 711 1356 C 727 1318 735 1277 735 1233 C 735 1187 727 1146 711 1108 C 695 1070 673 1037 645 1009 C 616 981 582 959 544 943 C 506 927 464 920 420 920 Z M 420 1051 C 469 1051 509 1067 541 1100 C 572 1132 588 1176 588 1231 C 588 1285 572 1329 541 1362 C 509 1394 469 1411 420 1411 C 370 1411 330 1394 299 1362 C 267 1329 252 1285 252 1231 C 252 1176 267 1132 299 1100 C 330 1067 370 1051 420 1051 Z" unicode="°" />
<glyph horiz-adv-x="1315" d="M 137 250 L 557 250 L 557 631 L 137 631 L 137 829 L 557 829 L 557 1262 L 760 1262 L 760 829 L 1180 829 L 1180 631 L 760 631 L 760 250 L 1180 250 L 1180 59 L 137 59 L 137 250 Z" unicode="±" />
<glyph horiz-adv-x="952" d="M 125 602 C 125 636 128 670 135 705 C 141 740 155 775 177 811 C 198 846 228 882 267 919 C 306 956 358 994 422 1034 C 457 1056 487 1075 512 1092 C 536 1109 556 1125 570 1140 C 584 1155 595 1171 601 1187 C 607 1203 610 1223 610 1245 C 610 1280 599 1308 578 1330 C 557 1351 526 1362 485 1362 C 447 1362 409 1350 373 1326 C 337 1302 304 1262 274 1206 L 129 1305 C 173 1382 224 1440 282 1478 C 340 1516 410 1536 492 1536 C 596 1536 676 1509 730 1457 C 784 1404 811 1335 811 1249 C 811 1220 807 1192 799 1164 C 791 1136 778 1108 759 1082 C 740 1055 715 1028 684 1002 C 652 976 612 949 563 922 C 495 882 446 845 416 813 C 386 780 367 750 360 723 L 815 723 L 815 553 L 125 553 L 125 602 Z" unicode="²" />
<glyph horiz-adv-x="952" d="M 471 537 C 393 537 321 553 257 587 C 192 620 139 669 98 735 L 227 844 C 263 792 300 756 340 736 C 379 716 418 707 457 707 C 514 707 556 719 583 744 C 609 769 623 802 623 842 C 623 890 606 927 572 951 C 538 975 481 987 399 987 L 330 987 L 330 1135 L 403 1135 C 478 1135 530 1145 560 1166 C 589 1187 604 1217 604 1257 C 604 1289 593 1314 572 1334 C 551 1354 517 1364 471 1364 C 435 1364 399 1355 362 1339 C 325 1323 288 1295 252 1257 L 135 1380 C 235 1484 352 1536 487 1536 C 595 1536 675 1511 729 1463 C 782 1415 809 1353 809 1278 C 809 1231 797 1189 773 1152 C 749 1114 710 1087 657 1069 C 721 1049 767 1020 795 980 C 822 940 836 892 836 838 C 836 743 802 669 736 616 C 670 563 581 537 471 537 Z" unicode="³" />
<glyph horiz-adv-x="1024" d="M 514 1542 L 784 1542 L 487 1202 L 322 1202 L 514 1542 Z" unicode="´" />
<glyph horiz-adv-x="1245" d="M 141 -410 L 141 1087 L 393 1087 L 393 369 C 393 307 406 261 432 231 C 458 201 499 186 557 186 C 613 186 664 199 710 225 C 756 251 804 285 852 328 L 852 1087 L 1104 1087 L 1104 0 L 852 0 L 852 172 C 814 131 769 93 718 58 C 666 23 607 1 541 -8 C 511 -10 483 -9 459 -5 C 434 0 412 9 393 25 L 393 -410 L 141 -410 Z" unicode="µ" />
<glyph horiz-adv-x="1290" d="M 602 -410 L 602 662 C 440 664 317 701 232 773 C 146 845 104 949 104 1085 C 104 1145 114 1202 135 1254 C 155 1306 185 1352 225 1391 C 265 1430 314 1461 372 1483 C 430 1505 497 1516 573 1516 L 1153 1516 L 1153 -410 L 973 -410 L 973 1321 L 782 1321 L 782 -410 L 602 -410 Z" unicode="¶" />
<glyph horiz-adv-x="575" d="M 141 541 L 141 807 L 434 807 L 434 541 L 141 541 Z" unicode="·" />
<glyph horiz-adv-x="1024" d="M 528 -408 C 473 -408 421 -401 372 -387 C 323 -373 281 -355 246 -332 L 297 -250 C 328 -270 362 -286 398 -296 C 434 -306 470 -311 506 -311 C 588 -311 629 -284 629 -231 C 629 -209 622 -193 609 -183 C 596 -173 578 -168 555 -168 C 535 -168 518 -171 504 -178 C 490 -184 475 -193 461 -205 L 389 -170 L 440 0 L 557 0 L 528 -100 C 559 -80 601 -70 653 -70 C 691 -70 725 -81 755 -105 C 784 -129 799 -164 799 -211 C 799 -243 791 -272 777 -297 C 763 -321 743 -342 719 -358 C 694 -374 665 -387 633 -395 C 600 -403 565 -408 528 -408 Z" unicode="¸" />
<glyph horiz-adv-x="760" d="M 143 717 L 317 717 L 317 1341 C 294 1330 267 1321 236 1314 C 205 1306 175 1303 145 1303 L 145 1454 C 227 1456 287 1477 326 1516 L 524 1516 L 524 717 L 680 717 L 680 551 L 143 551 L 143 717 Z" unicode="¹" />
<glyph horiz-adv-x="924" d="M 463 745 C 415 745 368 752 323 768 C 278 783 238 807 204 839 C 169 871 141 911 119 961 C 97 1011 86 1071 86 1141 C 86 1211 97 1272 119 1322 C 141 1372 169 1412 204 1444 C 238 1475 278 1498 323 1513 C 368 1528 415 1536 463 1536 C 509 1536 554 1528 600 1513 C 645 1498 685 1475 720 1444 C 754 1412 783 1372 805 1322 C 827 1272 838 1211 838 1141 C 838 1071 827 1011 805 961 C 783 911 754 871 720 839 C 685 807 645 783 600 768 C 554 752 509 745 463 745 Z M 463 883 C 525 883 572 907 604 955 C 635 1003 651 1065 651 1141 C 651 1175 647 1207 640 1239 C 632 1270 621 1298 606 1322 C 591 1346 572 1364 548 1378 C 524 1392 495 1399 463 1399 C 399 1399 351 1374 319 1326 C 287 1277 272 1215 272 1141 C 272 1105 275 1071 282 1041 C 289 1010 300 983 316 959 C 332 935 352 917 376 903 C 400 889 429 883 463 883 Z" unicode="º" />
<glyph horiz-adv-x="1204" d="M 84 0 L 399 545 L 84 1087 L 330 1087 L 657 545 L 330 0 L 84 0 Z M 567 0 L 881 545 L 567 1087 L 811 1087 L 1137 545 L 811 0 L 567 0 Z" unicode="»" />
<glyph horiz-adv-x="2064" d="M 170 719 L 338 719 L 338 1309 C 314 1300 289 1293 262 1289 C 234 1284 205 1282 174 1282 L 174 1454 C 219 1456 256 1462 285 1470 C 313 1478 338 1494 358 1516 L 545 1516 L 545 719 L 692 719 L 692 551 L 170 551 L 170 719 Z M 1602 213 L 1163 213 L 1163 344 L 1591 967 L 1806 967 L 1806 377 L 1960 377 L 1960 213 L 1806 213 L 1806 0 L 1602 0 L 1602 213 Z M 1395 1516 L 1616 1516 L 709 0 L 487 0 L 1395 1516 Z M 1612 367 L 1612 735 L 1366 367 L 1612 367 Z" unicode="¼" />
<glyph horiz-adv-x="2136" d="M 1309 49 C 1309 83 1312 117 1320 152 C 1327 187 1341 222 1363 257 C 1384 291 1414 327 1453 364 C 1491 401 1543 440 1608 481 C 1639 501 1666 520 1689 536 C 1712 552 1731 568 1746 584 C 1761 600 1772 616 1780 633 C 1788 650 1792 670 1792 692 C 1792 727 1781 755 1759 777 C 1737 798 1706 809 1667 809 C 1631 809 1595 797 1559 773 C 1523 749 1489 709 1458 653 L 1313 752 C 1356 829 1407 887 1466 925 C 1524 963 1594 983 1675 983 C 1777 983 1856 956 1912 904 C 1967 851 1995 782 1995 696 C 1995 667 1991 639 1983 611 C 1975 583 1962 555 1944 529 C 1926 502 1901 475 1870 449 C 1838 423 1799 396 1751 369 C 1687 330 1639 294 1608 261 C 1576 227 1557 197 1550 170 L 2001 170 L 2001 0 L 1309 0 L 1309 49 Z M 1395 1516 L 1616 1516 L 709 0 L 487 0 L 1395 1516 Z M 170 719 L 338 719 L 338 1309 C 314 1300 289 1293 262 1289 C 234 1284 205 1282 174 1282 L 174 1454 C 219 1456 256 1462 285 1470 C 313 1478 338 1494 358 1516 L 545 1516 L 545 719 L 692 719 L 692 551 L 170 551 L 170 719 Z" unicode="½" />
<glyph horiz-adv-x="2134" d="M 471 537 C 393 537 321 553 257 587 C 192 620 139 669 98 735 L 227 844 C 263 792 300 756 340 736 C 379 716 418 707 457 707 C 514 707 556 719 583 744 C 609 769 623 802 623 842 C 623 890 606 927 572 951 C 538 975 481 987 399 987 L 330 987 L 330 1135 L 403 1135 C 478 1135 530 1145 560 1166 C 589 1187 604 1217 604 1257 C 604 1289 593 1314 572 1334 C 551 1354 517 1364 471 1364 C 435 1364 399 1355 362 1339 C 325 1323 288 1295 252 1257 L 135 1380 C 235 1484 352 1536 487 1536 C 595 1536 675 1511 729 1463 C 782 1415 809 1353 809 1278 C 809 1231 797 1189 773 1152 C 749 1114 710 1087 657 1069 C 721 1049 767 1020 795 980 C 822 940 836 892 836 838 C 836 743 802 669 736 616 C 670 563 581 537 471 537 Z M 1671 213 L 1233 213 L 1233 344 L 1661 967 L 1876 967 L 1876 377 L 2030 377 L 2030 213 L 1876 213 L 1876 0 L 1671 0 L 1671 213 Z M 1464 1516 L 1686 1516 L 780 0 L 559 0 L 1464 1516 Z M 1681 367 L 1681 735 L 1436 367 L 1681 367 Z" unicode="¾" />
<glyph horiz-adv-x="1171" d="M 561 -29 C 484 -29 417 -19 359 -1 C 301 17 252 43 214 76 C 175 108 146 147 126 193 C 106 239 96 289 96 344 C 96 393 102 436 115 472 C 128 508 146 540 169 569 C 191 597 218 623 248 645 C 278 667 310 687 346 707 C 391 731 426 753 450 774 C 474 794 493 818 505 844 C 517 870 525 900 527 935 C 529 969 530 1013 530 1067 L 737 1067 C 739 1042 741 1018 742 995 C 742 972 743 948 743 924 C 743 848 725 785 691 734 C 656 682 607 639 543 604 C 510 584 481 566 457 550 C 432 534 411 517 395 499 C 379 481 367 462 359 440 C 351 418 348 392 348 362 C 348 310 368 270 409 241 C 450 211 508 197 584 197 C 622 197 658 202 693 212 C 727 222 760 235 790 251 C 820 267 848 286 873 308 C 898 329 920 351 940 373 L 1102 227 C 1042 155 968 94 881 45 C 793 -4 687 -29 561 -29 Z M 494 1260 L 494 1516 L 774 1516 L 774 1260 L 494 1260 Z" unicode="¿" />
<glyph horiz-adv-x="1427" d="M 51 0 L 588 1522 L 840 1522 L 1376 0 L 1114 0 L 991 360 L 416 360 L 291 0 L 51 0 Z M 494 586 L 915 586 L 709 1200 L 705 1200 L 494 586 Z M 346 1946 L 618 1946 L 811 1606 L 645 1606 L 346 1946 Z" unicode="À" />
<glyph horiz-adv-x="1427" d="M 51 0 L 588 1522 L 840 1522 L 1376 0 L 1114 0 L 991 360 L 416 360 L 291 0 L 51 0 Z M 494 586 L 915 586 L 709 1200 L 705 1200 L 494 586 Z M 809 1946 L 1079 1946 L 782 1606 L 616 1606 L 809 1946 Z" unicode="Á" />
<glyph horiz-adv-x="1427" d="M 51 0 L 588 1522 L 840 1522 L 1376 0 L 1114 0 L 991 360 L 416 360 L 291 0 L 51 0 Z M 494 586 L 915 586 L 709 1200 L 705 1200 L 494 586 Z M 625 1946 L 799 1946 L 1063 1606 L 915 1606 L 711 1778 L 506 1606 L 360 1606 L 625 1946 Z" unicode="Â" />
<glyph horiz-adv-x="1427" d="M 51 0 L 588 1522 L 840 1522 L 1376 0 L 1114 0 L 991 360 L 416 360 L 291 0 L 51 0 Z M 494 586 L 915 586 L 709 1200 L 705 1200 L 494 586 Z M 868 1591 C 834 1591 803 1596 777 1608 C 750 1620 725 1633 701 1647 C 677 1661 655 1675 635 1687 C 614 1699 593 1706 571 1706 C 542 1706 521 1697 507 1680 C 493 1663 487 1635 487 1595 L 346 1595 C 346 1696 364 1769 402 1813 C 440 1857 492 1880 559 1880 C 593 1880 623 1873 650 1861 C 676 1849 702 1835 726 1821 C 750 1807 772 1794 793 1782 C 814 1770 836 1765 858 1765 C 885 1765 906 1773 920 1791 C 934 1808 942 1836 942 1876 L 1083 1876 C 1083 1776 1064 1703 1026 1658 C 988 1613 935 1591 868 1591 Z" unicode="Ã" />
<glyph horiz-adv-x="1427" d="M 51 0 L 588 1522 L 840 1522 L 1376 0 L 1114 0 L 991 360 L 416 360 L 291 0 L 51 0 Z M 494 586 L 915 586 L 709 1200 L 705 1200 L 494 586 Z M 393 1847 L 623 1847 L 623 1599 L 393 1599 L 393 1847 Z M 799 1847 L 1028 1847 L 1028 1599 L 799 1599 L 799 1847 Z" unicode="Ä" />
<glyph horiz-adv-x="1427" d="M 575 1485 C 553 1499 536 1520 523 1546 C 510 1572 504 1600 504 1632 C 504 1690 523 1739 563 1779 C 603 1819 653 1839 713 1839 C 774 1839 824 1819 863 1779 C 902 1739 922 1690 922 1632 C 922 1600 915 1572 903 1547 C 891 1521 874 1501 852 1485 L 1376 0 L 1114 0 L 991 360 L 416 360 L 291 0 L 51 0 L 575 1485 Z M 918 588 L 709 1200 L 705 1200 L 492 588 L 918 588 Z M 713 1526 C 743 1526 767 1535 785 1555 C 803 1575 813 1600 813 1632 C 813 1662 803 1686 785 1706 C 767 1725 743 1735 713 1735 C 684 1735 660 1725 641 1706 C 621 1686 612 1662 612 1632 C 612 1600 621 1575 641 1555 C 660 1535 684 1526 713 1526 Z" unicode="Å" />
<glyph horiz-adv-x="2134" d="M 41 0 L 903 1516 L 2011 1516 L 2011 1278 L 1288 1278 L 1288 901 L 1819 901 L 1819 674 L 1288 674 L 1288 233 L 2052 233 L 2052 0 L 1034 0 L 1034 426 L 539 426 L 299 0 L 41 0 Z M 666 651 L 1034 651 L 1034 1303 L 1032 1303 L 666 651 Z" unicode="Æ" />
<glyph horiz-adv-x="1468" d="M 770 -408 C 714 -408 661 -401 613 -387 C 565 -373 523 -355 487 -332 L 537 -250 C 568 -270 602 -286 639 -296 C 675 -306 712 -311 748 -311 C 829 -311 870 -284 870 -231 C 870 -209 863 -193 850 -183 C 837 -173 819 -168 797 -168 C 777 -168 760 -171 745 -178 C 730 -184 715 -193 700 -205 L 629 -170 L 674 -25 C 588 -15 509 9 439 48 C 369 86 309 139 259 206 C 209 273 170 353 142 446 C 114 539 100 644 100 762 C 100 886 116 996 150 1093 C 184 1190 230 1272 290 1339 C 349 1406 419 1457 500 1492 C 580 1526 668 1544 764 1544 C 851 1544 928 1532 994 1509 C 1060 1486 1117 1454 1164 1412 C 1211 1370 1250 1321 1281 1264 C 1311 1206 1335 1143 1352 1073 L 1108 1006 C 1094 1056 1077 1100 1058 1140 C 1039 1180 1016 1214 989 1242 C 961 1270 929 1291 893 1306 C 856 1321 812 1329 762 1329 C 698 1329 641 1315 591 1289 C 541 1262 498 1224 464 1175 C 429 1126 402 1067 384 997 C 365 927 356 850 356 764 C 356 674 365 593 384 521 C 402 449 429 388 465 338 C 500 287 543 248 594 222 C 644 195 702 182 766 182 C 865 182 943 211 1001 270 C 1058 328 1102 415 1133 530 L 1374 475 C 1356 401 1331 334 1299 273 C 1267 212 1227 160 1179 116 C 1131 72 1075 38 1011 13 C 947 -12 873 -26 791 -29 L 770 -100 C 785 -90 802 -83 822 -78 C 842 -72 865 -70 893 -70 C 932 -70 966 -81 996 -105 C 1025 -129 1040 -164 1040 -211 C 1040 -243 1032 -272 1018 -297 C 1004 -321 984 -342 960 -358 C 936 -374 907 -387 874 -395 C 841 -403 806 -408 770 -408 Z" unicode="Ç" />
<glyph horiz-adv-x="1272" d="M 172 0 L 172 1516 L 1151 1516 L 1151 1278 L 428 1278 L 428 901 L 958 901 L 958 674 L 428 674 L 428 233 L 1192 233 L 1192 0 L 172 0 Z M 336 1946 L 608 1946 L 801 1606 L 635 1606 L 336 1946 Z" unicode="È" />
<glyph horiz-adv-x="1272" d="M 707 1946 L 977 1946 L 680 1606 L 514 1606 L 707 1946 Z M 172 0 L 172 1516 L 1151 1516 L 1151 1278 L 428 1278 L 428 901 L 958 901 L 958 674 L 428 674 L 428 233 L 1192 233 L 1192 0 L 172 0 Z" unicode="É" />
<glyph horiz-adv-x="1272" d="M 571 1946 L 745 1946 L 1010 1606 L 862 1606 L 657 1778 L 453 1606 L 307 1606 L 571 1946 Z M 172 0 L 172 1516 L 1151 1516 L 1151 1278 L 428 1278 L 428 901 L 958 901 L 958 674 L 428 674 L 428 233 L 1192 233 L 1192 0 L 172 0 Z" unicode="Ê" />
<glyph horiz-adv-x="1272" d="M 350 1847 L 580 1847 L 580 1599 L 350 1599 L 350 1847 Z M 756 1847 L 985 1847 L 985 1599 L 756 1599 L 756 1847 Z M 172 0 L 172 1516 L 1151 1516 L 1151 1278 L 428 1278 L 428 901 L 958 901 L 958 674 L 428 674 L 428 233 L 1192 233 L 1192 0 L 172 0 Z" unicode="Ë" />
<glyph horiz-adv-x="635" d="M 188 0 L 188 1516 L 446 1516 L 446 0 L 188 0 Z M -39 1946 L 233 1946 L 426 1606 L 260 1606 L -39 1946 Z" unicode="Ì" />
<glyph horiz-adv-x="635" d="M 188 0 L 188 1516 L 446 1516 L 446 0 L 188 0 Z M 418 1946 L 688 1946 L 391 1606 L 225 1606 L 418 1946 Z" unicode="Í" />
<glyph horiz-adv-x="635" d="M 188 0 L 188 1516 L 446 1516 L 446 0 L 188 0 Z M 231 1946 L 406 1946 L 670 1606 L 522 1606 L 317 1778 L 113 1606 L -33 1606 L 231 1946 Z" unicode="Î" />
<glyph horiz-adv-x="635" d="M 188 0 L 188 1516 L 446 1516 L 446 0 L 188 0 Z M -2 1847 L 227 1847 L 227 1599 L -2 1599 L -2 1847 Z M 403 1847 L 633 1847 L 633 1599 L 403 1599 L 403 1847 Z" unicode="Ï" />
<glyph horiz-adv-x="1491" d="M 172 0 L 172 686 L 23 686 L 23 883 L 172 883 L 172 1516 L 604 1516 C 722 1516 830 1501 927 1473 C 1024 1444 1107 1399 1175 1337 C 1243 1275 1296 1197 1334 1101 C 1372 1005 1391 891 1391 758 C 1391 624 1371 509 1333 413 C 1295 317 1241 239 1172 178 C 1103 116 1020 71 924 43 C 828 14 721 0 604 0 L 172 0 Z M 426 227 L 627 227 C 800 227 928 268 1011 352 C 1093 435 1135 572 1135 764 C 1135 946 1093 1078 1010 1158 C 926 1238 797 1278 623 1278 L 426 1278 L 426 883 L 743 883 L 743 686 L 426 686 L 426 227 Z" unicode="Ð" />
<glyph horiz-adv-x="1563" d="M 172 0 L 172 1516 L 432 1516 L 1149 434 L 1153 434 L 1153 1516 L 1391 1516 L 1391 0 L 1157 0 L 414 1104 L 410 1104 L 410 0 L 172 0 Z M 948 1591 C 914 1591 883 1596 857 1608 C 830 1620 805 1633 781 1647 C 757 1661 734 1675 714 1687 C 694 1699 673 1706 651 1706 C 622 1706 601 1697 587 1680 C 573 1663 567 1635 567 1595 L 426 1595 C 426 1696 444 1769 482 1813 C 520 1857 572 1880 639 1880 C 673 1880 703 1873 730 1861 C 756 1849 782 1835 806 1821 C 830 1807 852 1794 873 1782 C 894 1770 916 1765 938 1765 C 965 1765 986 1773 1000 1791 C 1014 1808 1022 1836 1022 1876 L 1163 1876 C 1163 1776 1144 1703 1106 1658 C 1068 1613 1015 1591 948 1591 Z" unicode="Ñ" />
<glyph horiz-adv-x="1565" d="M 784 -29 C 687 -29 597 -11 514 22 C 430 56 358 107 297 173 C 235 239 187 321 151 419 C 115 517 98 630 98 758 C 98 884 115 997 151 1095 C 187 1193 235 1276 297 1342 C 358 1408 430 1459 514 1493 C 597 1527 687 1544 784 1544 C 880 1544 969 1527 1053 1493 C 1136 1459 1208 1408 1270 1342 C 1331 1276 1379 1193 1414 1095 C 1448 997 1466 884 1466 758 C 1466 630 1448 517 1414 419 C 1379 321 1331 239 1270 173 C 1208 107 1136 56 1053 22 C 969 -11 880 -29 784 -29 Z M 784 203 C 847 203 905 215 957 239 C 1009 263 1054 299 1091 347 C 1128 394 1157 452 1177 521 C 1197 590 1208 669 1208 758 C 1208 846 1197 925 1177 994 C 1157 1063 1128 1121 1091 1167 C 1054 1213 1009 1249 957 1273 C 905 1297 847 1309 784 1309 C 654 1309 551 1261 473 1167 C 395 1073 356 936 356 758 C 356 578 395 441 473 346 C 551 250 654 203 784 203 Z M 442 1946 L 715 1946 L 907 1606 L 741 1606 L 442 1946 Z" unicode="Ò" />
<glyph horiz-adv-x="1565" d="M 846 1946 L 1116 1946 L 819 1606 L 653 1606 L 846 1946 Z M 784 -29 C 687 -29 597 -11 514 22 C 430 56 358 107 297 173 C 235 239 187 321 151 419 C 115 517 98 630 98 758 C 98 884 115 997 151 1095 C 187 1193 235 1276 297 1342 C 358 1408 430 1459 514 1493 C 597 1527 687 1544 784 1544 C 880 1544 969 1527 1053 1493 C 1136 1459 1208 1408 1270 1342 C 1331 1276 1379 1193 1414 1095 C 1448 997 1466 884 1466 758 C 1466 630 1448 517 1414 419 C 1379 321 1331 239 1270 173 C 1208 107 1136 56 1053 22 C 969 -11 880 -29 784 -29 Z M 784 203 C 847 203 905 215 957 239 C 1009 263 1054 299 1091 347 C 1128 394 1157 452 1177 521 C 1197 590 1208 669 1208 758 C 1208 846 1197 925 1177 994 C 1157 1063 1128 1121 1091 1167 C 1054 1213 1009 1249 957 1273 C 905 1297 847 1309 784 1309 C 654 1309 551 1261 473 1167 C 395 1073 356 936 356 758 C 356 578 395 441 473 346 C 551 250 654 203 784 203 Z" unicode="Ó" />
<glyph horiz-adv-x="1565" d="M 694 1946 L 868 1946 L 1133 1606 L 985 1606 L 780 1778 L 575 1606 L 430 1606 L 694 1946 Z M 784 -29 C 687 -29 597 -11 514 22 C 430 56 358 107 297 173 C 235 239 187 321 151 419 C 115 517 98 630 98 758 C 98 884 115 997 151 1095 C 187 1193 235 1276 297 1342 C 358 1408 430 1459 514 1493 C 597 1527 687 1544 784 1544 C 880 1544 969 1527 1053 1493 C 1136 1459 1208 1408 1270 1342 C 1331 1276 1379 1193 1414 1095 C 1448 997 1466 884 1466 758 C 1466 630 1448 517 1414 419 C 1379 321 1331 239 1270 173 C 1208 107 1136 56 1053 22 C 969 -11 880 -29 784 -29 Z M 784 203 C 847 203 905 215 957 239 C 1009 263 1054 299 1091 347 C 1128 394 1157 452 1177 521 C 1197 590 1208 669 1208 758 C 1208 846 1197 925 1177 994 C 1157 1063 1128 1121 1091 1167 C 1054 1213 1009 1249 957 1273 C 905 1297 847 1309 784 1309 C 654 1309 551 1261 473 1167 C 395 1073 356 936 356 758 C 356 578 395 441 473 346 C 551 250 654 203 784 203 Z" unicode="Ô" />
<glyph horiz-adv-x="1565" d="M 784 -29 C 687 -29 597 -11 514 22 C 430 56 358 107 297 173 C 235 239 187 321 151 419 C 115 517 98 630 98 758 C 98 884 115 997 151 1095 C 187 1193 235 1276 297 1342 C 358 1408 430 1459 514 1493 C 597 1527 687 1544 784 1544 C 880 1544 969 1527 1053 1493 C 1136 1459 1208 1408 1270 1342 C 1331 1276 1379 1193 1414 1095 C 1448 997 1466 884 1466 758 C 1466 630 1448 517 1414 419 C 1379 321 1331 239 1270 173 C 1208 107 1136 56 1053 22 C 969 -11 880 -29 784 -29 Z M 784 203 C 847 203 905 215 957 239 C 1009 263 1054 299 1091 347 C 1128 394 1157 452 1177 521 C 1197 590 1208 669 1208 758 C 1208 846 1197 925 1177 994 C 1157 1063 1128 1121 1091 1167 C 1054 1213 1009 1249 957 1273 C 905 1297 847 1309 784 1309 C 654 1309 551 1261 473 1167 C 395 1073 356 936 356 758 C 356 578 395 441 473 346 C 551 250 654 203 784 203 Z M 934 1591 C 900 1591 869 1596 843 1608 C 816 1620 791 1633 767 1647 C 743 1661 720 1675 700 1687 C 680 1699 659 1706 637 1706 C 608 1706 587 1697 573 1680 C 559 1663 553 1635 553 1595 L 412 1595 C 412 1696 430 1769 468 1813 C 505 1857 557 1880 625 1880 C 659 1880 689 1873 716 1861 C 742 1849 767 1835 791 1821 C 815 1807 837 1794 859 1782 C 880 1770 902 1765 924 1765 C 951 1765 972 1773 986 1791 C 1000 1808 1008 1836 1008 1876 L 1149 1876 C 1149 1776 1129 1703 1091 1658 C 1053 1613 1000 1591 934 1591 Z" unicode="Õ" />
<glyph horiz-adv-x="1565" d="M 461 1847 L 690 1847 L 690 1599 L 461 1599 L 461 1847 Z M 866 1847 L 1096 1847 L 1096 1599 L 866 1599 L 866 1847 Z M 784 -29 C 687 -29 597 -11 514 22 C 430 56 358 107 297 173 C 235 239 187 321 151 419 C 115 517 98 630 98 758 C 98 884 115 997 151 1095 C 187 1193 235 1276 297 1342 C 358 1408 430 1459 514 1493 C 597 1527 687 1544 784 1544 C 880 1544 969 1527 1053 1493 C 1136 1459 1208 1408 1270 1342 C 1331 1276 1379 1193 1414 1095 C 1448 997 1466 884 1466 758 C 1466 630 1448 517 1414 419 C 1379 321 1331 239 1270 173 C 1208 107 1136 56 1053 22 C 969 -11 880 -29 784 -29 Z M 784 203 C 847 203 905 215 957 239 C 1009 263 1054 299 1091 347 C 1128 394 1157 452 1177 521 C 1197 590 1208 669 1208 758 C 1208 846 1197 925 1177 994 C 1157 1063 1128 1121 1091 1167 C 1054 1213 1009 1249 957 1273 C 905 1297 847 1309 784 1309 C 654 1309 551 1261 473 1167 C 395 1073 356 936 356 758 C 356 578 395 441 473 346 C 551 250 654 203 784 203 Z" unicode="Ö" />
<glyph horiz-adv-x="1315" d="M 322 172 L 172 322 L 508 655 L 172 989 L 322 1137 L 655 803 L 989 1137 L 1137 989 L 805 657 L 1141 324 L 991 176 L 657 510 L 322 172 Z" unicode="×" />
<glyph horiz-adv-x="1565" d="M 1317 1282 C 1365 1216 1401 1140 1427 1054 C 1453 967 1466 868 1466 758 C 1466 630 1448 517 1414 419 C 1379 321 1331 239 1270 173 C 1208 107 1136 56 1053 22 C 969 -11 880 -29 784 -29 C 704 -29 628 -17 556 7 C 484 31 420 66 362 113 L 225 -51 L 96 49 L 248 231 C 200 297 163 373 137 461 C 111 548 98 647 98 758 C 98 884 115 997 151 1095 C 187 1193 235 1276 297 1342 C 358 1408 430 1459 514 1493 C 597 1527 687 1544 784 1544 C 864 1544 940 1532 1010 1509 C 1080 1486 1144 1451 1202 1403 L 1339 1567 L 1468 1466 L 1317 1282 Z M 508 299 C 581 228 673 193 784 193 C 848 193 907 205 959 230 C 1011 255 1057 292 1095 341 C 1133 389 1163 448 1183 518 C 1203 588 1214 668 1214 758 C 1214 887 1192 997 1149 1087 L 508 299 Z M 1055 1214 C 982 1282 892 1317 784 1317 C 718 1317 659 1304 606 1280 C 552 1255 507 1219 470 1171 C 432 1123 403 1065 382 996 C 360 927 350 848 350 758 C 350 690 355 629 367 574 C 379 519 395 470 416 426 L 1055 1214 Z" unicode="Ø" />
<glyph horiz-adv-x="1477" d="M 739 -25 C 634 -25 545 -11 471 17 C 397 45 336 84 288 135 C 240 185 206 246 184 317 C 162 388 152 467 152 553 L 152 1516 L 408 1516 L 408 575 C 408 459 434 368 486 304 C 538 239 623 207 741 207 C 857 207 941 238 994 302 C 1046 365 1073 455 1073 573 L 1073 1516 L 1325 1516 L 1325 555 C 1325 469 1312 390 1288 319 C 1263 248 1226 187 1178 136 C 1130 84 1069 45 996 17 C 923 -11 837 -25 739 -25 Z M 406 1946 L 678 1946 L 870 1606 L 705 1606 L 406 1946 Z" unicode="Ù" />
<glyph horiz-adv-x="1477" d="M 782 1946 L 1053 1946 L 756 1606 L 590 1606 L 782 1946 Z M 739 -25 C 634 -25 545 -11 471 17 C 397 45 336 84 288 135 C 240 185 206 246 184 317 C 162 388 152 467 152 553 L 152 1516 L 408 1516 L 408 575 C 408 459 434 368 486 304 C 538 239 623 207 741 207 C 857 207 941 238 994 302 C 1046 365 1073 455 1073 573 L 1073 1516 L 1325 1516 L 1325 555 C 1325 469 1312 390 1288 319 C 1263 248 1226 187 1178 136 C 1130 84 1069 45 996 17 C 923 -11 837 -25 739 -25 Z" unicode="Ú" />
<glyph horiz-adv-x="1477" d="M 649 1946 L 823 1946 L 1087 1606 L 940 1606 L 735 1778 L 530 1606 L 385 1606 L 649 1946 Z M 739 -25 C 634 -25 545 -11 471 17 C 397 45 336 84 288 135 C 240 185 206 246 184 317 C 162 388 152 467 152 553 L 152 1516 L 408 1516 L 408 575 C 408 459 434 368 486 304 C 538 239 623 207 741 207 C 857 207 941 238 994 302 C 1046 365 1073 455 1073 573 L 1073 1516 L 1325 1516 L 1325 555 C 1325 469 1312 390 1288 319 C 1263 248 1226 187 1178 136 C 1130 84 1069 45 996 17 C 923 -11 837 -25 739 -25 Z" unicode="Û" />
<glyph horiz-adv-x="1477" d="M 418 1847 L 647 1847 L 647 1599 L 418 1599 L 418 1847 Z M 823 1847 L 1053 1847 L 1053 1599 L 823 1599 L 823 1847 Z M 739 -25 C 634 -25 545 -11 471 17 C 397 45 336 84 288 135 C 240 185 206 246 184 317 C 162 388 152 467 152 553 L 152 1516 L 408 1516 L 408 575 C 408 459 434 368 486 304 C 538 239 623 207 741 207 C 857 207 941 238 994 302 C 1046 365 1073 455 1073 573 L 1073 1516 L 1325 1516 L 1325 555 C 1325 469 1312 390 1288 319 C 1263 248 1226 187 1178 136 C 1130 84 1069 45 996 17 C 923 -11 837 -25 739 -25 Z" unicode="Ü" />
<glyph horiz-adv-x="1354" d="M 547 0 L 547 653 L 31 1516 L 301 1516 L 680 870 L 1057 1516 L 1323 1516 L 805 653 L 805 0 L 547 0 Z M 688 1956 L 958 1956 L 662 1616 L 496 1616 L 688 1956 Z" unicode="Ý" />
<glyph horiz-adv-x="1362" d="M 172 0 L 172 1516 L 428 1516 L 428 1264 L 698 1264 C 780 1264 856 1255 927 1239 C 998 1222 1060 1195 1114 1159 C 1167 1122 1209 1074 1240 1014 C 1270 954 1286 880 1286 793 C 1286 701 1269 624 1237 563 C 1204 501 1160 452 1105 414 C 1049 376 986 350 914 334 C 842 318 768 311 690 311 L 428 311 L 428 0 L 172 0 Z M 428 541 L 698 541 C 811 541 894 559 947 597 C 999 634 1026 696 1026 784 C 1026 868 999 929 947 967 C 894 1005 810 1024 696 1024 L 428 1024 L 428 541 Z" unicode="Þ" />
<glyph horiz-adv-x="1341" d="M 838 -23 C 750 -23 676 -10 616 16 C 556 42 509 73 475 109 L 606 260 C 633 234 665 213 703 197 C 741 181 782 174 827 174 C 893 174 944 195 981 239 C 1017 283 1036 340 1036 412 C 1036 469 1024 516 1002 554 C 980 591 948 621 908 645 C 868 668 819 685 763 695 C 706 705 644 712 578 715 L 578 897 C 636 897 686 902 726 914 C 766 926 798 941 823 961 C 847 981 865 1005 875 1033 C 885 1061 891 1091 891 1124 C 891 1181 870 1225 829 1257 C 788 1289 729 1305 651 1305 C 566 1305 501 1284 457 1243 C 413 1202 391 1131 391 1030 L 391 0 L 141 0 L 141 1022 C 141 1105 153 1178 179 1240 C 204 1302 239 1353 284 1394 C 329 1435 383 1466 447 1486 C 511 1506 581 1516 657 1516 C 803 1516 918 1483 1001 1419 C 1084 1355 1126 1263 1126 1143 C 1126 1059 1101 991 1051 939 C 1001 886 939 848 864 825 C 916 818 966 806 1016 788 C 1065 770 1108 745 1146 713 C 1183 680 1213 640 1237 592 C 1260 544 1272 487 1272 422 C 1272 280 1233 170 1155 93 C 1077 15 971 -23 838 -23 Z" unicode="ß" />
<glyph horiz-adv-x="1157" d="M 379 -16 C 335 -16 294 -10 257 2 C 219 14 187 31 160 55 C 132 78 111 107 95 142 C 79 177 72 217 72 262 C 72 320 85 374 111 424 C 137 473 178 516 236 554 C 293 591 366 623 456 650 C 545 676 653 697 780 713 L 780 745 C 780 799 765 839 737 864 C 708 888 663 901 602 901 C 525 901 456 885 396 855 C 335 824 282 790 236 754 L 113 911 C 171 964 245 1010 334 1049 C 422 1088 523 1108 637 1108 C 709 1108 770 1099 820 1082 C 870 1065 910 1040 941 1006 C 971 972 993 931 1007 882 C 1021 833 1028 777 1028 715 L 1028 266 C 1028 200 1030 146 1035 104 C 1039 62 1047 27 1059 0 L 805 0 C 798 23 792 44 787 63 C 782 82 780 107 780 139 C 724 81 663 41 599 18 C 534 -4 461 -16 379 -16 Z M 471 178 C 536 178 594 189 645 212 C 695 234 740 265 780 303 L 780 543 C 628 522 514 493 436 455 C 358 417 319 369 319 309 C 319 265 332 233 360 211 C 387 189 424 178 471 178 Z M 260 1542 L 532 1542 L 725 1202 L 559 1202 L 260 1542 Z" unicode="à" />
<glyph horiz-adv-x="1157" d="M 379 -16 C 335 -16 294 -10 257 2 C 219 14 187 31 160 55 C 132 78 111 107 95 142 C 79 177 72 217 72 262 C 72 320 85 374 111 424 C 137 473 178 516 236 554 C 293 591 366 623 456 650 C 545 676 653 697 780 713 L 780 745 C 780 799 765 839 737 864 C 708 888 663 901 602 901 C 525 901 456 885 396 855 C 335 824 282 790 236 754 L 113 911 C 171 964 245 1010 334 1049 C 422 1088 523 1108 637 1108 C 709 1108 770 1099 820 1082 C 870 1065 910 1040 941 1006 C 971 972 993 931 1007 882 C 1021 833 1028 777 1028 715 L 1028 266 C 1028 200 1030 146 1035 104 C 1039 62 1047 27 1059 0 L 805 0 C 798 23 792 44 787 63 C 782 82 780 107 780 139 C 724 81 663 41 599 18 C 534 -4 461 -16 379 -16 Z M 471 178 C 536 178 594 189 645 212 C 695 234 740 265 780 303 L 780 543 C 628 522 514 493 436 455 C 358 417 319 369 319 309 C 319 265 332 233 360 211 C 387 189 424 178 471 178 Z M 649 1542 L 920 1542 L 623 1202 L 457 1202 L 649 1542 Z" unicode="á" />
<glyph horiz-adv-x="1157" d="M 379 -16 C 335 -16 294 -10 257 2 C 219 14 187 31 160 55 C 132 78 111 107 95 142 C 79 177 72 217 72 262 C 72 320 85 374 111 424 C 137 473 178 516 236 554 C 293 591 366 623 456 650 C 545 676 653 697 780 713 L 780 745 C 780 799 765 839 737 864 C 708 888 663 901 602 901 C 525 901 456 885 396 855 C 335 824 282 790 236 754 L 113 911 C 171 964 245 1010 334 1049 C 422 1088 523 1108 637 1108 C 709 1108 770 1099 820 1082 C 870 1065 910 1040 941 1006 C 971 972 993 931 1007 882 C 1021 833 1028 777 1028 715 L 1028 266 C 1028 200 1030 146 1035 104 C 1039 62 1047 27 1059 0 L 805 0 C 798 23 792 44 787 63 C 782 82 780 107 780 139 C 724 81 663 41 599 18 C 534 -4 461 -16 379 -16 Z M 471 178 C 536 178 594 189 645 212 C 695 234 740 265 780 303 L 780 543 C 628 522 514 493 436 455 C 358 417 319 369 319 309 C 319 265 332 233 360 211 C 387 189 424 178 471 178 Z M 498 1542 L 672 1542 L 936 1202 L 788 1202 L 584 1374 L 379 1202 L 233 1202 L 498 1542 Z" unicode="â" />
<glyph horiz-adv-x="1157" d="M 379 -16 C 335 -16 294 -10 257 2 C 219 14 187 31 160 55 C 132 78 111 107 95 142 C 79 177 72 217 72 262 C 72 320 85 374 111 424 C 137 473 178 516 236 554 C 293 591 366 623 456 650 C 545 676 653 697 780 713 L 780 745 C 780 799 765 839 737 864 C 708 888 663 901 602 901 C 525 901 456 885 396 855 C 335 824 282 790 236 754 L 113 911 C 171 964 245 1010 334 1049 C 422 1088 523 1108 637 1108 C 709 1108 770 1099 820 1082 C 870 1065 910 1040 941 1006 C 971 972 993 931 1007 882 C 1021 833 1028 777 1028 715 L 1028 266 C 1028 200 1030 146 1035 104 C 1039 62 1047 27 1059 0 L 805 0 C 798 23 792 44 787 63 C 782 82 780 107 780 139 C 724 81 663 41 599 18 C 534 -4 461 -16 379 -16 Z M 471 178 C 536 178 594 189 645 212 C 695 234 740 265 780 303 L 780 543 C 628 522 514 493 436 455 C 358 417 319 369 319 309 C 319 265 332 233 360 211 C 387 189 424 178 471 178 Z M 737 1188 C 703 1188 672 1193 646 1205 C 619 1217 594 1230 570 1244 C 546 1258 524 1272 504 1284 C 483 1296 462 1303 440 1303 C 411 1303 390 1294 376 1277 C 362 1259 356 1231 356 1192 L 215 1192 C 215 1292 233 1365 271 1410 C 309 1454 361 1477 428 1477 C 462 1477 492 1470 519 1458 C 545 1446 571 1432 595 1418 C 619 1404 641 1391 662 1379 C 683 1367 705 1362 727 1362 C 754 1362 775 1370 789 1387 C 803 1404 811 1433 811 1473 L 952 1473 C 952 1373 933 1300 895 1255 C 857 1210 804 1188 737 1188 Z" unicode="ã" />
<glyph horiz-adv-x="1157" d="M 379 -16 C 335 -16 294 -10 257 2 C 219 14 187 31 160 55 C 132 78 111 107 95 142 C 79 177 72 217 72 262 C 72 320 85 374 111 424 C 137 473 178 516 236 554 C 293 591 366 623 456 650 C 545 676 653 697 780 713 L 780 745 C 780 799 765 839 737 864 C 708 888 663 901 602 901 C 525 901 456 885 396 855 C 335 824 282 790 236 754 L 113 911 C 171 964 245 1010 334 1049 C 422 1088 523 1108 637 1108 C 709 1108 770 1099 820 1082 C 870 1065 910 1040 941 1006 C 971 972 993 931 1007 882 C 1021 833 1028 777 1028 715 L 1028 266 C 1028 200 1030 146 1035 104 C 1039 62 1047 27 1059 0 L 805 0 C 798 23 792 44 787 63 C 782 82 780 107 780 139 C 724 81 663 41 599 18 C 534 -4 461 -16 379 -16 Z M 471 178 C 536 178 594 189 645 212 C 695 234 740 265 780 303 L 780 543 C 628 522 514 493 436 455 C 358 417 319 369 319 309 C 319 265 332 233 360 211 C 387 189 424 178 471 178 Z M 272 1444 L 502 1444 L 502 1196 L 272 1196 L 272 1444 Z M 678 1444 L 907 1444 L 907 1196 L 678 1196 L 678 1444 Z" unicode="ä" />
<glyph horiz-adv-x="1157" d="M 379 -16 C 335 -16 294 -10 257 2 C 219 14 187 31 160 55 C 132 78 111 107 95 142 C 79 177 72 217 72 262 C 72 320 85 374 111 424 C 137 473 178 516 236 554 C 293 591 366 623 456 650 C 545 676 653 697 780 713 L 780 745 C 780 799 765 839 737 864 C 708 888 663 901 602 901 C 525 901 456 885 396 855 C 335 824 282 790 236 754 L 113 911 C 171 964 245 1010 334 1049 C 422 1088 523 1108 637 1108 C 709 1108 770 1099 820 1082 C 870 1065 910 1040 941 1006 C 971 972 993 931 1007 882 C 1021 833 1028 777 1028 715 L 1028 266 C 1028 200 1030 146 1035 104 C 1039 62 1047 27 1059 0 L 805 0 C 798 23 792 44 787 63 C 782 82 780 107 780 139 C 724 81 663 41 599 18 C 534 -4 461 -16 379 -16 Z M 471 178 C 536 178 594 189 645 212 C 695 234 740 265 780 303 L 780 543 C 628 522 514 493 436 455 C 358 417 319 369 319 309 C 319 265 332 233 360 211 C 387 189 424 178 471 178 Z M 594 1186 C 534 1186 484 1205 444 1245 C 404 1285 385 1335 385 1395 C 385 1455 404 1504 444 1543 C 484 1582 534 1602 594 1602 C 655 1602 705 1582 744 1543 C 783 1504 803 1455 803 1395 C 803 1335 783 1285 744 1245 C 705 1205 655 1186 594 1186 Z M 594 1290 C 624 1290 648 1299 666 1319 C 684 1338 694 1363 694 1395 C 694 1425 684 1449 666 1469 C 648 1489 624 1499 594 1499 C 565 1499 541 1489 522 1469 C 503 1449 494 1425 494 1395 C 494 1363 503 1338 522 1319 C 541 1299 565 1290 594 1290 Z" unicode="å" />
<glyph horiz-adv-x="1833" d="M 379 -23 C 333 -23 292 -16 255 -4 C 217 7 185 25 158 49 C 130 72 109 101 94 136 C 79 170 72 210 72 256 C 72 314 85 369 111 419 C 137 469 178 513 236 552 C 293 590 366 623 456 650 C 545 676 653 697 780 713 L 780 745 C 780 799 765 839 737 864 C 708 888 663 901 602 901 C 525 901 456 885 396 855 C 335 824 282 790 236 754 L 113 911 C 171 964 245 1010 334 1049 C 422 1088 523 1108 637 1108 C 685 1108 726 1103 760 1095 C 794 1087 823 1075 847 1060 C 871 1045 890 1027 905 1006 C 920 985 933 962 944 938 C 960 962 980 985 1004 1005 C 1028 1025 1054 1043 1084 1058 C 1113 1073 1144 1085 1177 1094 C 1210 1103 1243 1108 1276 1108 C 1336 1108 1394 1098 1452 1078 C 1509 1058 1560 1026 1604 980 C 1648 934 1684 873 1712 798 C 1739 723 1753 630 1753 520 L 1753 471 L 1010 471 C 1015 367 1045 292 1099 246 C 1153 200 1220 178 1300 178 C 1371 178 1429 189 1475 212 C 1521 234 1564 265 1606 305 L 1739 174 C 1681 111 1615 62 1540 28 C 1464 -5 1378 -23 1280 -23 C 1191 -23 1110 -6 1036 27 C 962 61 902 118 856 199 C 820 160 785 127 751 99 C 717 71 681 48 644 30 C 606 12 566 0 523 -9 C 480 -18 432 -23 379 -23 Z M 469 172 C 591 172 703 224 803 328 C 796 350 791 375 787 402 C 783 428 781 457 780 489 L 780 549 C 628 528 514 497 436 455 C 358 413 319 363 319 303 C 319 259 332 227 359 205 C 385 183 422 172 469 172 Z M 1522 649 C 1506 818 1424 903 1274 903 C 1242 903 1213 898 1185 890 C 1157 881 1131 866 1107 846 C 1083 825 1062 799 1046 767 C 1030 735 1019 695 1014 649 L 1522 649 Z" unicode="æ" />
<glyph horiz-adv-x="1126" d="M 592 -408 C 536 -408 483 -401 435 -387 C 386 -373 344 -355 309 -332 L 358 -250 C 390 -270 424 -286 461 -296 C 497 -306 533 -311 569 -311 C 651 -311 692 -284 692 -231 C 692 -209 685 -193 672 -183 C 659 -173 641 -168 618 -168 C 599 -168 582 -171 567 -178 C 552 -184 537 -193 522 -205 L 451 -170 L 500 -12 C 444 -4 391 13 341 39 C 291 65 246 100 208 146 C 169 192 138 247 116 313 C 93 379 82 455 82 543 C 82 646 97 733 129 805 C 160 877 201 935 251 981 C 301 1026 357 1058 419 1078 C 481 1098 542 1108 602 1108 C 668 1108 727 1099 777 1082 C 827 1065 869 1042 904 1013 C 938 983 968 949 992 911 C 1016 873 1036 833 1053 791 L 842 715 C 816 787 784 839 746 871 C 708 903 659 920 598 920 C 562 920 529 912 497 897 C 465 881 437 858 413 828 C 389 797 369 758 355 711 C 341 664 334 608 334 543 C 334 427 356 334 401 265 C 446 196 510 162 594 162 C 651 162 700 177 742 209 C 784 240 820 295 850 373 L 1057 297 C 1037 254 1015 214 990 177 C 964 139 934 107 899 79 C 863 51 822 28 776 10 C 730 -7 676 -16 614 -18 L 592 -100 C 606 -90 624 -83 644 -78 C 664 -72 687 -70 715 -70 C 754 -70 788 -81 818 -105 C 847 -129 862 -164 862 -211 C 862 -243 854 -272 840 -297 C 826 -321 806 -342 782 -358 C 757 -374 728 -387 696 -395 C 663 -403 628 -408 592 -408 Z" unicode="ç" />
<glyph horiz-adv-x="1155" d="M 604 -23 C 536 -23 470 -12 407 9 C 344 30 288 63 240 109 C 192 155 153 213 124 285 C 94 357 80 443 80 543 C 80 646 96 733 129 805 C 161 877 203 935 254 981 C 304 1026 360 1058 422 1078 C 483 1098 542 1108 598 1108 C 659 1108 718 1098 776 1078 C 833 1058 884 1026 928 980 C 972 934 1008 873 1035 798 C 1061 723 1075 630 1075 520 L 1075 461 L 332 461 C 337 362 367 290 421 245 C 475 200 542 178 623 178 C 693 178 751 189 797 212 C 843 234 886 265 928 305 L 1061 174 C 1003 111 937 62 863 28 C 789 -5 702 -23 604 -23 Z M 844 649 C 828 818 746 903 596 903 C 564 903 535 898 507 890 C 479 881 453 866 429 846 C 405 825 384 799 368 767 C 352 735 341 695 336 649 L 844 649 Z M 242 1542 L 514 1542 L 707 1202 L 541 1202 L 242 1542 Z" unicode="è" />
<glyph horiz-adv-x="1155" d="M 604 -23 C 536 -23 470 -12 407 9 C 344 30 288 63 240 109 C 192 155 153 213 124 285 C 94 357 80 443 80 543 C 80 646 96 733 129 805 C 161 877 203 935 254 981 C 304 1026 360 1058 422 1078 C 483 1098 542 1108 598 1108 C 659 1108 718 1098 776 1078 C 833 1058 884 1026 928 980 C 972 934 1008 873 1035 798 C 1061 723 1075 630 1075 520 L 1075 461 L 332 461 C 337 362 367 290 421 245 C 475 200 542 178 623 178 C 693 178 751 189 797 212 C 843 234 886 265 928 305 L 1061 174 C 1003 111 937 62 863 28 C 789 -5 702 -23 604 -23 Z M 844 649 C 828 818 746 903 596 903 C 564 903 535 898 507 890 C 479 881 453 866 429 846 C 405 825 384 799 368 767 C 352 735 341 695 336 649 L 844 649 Z M 651 1542 L 922 1542 L 625 1202 L 459 1202 L 651 1542 Z" unicode="é" />
<glyph horiz-adv-x="1155" d="M 604 -23 C 536 -23 470 -12 407 9 C 344 30 288 63 240 109 C 192 155 153 213 124 285 C 94 357 80 443 80 543 C 80 646 96 733 129 805 C 161 877 203 935 254 981 C 304 1026 360 1058 422 1078 C 483 1098 542 1108 598 1108 C 659 1108 718 1098 776 1078 C 833 1058 884 1026 928 980 C 972 934 1008 873 1035 798 C 1061 723 1075 630 1075 520 L 1075 461 L 332 461 C 337 362 367 290 421 245 C 475 200 542 178 623 178 C 693 178 751 189 797 212 C 843 234 886 265 928 305 L 1061 174 C 1003 111 937 62 863 28 C 789 -5 702 -23 604 -23 Z M 498 1542 L 672 1542 L 936 1202 L 788 1202 L 584 1374 L 379 1202 L 233 1202 L 498 1542 Z M 844 649 C 828 818 746 903 596 903 C 564 903 535 898 507 890 C 479 881 453 866 429 846 C 405 825 384 799 368 767 C 352 735 341 695 336 649 L 844 649 Z" unicode="ê" />
<glyph horiz-adv-x="1155" d="M 604 -23 C 536 -23 470 -12 407 9 C 344 30 288 63 240 109 C 192 155 153 213 124 285 C 94 357 80 443 80 543 C 80 646 96 733 129 805 C 161 877 203 935 254 981 C 304 1026 360 1058 422 1078 C 483 1098 542 1108 598 1108 C 659 1108 718 1098 776 1078 C 833 1058 884 1026 928 980 C 972 934 1008 873 1035 798 C 1061 723 1075 630 1075 520 L 1075 461 L 332 461 C 337 362 367 290 421 245 C 475 200 542 178 623 178 C 693 178 751 189 797 212 C 843 234 886 265 928 305 L 1061 174 C 1003 111 937 62 863 28 C 789 -5 702 -23 604 -23 Z M 844 649 C 828 818 746 903 596 903 C 564 903 535 898 507 890 C 479 881 453 866 429 846 C 405 825 384 799 368 767 C 352 735 341 695 336 649 L 844 649 Z M 262 1444 L 492 1444 L 492 1196 L 262 1196 L 262 1444 Z M 668 1444 L 897 1444 L 897 1196 L 668 1196 L 668 1444 Z" unicode="ë" />
<glyph horiz-adv-x="557" d="M 152 0 L 152 1087 L 406 1087 L 406 0 L 152 0 Z M -84 1542 L 188 1542 L 381 1202 L 215 1202 L -84 1542 Z" unicode="ì" />
<glyph horiz-adv-x="557" d="M 387 1542 L 657 1542 L 360 1202 L 195 1202 L 387 1542 Z M 152 0 L 152 1087 L 406 1087 L 406 0 L 152 0 Z" unicode="í" />
<glyph horiz-adv-x="557" d="M 193 1542 L 367 1542 L 631 1202 L 483 1202 L 279 1374 L 74 1202 L -72 1202 L 193 1542 Z M 152 0 L 152 1087 L 406 1087 L 406 0 L 152 0 Z" unicode="î" />
<glyph horiz-adv-x="557" d="M -41 1444 L 188 1444 L 188 1196 L -41 1196 L -41 1444 Z M 365 1444 L 594 1444 L 594 1196 L 365 1196 L 365 1444 Z M 152 0 L 152 1087 L 406 1087 L 406 0 L 152 0 Z" unicode="ï" />
<glyph horiz-adv-x="1219" d="M 610 -23 C 534 -23 463 -11 399 13 C 335 37 279 71 232 117 C 185 163 148 218 122 284 C 95 350 82 424 82 506 C 82 590 94 665 120 730 C 145 794 179 848 222 892 C 265 936 315 969 373 992 C 430 1014 491 1026 557 1026 C 583 1026 610 1022 640 1016 C 669 1009 698 999 727 986 C 755 973 782 957 808 938 C 833 918 855 896 874 872 C 862 925 844 977 822 1029 C 799 1080 769 1129 731 1176 L 549 1098 L 475 1237 L 627 1303 C 606 1323 584 1341 562 1359 C 539 1377 516 1395 492 1413 L 612 1556 C 649 1533 684 1509 718 1484 C 751 1458 783 1431 813 1401 L 995 1483 L 1069 1341 L 920 1274 C 989 1180 1042 1072 1080 950 C 1118 828 1137 691 1137 539 C 1137 450 1123 371 1097 302 C 1070 233 1033 174 986 126 C 938 77 883 40 819 15 C 755 -10 685 -23 610 -23 Z M 610 182 C 694 182 761 209 811 265 C 860 320 885 402 885 510 C 885 612 860 691 812 747 C 763 803 696 831 610 831 C 524 831 456 803 407 749 C 358 695 334 614 334 508 C 334 405 357 325 405 268 C 453 210 521 182 610 182 Z" unicode="ð" />
<glyph horiz-adv-x="1235" d="M 172 0 L 172 1087 L 424 1087 L 424 913 C 444 936 467 959 493 983 C 519 1006 548 1027 581 1045 C 614 1063 650 1078 688 1090 C 726 1102 767 1108 813 1108 C 913 1108 991 1082 1049 1030 C 1106 978 1135 898 1135 791 L 1135 0 L 883 0 L 883 719 C 883 779 870 824 844 854 C 818 884 776 899 719 899 C 663 899 611 886 564 861 C 517 835 470 801 424 758 L 424 0 L 172 0 Z M 780 1188 C 746 1188 715 1193 689 1205 C 662 1217 637 1230 613 1244 C 589 1258 567 1272 547 1284 C 526 1296 505 1303 483 1303 C 454 1303 433 1294 419 1277 C 405 1259 399 1231 399 1192 L 258 1192 C 258 1292 276 1365 314 1410 C 352 1454 404 1477 471 1477 C 505 1477 535 1470 562 1458 C 588 1446 614 1432 638 1418 C 662 1404 684 1391 705 1379 C 726 1367 748 1362 770 1362 C 797 1362 818 1370 832 1387 C 846 1404 854 1433 854 1473 L 995 1473 C 995 1373 976 1300 938 1255 C 900 1210 847 1188 780 1188 Z" unicode="ñ" />
<glyph horiz-adv-x="1221" d="M 610 -23 C 544 -23 480 -12 417 10 C 353 32 297 65 247 111 C 197 157 156 215 126 286 C 95 357 80 443 80 543 C 80 642 95 727 125 799 C 155 871 194 929 244 975 C 294 1021 350 1054 414 1076 C 478 1097 543 1108 610 1108 C 676 1108 740 1097 804 1076 C 867 1054 924 1021 974 975 C 1024 929 1064 871 1095 799 C 1125 727 1141 642 1141 543 C 1141 443 1125 357 1095 286 C 1064 215 1024 157 974 111 C 924 65 867 32 804 10 C 740 -12 676 -23 610 -23 Z M 610 188 C 702 188 771 219 817 281 C 863 343 887 431 887 543 C 887 593 881 639 870 683 C 859 726 842 763 820 794 C 797 824 768 848 734 866 C 699 884 658 893 610 893 C 518 893 449 862 403 801 C 357 739 334 653 334 543 C 334 491 339 443 350 400 C 361 357 378 320 400 289 C 422 257 451 233 486 215 C 521 197 562 188 610 188 Z M 270 1542 L 543 1542 L 735 1202 L 569 1202 L 270 1542 Z" unicode="ò" />
<glyph horiz-adv-x="1221" d="M 676 1542 L 946 1542 L 649 1202 L 483 1202 L 676 1542 Z M 610 -23 C 544 -23 480 -12 417 10 C 353 32 297 65 247 111 C 197 157 156 215 126 286 C 95 357 80 443 80 543 C 80 642 95 727 125 799 C 155 871 194 929 244 975 C 294 1021 350 1054 414 1076 C 478 1097 543 1108 610 1108 C 676 1108 740 1097 804 1076 C 867 1054 924 1021 974 975 C 1024 929 1064 871 1095 799 C 1125 727 1141 642 1141 543 C 1141 443 1125 357 1095 286 C 1064 215 1024 157 974 111 C 924 65 867 32 804 10 C 740 -12 676 -23 610 -23 Z M 610 188 C 702 188 771 219 817 281 C 863 343 887 431 887 543 C 887 593 881 639 870 683 C 859 726 842 763 820 794 C 797 824 768 848 734 866 C 699 884 658 893 610 893 C 518 893 449 862 403 801 C 357 739 334 653 334 543 C 334 491 339 443 350 400 C 361 357 378 320 400 289 C 422 257 451 233 486 215 C 521 197 562 188 610 188 Z" unicode="ó" />
<glyph horiz-adv-x="1221" d="M 522 1542 L 696 1542 L 961 1202 L 813 1202 L 608 1374 L 403 1202 L 258 1202 L 522 1542 Z M 610 -23 C 544 -23 480 -12 417 10 C 353 32 297 65 247 111 C 197 157 156 215 126 286 C 95 357 80 443 80 543 C 80 642 95 727 125 799 C 155 871 194 929 244 975 C 294 1021 350 1054 414 1076 C 478 1097 543 1108 610 1108 C 676 1108 740 1097 804 1076 C 867 1054 924 1021 974 975 C 1024 929 1064 871 1095 799 C 1125 727 1141 642 1141 543 C 1141 443 1125 357 1095 286 C 1064 215 1024 157 974 111 C 924 65 867 32 804 10 C 740 -12 676 -23 610 -23 Z M 610 188 C 702 188 771 219 817 281 C 863 343 887 431 887 543 C 887 593 881 639 870 683 C 859 726 842 763 820 794 C 797 824 768 848 734 866 C 699 884 658 893 610 893 C 518 893 449 862 403 801 C 357 739 334 653 334 543 C 334 491 339 443 350 400 C 361 357 378 320 400 289 C 422 257 451 233 486 215 C 521 197 562 188 610 188 Z" unicode="ô" />
<glyph horiz-adv-x="1221" d="M 610 -23 C 544 -23 480 -12 417 10 C 353 32 297 65 247 111 C 197 157 156 215 126 286 C 95 357 80 443 80 543 C 80 642 95 727 125 799 C 155 871 194 929 244 975 C 294 1021 350 1054 414 1076 C 478 1097 543 1108 610 1108 C 676 1108 740 1097 804 1076 C 867 1054 924 1021 974 975 C 1024 929 1064 871 1095 799 C 1125 727 1141 642 1141 543 C 1141 443 1125 357 1095 286 C 1064 215 1024 157 974 111 C 924 65 867 32 804 10 C 740 -12 676 -23 610 -23 Z M 610 188 C 702 188 771 219 817 281 C 863 343 887 431 887 543 C 887 593 881 639 870 683 C 859 726 842 763 820 794 C 797 824 768 848 734 866 C 699 884 658 893 610 893 C 518 893 449 862 403 801 C 357 739 334 653 334 543 C 334 491 339 443 350 400 C 361 357 378 320 400 289 C 422 257 451 233 486 215 C 521 197 562 188 610 188 Z M 766 1188 C 732 1188 701 1193 675 1205 C 648 1217 623 1230 599 1244 C 575 1258 552 1272 532 1284 C 512 1296 491 1303 469 1303 C 440 1303 419 1294 405 1277 C 391 1259 385 1231 385 1192 L 244 1192 C 244 1292 262 1365 300 1410 C 337 1454 389 1477 457 1477 C 491 1477 521 1470 548 1458 C 574 1446 599 1432 623 1418 C 647 1404 669 1391 691 1379 C 712 1367 734 1362 756 1362 C 783 1362 804 1370 818 1387 C 832 1404 840 1433 840 1473 L 981 1473 C 981 1373 961 1300 923 1255 C 885 1210 832 1188 766 1188 Z" unicode="õ" />
<glyph horiz-adv-x="1221" d="M 289 1444 L 518 1444 L 518 1196 L 289 1196 L 289 1444 Z M 694 1444 L 924 1444 L 924 1196 L 694 1196 L 694 1444 Z M 610 -23 C 544 -23 480 -12 417 10 C 353 32 297 65 247 111 C 197 157 156 215 126 286 C 95 357 80 443 80 543 C 80 642 95 727 125 799 C 155 871 194 929 244 975 C 294 1021 350 1054 414 1076 C 478 1097 543 1108 610 1108 C 676 1108 740 1097 804 1076 C 867 1054 924 1021 974 975 C 1024 929 1064 871 1095 799 C 1125 727 1141 642 1141 543 C 1141 443 1125 357 1095 286 C 1064 215 1024 157 974 111 C 924 65 867 32 804 10 C 740 -12 676 -23 610 -23 Z M 610 188 C 702 188 771 219 817 281 C 863 343 887 431 887 543 C 887 593 881 639 870 683 C 859 726 842 763 820 794 C 797 824 768 848 734 866 C 699 884 658 893 610 893 C 518 893 449 862 403 801 C 357 739 334 653 334 543 C 334 491 339 443 350 400 C 361 357 378 320 400 289 C 422 257 451 233 486 215 C 521 197 562 188 610 188 Z" unicode="ö" />
<glyph horiz-adv-x="1315" d="M 137 598 L 137 801 L 1180 801 L 1180 598 L 137 598 Z M 537 207 L 537 422 L 772 422 L 772 207 L 537 207 Z M 537 975 L 537 1190 L 772 1190 L 772 975 L 537 975 Z" unicode="÷" />
<glyph horiz-adv-x="1221" d="M 1026 922 C 1061 876 1089 822 1110 760 C 1130 697 1141 625 1141 543 C 1141 443 1125 357 1095 286 C 1064 215 1024 157 974 111 C 924 65 867 32 804 10 C 740 -12 676 -23 610 -23 C 556 -23 504 -16 453 -2 C 402 11 354 32 309 61 L 188 -78 L 82 20 L 201 158 C 163 204 134 258 112 322 C 90 386 80 459 80 543 C 80 642 95 727 125 799 C 155 871 194 929 244 975 C 294 1021 350 1054 414 1076 C 478 1097 543 1108 610 1108 C 664 1108 718 1101 771 1087 C 823 1073 872 1051 918 1020 L 1032 1155 L 1141 1055 L 1026 922 Z M 778 850 C 733 886 677 905 610 905 C 517 905 447 872 399 807 C 351 741 328 653 328 543 C 328 465 340 397 365 340 L 778 850 Z M 446 227 C 490 191 544 174 610 174 C 703 174 773 207 821 273 C 869 339 893 429 893 543 C 893 617 882 681 860 735 L 446 227 Z" unicode="ø" />
<glyph horiz-adv-x="1235" d="M 442 -20 C 346 -20 270 7 214 62 C 157 117 129 199 129 307 L 129 1087 L 383 1087 L 383 367 C 383 249 437 190 545 190 C 601 190 652 203 699 229 C 746 255 793 289 840 332 L 840 1087 L 1094 1087 L 1094 0 L 840 0 L 840 147 C 822 128 800 109 775 89 C 749 69 720 50 688 34 C 655 18 618 5 577 -5 C 536 -15 491 -20 442 -20 Z M 281 1542 L 553 1542 L 745 1202 L 580 1202 L 281 1542 Z" unicode="ù" />
<glyph horiz-adv-x="1235" d="M 670 1542 L 940 1542 L 643 1202 L 477 1202 L 670 1542 Z M 442 -20 C 346 -20 270 7 214 62 C 157 117 129 199 129 307 L 129 1087 L 383 1087 L 383 367 C 383 249 437 190 545 190 C 601 190 652 203 699 229 C 746 255 793 289 840 332 L 840 1087 L 1094 1087 L 1094 0 L 840 0 L 840 147 C 822 128 800 109 775 89 C 749 69 720 50 688 34 C 655 18 618 5 577 -5 C 536 -15 491 -20 442 -20 Z" unicode="ú" />
<glyph horiz-adv-x="1235" d="M 524 1542 L 698 1542 L 963 1202 L 815 1202 L 610 1374 L 406 1202 L 260 1202 L 524 1542 Z M 442 -20 C 346 -20 270 7 214 62 C 157 117 129 199 129 307 L 129 1087 L 383 1087 L 383 367 C 383 249 437 190 545 190 C 601 190 652 203 699 229 C 746 255 793 289 840 332 L 840 1087 L 1094 1087 L 1094 0 L 840 0 L 840 147 C 822 128 800 109 775 89 C 749 69 720 50 688 34 C 655 18 618 5 577 -5 C 536 -15 491 -20 442 -20 Z" unicode="û" />
<glyph horiz-adv-x="1235" d="M 293 1444 L 522 1444 L 522 1196 L 293 1196 L 293 1444 Z M 698 1444 L 928 1444 L 928 1196 L 698 1196 L 698 1444 Z M 442 -20 C 346 -20 270 7 214 62 C 157 117 129 199 129 307 L 129 1087 L 383 1087 L 383 367 C 383 249 437 190 545 190 C 601 190 652 203 699 229 C 746 255 793 289 840 332 L 840 1087 L 1094 1087 L 1094 0 L 840 0 L 840 147 C 822 128 800 109 775 89 C 749 69 720 50 688 34 C 655 18 618 5 577 -5 C 536 -15 491 -20 442 -20 Z" unicode="ü" />
<glyph horiz-adv-x="1120" d="M 256 -422 C 190 -422 138 -418 98 -410 C 58 -402 25 -395 -2 -389 L 55 -186 C 70 -190 94 -195 126 -201 C 158 -206 196 -209 240 -209 C 284 -209 320 -199 346 -180 C 372 -161 394 -130 412 -86 L 442 -6 L 25 1087 L 287 1087 L 567 295 L 571 295 L 850 1087 L 1100 1087 L 637 -119 C 619 -166 599 -208 577 -246 C 555 -284 530 -316 500 -342 C 470 -368 435 -387 395 -401 C 355 -415 309 -422 256 -422 Z M 571 1542 L 842 1542 L 545 1202 L 379 1202 L 571 1542 Z" unicode="ý" />
<glyph horiz-adv-x="1251" d="M 141 -410 L 141 1516 L 393 1516 L 393 944 C 428 988 474 1026 531 1059 C 587 1091 657 1108 739 1108 C 800 1108 857 1096 910 1073 C 962 1049 1008 1014 1046 967 C 1084 920 1114 861 1136 791 C 1158 721 1169 639 1169 545 C 1169 450 1157 368 1135 298 C 1113 228 1081 169 1041 123 C 1001 76 952 41 895 18 C 837 -4 774 -16 705 -16 C 645 -16 588 -4 534 18 C 480 41 433 75 393 121 L 393 -410 L 141 -410 Z M 649 184 C 745 184 813 213 855 272 C 897 330 918 421 918 543 C 918 659 895 746 849 805 C 803 863 739 893 657 893 C 605 893 556 879 509 851 C 461 823 423 791 393 756 L 393 319 C 427 275 467 242 513 219 C 559 195 604 184 649 184 Z" unicode="þ" />
<glyph horiz-adv-x="1120" d="M 256 -422 C 190 -422 138 -418 98 -410 C 58 -402 25 -395 -2 -389 L 55 -186 C 70 -190 94 -195 126 -201 C 158 -206 196 -209 240 -209 C 284 -209 320 -199 346 -180 C 372 -161 394 -130 412 -86 L 442 -6 L 25 1087 L 287 1087 L 567 295 L 571 295 L 850 1087 L 1100 1087 L 637 -119 C 619 -166 599 -208 577 -246 C 555 -284 530 -316 500 -342 C 470 -368 435 -387 395 -401 C 355 -415 309 -422 256 -422 Z M 248 1444 L 477 1444 L 477 1196 L 248 1196 L 248 1444 Z M 653 1444 L 883 1444 L 883 1196 L 653 1196 L 653 1444 Z" unicode="ÿ" />
<glyph horiz-adv-x="1427" d="M 51 0 L 588 1522 L 840 1522 L 1376 0 L 1114 0 L 991 360 L 416 360 L 291 0 L 51 0 Z M 494 586 L 915 586 L 709 1200 L 705 1200 L 494 586 Z M 393 1786 L 1032 1786 L 1032 1599 L 393 1599 L 393 1786 Z" unicode="Ā" />
<glyph horiz-adv-x="1157" d="M 379 -16 C 335 -16 294 -10 257 2 C 219 14 187 31 160 55 C 132 78 111 107 95 142 C 79 177 72 217 72 262 C 72 320 85 374 111 424 C 137 473 178 516 236 554 C 293 591 366 623 456 650 C 545 676 653 697 780 713 L 780 745 C 780 799 765 839 737 864 C 708 888 663 901 602 901 C 525 901 456 885 396 855 C 335 824 282 790 236 754 L 113 911 C 171 964 245 1010 334 1049 C 422 1088 523 1108 637 1108 C 709 1108 770 1099 820 1082 C 870 1065 910 1040 941 1006 C 971 972 993 931 1007 882 C 1021 833 1028 777 1028 715 L 1028 266 C 1028 200 1030 146 1035 104 C 1039 62 1047 27 1059 0 L 805 0 C 798 23 792 44 787 63 C 782 82 780 107 780 139 C 724 81 663 41 599 18 C 534 -4 461 -16 379 -16 Z M 471 178 C 536 178 594 189 645 212 C 695 234 740 265 780 303 L 780 543 C 628 522 514 493 436 455 C 358 417 319 369 319 309 C 319 265 332 233 360 211 C 387 189 424 178 471 178 Z M 258 1382 L 897 1382 L 897 1196 L 258 1196 L 258 1382 Z" unicode="ā" />
<glyph horiz-adv-x="1427" d="M 51 0 L 588 1522 L 840 1522 L 1376 0 L 1114 0 L 991 360 L 416 360 L 291 0 L 51 0 Z M 494 586 L 915 586 L 709 1200 L 705 1200 L 494 586 Z M 713 1589 C 659 1589 612 1597 571 1615 C 530 1633 495 1658 467 1690 C 438 1722 416 1761 400 1805 C 384 1849 375 1898 373 1952 L 514 1952 C 518 1913 526 1881 538 1856 C 550 1831 565 1811 583 1797 C 601 1783 621 1772 643 1766 C 665 1760 688 1757 713 1757 C 737 1757 760 1760 782 1766 C 804 1772 823 1783 841 1797 C 859 1811 874 1831 887 1856 C 900 1881 909 1913 913 1952 L 1053 1952 C 1050 1898 1041 1849 1025 1805 C 1009 1761 986 1722 958 1690 C 929 1658 894 1633 854 1615 C 813 1597 766 1589 713 1589 Z" unicode="Ă" />
<glyph horiz-adv-x="1157" d="M 379 -16 C 335 -16 294 -10 257 2 C 219 14 187 31 160 55 C 132 78 111 107 95 142 C 79 177 72 217 72 262 C 72 320 85 374 111 424 C 137 473 178 516 236 554 C 293 591 366 623 456 650 C 545 676 653 697 780 713 L 780 745 C 780 799 765 839 737 864 C 708 888 663 901 602 901 C 525 901 456 885 396 855 C 335 824 282 790 236 754 L 113 911 C 171 964 245 1010 334 1049 C 422 1088 523 1108 637 1108 C 709 1108 770 1099 820 1082 C 870 1065 910 1040 941 1006 C 971 972 993 931 1007 882 C 1021 833 1028 777 1028 715 L 1028 266 C 1028 200 1030 146 1035 104 C 1039 62 1047 27 1059 0 L 805 0 C 798 23 792 44 787 63 C 782 82 780 107 780 139 C 724 81 663 41 599 18 C 534 -4 461 -16 379 -16 Z M 471 178 C 536 178 594 189 645 212 C 695 234 740 265 780 303 L 780 543 C 628 522 514 493 436 455 C 358 417 319 369 319 309 C 319 265 332 233 360 211 C 387 189 424 178 471 178 Z M 578 1186 C 524 1186 477 1194 436 1212 C 395 1230 360 1255 332 1287 C 303 1319 281 1357 265 1401 C 249 1445 240 1494 238 1548 L 379 1548 C 383 1510 391 1478 403 1453 C 415 1427 430 1407 448 1393 C 466 1379 486 1369 508 1363 C 530 1357 553 1354 578 1354 C 602 1354 625 1357 647 1363 C 669 1369 688 1379 706 1393 C 724 1407 739 1427 752 1453 C 765 1478 774 1510 778 1548 L 918 1548 C 914 1494 905 1445 889 1401 C 873 1357 851 1319 823 1287 C 794 1255 759 1230 718 1212 C 677 1194 630 1186 578 1186 Z" unicode="ă" />
<glyph horiz-adv-x="1427" d="M 1159 -383 C 1089 -383 1036 -369 1000 -341 C 964 -313 946 -274 946 -225 C 946 -184 961 -144 993 -104 C 1024 -64 1064 -29 1112 2 L 991 360 L 416 360 L 291 0 L 51 0 L 588 1522 L 840 1522 L 1376 0 L 1251 0 C 1166 -60 1124 -122 1124 -186 C 1124 -209 1130 -229 1144 -246 C 1158 -263 1184 -272 1223 -272 C 1261 -272 1294 -267 1322 -257 C 1350 -247 1377 -235 1403 -223 L 1454 -303 C 1412 -327 1366 -347 1318 -361 C 1269 -375 1216 -383 1159 -383 Z M 494 586 L 915 586 L 709 1200 L 705 1200 L 494 586 Z" unicode="Ą" />
<glyph horiz-adv-x="1157" d="M 848 -383 C 778 -383 725 -369 689 -341 C 653 -313 635 -274 635 -225 C 635 -184 651 -143 683 -103 C 715 -63 755 -27 803 4 C 796 26 790 46 786 65 C 782 84 780 109 780 139 C 724 81 663 41 599 18 C 534 -4 461 -16 379 -16 C 335 -16 294 -10 257 2 C 219 14 187 31 160 55 C 132 78 111 107 95 142 C 79 177 72 217 72 262 C 72 320 85 374 111 424 C 137 473 178 516 236 554 C 293 591 366 623 456 650 C 545 676 653 697 780 713 L 780 745 C 780 799 765 839 737 864 C 708 888 663 901 602 901 C 525 901 456 885 396 855 C 335 824 282 790 236 754 L 113 911 C 171 964 245 1010 334 1049 C 422 1088 523 1108 637 1108 C 709 1108 770 1099 820 1082 C 870 1065 910 1040 941 1006 C 971 972 993 931 1007 882 C 1021 833 1028 777 1028 715 L 1028 266 C 1028 200 1030 146 1035 104 C 1039 62 1047 27 1059 0 L 940 0 C 855 -60 813 -122 813 -186 C 813 -209 819 -229 833 -246 C 847 -263 873 -272 911 -272 C 949 -272 983 -267 1011 -257 C 1039 -247 1066 -235 1092 -223 L 1143 -303 C 1100 -327 1054 -347 1006 -361 C 958 -375 905 -383 848 -383 Z M 471 178 C 536 178 594 189 645 212 C 695 234 740 265 780 303 L 780 543 C 628 522 514 493 436 455 C 358 417 319 369 319 309 C 319 265 332 233 360 211 C 387 189 424 178 471 178 Z" unicode="ą" />
<glyph horiz-adv-x="1468" d="M 797 1946 L 1067 1946 L 770 1606 L 604 1606 L 797 1946 Z M 764 -29 C 666 -29 577 -12 495 21 C 413 55 343 105 285 171 C 226 237 180 319 147 417 C 114 515 98 630 98 762 C 98 888 114 1000 148 1098 C 182 1196 228 1277 288 1343 C 347 1409 417 1459 499 1493 C 580 1527 668 1544 764 1544 C 851 1544 928 1532 994 1509 C 1060 1486 1117 1454 1164 1412 C 1211 1370 1250 1321 1281 1264 C 1311 1206 1335 1143 1352 1073 L 1108 1004 C 1092 1054 1075 1097 1057 1135 C 1039 1173 1016 1204 989 1230 C 961 1255 929 1274 893 1287 C 856 1300 812 1307 762 1307 C 633 1307 533 1259 462 1165 C 391 1071 356 937 356 764 C 356 582 392 444 464 348 C 536 252 637 205 766 205 C 864 205 942 230 1000 281 C 1058 332 1101 415 1130 530 L 1374 475 C 1355 399 1329 331 1296 269 C 1263 207 1222 154 1172 110 C 1122 66 1064 32 996 8 C 928 -16 851 -29 764 -29 Z" unicode="Ć" />
<glyph horiz-adv-x="1116" d="M 647 1542 L 918 1542 L 621 1202 L 455 1202 L 647 1542 Z M 588 -23 C 525 -23 463 -12 402 10 C 341 32 287 65 239 111 C 191 157 153 215 124 286 C 94 357 80 443 80 543 C 80 646 95 733 127 805 C 158 877 199 935 250 981 C 300 1026 357 1058 419 1078 C 481 1098 542 1108 602 1108 C 668 1108 727 1099 777 1082 C 827 1065 869 1042 904 1013 C 938 983 968 949 992 911 C 1016 873 1036 833 1053 791 L 840 715 C 797 836 716 897 598 897 C 562 897 529 890 497 878 C 465 866 437 846 413 818 C 389 790 369 753 355 708 C 341 663 334 608 334 543 C 334 427 356 338 401 276 C 446 214 510 184 594 184 C 651 184 700 196 741 221 C 782 245 818 296 848 373 L 1057 297 C 1037 253 1014 211 988 173 C 961 134 929 100 892 72 C 854 43 811 20 761 3 C 711 -14 653 -23 588 -23 Z" unicode="ć" />
<glyph horiz-adv-x="1468" d="M 670 1946 L 844 1946 L 1108 1606 L 961 1606 L 756 1778 L 551 1606 L 406 1606 L 670 1946 Z M 764 -29 C 666 -29 577 -12 495 21 C 413 55 343 105 285 171 C 226 237 180 319 147 417 C 114 515 98 630 98 762 C 98 888 114 1000 148 1098 C 182 1196 228 1277 288 1343 C 347 1409 417 1459 499 1493 C 580 1527 668 1544 764 1544 C 851 1544 928 1532 994 1509 C 1060 1486 1117 1454 1164 1412 C 1211 1370 1250 1321 1281 1264 C 1311 1206 1335 1143 1352 1073 L 1108 1004 C 1092 1054 1075 1097 1057 1135 C 1039 1173 1016 1204 989 1230 C 961 1255 929 1274 893 1287 C 856 1300 812 1307 762 1307 C 633 1307 533 1259 462 1165 C 391 1071 356 937 356 764 C 356 582 392 444 464 348 C 536 252 637 205 766 205 C 864 205 942 230 1000 281 C 1058 332 1101 415 1130 530 L 1374 475 C 1355 399 1329 331 1296 269 C 1263 207 1222 154 1172 110 C 1122 66 1064 32 996 8 C 928 -16 851 -29 764 -29 Z" unicode="Ĉ" />
<glyph horiz-adv-x="1116" d="M 485 1542 L 659 1542 L 924 1202 L 776 1202 L 571 1374 L 367 1202 L 221 1202 L 485 1542 Z M 588 -23 C 525 -23 463 -12 402 10 C 341 32 287 65 239 111 C 191 157 153 215 124 286 C 94 357 80 443 80 543 C 80 646 95 733 127 805 C 158 877 199 935 250 981 C 300 1026 357 1058 419 1078 C 481 1098 542 1108 602 1108 C 668 1108 727 1099 777 1082 C 827 1065 869 1042 904 1013 C 938 983 968 949 992 911 C 1016 873 1036 833 1053 791 L 840 715 C 797 836 716 897 598 897 C 562 897 529 890 497 878 C 465 866 437 846 413 818 C 389 790 369 753 355 708 C 341 663 334 608 334 543 C 334 427 356 338 401 276 C 446 214 510 184 594 184 C 651 184 700 196 741 221 C 782 245 818 296 848 373 L 1057 297 C 1037 253 1014 211 988 173 C 961 134 929 100 892 72 C 854 43 811 20 761 3 C 711 -14 653 -23 588 -23 Z" unicode="ĉ" />
<glyph horiz-adv-x="1468" d="M 764 -29 C 666 -29 577 -12 495 21 C 413 55 343 105 285 171 C 226 237 180 319 147 417 C 114 515 98 630 98 762 C 98 888 114 1000 148 1098 C 182 1196 228 1277 288 1343 C 347 1409 417 1459 499 1493 C 580 1527 668 1544 764 1544 C 851 1544 928 1532 994 1509 C 1060 1486 1117 1454 1164 1412 C 1211 1370 1250 1321 1281 1264 C 1311 1206 1335 1143 1352 1073 L 1108 1004 C 1092 1054 1075 1097 1057 1135 C 1039 1173 1016 1204 989 1230 C 961 1255 929 1274 893 1287 C 856 1300 812 1307 762 1307 C 633 1307 533 1259 462 1165 C 391 1071 356 937 356 764 C 356 582 392 444 464 348 C 536 252 637 205 766 205 C 864 205 942 230 1000 281 C 1058 332 1101 415 1130 530 L 1374 475 C 1355 399 1329 331 1296 269 C 1263 207 1222 154 1172 110 C 1122 66 1064 32 996 8 C 928 -16 851 -29 764 -29 Z M 618 1849 L 889 1849 L 889 1622 L 618 1622 L 618 1849 Z" unicode="Ċ" />
<glyph horiz-adv-x="1116" d="M 588 -23 C 525 -23 463 -12 402 10 C 341 32 287 65 239 111 C 191 157 153 215 124 286 C 94 357 80 443 80 543 C 80 646 95 733 127 805 C 158 877 199 935 250 981 C 300 1026 357 1058 419 1078 C 481 1098 542 1108 602 1108 C 668 1108 727 1099 777 1082 C 827 1065 869 1042 904 1013 C 938 983 968 949 992 911 C 1016 873 1036 833 1053 791 L 840 715 C 797 836 716 897 598 897 C 562 897 529 890 497 878 C 465 866 437 846 413 818 C 389 790 369 753 355 708 C 341 663 334 608 334 543 C 334 427 356 338 401 276 C 446 214 510 184 594 184 C 651 184 700 196 741 221 C 782 245 818 296 848 373 L 1057 297 C 1037 253 1014 211 988 173 C 961 134 929 100 892 72 C 854 43 811 20 761 3 C 711 -14 653 -23 588 -23 Z M 442 1446 L 713 1446 L 713 1219 L 442 1219 L 442 1446 Z" unicode="ċ" />
<glyph horiz-adv-x="1468" d="M 381 1952 L 528 1952 L 733 1780 L 938 1952 L 1083 1952 L 819 1612 L 645 1612 L 381 1952 Z M 764 -29 C 666 -29 577 -12 495 21 C 413 55 343 105 285 171 C 226 237 180 319 147 417 C 114 515 98 630 98 762 C 98 888 114 1000 148 1098 C 182 1196 228 1277 288 1343 C 347 1409 417 1459 499 1493 C 580 1527 668 1544 764 1544 C 851 1544 928 1532 994 1509 C 1060 1486 1117 1454 1164 1412 C 1211 1370 1250 1321 1281 1264 C 1311 1206 1335 1143 1352 1073 L 1108 1004 C 1092 1054 1075 1097 1057 1135 C 1039 1173 1016 1204 989 1230 C 961 1255 929 1274 893 1287 C 856 1300 812 1307 762 1307 C 633 1307 533 1259 462 1165 C 391 1071 356 937 356 764 C 356 582 392 444 464 348 C 536 252 637 205 766 205 C 864 205 942 230 1000 281 C 1058 332 1101 415 1130 530 L 1374 475 C 1355 399 1329 331 1296 269 C 1263 207 1222 154 1172 110 C 1122 66 1064 32 996 8 C 928 -16 851 -29 764 -29 Z" unicode="Č" />
<glyph horiz-adv-x="1116" d="M 207 1548 L 354 1548 L 559 1376 L 764 1548 L 909 1548 L 645 1208 L 471 1208 L 207 1548 Z M 588 -23 C 525 -23 463 -12 402 10 C 341 32 287 65 239 111 C 191 157 153 215 124 286 C 94 357 80 443 80 543 C 80 646 95 733 127 805 C 158 877 199 935 250 981 C 300 1026 357 1058 419 1078 C 481 1098 542 1108 602 1108 C 668 1108 727 1099 777 1082 C 827 1065 869 1042 904 1013 C 938 983 968 949 992 911 C 1016 873 1036 833 1053 791 L 840 715 C 797 836 716 897 598 897 C 562 897 529 890 497 878 C 465 866 437 846 413 818 C 389 790 369 753 355 708 C 341 663 334 608 334 543 C 334 427 356 338 401 276 C 446 214 510 184 594 184 C 651 184 700 196 741 221 C 782 245 818 296 848 373 L 1057 297 C 1037 253 1014 211 988 173 C 961 134 929 100 892 72 C 854 43 811 20 761 3 C 711 -14 653 -23 588 -23 Z" unicode="č" />
<glyph horiz-adv-x="1491" d="M 393 1952 L 541 1952 L 745 1780 L 950 1952 L 1096 1952 L 831 1612 L 657 1612 L 393 1952 Z M 172 0 L 172 1516 L 604 1516 C 722 1516 830 1501 927 1473 C 1024 1444 1107 1399 1175 1338 C 1243 1277 1296 1199 1334 1105 C 1372 1010 1391 896 1391 764 C 1391 628 1371 512 1333 416 C 1295 320 1241 241 1172 179 C 1103 117 1020 71 924 43 C 828 14 721 0 604 0 L 172 0 Z M 428 229 L 627 229 C 800 229 928 270 1011 353 C 1093 435 1135 572 1135 764 C 1135 946 1093 1078 1010 1158 C 926 1238 797 1278 623 1278 L 428 1278 L 428 229 Z" unicode="Ď" />
<glyph horiz-adv-x="1251" d="M 1303 1403 L 1206 1403 L 1206 1640 L 1450 1640 L 1450 1434 L 1341 1192 L 1239 1192 L 1303 1403 Z M 512 -16 C 450 -16 393 -4 341 17 C 288 39 242 74 204 120 C 166 166 136 224 114 294 C 92 364 82 446 82 541 C 82 635 93 717 116 788 C 138 859 170 918 210 965 C 250 1012 298 1048 356 1072 C 413 1096 477 1108 547 1108 C 605 1108 662 1096 717 1073 C 771 1049 818 1015 858 971 L 858 1516 L 1110 1516 L 1110 266 C 1110 200 1112 146 1117 104 C 1121 62 1130 27 1143 0 L 883 0 C 875 15 869 36 865 64 C 860 92 858 119 858 147 C 818 101 771 62 717 31 C 662 0 594 -16 512 -16 Z M 594 190 C 646 190 695 204 742 232 C 789 260 828 292 858 328 L 858 764 C 824 807 784 840 738 864 C 692 887 647 899 602 899 C 506 899 438 868 396 808 C 354 747 334 656 334 535 C 334 418 356 331 402 275 C 448 218 512 190 594 190 Z" unicode="ď" />
<glyph horiz-adv-x="1491" d="M 172 0 L 172 686 L 23 686 L 23 883 L 172 883 L 172 1516 L 604 1516 C 722 1516 830 1501 927 1473 C 1024 1444 1107 1399 1175 1337 C 1243 1275 1296 1197 1334 1101 C 1372 1005 1391 891 1391 758 C 1391 624 1371 509 1333 413 C 1295 317 1241 239 1172 178 C 1103 116 1020 71 924 43 C 828 14 721 0 604 0 L 172 0 Z M 426 227 L 627 227 C 800 227 928 268 1011 352 C 1093 435 1135 572 1135 764 C 1135 946 1093 1078 1010 1158 C 926 1238 797 1278 623 1278 L 426 1278 L 426 883 L 743 883 L 743 686 L 426 686 L 426 227 Z" unicode="Đ" />
<glyph horiz-adv-x="1251" d="M 662 1366 L 858 1366 L 858 1516 L 1110 1516 L 1110 1366 L 1260 1366 L 1260 1198 L 1110 1198 L 1110 266 C 1110 200 1112 146 1117 104 C 1121 62 1130 27 1143 0 L 883 0 C 875 15 869 39 865 72 C 860 104 858 135 858 164 C 818 114 771 72 717 36 C 662 0 594 -18 512 -18 C 450 -18 393 -6 341 15 C 288 37 242 71 204 117 C 166 163 136 220 114 290 C 92 360 82 442 82 537 C 82 631 92 713 114 784 C 136 855 166 915 205 963 C 244 1011 290 1048 343 1072 C 395 1096 453 1108 516 1108 C 590 1108 655 1093 713 1064 C 770 1034 818 994 858 942 L 858 1198 L 662 1198 L 662 1366 Z M 594 176 C 646 176 693 189 736 215 C 779 241 820 273 858 313 L 858 768 C 814 812 772 844 730 866 C 688 888 642 899 590 899 C 512 899 449 869 403 811 C 357 752 334 661 334 539 C 334 423 356 333 402 270 C 448 207 512 176 594 176 Z" unicode="đ" />
<glyph horiz-adv-x="1272" d="M 172 0 L 172 1516 L 1151 1516 L 1151 1278 L 428 1278 L 428 901 L 958 901 L 958 674 L 428 674 L 428 233 L 1192 233 L 1192 0 L 172 0 Z M 356 1786 L 995 1786 L 995 1599 L 356 1599 L 356 1786 Z" unicode="Ē" />
<glyph horiz-adv-x="1155" d="M 604 -23 C 536 -23 470 -12 407 9 C 344 30 288 63 240 109 C 192 155 153 213 124 285 C 94 357 80 443 80 543 C 80 646 96 733 129 805 C 161 877 203 935 254 981 C 304 1026 360 1058 422 1078 C 483 1098 542 1108 598 1108 C 659 1108 718 1098 776 1078 C 833 1058 884 1026 928 980 C 972 934 1008 873 1035 798 C 1061 723 1075 630 1075 520 L 1075 461 L 332 461 C 337 362 367 290 421 245 C 475 200 542 178 623 178 C 693 178 751 189 797 212 C 843 234 886 265 928 305 L 1061 174 C 1003 111 937 62 863 28 C 789 -5 702 -23 604 -23 Z M 256 1382 L 895 1382 L 895 1196 L 256 1196 L 256 1382 Z M 844 649 C 828 818 746 903 596 903 C 564 903 535 898 507 890 C 479 881 453 866 429 846 C 405 825 384 799 368 767 C 352 735 341 695 336 649 L 844 649 Z" unicode="ē" />
<glyph horiz-adv-x="1272" d="M 172 0 L 172 1516 L 1151 1516 L 1151 1278 L 428 1278 L 428 901 L 958 901 L 958 674 L 428 674 L 428 233 L 1192 233 L 1192 0 L 172 0 Z M 645 1587 C 591 1587 544 1595 503 1613 C 462 1631 427 1656 399 1688 C 370 1720 348 1759 332 1803 C 316 1847 307 1896 305 1950 L 446 1950 C 450 1911 459 1879 471 1854 C 483 1829 498 1809 516 1795 C 534 1781 553 1770 575 1764 C 597 1758 620 1755 645 1755 C 669 1755 693 1758 715 1764 C 737 1770 756 1781 774 1795 C 792 1809 807 1829 820 1854 C 833 1879 842 1911 846 1950 L 985 1950 C 982 1896 973 1847 957 1803 C 941 1759 919 1720 891 1688 C 862 1656 827 1631 786 1613 C 745 1595 698 1587 645 1587 Z" unicode="Ĕ" />
<glyph horiz-adv-x="1155" d="M 604 -23 C 536 -23 470 -12 407 9 C 344 30 288 63 240 109 C 192 155 153 213 124 285 C 94 357 80 443 80 543 C 80 646 96 733 129 805 C 161 877 203 935 254 981 C 304 1026 360 1058 422 1078 C 483 1098 542 1108 598 1108 C 659 1108 718 1098 776 1078 C 833 1058 884 1026 928 980 C 972 934 1008 873 1035 798 C 1061 723 1075 630 1075 520 L 1075 461 L 332 461 C 337 362 367 290 421 245 C 475 200 542 178 623 178 C 693 178 751 189 797 212 C 843 234 886 265 928 305 L 1061 174 C 1003 111 937 62 863 28 C 789 -5 702 -23 604 -23 Z M 586 1186 C 532 1186 485 1194 444 1212 C 403 1230 368 1255 340 1287 C 311 1319 289 1357 273 1401 C 257 1445 248 1494 246 1548 L 387 1548 C 391 1510 399 1478 411 1453 C 423 1427 438 1407 456 1393 C 474 1379 494 1369 516 1363 C 538 1357 561 1354 586 1354 C 610 1354 633 1357 655 1363 C 677 1369 696 1379 714 1393 C 732 1407 747 1427 760 1453 C 773 1478 782 1510 786 1548 L 926 1548 C 923 1494 914 1445 898 1401 C 882 1357 859 1319 831 1287 C 802 1255 767 1230 727 1212 C 686 1194 639 1186 586 1186 Z M 844 649 C 828 818 746 903 596 903 C 564 903 535 898 507 890 C 479 881 453 866 429 846 C 405 825 384 799 368 767 C 352 735 341 695 336 649 L 844 649 Z" unicode="ĕ" />
<glyph horiz-adv-x="1272" d="M 172 0 L 172 1516 L 1151 1516 L 1151 1278 L 428 1278 L 428 901 L 958 901 L 958 674 L 428 674 L 428 233 L 1192 233 L 1192 0 L 172 0 Z M 541 1849 L 811 1849 L 811 1622 L 541 1622 L 541 1849 Z" unicode="Ė" />
<glyph horiz-adv-x="1155" d="M 604 -23 C 536 -23 470 -12 407 9 C 344 30 288 63 240 109 C 192 155 153 213 124 285 C 94 357 80 443 80 543 C 80 646 96 733 129 805 C 161 877 203 935 254 981 C 304 1026 360 1058 422 1078 C 483 1098 542 1108 598 1108 C 659 1108 718 1098 776 1078 C 833 1058 884 1026 928 980 C 972 934 1008 873 1035 798 C 1061 723 1075 630 1075 520 L 1075 461 L 332 461 C 337 362 367 290 421 245 C 475 200 542 178 623 178 C 693 178 751 189 797 212 C 843 234 886 265 928 305 L 1061 174 C 1003 111 937 62 863 28 C 789 -5 702 -23 604 -23 Z M 844 649 C 828 818 746 903 596 903 C 564 903 535 898 507 890 C 479 881 453 866 429 846 C 405 825 384 799 368 767 C 352 735 341 695 336 649 L 844 649 Z M 440 1446 L 711 1446 L 711 1219 L 440 1219 L 440 1446 Z" unicode="ė" />
<glyph horiz-adv-x="1272" d="M 1030 0 C 945 -60 903 -122 903 -186 C 903 -209 909 -229 923 -246 C 937 -263 963 -272 1001 -272 C 1039 -272 1073 -267 1101 -257 C 1129 -247 1156 -235 1182 -223 L 1233 -303 C 1190 -327 1144 -347 1096 -361 C 1048 -375 995 -383 938 -383 C 868 -383 815 -369 779 -341 C 743 -313 725 -274 725 -225 C 725 -185 740 -146 771 -106 C 801 -66 840 -31 887 0 L 172 0 L 172 1516 L 1151 1516 L 1151 1278 L 428 1278 L 428 901 L 958 901 L 958 674 L 428 674 L 428 233 L 1192 233 L 1192 0 L 1030 0 Z" unicode="Ę" />
<glyph horiz-adv-x="1155" d="M 647 -383 C 577 -383 524 -369 488 -341 C 452 -313 434 -274 434 -225 C 434 -189 446 -154 471 -119 C 495 -83 527 -50 565 -20 C 501 -16 439 -2 381 20 C 322 43 270 78 226 124 C 182 170 146 227 120 296 C 93 364 80 447 80 543 C 80 646 96 733 129 805 C 161 877 203 935 254 981 C 304 1026 360 1058 422 1078 C 483 1098 542 1108 598 1108 C 659 1108 718 1098 776 1078 C 833 1058 884 1026 928 980 C 972 934 1008 873 1035 798 C 1061 723 1075 630 1075 520 L 1075 461 L 332 461 C 337 362 367 290 421 245 C 475 200 542 178 623 178 C 693 178 751 189 797 212 C 843 234 886 265 928 305 L 1061 174 C 1015 124 965 84 909 52 C 853 20 790 -1 721 -12 C 648 -70 612 -128 612 -186 C 612 -209 618 -229 632 -246 C 646 -263 672 -272 711 -272 C 749 -272 782 -267 810 -257 C 838 -247 865 -235 891 -223 L 942 -303 C 900 -327 854 -347 806 -361 C 757 -375 704 -383 647 -383 Z M 844 649 C 828 818 746 903 596 903 C 564 903 535 898 507 890 C 479 881 453 866 429 846 C 405 825 384 799 368 767 C 352 735 341 695 336 649 L 844 649 Z" unicode="ę" />
<glyph horiz-adv-x="1272" d="M 324 1952 L 471 1952 L 676 1780 L 881 1952 L 1026 1952 L 762 1612 L 588 1612 L 324 1952 Z M 172 0 L 172 1516 L 1151 1516 L 1151 1278 L 428 1278 L 428 901 L 958 901 L 958 674 L 428 674 L 428 233 L 1192 233 L 1192 0 L 172 0 Z" unicode="Ě" />
<glyph horiz-adv-x="1155" d="M 604 -23 C 536 -23 470 -12 407 9 C 344 30 288 63 240 109 C 192 155 153 213 124 285 C 94 357 80 443 80 543 C 80 646 96 733 129 805 C 161 877 203 935 254 981 C 304 1026 360 1058 422 1078 C 483 1098 542 1108 598 1108 C 659 1108 718 1098 776 1078 C 833 1058 884 1026 928 980 C 972 934 1008 873 1035 798 C 1061 723 1075 630 1075 520 L 1075 461 L 332 461 C 337 362 367 290 421 245 C 475 200 542 178 623 178 C 693 178 751 189 797 212 C 843 234 886 265 928 305 L 1061 174 C 1003 111 937 62 863 28 C 789 -5 702 -23 604 -23 Z M 225 1548 L 373 1548 L 578 1376 L 782 1548 L 928 1548 L 664 1208 L 489 1208 L 225 1548 Z M 844 649 C 828 818 746 903 596 903 C 564 903 535 898 507 890 C 479 881 453 866 429 846 C 405 825 384 799 368 767 C 352 735 341 695 336 649 L 844 649 Z" unicode="ě" />
<glyph horiz-adv-x="1526" d="M 678 1946 L 852 1946 L 1116 1606 L 969 1606 L 764 1778 L 559 1606 L 414 1606 L 678 1946 Z M 745 -29 C 636 -29 541 -9 461 29 C 380 68 313 123 259 193 C 205 263 164 347 138 444 C 111 541 98 648 98 764 C 98 885 113 994 145 1090 C 177 1186 222 1268 281 1336 C 339 1404 409 1455 491 1491 C 573 1526 664 1544 766 1544 C 909 1544 1031 1507 1133 1434 C 1235 1361 1308 1239 1354 1067 L 1116 1004 C 1082 1117 1037 1196 982 1240 C 926 1284 854 1307 764 1307 C 718 1307 672 1299 624 1283 C 576 1267 532 1239 492 1198 C 452 1157 419 1102 394 1033 C 368 964 356 876 356 770 C 356 663 367 573 391 501 C 414 429 445 370 484 326 C 523 282 568 250 618 230 C 668 210 720 201 774 201 C 875 201 957 230 1021 288 C 1084 346 1120 431 1128 543 L 823 543 L 823 750 L 1374 750 L 1374 0 L 1163 0 L 1163 219 L 1159 219 C 1147 191 1129 163 1107 134 C 1084 104 1056 78 1022 54 C 988 30 948 10 902 -5 C 856 -21 804 -29 745 -29 Z" unicode="Ĝ" />
<glyph horiz-adv-x="1219" d="M 473 1542 L 647 1542 L 911 1202 L 764 1202 L 559 1374 L 354 1202 L 209 1202 L 473 1542 Z M 551 -422 C 457 -422 376 -415 310 -402 C 244 -389 190 -371 148 -348 C 106 -324 76 -296 56 -264 C 36 -231 27 -195 27 -156 C 27 -101 42 -54 74 -16 C 105 21 149 52 205 74 C 149 102 121 147 121 207 C 121 247 135 284 164 318 C 192 352 227 381 268 406 C 212 441 169 485 140 538 C 110 591 96 651 96 719 C 96 775 106 826 128 873 C 149 920 179 961 218 996 C 256 1031 304 1058 361 1078 C 417 1098 481 1108 553 1108 C 628 1108 693 1097 748 1075 C 803 1053 849 1025 887 993 C 922 1020 965 1044 1015 1064 C 1065 1084 1112 1096 1157 1100 L 1157 895 C 1132 895 1103 893 1070 889 C 1036 885 1002 877 967 866 C 993 825 1006 776 1006 719 C 1006 661 995 609 975 562 C 954 515 924 474 885 440 C 846 406 799 379 743 360 C 687 341 623 332 553 332 C 521 332 495 334 474 338 C 452 342 428 347 401 354 C 385 344 371 334 361 323 C 351 312 346 299 346 285 C 346 263 354 247 372 238 C 390 229 423 223 471 219 L 664 207 C 744 201 812 192 869 178 C 925 164 972 146 1008 122 C 1044 98 1071 68 1087 34 C 1103 0 1112 -42 1112 -90 C 1112 -146 1098 -194 1071 -236 C 1043 -278 1005 -312 956 -340 C 907 -367 848 -387 779 -401 C 710 -415 634 -422 551 -422 Z M 557 506 C 627 506 681 523 719 558 C 757 592 776 643 776 711 C 776 779 757 830 720 866 C 682 902 627 920 555 920 C 485 920 431 901 392 865 C 353 829 334 777 334 711 C 334 643 353 592 393 558 C 433 523 487 506 557 506 Z M 590 -240 C 682 -240 755 -228 809 -206 C 862 -183 889 -152 889 -113 C 889 -93 884 -77 876 -63 C 868 -49 853 -38 833 -28 C 813 -18 784 -11 748 -6 C 712 0 666 4 612 8 L 424 20 C 402 20 380 22 358 27 C 322 10 297 -10 281 -35 C 265 -59 258 -85 258 -113 C 258 -160 285 -193 341 -212 C 396 -230 479 -240 590 -240 Z" unicode="ĝ" />
<glyph horiz-adv-x="1526" d="M 745 -29 C 636 -29 541 -9 461 29 C 380 68 313 123 259 193 C 205 263 164 347 138 444 C 111 541 98 648 98 764 C 98 885 113 994 145 1090 C 177 1186 222 1268 281 1336 C 339 1404 409 1455 491 1491 C 573 1526 664 1544 766 1544 C 909 1544 1031 1507 1133 1434 C 1235 1361 1308 1239 1354 1067 L 1116 1004 C 1082 1117 1037 1196 982 1240 C 926 1284 854 1307 764 1307 C 718 1307 672 1299 624 1283 C 576 1267 532 1239 492 1198 C 452 1157 419 1102 394 1033 C 368 964 356 876 356 770 C 356 663 367 573 391 501 C 414 429 445 370 484 326 C 523 282 568 250 618 230 C 668 210 720 201 774 201 C 875 201 957 230 1021 288 C 1084 346 1120 431 1128 543 L 823 543 L 823 750 L 1374 750 L 1374 0 L 1163 0 L 1163 219 L 1159 219 C 1147 191 1129 163 1107 134 C 1084 104 1056 78 1022 54 C 988 30 948 10 902 -5 C 856 -21 804 -29 745 -29 Z M 762 1589 C 708 1589 661 1597 620 1615 C 579 1633 544 1658 516 1690 C 487 1722 465 1761 449 1805 C 433 1849 424 1898 422 1952 L 563 1952 C 567 1913 575 1881 587 1856 C 599 1831 614 1811 632 1797 C 650 1783 670 1772 692 1766 C 714 1760 737 1757 762 1757 C 786 1757 809 1760 831 1766 C 853 1772 873 1783 891 1797 C 909 1811 924 1831 937 1856 C 949 1881 958 1913 963 1952 L 1102 1952 C 1099 1898 1090 1849 1074 1805 C 1058 1761 1036 1722 1008 1690 C 979 1658 944 1633 903 1615 C 862 1597 815 1589 762 1589 Z" unicode="Ğ" />
<glyph horiz-adv-x="1219" d="M 551 -422 C 457 -422 376 -415 310 -402 C 244 -389 190 -371 148 -348 C 106 -324 76 -296 56 -264 C 36 -231 27 -195 27 -156 C 27 -101 42 -54 74 -16 C 105 21 149 52 205 74 C 149 102 121 147 121 207 C 121 247 135 284 164 318 C 192 352 227 381 268 406 C 212 441 169 485 140 538 C 110 591 96 651 96 719 C 96 775 106 826 128 873 C 149 920 179 961 218 996 C 256 1031 304 1058 361 1078 C 417 1098 481 1108 553 1108 C 628 1108 693 1097 748 1075 C 803 1053 849 1025 887 993 C 922 1020 965 1044 1015 1064 C 1065 1084 1112 1096 1157 1100 L 1157 895 C 1132 895 1103 893 1070 889 C 1036 885 1002 877 967 866 C 993 825 1006 776 1006 719 C 1006 661 995 609 975 562 C 954 515 924 474 885 440 C 846 406 799 379 743 360 C 687 341 623 332 553 332 C 521 332 495 334 474 338 C 452 342 428 347 401 354 C 385 344 371 334 361 323 C 351 312 346 299 346 285 C 346 263 354 247 372 238 C 390 229 423 223 471 219 L 664 207 C 744 201 812 192 869 178 C 925 164 972 146 1008 122 C 1044 98 1071 68 1087 34 C 1103 0 1112 -42 1112 -90 C 1112 -146 1098 -194 1071 -236 C 1043 -278 1005 -312 956 -340 C 907 -367 848 -387 779 -401 C 710 -415 634 -422 551 -422 Z M 557 506 C 627 506 681 523 719 558 C 757 592 776 643 776 711 C 776 779 757 830 720 866 C 682 902 627 920 555 920 C 485 920 431 901 392 865 C 353 829 334 777 334 711 C 334 643 353 592 393 558 C 433 523 487 506 557 506 Z M 590 -240 C 682 -240 755 -228 809 -206 C 862 -183 889 -152 889 -113 C 889 -93 884 -77 876 -63 C 868 -49 853 -38 833 -28 C 813 -18 784 -11 748 -6 C 712 0 666 4 612 8 L 424 20 C 402 20 380 22 358 27 C 322 10 297 -10 281 -35 C 265 -59 258 -85 258 -113 C 258 -160 285 -193 341 -212 C 396 -230 479 -240 590 -240 Z M 575 1186 C 522 1186 475 1194 434 1212 C 393 1230 358 1255 330 1287 C 301 1319 279 1357 263 1401 C 247 1445 238 1494 236 1548 L 377 1548 C 381 1510 389 1478 401 1453 C 413 1427 428 1407 446 1393 C 464 1379 484 1369 506 1363 C 528 1357 551 1354 575 1354 C 599 1354 623 1357 645 1363 C 667 1369 686 1379 704 1393 C 722 1407 737 1427 750 1453 C 763 1478 772 1510 776 1548 L 915 1548 C 912 1494 903 1445 887 1401 C 871 1357 849 1319 821 1287 C 792 1255 757 1230 716 1212 C 675 1194 628 1186 575 1186 Z" unicode="ğ" />
<glyph horiz-adv-x="1526" d="M 745 -29 C 636 -29 541 -9 461 29 C 380 68 313 123 259 193 C 205 263 164 347 138 444 C 111 541 98 648 98 764 C 98 885 113 994 145 1090 C 177 1186 222 1268 281 1336 C 339 1404 409 1455 491 1491 C 573 1526 664 1544 766 1544 C 909 1544 1031 1507 1133 1434 C 1235 1361 1308 1239 1354 1067 L 1116 1004 C 1082 1117 1037 1196 982 1240 C 926 1284 854 1307 764 1307 C 718 1307 672 1299 624 1283 C 576 1267 532 1239 492 1198 C 452 1157 419 1102 394 1033 C 368 964 356 876 356 770 C 356 663 367 573 391 501 C 414 429 445 370 484 326 C 523 282 568 250 618 230 C 668 210 720 201 774 201 C 875 201 957 230 1021 288 C 1084 346 1120 431 1128 543 L 823 543 L 823 750 L 1374 750 L 1374 0 L 1163 0 L 1163 219 L 1159 219 C 1147 191 1129 163 1107 134 C 1084 104 1056 78 1022 54 C 988 30 948 10 902 -5 C 856 -21 804 -29 745 -29 Z M 621 1849 L 891 1849 L 891 1622 L 621 1622 L 621 1849 Z" unicode="Ġ" />
<glyph horiz-adv-x="1219" d="M 551 -422 C 457 -422 376 -415 310 -402 C 244 -389 190 -371 148 -348 C 106 -324 76 -296 56 -264 C 36 -231 27 -195 27 -156 C 27 -101 42 -54 74 -16 C 105 21 149 52 205 74 C 149 102 121 147 121 207 C 121 247 135 284 164 318 C 192 352 227 381 268 406 C 212 441 169 485 140 538 C 110 591 96 651 96 719 C 96 775 106 826 128 873 C 149 920 179 961 218 996 C 256 1031 304 1058 361 1078 C 417 1098 481 1108 553 1108 C 628 1108 693 1097 748 1075 C 803 1053 849 1025 887 993 C 922 1020 965 1044 1015 1064 C 1065 1084 1112 1096 1157 1100 L 1157 895 C 1132 895 1103 893 1070 889 C 1036 885 1002 877 967 866 C 993 825 1006 776 1006 719 C 1006 661 995 609 975 562 C 954 515 924 474 885 440 C 846 406 799 379 743 360 C 687 341 623 332 553 332 C 521 332 495 334 474 338 C 452 342 428 347 401 354 C 385 344 371 334 361 323 C 351 312 346 299 346 285 C 346 263 354 247 372 238 C 390 229 423 223 471 219 L 664 207 C 744 201 812 192 869 178 C 925 164 972 146 1008 122 C 1044 98 1071 68 1087 34 C 1103 0 1112 -42 1112 -90 C 1112 -146 1098 -194 1071 -236 C 1043 -278 1005 -312 956 -340 C 907 -367 848 -387 779 -401 C 710 -415 634 -422 551 -422 Z M 557 506 C 627 506 681 523 719 558 C 757 592 776 643 776 711 C 776 779 757 830 720 866 C 682 902 627 920 555 920 C 485 920 431 901 392 865 C 353 829 334 777 334 711 C 334 643 353 592 393 558 C 433 523 487 506 557 506 Z M 590 -240 C 682 -240 755 -228 809 -206 C 862 -183 889 -152 889 -113 C 889 -93 884 -77 876 -63 C 868 -49 853 -38 833 -28 C 813 -18 784 -11 748 -6 C 712 0 666 4 612 8 L 424 20 C 402 20 380 22 358 27 C 322 10 297 -10 281 -35 C 265 -59 258 -85 258 -113 C 258 -160 285 -193 341 -212 C 396 -230 479 -240 590 -240 Z M 424 1446 L 694 1446 L 694 1219 L 424 1219 L 424 1446 Z" unicode="ġ" />
<glyph horiz-adv-x="1526" d="M 737 -338 L 639 -338 L 639 -92 L 891 -92 L 891 -307 L 778 -555 L 672 -555 L 737 -338 Z M 745 -29 C 636 -29 541 -9 461 29 C 380 68 313 123 259 193 C 205 263 164 347 138 444 C 111 541 98 648 98 764 C 98 885 113 994 145 1090 C 177 1186 222 1268 281 1336 C 339 1404 409 1455 491 1491 C 573 1526 664 1544 766 1544 C 909 1544 1031 1507 1133 1434 C 1235 1361 1308 1239 1354 1067 L 1116 1004 C 1082 1117 1037 1196 982 1240 C 926 1284 854 1307 764 1307 C 718 1307 672 1299 624 1283 C 576 1267 532 1239 492 1198 C 452 1157 419 1102 394 1033 C 368 964 356 876 356 770 C 356 663 367 573 391 501 C 414 429 445 370 484 326 C 523 282 568 250 618 230 C 668 210 720 201 774 201 C 875 201 957 230 1021 288 C 1084 346 1120 431 1128 543 L 823 543 L 823 750 L 1374 750 L 1374 0 L 1163 0 L 1163 219 L 1159 219 C 1147 191 1129 163 1107 134 C 1084 104 1056 78 1022 54 C 988 30 948 10 902 -5 C 856 -21 804 -29 745 -29 Z" unicode="Ģ" />
<glyph horiz-adv-x="1219" d="M 451 1411 L 561 1659 L 668 1659 L 602 1442 L 702 1442 L 702 1196 L 451 1196 L 451 1411 Z M 551 -422 C 457 -422 376 -415 310 -402 C 244 -389 190 -371 148 -348 C 106 -324 76 -296 56 -264 C 36 -231 27 -195 27 -156 C 27 -101 42 -54 74 -16 C 105 21 149 52 205 74 C 149 102 121 147 121 207 C 121 247 135 284 164 318 C 192 352 227 381 268 406 C 212 441 169 485 140 538 C 110 591 96 651 96 719 C 96 775 106 826 128 873 C 149 920 179 961 218 996 C 256 1031 304 1058 361 1078 C 417 1098 481 1108 553 1108 C 628 1108 693 1097 748 1075 C 803 1053 849 1025 887 993 C 922 1020 965 1044 1015 1064 C 1065 1084 1112 1096 1157 1100 L 1157 895 C 1132 895 1103 893 1070 889 C 1036 885 1002 877 967 866 C 993 825 1006 776 1006 719 C 1006 661 995 609 975 562 C 954 515 924 474 885 440 C 846 406 799 379 743 360 C 687 341 623 332 553 332 C 521 332 495 334 474 338 C 452 342 428 347 401 354 C 385 344 371 334 361 323 C 351 312 346 299 346 285 C 346 263 354 247 372 238 C 390 229 423 223 471 219 L 664 207 C 744 201 812 192 869 178 C 925 164 972 146 1008 122 C 1044 98 1071 68 1087 34 C 1103 0 1112 -42 1112 -90 C 1112 -146 1098 -194 1071 -236 C 1043 -278 1005 -312 956 -340 C 907 -367 848 -387 779 -401 C 710 -415 634 -422 551 -422 Z M 557 506 C 627 506 681 523 719 558 C 757 592 776 643 776 711 C 776 779 757 830 720 866 C 682 902 627 920 555 920 C 485 920 431 901 392 865 C 353 829 334 777 334 711 C 334 643 353 592 393 558 C 433 523 487 506 557 506 Z M 590 -240 C 682 -240 755 -228 809 -206 C 862 -183 889 -152 889 -113 C 889 -93 884 -77 876 -63 C 868 -49 853 -38 833 -28 C 813 -18 784 -11 748 -6 C 712 0 666 4 612 8 L 424 20 C 402 20 380 22 358 27 C 322 10 297 -10 281 -35 C 265 -59 258 -85 258 -113 C 258 -160 285 -193 341 -212 C 396 -230 479 -240 590 -240 Z" unicode="ģ" />
<glyph horiz-adv-x="1544" d="M 684 1946 L 858 1946 L 1122 1606 L 975 1606 L 770 1778 L 565 1606 L 420 1606 L 684 1946 Z M 172 0 L 172 1516 L 428 1516 L 428 911 L 1116 911 L 1116 1516 L 1372 1516 L 1372 0 L 1116 0 L 1116 674 L 428 674 L 428 0 L 172 0 Z" unicode="Ĥ" />
<glyph horiz-adv-x="1235" d="M 178 1946 L 352 1946 L 616 1606 L 469 1606 L 264 1778 L 59 1606 L -86 1606 L 178 1946 Z M 141 0 L 141 1516 L 395 1516 L 395 940 C 413 958 434 976 460 996 C 485 1016 514 1034 547 1050 C 579 1066 616 1080 657 1091 C 698 1102 743 1108 793 1108 C 888 1108 964 1080 1021 1025 C 1077 969 1106 888 1106 780 L 1106 0 L 852 0 L 852 717 C 852 834 798 893 690 893 C 634 893 582 880 535 854 C 488 828 441 794 395 752 L 395 0 L 141 0 Z" unicode="ĥ" />
<glyph horiz-adv-x="1544" d="M 23 1290 L 172 1290 L 172 1516 L 428 1516 L 428 1290 L 1116 1290 L 1116 1516 L 1372 1516 L 1372 1290 L 1522 1290 L 1522 1094 L 1372 1094 L 1372 0 L 1116 0 L 1116 674 L 428 674 L 428 0 L 172 0 L 172 1094 L 23 1094 L 23 1290 Z M 1116 911 L 1116 1094 L 428 1094 L 428 911 L 1116 911 Z" unicode="Ħ" />
<glyph horiz-adv-x="1235" d="M -8 1366 L 141 1366 L 141 1516 L 395 1516 L 395 1366 L 590 1366 L 590 1198 L 395 1198 L 395 940 C 413 958 434 976 460 996 C 485 1016 514 1034 547 1050 C 579 1066 616 1080 657 1091 C 698 1102 743 1108 793 1108 C 888 1108 964 1080 1021 1025 C 1077 969 1106 888 1106 780 L 1106 0 L 852 0 L 852 717 C 852 834 798 893 690 893 C 634 893 582 880 535 854 C 488 828 441 794 395 752 L 395 0 L 141 0 L 141 1198 L -8 1198 L -8 1366 Z" unicode="ħ" />
<glyph horiz-adv-x="635" d="M 188 0 L 188 1516 L 446 1516 L 446 0 L 188 0 Z M 473 1591 C 439 1591 408 1596 382 1608 C 355 1620 330 1633 306 1647 C 282 1661 259 1675 239 1687 C 219 1699 198 1706 176 1706 C 147 1706 126 1697 112 1680 C 98 1663 92 1635 92 1595 L -49 1595 C -49 1696 -30 1769 7 1813 C 44 1857 96 1880 164 1880 C 198 1880 228 1873 255 1861 C 281 1849 307 1835 331 1821 C 355 1807 377 1794 398 1782 C 419 1770 441 1765 463 1765 C 490 1765 511 1773 525 1791 C 539 1808 547 1836 547 1876 L 688 1876 C 688 1776 668 1703 630 1658 C 592 1613 539 1591 473 1591 Z" unicode="Ĩ" />
<glyph horiz-adv-x="557" d="M 152 0 L 152 1087 L 406 1087 L 406 0 L 152 0 Z M 434 1188 C 400 1188 369 1193 343 1205 C 316 1217 291 1230 267 1244 C 243 1258 220 1272 200 1284 C 180 1296 159 1303 137 1303 C 108 1303 87 1294 73 1277 C 59 1259 53 1231 53 1192 L -88 1192 C -88 1292 -69 1365 -31 1410 C 6 1454 58 1477 125 1477 C 159 1477 189 1470 216 1458 C 242 1446 268 1432 292 1418 C 316 1404 338 1391 359 1379 C 380 1367 402 1362 424 1362 C 451 1362 472 1370 486 1387 C 500 1404 508 1433 508 1473 L 649 1473 C 649 1373 630 1300 592 1255 C 554 1210 501 1188 434 1188 Z" unicode="ĩ" />
<glyph horiz-adv-x="635" d="M 188 0 L 188 1516 L 446 1516 L 446 0 L 188 0 Z M -2 1786 L 637 1786 L 637 1599 L -2 1599 L -2 1786 Z" unicode="Ī" />
<glyph horiz-adv-x="557" d="M 152 0 L 152 1087 L 406 1087 L 406 0 L 152 0 Z M -41 1382 L 598 1382 L 598 1196 L -41 1196 L -41 1382 Z" unicode="ī" />
<glyph horiz-adv-x="635" d="M 188 0 L 188 1516 L 446 1516 L 446 0 L 188 0 Z M 317 1587 C 264 1587 217 1595 176 1613 C 135 1631 100 1656 72 1688 C 43 1720 21 1759 5 1803 C -10 1847 -19 1896 -23 1950 L 119 1950 C 123 1911 131 1879 143 1854 C 155 1829 170 1809 188 1795 C 206 1781 226 1770 248 1764 C 270 1758 293 1755 317 1755 C 341 1755 365 1758 387 1764 C 409 1770 428 1781 446 1795 C 464 1809 479 1829 492 1854 C 505 1879 514 1911 518 1950 L 657 1950 C 654 1896 645 1847 629 1803 C 613 1759 591 1720 563 1688 C 534 1656 499 1631 458 1613 C 417 1595 370 1587 317 1587 Z" unicode="Ĭ" />
<glyph horiz-adv-x="557" d="M 152 0 L 152 1087 L 406 1087 L 406 0 L 152 0 Z M 279 1186 C 225 1186 178 1194 137 1212 C 96 1230 61 1255 33 1287 C 4 1319 -17 1357 -33 1401 C -49 1445 -58 1494 -61 1548 L 80 1548 C 84 1510 92 1478 104 1453 C 116 1427 131 1407 149 1393 C 167 1379 187 1369 209 1363 C 231 1357 254 1354 279 1354 C 303 1354 326 1357 348 1363 C 370 1369 389 1379 407 1393 C 425 1407 440 1427 453 1453 C 466 1478 475 1510 479 1548 L 618 1548 C 615 1494 606 1445 590 1401 C 574 1357 552 1319 524 1287 C 495 1255 460 1230 419 1212 C 378 1194 331 1186 279 1186 Z" unicode="ĭ" />
<glyph horiz-adv-x="635" d="M 233 -383 C 163 -383 110 -369 74 -341 C 38 -313 20 -274 20 -225 C 20 -184 36 -143 68 -103 C 100 -63 140 -27 188 4 L 188 1516 L 446 1516 L 446 0 L 326 0 C 241 -60 199 -122 199 -186 C 199 -209 205 -229 219 -246 C 233 -263 259 -272 297 -272 C 335 -272 368 -267 396 -257 C 424 -247 451 -235 477 -223 L 528 -303 C 486 -327 440 -347 392 -361 C 343 -375 290 -383 233 -383 Z" unicode="Į" />
<glyph horiz-adv-x="557" d="M 197 -383 C 127 -383 74 -369 38 -341 C 2 -313 -16 -274 -16 -225 C -16 -184 0 -143 32 -103 C 64 -63 104 -27 152 4 L 152 1087 L 406 1087 L 406 0 L 289 0 C 204 -60 162 -122 162 -186 C 162 -209 168 -229 182 -246 C 196 -263 222 -272 260 -272 C 298 -272 331 -267 359 -257 C 387 -247 414 -235 440 -223 L 492 -303 C 449 -327 403 -347 355 -361 C 307 -375 254 -383 197 -383 Z M 150 1276 L 150 1495 L 408 1495 L 408 1276 L 150 1276 Z" unicode="į" />
<glyph horiz-adv-x="635" d="M 188 0 L 188 1516 L 446 1516 L 446 0 L 188 0 Z M 182 1849 L 453 1849 L 453 1622 L 182 1622 L 182 1849 Z" unicode="İ" />
<glyph horiz-adv-x="557" d="M 152 0 L 152 1087 L 406 1087 L 406 0 L 152 0 Z" unicode="ı" />
<glyph horiz-adv-x="1618" d="M 188 0 L 188 1516 L 446 1516 L 446 0 L 188 0 Z M 1001 -23 C 909 -23 831 -7 766 23 C 700 54 642 97 590 152 L 750 309 C 777 281 810 256 849 234 C 887 212 933 201 985 201 C 1020 201 1052 205 1080 213 C 1108 221 1132 235 1152 255 C 1172 275 1187 301 1197 335 C 1207 368 1212 410 1212 461 L 1212 1522 L 1468 1522 L 1468 426 C 1468 284 1427 173 1346 95 C 1265 16 1150 -23 1001 -23 Z" unicode="Ĳ" />
<glyph horiz-adv-x="1114" d="M 152 0 L 152 1087 L 406 1087 L 406 0 L 152 0 Z M 150 1276 L 150 1495 L 408 1495 L 408 1276 L 150 1276 Z M 659 -408 C 647 -408 633 -407 617 -407 C 601 -406 586 -405 571 -403 C 556 -401 542 -400 530 -399 C 518 -397 510 -396 506 -395 L 506 -219 C 515 -221 527 -223 542 -225 C 557 -226 572 -227 588 -227 C 627 -227 657 -216 678 -195 C 698 -174 709 -139 709 -90 L 709 1094 L 963 1094 L 963 -129 C 963 -165 958 -201 950 -235 C 942 -269 927 -299 905 -324 C 883 -349 852 -369 813 -385 C 773 -400 722 -408 659 -408 Z M 707 1282 L 707 1501 L 965 1501 L 965 1282 L 707 1282 Z" unicode="ĳ" />
<glyph horiz-adv-x="1065" d="M 698 1946 L 872 1946 L 1137 1606 L 989 1606 L 784 1778 L 580 1606 L 434 1606 L 698 1946 Z M 449 -29 C 357 -29 278 -13 213 17 C 147 47 89 90 37 145 L 197 303 C 224 275 257 250 296 228 C 334 206 380 195 432 195 C 467 195 499 199 527 207 C 555 215 579 229 599 249 C 619 269 634 295 644 329 C 654 362 659 404 659 455 L 659 1516 L 915 1516 L 915 420 C 915 278 874 167 793 89 C 712 10 597 -29 449 -29 Z" unicode="Ĵ" />
<glyph horiz-adv-x="557" d="M 102 -414 C 91 -414 77 -413 61 -413 C 45 -412 29 -411 14 -411 C 0 -410 -14 -409 -26 -408 C -38 -406 -47 -405 -51 -403 L -51 -225 C -41 -227 -29 -230 -13 -232 C 2 -234 17 -236 33 -236 C 72 -236 102 -225 123 -203 C 143 -181 154 -146 154 -98 L 154 1087 L 406 1087 L 406 -137 C 406 -174 401 -209 393 -243 C 385 -276 370 -305 348 -331 C 326 -356 295 -376 256 -391 C 216 -406 165 -414 102 -414 Z M 193 1542 L 367 1542 L 631 1202 L 483 1202 L 279 1374 L 74 1202 L -72 1202 L 193 1542 Z" unicode="ĵ" />
<glyph horiz-adv-x="1430" d="M 688 -338 L 590 -338 L 590 -92 L 842 -92 L 842 -307 L 729 -555 L 623 -555 L 688 -338 Z M 172 0 L 172 1516 L 428 1516 L 428 811 L 1024 1516 L 1327 1516 L 811 932 L 1391 0 L 1098 0 L 643 735 L 428 498 L 428 0 L 172 0 Z" unicode="Ķ" />
<glyph horiz-adv-x="1153" d="M 549 -338 L 451 -338 L 451 -92 L 702 -92 L 702 -307 L 590 -555 L 483 -555 L 549 -338 Z M 141 0 L 141 1516 L 393 1516 L 393 612 L 805 1087 L 1081 1087 L 727 690 L 1112 0 L 848 0 L 567 504 L 393 313 L 393 0 L 141 0 Z" unicode="ķ" />
<glyph horiz-adv-x="1153" d="M 141 1087 L 393 1087 L 393 612 L 805 1087 L 1081 1087 L 727 690 L 1112 0 L 848 0 L 567 506 L 393 313 L 393 0 L 141 0 L 141 1087 Z" unicode="ĸ" />
<glyph horiz-adv-x="1184" d="M 410 1946 L 680 1946 L 383 1606 L 217 1606 L 410 1946 Z M 172 0 L 172 1516 L 428 1516 L 428 233 L 1126 233 L 1126 0 L 172 0 Z" unicode="Ĺ" />
<glyph horiz-adv-x="557" d="M 383 1946 L 653 1946 L 356 1606 L 190 1606 L 383 1946 Z M 152 0 L 152 1516 L 406 1516 L 406 0 L 152 0 Z" unicode="ĺ" />
<glyph horiz-adv-x="1184" d="M 565 -338 L 467 -338 L 467 -92 L 719 -92 L 719 -307 L 606 -555 L 500 -555 L 565 -338 Z M 172 0 L 172 1516 L 428 1516 L 428 233 L 1126 233 L 1126 0 L 172 0 Z" unicode="Ļ" />
<glyph horiz-adv-x="557" d="M 254 -338 L 156 -338 L 156 -92 L 408 -92 L 408 -307 L 295 -555 L 188 -555 L 254 -338 Z M 152 0 L 152 1516 L 406 1516 L 406 0 L 152 0 Z" unicode="ļ" />
<glyph horiz-adv-x="1184" d="M 737 1270 L 639 1270 L 639 1516 L 891 1516 L 891 1300 L 778 1053 L 672 1053 L 737 1270 Z M 172 0 L 172 1516 L 428 1516 L 428 233 L 1126 233 L 1126 0 L 172 0 Z" unicode="Ľ" />
<glyph horiz-adv-x="557" d="M 594 1403 L 498 1403 L 498 1640 L 741 1640 L 741 1434 L 633 1192 L 530 1192 L 594 1403 Z M 152 0 L 152 1516 L 406 1516 L 406 0 L 152 0 Z" unicode="ľ" />
<glyph horiz-adv-x="1235" d="M 788 946 L 1038 946 L 1038 719 L 788 719 L 788 946 Z M 172 0 L 172 1516 L 428 1516 L 428 233 L 1126 233 L 1126 0 L 172 0 Z" unicode="Ŀ" />
<glyph horiz-adv-x="811" d="M 559 791 L 809 791 L 809 565 L 559 565 L 559 791 Z M 152 0 L 152 1516 L 406 1516 L 406 0 L 152 0 Z" unicode="ŀ" />
<glyph horiz-adv-x="1184" d="M 172 0 L 172 680 L 2 635 L 2 831 L 172 877 L 172 1516 L 430 1516 L 430 944 L 733 1026 L 733 829 L 430 748 L 430 233 L 1126 233 L 1126 0 L 172 0 Z" unicode="Ł" />
<glyph horiz-adv-x="657" d="M 205 850 L 45 807 L 45 995 L 205 1038 L 205 1516 L 457 1516 L 457 1106 L 616 1149 L 616 961 L 457 918 L 457 0 L 205 0 L 205 850 Z" unicode="ł" />
<glyph horiz-adv-x="1563" d="M 813 1946 L 1083 1946 L 786 1606 L 621 1606 L 813 1946 Z M 172 0 L 172 1516 L 432 1516 L 1149 434 L 1153 434 L 1153 1516 L 1391 1516 L 1391 0 L 1157 0 L 414 1104 L 410 1104 L 410 0 L 172 0 Z" unicode="Ń" />
<glyph horiz-adv-x="1235" d="M 641 1542 L 911 1542 L 614 1202 L 449 1202 L 641 1542 Z M 143 0 L 143 1087 L 395 1087 L 395 913 C 415 936 439 959 465 983 C 491 1006 520 1027 553 1045 C 585 1063 621 1078 659 1090 C 697 1102 739 1108 784 1108 C 884 1108 962 1082 1020 1030 C 1077 978 1106 898 1106 791 L 1106 0 L 854 0 L 854 719 C 854 779 841 824 815 854 C 789 884 747 899 690 899 C 634 899 582 886 535 861 C 488 835 441 801 395 758 L 395 0 L 143 0 Z" unicode="ń" />
<glyph horiz-adv-x="1563" d="M 754 -338 L 655 -338 L 655 -92 L 907 -92 L 907 -307 L 795 -555 L 688 -555 L 754 -338 Z M 172 0 L 172 1516 L 432 1516 L 1149 434 L 1153 434 L 1153 1516 L 1391 1516 L 1391 0 L 1157 0 L 414 1104 L 410 1104 L 410 0 L 172 0 Z" unicode="Ņ" />
<glyph horiz-adv-x="1235" d="M 594 -338 L 496 -338 L 496 -92 L 748 -92 L 748 -307 L 635 -555 L 528 -555 L 594 -338 Z M 143 0 L 143 1087 L 395 1087 L 395 913 C 415 936 439 959 465 983 C 491 1006 520 1027 553 1045 C 585 1063 621 1078 659 1090 C 697 1102 739 1108 784 1108 C 884 1108 962 1082 1020 1030 C 1077 978 1106 898 1106 791 L 1106 0 L 854 0 L 854 719 C 854 779 841 824 815 854 C 789 884 747 899 690 899 C 634 899 582 886 535 861 C 488 835 441 801 395 758 L 395 0 L 143 0 Z" unicode="ņ" />
<glyph horiz-adv-x="1563" d="M 428 1952 L 575 1952 L 780 1780 L 985 1952 L 1130 1952 L 866 1612 L 692 1612 L 428 1952 Z M 172 0 L 172 1516 L 432 1516 L 1149 434 L 1153 434 L 1153 1516 L 1391 1516 L 1391 0 L 1157 0 L 414 1104 L 410 1104 L 410 0 L 172 0 Z" unicode="Ň" />
<glyph horiz-adv-x="1235" d="M 268 1548 L 416 1548 L 621 1376 L 825 1548 L 971 1548 L 707 1208 L 532 1208 L 268 1548 Z M 143 0 L 143 1087 L 395 1087 L 395 913 C 415 936 439 959 465 983 C 491 1006 520 1027 553 1045 C 585 1063 621 1078 659 1090 C 697 1102 739 1108 784 1108 C 884 1108 962 1082 1020 1030 C 1077 978 1106 898 1106 791 L 1106 0 L 854 0 L 854 719 C 854 779 841 824 815 854 C 789 884 747 899 690 899 C 634 899 582 886 535 861 C 488 835 441 801 395 758 L 395 0 L 143 0 Z" unicode="ň" />
<glyph horiz-adv-x="1700" d="M 170 1020 L 242 1249 L 147 1249 L 147 1516 L 418 1516 L 418 1272 L 287 1020 L 170 1020 Z M 608 0 L 608 1087 L 860 1087 L 860 913 C 880 936 904 959 930 983 C 956 1006 985 1027 1018 1045 C 1050 1063 1086 1078 1124 1090 C 1162 1102 1204 1108 1249 1108 C 1349 1108 1427 1082 1485 1030 C 1542 978 1571 898 1571 791 L 1571 0 L 1319 0 L 1319 719 C 1319 779 1306 824 1280 854 C 1254 884 1212 899 1155 899 C 1099 899 1047 886 1000 861 C 953 835 906 801 860 758 L 860 0 L 608 0 Z" unicode="ŉ" />
<glyph horiz-adv-x="1563" d="M 172 1516 L 432 1516 L 1151 434 L 1155 434 L 1155 1516 L 1391 1516 L 1391 10 C 1391 -123 1354 -227 1280 -302 C 1206 -376 1093 -414 942 -414 C 888 -414 841 -409 800 -399 C 759 -389 722 -376 690 -360 C 657 -344 628 -324 602 -302 C 576 -279 552 -255 530 -229 L 676 -68 C 707 -107 742 -140 782 -167 C 822 -193 870 -207 928 -207 C 988 -207 1037 -191 1077 -159 C 1117 -127 1140 -71 1147 8 L 1147 16 L 414 1104 L 410 1104 L 410 0 L 172 0 L 172 1516 Z" unicode="Ŋ" />
<glyph horiz-adv-x="1235" d="M 143 1087 L 395 1087 L 395 913 C 415 936 439 959 465 983 C 491 1006 520 1027 553 1045 C 585 1063 621 1078 659 1090 C 697 1102 739 1108 784 1108 C 884 1108 962 1082 1020 1030 C 1077 978 1106 898 1106 791 L 1106 -137 C 1106 -174 1101 -209 1093 -243 C 1085 -276 1070 -305 1048 -331 C 1026 -356 996 -376 956 -391 C 916 -406 865 -414 803 -414 C 791 -414 778 -413 762 -413 C 746 -412 731 -411 716 -411 C 701 -410 687 -409 675 -408 C 663 -406 655 -405 651 -403 L 651 -225 C 659 -227 671 -230 687 -232 C 703 -234 718 -236 733 -236 C 771 -236 801 -225 822 -205 C 843 -184 854 -151 854 -106 L 854 719 C 854 779 841 824 815 854 C 789 884 747 899 690 899 C 634 899 582 886 535 861 C 488 835 441 801 395 758 L 395 0 L 143 0 L 143 1087 Z" unicode="ŋ" />
<glyph horiz-adv-x="1565" d="M 461 1786 L 1100 1786 L 1100 1599 L 461 1599 L 461 1786 Z M 784 -29 C 687 -29 597 -11 514 22 C 430 56 358 107 297 173 C 235 239 187 321 151 419 C 115 517 98 630 98 758 C 98 884 115 997 151 1095 C 187 1193 235 1276 297 1342 C 358 1408 430 1459 514 1493 C 597 1527 687 1544 784 1544 C 880 1544 969 1527 1053 1493 C 1136 1459 1208 1408 1270 1342 C 1331 1276 1379 1193 1414 1095 C 1448 997 1466 884 1466 758 C 1466 630 1448 517 1414 419 C 1379 321 1331 239 1270 173 C 1208 107 1136 56 1053 22 C 969 -11 880 -29 784 -29 Z M 784 203 C 847 203 905 215 957 239 C 1009 263 1054 299 1091 347 C 1128 394 1157 452 1177 521 C 1197 590 1208 669 1208 758 C 1208 846 1197 925 1177 994 C 1157 1063 1128 1121 1091 1167 C 1054 1213 1009 1249 957 1273 C 905 1297 847 1309 784 1309 C 654 1309 551 1261 473 1167 C 395 1073 356 936 356 758 C 356 578 395 441 473 346 C 551 250 654 203 784 203 Z" unicode="Ō" />
<glyph horiz-adv-x="1221" d="M 291 1382 L 930 1382 L 930 1196 L 291 1196 L 291 1382 Z M 610 -23 C 544 -23 480 -12 417 10 C 353 32 297 65 247 111 C 197 157 156 215 126 286 C 95 357 80 443 80 543 C 80 642 95 727 125 799 C 155 871 194 929 244 975 C 294 1021 350 1054 414 1076 C 478 1097 543 1108 610 1108 C 676 1108 740 1097 804 1076 C 867 1054 924 1021 974 975 C 1024 929 1064 871 1095 799 C 1125 727 1141 642 1141 543 C 1141 443 1125 357 1095 286 C 1064 215 1024 157 974 111 C 924 65 867 32 804 10 C 740 -12 676 -23 610 -23 Z M 610 188 C 702 188 771 219 817 281 C 863 343 887 431 887 543 C 887 593 881 639 870 683 C 859 726 842 763 820 794 C 797 824 768 848 734 866 C 699 884 658 893 610 893 C 518 893 449 862 403 801 C 357 739 334 653 334 543 C 334 491 339 443 350 400 C 361 357 378 320 400 289 C 422 257 451 233 486 215 C 521 197 562 188 610 188 Z" unicode="ō" />
<glyph horiz-adv-x="1565" d="M 784 -29 C 687 -29 597 -11 514 22 C 430 56 358 107 297 173 C 235 239 187 321 151 419 C 115 517 98 630 98 758 C 98 884 115 997 151 1095 C 187 1193 235 1276 297 1342 C 358 1408 430 1459 514 1493 C 597 1527 687 1544 784 1544 C 880 1544 969 1527 1053 1493 C 1136 1459 1208 1408 1270 1342 C 1331 1276 1379 1193 1414 1095 C 1448 997 1466 884 1466 758 C 1466 630 1448 517 1414 419 C 1379 321 1331 239 1270 173 C 1208 107 1136 56 1053 22 C 969 -11 880 -29 784 -29 Z M 784 203 C 847 203 905 215 957 239 C 1009 263 1054 299 1091 347 C 1128 394 1157 452 1177 521 C 1197 590 1208 669 1208 758 C 1208 846 1197 925 1177 994 C 1157 1063 1128 1121 1091 1167 C 1054 1213 1009 1249 957 1273 C 905 1297 847 1309 784 1309 C 654 1309 551 1261 473 1167 C 395 1073 356 936 356 758 C 356 578 395 441 473 346 C 551 250 654 203 784 203 Z M 780 1589 C 726 1589 679 1597 639 1615 C 598 1633 563 1658 535 1690 C 506 1722 484 1761 468 1805 C 452 1849 442 1898 440 1952 L 582 1952 C 586 1913 594 1881 606 1856 C 618 1831 633 1811 651 1797 C 669 1783 688 1772 710 1766 C 732 1760 755 1757 780 1757 C 804 1757 828 1760 850 1766 C 872 1772 891 1783 909 1797 C 927 1811 942 1831 955 1856 C 968 1881 977 1913 981 1952 L 1120 1952 C 1117 1898 1108 1849 1092 1805 C 1076 1761 1054 1722 1026 1690 C 997 1658 962 1633 921 1615 C 880 1597 833 1589 780 1589 Z" unicode="Ŏ" />
<glyph horiz-adv-x="1221" d="M 610 -23 C 544 -23 480 -12 417 10 C 353 32 297 65 247 111 C 197 157 156 215 126 286 C 95 357 80 443 80 543 C 80 642 95 727 125 799 C 155 871 194 929 244 975 C 294 1021 350 1054 414 1076 C 478 1097 543 1108 610 1108 C 676 1108 740 1097 804 1076 C 867 1054 924 1021 974 975 C 1024 929 1064 871 1095 799 C 1125 727 1141 642 1141 543 C 1141 443 1125 357 1095 286 C 1064 215 1024 157 974 111 C 924 65 867 32 804 10 C 740 -12 676 -23 610 -23 Z M 610 188 C 702 188 771 219 817 281 C 863 343 887 431 887 543 C 887 593 881 639 870 683 C 859 726 842 763 820 794 C 797 824 768 848 734 866 C 699 884 658 893 610 893 C 518 893 449 862 403 801 C 357 739 334 653 334 543 C 334 491 339 443 350 400 C 361 357 378 320 400 289 C 422 257 451 233 486 215 C 521 197 562 188 610 188 Z M 610 1186 C 556 1186 509 1194 469 1212 C 428 1230 393 1255 365 1287 C 336 1319 314 1357 298 1401 C 282 1445 272 1494 270 1548 L 412 1548 C 416 1510 424 1478 436 1453 C 448 1427 463 1407 481 1393 C 499 1379 518 1369 540 1363 C 562 1357 585 1354 610 1354 C 634 1354 658 1357 680 1363 C 702 1369 721 1379 739 1393 C 757 1407 772 1427 785 1453 C 798 1478 807 1510 811 1548 L 950 1548 C 947 1494 938 1445 922 1401 C 906 1357 884 1319 856 1287 C 827 1255 792 1230 751 1212 C 710 1194 663 1186 610 1186 Z" unicode="ŏ" />
<glyph horiz-adv-x="1565" d="M 657 1946 L 932 1946 L 621 1606 L 453 1606 L 657 1946 Z M 1034 1946 L 1309 1946 L 987 1606 L 819 1606 L 1034 1946 Z M 784 -29 C 687 -29 597 -11 514 22 C 430 56 358 107 297 173 C 235 239 187 321 151 419 C 115 517 98 630 98 758 C 98 884 115 997 151 1095 C 187 1193 235 1276 297 1342 C 358 1408 430 1459 514 1493 C 597 1527 687 1544 784 1544 C 880 1544 969 1527 1053 1493 C 1136 1459 1208 1408 1270 1342 C 1331 1276 1379 1193 1414 1095 C 1448 997 1466 884 1466 758 C 1466 630 1448 517 1414 419 C 1379 321 1331 239 1270 173 C 1208 107 1136 56 1053 22 C 969 -11 880 -29 784 -29 Z M 784 203 C 847 203 905 215 957 239 C 1009 263 1054 299 1091 347 C 1128 394 1157 452 1177 521 C 1197 590 1208 669 1208 758 C 1208 846 1197 925 1177 994 C 1157 1063 1128 1121 1091 1167 C 1054 1213 1009 1249 957 1273 C 905 1297 847 1309 784 1309 C 654 1309 551 1261 473 1167 C 395 1073 356 936 356 758 C 356 578 395 441 473 346 C 551 250 654 203 784 203 Z" unicode="Ő" />
<glyph horiz-adv-x="1221" d="M 504 1542 L 778 1542 L 467 1202 L 299 1202 L 504 1542 Z M 881 1542 L 1155 1542 L 834 1202 L 666 1202 L 881 1542 Z M 610 -23 C 544 -23 480 -12 417 10 C 353 32 297 65 247 111 C 197 157 156 215 126 286 C 95 357 80 443 80 543 C 80 642 95 727 125 799 C 155 871 194 929 244 975 C 294 1021 350 1054 414 1076 C 478 1097 543 1108 610 1108 C 676 1108 740 1097 804 1076 C 867 1054 924 1021 974 975 C 1024 929 1064 871 1095 799 C 1125 727 1141 642 1141 543 C 1141 443 1125 357 1095 286 C 1064 215 1024 157 974 111 C 924 65 867 32 804 10 C 740 -12 676 -23 610 -23 Z M 610 188 C 702 188 771 219 817 281 C 863 343 887 431 887 543 C 887 593 881 639 870 683 C 859 726 842 763 820 794 C 797 824 768 848 734 866 C 699 884 658 893 610 893 C 518 893 449 862 403 801 C 357 739 334 653 334 543 C 334 491 339 443 350 400 C 361 357 378 320 400 289 C 422 257 451 233 486 215 C 521 197 562 188 610 188 Z" unicode="ő" />
<glyph horiz-adv-x="2306" d="M 782 -29 C 690 -29 603 -11 520 22 C 436 56 363 107 301 173 C 238 239 188 321 151 419 C 114 517 96 630 96 758 C 96 884 114 997 151 1095 C 188 1193 238 1276 301 1342 C 363 1408 436 1459 520 1493 C 603 1527 690 1544 782 1544 C 876 1544 962 1524 1038 1484 C 1114 1444 1178 1390 1229 1321 L 1229 1516 L 2185 1516 L 2185 1278 L 1462 1278 L 1462 901 L 1993 901 L 1993 674 L 1462 674 L 1462 233 L 2224 233 L 2224 0 L 1229 0 L 1229 197 C 1178 127 1114 71 1038 31 C 962 -8 876 -29 782 -29 Z M 782 203 C 845 203 903 215 955 239 C 1007 263 1052 299 1089 347 C 1126 394 1155 452 1175 521 C 1195 590 1206 669 1206 758 C 1206 846 1195 925 1175 994 C 1155 1063 1126 1121 1089 1167 C 1052 1213 1007 1249 955 1273 C 903 1297 845 1309 782 1309 C 652 1309 549 1261 471 1167 C 393 1073 354 936 354 758 C 354 578 393 441 471 346 C 549 250 652 203 782 203 Z" unicode="Œ" />
<glyph horiz-adv-x="1946" d="M 608 -23 C 542 -23 478 -12 414 10 C 350 32 294 65 244 111 C 194 157 155 215 125 286 C 95 357 80 443 80 543 C 80 642 95 727 125 799 C 155 871 194 929 243 975 C 292 1021 348 1054 412 1076 C 476 1097 541 1108 608 1108 C 692 1108 770 1088 840 1050 C 910 1012 965 958 1004 889 C 1021 921 1044 951 1072 978 C 1100 1004 1131 1027 1165 1047 C 1199 1067 1236 1082 1275 1092 C 1313 1102 1352 1108 1391 1108 C 1451 1108 1509 1098 1567 1078 C 1624 1058 1675 1026 1719 980 C 1763 934 1799 873 1826 798 C 1852 723 1866 630 1866 520 L 1866 471 L 1122 471 C 1127 367 1157 292 1211 246 C 1265 200 1332 178 1413 178 C 1484 178 1542 189 1588 212 C 1634 234 1677 265 1718 305 L 1851 174 C 1793 111 1727 62 1653 28 C 1579 -5 1493 -23 1395 -23 C 1353 -23 1312 -18 1272 -8 C 1232 1 1194 15 1159 33 C 1123 51 1092 74 1065 100 C 1037 126 1015 155 999 188 C 958 122 904 71 836 33 C 768 -4 692 -23 608 -23 Z M 608 186 C 699 186 768 217 814 280 C 860 343 883 431 883 543 C 883 593 877 639 866 683 C 855 726 838 763 816 794 C 793 824 765 848 731 866 C 697 884 656 893 608 893 C 516 893 448 862 402 801 C 356 739 334 653 334 543 C 334 491 339 443 349 399 C 359 355 376 318 398 287 C 420 255 449 231 484 213 C 519 195 560 186 608 186 Z M 1634 649 C 1619 818 1536 903 1386 903 C 1354 903 1325 898 1297 890 C 1269 881 1243 866 1219 846 C 1195 825 1175 799 1159 767 C 1143 735 1132 695 1126 649 L 1634 649 Z" unicode="œ" />
<glyph horiz-adv-x="1415" d="M 760 1946 L 1030 1946 L 733 1606 L 567 1606 L 760 1946 Z M 172 0 L 172 1516 L 715 1516 C 896 1516 1036 1479 1135 1405 C 1234 1331 1284 1216 1284 1061 C 1284 939 1254 844 1196 774 C 1137 704 1054 657 948 631 L 1305 0 L 1030 0 L 690 598 L 424 598 L 424 0 L 172 0 Z M 424 821 L 705 821 C 811 821 892 837 948 870 C 1004 903 1032 965 1032 1055 C 1032 1142 1004 1202 949 1234 C 893 1266 811 1282 702 1282 L 424 1282 L 424 821 Z" unicode="Ŕ" />
<glyph horiz-adv-x="844" d="M 475 1542 L 745 1542 L 449 1202 L 283 1202 L 475 1542 Z M 141 0 L 141 1087 L 393 1087 L 393 909 L 397 909 C 431 963 479 1010 541 1049 C 602 1088 684 1108 788 1108 L 805 1108 L 797 877 C 789 878 778 879 762 880 C 746 880 735 881 729 881 C 647 881 579 863 526 828 C 472 793 428 746 393 688 L 393 0 L 141 0 Z" unicode="ŕ" />
<glyph horiz-adv-x="1415" d="M 680 -338 L 582 -338 L 582 -92 L 834 -92 L 834 -307 L 721 -555 L 614 -555 L 680 -338 Z M 172 0 L 172 1516 L 715 1516 C 896 1516 1036 1479 1135 1405 C 1234 1331 1284 1216 1284 1061 C 1284 939 1254 844 1196 774 C 1137 704 1054 657 948 631 L 1305 0 L 1030 0 L 690 598 L 424 598 L 424 0 L 172 0 Z M 424 821 L 705 821 C 811 821 892 837 948 870 C 1004 903 1032 965 1032 1055 C 1032 1142 1004 1202 949 1234 C 893 1266 811 1282 702 1282 L 424 1282 L 424 821 Z" unicode="Ŗ" />
<glyph horiz-adv-x="844" d="M 242 -338 L 143 -338 L 143 -92 L 395 -92 L 395 -307 L 283 -555 L 176 -555 L 242 -338 Z M 141 0 L 141 1087 L 393 1087 L 393 909 L 397 909 C 431 963 479 1010 541 1049 C 602 1088 684 1108 788 1108 L 805 1108 L 797 877 C 789 878 778 879 762 880 C 746 880 735 881 729 881 C 647 881 579 863 526 828 C 472 793 428 746 393 688 L 393 0 L 141 0 Z" unicode="ŗ" />
<glyph horiz-adv-x="1415" d="M 354 1952 L 502 1952 L 707 1780 L 911 1952 L 1057 1952 L 793 1612 L 618 1612 L 354 1952 Z M 172 0 L 172 1516 L 715 1516 C 896 1516 1036 1479 1135 1405 C 1234 1331 1284 1216 1284 1061 C 1284 939 1254 844 1196 774 C 1137 704 1054 657 948 631 L 1305 0 L 1030 0 L 690 598 L 424 598 L 424 0 L 172 0 Z M 424 821 L 705 821 C 811 821 892 837 948 870 C 1004 903 1032 965 1032 1055 C 1032 1142 1004 1202 949 1234 C 893 1266 811 1282 702 1282 L 424 1282 L 424 821 Z" unicode="Ř" />
<glyph horiz-adv-x="844" d="M 70 1548 L 217 1548 L 422 1376 L 627 1548 L 772 1548 L 508 1208 L 334 1208 L 70 1548 Z M 141 0 L 141 1087 L 393 1087 L 393 909 L 397 909 C 431 963 479 1010 541 1049 C 602 1088 684 1108 788 1108 L 805 1108 L 797 877 C 789 878 778 879 762 880 C 746 880 735 881 729 881 C 647 881 579 863 526 828 C 472 793 428 746 393 688 L 393 0 L 141 0 Z" unicode="ř" />
<glyph horiz-adv-x="1380" d="M 741 1946 L 1012 1946 L 715 1606 L 549 1606 L 741 1946 Z M 702 -29 C 552 -29 424 6 320 77 C 216 148 140 241 92 356 L 295 463 C 383 287 523 199 713 199 C 805 199 880 214 937 245 C 993 275 1022 325 1022 395 C 1022 427 1015 456 1003 481 C 991 505 971 528 944 549 C 916 569 881 588 837 606 C 793 624 740 642 678 662 C 604 683 535 705 471 728 C 407 750 351 778 303 812 C 255 845 217 886 190 935 C 163 983 150 1044 150 1116 C 150 1180 162 1238 187 1291 C 212 1343 247 1388 293 1426 C 339 1464 393 1493 457 1513 C 521 1533 591 1544 668 1544 C 742 1544 809 1535 869 1518 C 928 1501 981 1478 1028 1448 C 1074 1418 1115 1383 1149 1344 C 1183 1305 1211 1263 1235 1219 L 1049 1090 C 1003 1166 948 1221 884 1257 C 820 1293 747 1311 666 1311 C 581 1311 516 1296 470 1267 C 424 1237 401 1195 401 1139 C 401 1103 407 1072 421 1048 C 435 1024 456 1002 486 982 C 515 962 552 943 598 927 C 643 911 696 894 758 877 C 828 856 895 833 958 809 C 1021 784 1076 754 1123 720 C 1170 685 1207 643 1234 594 C 1260 544 1274 484 1274 414 C 1274 352 1261 295 1235 241 C 1209 187 1171 139 1123 99 C 1075 59 1015 27 944 5 C 873 -17 792 -29 702 -29 Z" unicode="Ś" />
<glyph horiz-adv-x="1071" d="M 588 1542 L 858 1542 L 561 1202 L 395 1202 L 588 1542 Z M 539 -23 C 437 -23 344 -6 260 25 C 175 57 108 99 59 150 L 197 303 C 237 267 287 237 346 212 C 404 186 469 174 539 174 C 607 174 660 183 698 202 C 736 221 756 253 756 299 C 756 321 749 339 736 354 C 723 369 706 382 684 393 C 662 404 636 413 607 421 C 577 428 546 436 514 444 C 467 455 419 467 371 481 C 323 495 279 514 239 538 C 199 562 167 594 142 634 C 116 674 104 725 104 788 C 104 836 114 879 134 918 C 154 957 181 991 217 1019 C 252 1047 294 1068 344 1084 C 393 1100 448 1108 508 1108 C 612 1108 698 1094 767 1066 C 835 1038 898 1000 954 954 L 834 791 C 813 807 790 822 765 836 C 739 850 713 863 686 874 C 658 885 631 894 604 900 C 576 906 550 909 526 909 C 456 909 408 898 382 877 C 355 856 342 830 342 799 C 342 777 348 758 361 743 C 374 728 391 715 412 704 C 433 693 458 684 487 677 C 515 669 546 662 580 655 C 626 644 673 632 723 619 C 772 606 816 588 856 564 C 895 540 928 508 954 468 C 980 428 993 376 993 313 C 993 255 981 205 957 163 C 933 121 901 86 859 59 C 817 31 769 11 714 -2 C 658 -16 600 -23 539 -23 Z" unicode="ś" />
<glyph horiz-adv-x="1380" d="M 592 1946 L 766 1946 L 1030 1606 L 883 1606 L 678 1778 L 473 1606 L 328 1606 L 592 1946 Z M 702 -29 C 552 -29 424 6 320 77 C 216 148 140 241 92 356 L 295 463 C 383 287 523 199 713 199 C 805 199 880 214 937 245 C 993 275 1022 325 1022 395 C 1022 427 1015 456 1003 481 C 991 505 971 528 944 549 C 916 569 881 588 837 606 C 793 624 740 642 678 662 C 604 683 535 705 471 728 C 407 750 351 778 303 812 C 255 845 217 886 190 935 C 163 983 150 1044 150 1116 C 150 1180 162 1238 187 1291 C 212 1343 247 1388 293 1426 C 339 1464 393 1493 457 1513 C 521 1533 591 1544 668 1544 C 742 1544 809 1535 869 1518 C 928 1501 981 1478 1028 1448 C 1074 1418 1115 1383 1149 1344 C 1183 1305 1211 1263 1235 1219 L 1049 1090 C 1003 1166 948 1221 884 1257 C 820 1293 747 1311 666 1311 C 581 1311 516 1296 470 1267 C 424 1237 401 1195 401 1139 C 401 1103 407 1072 421 1048 C 435 1024 456 1002 486 982 C 515 962 552 943 598 927 C 643 911 696 894 758 877 C 828 856 895 833 958 809 C 1021 784 1076 754 1123 720 C 1170 685 1207 643 1234 594 C 1260 544 1274 484 1274 414 C 1274 352 1261 295 1235 241 C 1209 187 1171 139 1123 99 C 1075 59 1015 27 944 5 C 873 -17 792 -29 702 -29 Z" unicode="Ŝ" />
<glyph horiz-adv-x="1071" d="M 430 1542 L 604 1542 L 868 1202 L 721 1202 L 516 1374 L 311 1202 L 166 1202 L 430 1542 Z M 539 -23 C 437 -23 344 -6 260 25 C 175 57 108 99 59 150 L 197 303 C 237 267 287 237 346 212 C 404 186 469 174 539 174 C 607 174 660 183 698 202 C 736 221 756 253 756 299 C 756 321 749 339 736 354 C 723 369 706 382 684 393 C 662 404 636 413 607 421 C 577 428 546 436 514 444 C 467 455 419 467 371 481 C 323 495 279 514 239 538 C 199 562 167 594 142 634 C 116 674 104 725 104 788 C 104 836 114 879 134 918 C 154 957 181 991 217 1019 C 252 1047 294 1068 344 1084 C 393 1100 448 1108 508 1108 C 612 1108 698 1094 767 1066 C 835 1038 898 1000 954 954 L 834 791 C 813 807 790 822 765 836 C 739 850 713 863 686 874 C 658 885 631 894 604 900 C 576 906 550 909 526 909 C 456 909 408 898 382 877 C 355 856 342 830 342 799 C 342 777 348 758 361 743 C 374 728 391 715 412 704 C 433 693 458 684 487 677 C 515 669 546 662 580 655 C 626 644 673 632 723 619 C 772 606 816 588 856 564 C 895 540 928 508 954 468 C 980 428 993 376 993 313 C 993 255 981 205 957 163 C 933 121 901 86 859 59 C 817 31 769 11 714 -2 C 658 -16 600 -23 539 -23 Z" unicode="ŝ" />
<glyph horiz-adv-x="1380" d="M 705 -408 C 650 -408 598 -401 549 -387 C 499 -373 457 -355 422 -332 L 473 -250 C 504 -270 538 -286 574 -296 C 610 -306 646 -311 682 -311 C 764 -311 805 -284 805 -231 C 805 -209 798 -193 785 -183 C 772 -173 754 -168 731 -168 C 711 -168 694 -171 680 -178 C 666 -184 651 -193 637 -205 L 565 -170 L 608 -23 C 481 -9 374 32 288 100 C 201 168 136 254 92 356 L 295 463 C 383 287 523 199 713 199 C 805 199 880 214 937 245 C 993 275 1022 325 1022 395 C 1022 427 1015 456 1003 481 C 991 505 971 528 944 549 C 916 569 881 588 837 606 C 793 624 740 642 678 662 C 604 683 535 705 471 728 C 407 750 351 778 303 812 C 255 845 217 886 190 935 C 163 983 150 1044 150 1116 C 150 1180 162 1238 187 1291 C 212 1343 247 1388 293 1426 C 339 1464 393 1493 457 1513 C 521 1533 591 1544 668 1544 C 742 1544 809 1535 869 1518 C 928 1501 981 1478 1028 1448 C 1074 1418 1115 1383 1149 1344 C 1183 1305 1211 1263 1235 1219 L 1049 1090 C 1003 1166 948 1221 884 1257 C 820 1293 747 1311 666 1311 C 581 1311 516 1296 470 1267 C 424 1237 401 1195 401 1139 C 401 1103 407 1072 421 1048 C 435 1024 456 1002 486 982 C 515 962 552 943 598 927 C 643 911 696 894 758 877 C 828 856 895 833 958 809 C 1021 784 1076 754 1123 720 C 1170 685 1207 643 1234 594 C 1260 544 1274 484 1274 414 C 1274 352 1261 295 1237 243 C 1212 190 1176 144 1129 104 C 1082 64 1024 33 956 9 C 888 -15 811 -27 725 -29 L 705 -100 C 736 -80 777 -70 829 -70 C 867 -70 901 -81 931 -105 C 960 -129 975 -164 975 -211 C 975 -243 967 -272 953 -297 C 939 -321 919 -342 895 -358 C 870 -374 841 -387 809 -395 C 776 -403 741 -408 705 -408 Z" unicode="Ş" />
<glyph horiz-adv-x="1071" d="M 551 -408 C 496 -408 444 -401 395 -387 C 346 -373 304 -355 268 -332 L 319 -250 C 351 -270 385 -286 421 -296 C 457 -306 492 -311 528 -311 C 610 -311 651 -284 651 -231 C 651 -209 644 -193 631 -183 C 618 -173 600 -168 578 -168 C 558 -168 541 -171 527 -178 C 513 -184 498 -193 483 -205 L 412 -170 L 457 -18 C 373 -10 297 9 227 39 C 157 69 101 106 59 150 L 197 303 C 237 267 287 237 346 212 C 404 186 469 174 539 174 C 607 174 660 183 698 202 C 736 221 756 253 756 299 C 756 321 749 339 736 354 C 723 369 706 382 684 393 C 662 404 636 413 607 421 C 577 428 546 436 514 444 C 467 455 419 467 371 481 C 323 495 279 514 239 538 C 199 562 167 594 142 634 C 116 674 104 725 104 788 C 104 836 114 879 134 918 C 154 957 181 991 217 1019 C 252 1047 294 1068 344 1084 C 393 1100 448 1108 508 1108 C 612 1108 698 1094 767 1066 C 835 1038 898 1000 954 954 L 834 791 C 813 807 790 822 765 836 C 739 850 713 863 686 874 C 658 885 631 894 604 900 C 576 906 550 909 526 909 C 456 909 408 898 382 877 C 355 856 342 830 342 799 C 342 777 348 758 361 743 C 374 728 391 715 412 704 C 433 693 458 684 487 677 C 515 669 546 662 580 655 C 626 644 673 632 723 619 C 772 606 816 588 856 564 C 895 540 928 508 954 468 C 980 428 993 376 993 313 C 993 258 982 210 960 170 C 938 129 908 95 870 68 C 832 40 787 19 736 4 C 684 -10 630 -18 573 -20 L 551 -100 C 582 -80 624 -70 676 -70 C 714 -70 747 -81 777 -105 C 806 -129 821 -164 821 -211 C 821 -243 813 -272 799 -297 C 785 -321 765 -342 741 -358 C 717 -374 688 -387 655 -395 C 622 -403 587 -408 551 -408 Z" unicode="ş" />
<glyph horiz-adv-x="1380" d="M 338 1962 L 485 1962 L 690 1790 L 895 1962 L 1040 1962 L 776 1622 L 602 1622 L 338 1962 Z M 702 -29 C 552 -29 424 6 320 77 C 216 148 140 241 92 356 L 295 463 C 383 287 523 199 713 199 C 805 199 880 214 937 245 C 993 275 1022 325 1022 395 C 1022 427 1015 456 1003 481 C 991 505 971 528 944 549 C 916 569 881 588 837 606 C 793 624 740 642 678 662 C 604 683 535 705 471 728 C 407 750 351 778 303 812 C 255 845 217 886 190 935 C 163 983 150 1044 150 1116 C 150 1180 162 1238 187 1291 C 212 1343 247 1388 293 1426 C 339 1464 393 1493 457 1513 C 521 1533 591 1544 668 1544 C 742 1544 809 1535 869 1518 C 928 1501 981 1478 1028 1448 C 1074 1418 1115 1383 1149 1344 C 1183 1305 1211 1263 1235 1219 L 1049 1090 C 1003 1166 948 1221 884 1257 C 820 1293 747 1311 666 1311 C 581 1311 516 1296 470 1267 C 424 1237 401 1195 401 1139 C 401 1103 407 1072 421 1048 C 435 1024 456 1002 486 982 C 515 962 552 943 598 927 C 643 911 696 894 758 877 C 828 856 895 833 958 809 C 1021 784 1076 754 1123 720 C 1170 685 1207 643 1234 594 C 1260 544 1274 484 1274 414 C 1274 352 1261 295 1235 241 C 1209 187 1171 139 1123 99 C 1075 59 1015 27 944 5 C 873 -17 792 -29 702 -29 Z" unicode="Š" />
<glyph horiz-adv-x="1071" d="M 184 1548 L 332 1548 L 537 1376 L 741 1548 L 887 1548 L 623 1208 L 449 1208 L 184 1548 Z M 539 -23 C 437 -23 344 -6 260 25 C 175 57 108 99 59 150 L 197 303 C 237 267 287 237 346 212 C 404 186 469 174 539 174 C 607 174 660 183 698 202 C 736 221 756 253 756 299 C 756 321 749 339 736 354 C 723 369 706 382 684 393 C 662 404 636 413 607 421 C 577 428 546 436 514 444 C 467 455 419 467 371 481 C 323 495 279 514 239 538 C 199 562 167 594 142 634 C 116 674 104 725 104 788 C 104 836 114 879 134 918 C 154 957 181 991 217 1019 C 252 1047 294 1068 344 1084 C 393 1100 448 1108 508 1108 C 612 1108 698 1094 767 1066 C 835 1038 898 1000 954 954 L 834 791 C 813 807 790 822 765 836 C 739 850 713 863 686 874 C 658 885 631 894 604 900 C 576 906 550 909 526 909 C 456 909 408 898 382 877 C 355 856 342 830 342 799 C 342 777 348 758 361 743 C 374 728 391 715 412 704 C 433 693 458 684 487 677 C 515 669 546 662 580 655 C 626 644 673 632 723 619 C 772 606 816 588 856 564 C 895 540 928 508 954 468 C 980 428 993 376 993 313 C 993 255 981 205 957 163 C 933 121 901 86 859 59 C 817 31 769 11 714 -2 C 658 -16 600 -23 539 -23 Z" unicode="š" />
<glyph horiz-adv-x="1300" d="M 625 -338 L 526 -338 L 526 -92 L 778 -92 L 778 -307 L 666 -555 L 559 -555 L 625 -338 Z M 522 0 L 522 1278 L 55 1278 L 55 1516 L 1245 1516 L 1245 1278 L 778 1278 L 778 0 L 522 0 Z" unicode="Ţ" />
<glyph horiz-adv-x="821" d="M 352 -338 L 254 -338 L 254 -92 L 506 -92 L 506 -307 L 393 -555 L 287 -555 L 352 -338 Z M 563 -14 C 493 -14 437 -7 393 5 C 349 18 315 37 291 61 C 266 85 249 116 240 154 C 231 192 227 235 227 285 L 227 887 L 39 887 L 39 1087 L 227 1087 L 227 1466 L 479 1466 L 479 1087 L 760 1087 L 760 887 L 479 887 L 479 348 C 479 289 490 247 512 222 C 534 196 576 184 639 184 C 658 184 678 185 698 188 C 718 191 735 195 748 199 L 748 0 C 740 -1 729 -3 715 -5 C 701 -7 685 -8 668 -10 C 651 -11 633 -12 615 -13 C 597 -13 579 -14 563 -14 Z" unicode="ţ" />
<glyph horiz-adv-x="1300" d="M 299 1952 L 446 1952 L 651 1780 L 856 1952 L 1001 1952 L 737 1612 L 563 1612 L 299 1952 Z M 522 0 L 522 1278 L 55 1278 L 55 1516 L 1245 1516 L 1245 1278 L 778 1278 L 778 0 L 522 0 Z" unicode="Ť" />
<glyph horiz-adv-x="821" d="M 686 1450 L 590 1450 L 590 1688 L 834 1688 L 834 1481 L 725 1241 L 623 1241 L 686 1450 Z M 563 -14 C 493 -14 437 -7 393 5 C 349 18 315 37 291 61 C 266 85 249 116 240 154 C 231 192 227 235 227 285 L 227 887 L 39 887 L 39 1087 L 227 1087 L 227 1466 L 479 1466 L 479 1087 L 760 1087 L 760 887 L 479 887 L 479 348 C 479 289 490 247 512 222 C 534 196 576 184 639 184 C 658 184 678 185 698 188 C 718 191 735 195 748 199 L 748 0 C 740 -1 729 -3 715 -5 C 701 -7 685 -8 668 -10 C 651 -11 633 -12 615 -13 C 597 -13 579 -14 563 -14 Z" unicode="ť" />
<glyph horiz-adv-x="1300" d="M 55 819 L 522 819 L 522 1278 L 55 1278 L 55 1516 L 1245 1516 L 1245 1278 L 778 1278 L 778 819 L 1245 819 L 1245 623 L 778 623 L 778 0 L 522 0 L 522 623 L 55 623 L 55 819 Z" unicode="Ŧ" />
<glyph horiz-adv-x="821" d="M 35 647 L 223 647 L 223 887 L 35 887 L 35 1087 L 223 1087 L 223 1466 L 475 1466 L 475 1087 L 756 1087 L 756 887 L 475 887 L 475 647 L 756 647 L 756 477 L 475 477 L 475 348 C 475 289 485 247 507 222 C 528 196 570 184 633 184 C 652 184 672 185 693 188 C 714 191 731 195 743 199 L 743 0 C 728 -2 701 -5 663 -9 C 625 -12 590 -14 559 -14 C 489 -14 433 -7 389 5 C 345 18 311 37 287 61 C 262 85 245 116 236 154 C 227 192 223 235 223 285 L 223 477 L 35 477 L 35 647 Z" unicode="ŧ" />
<glyph horiz-adv-x="1477" d="M 739 -25 C 634 -25 545 -11 471 17 C 397 45 336 84 288 135 C 240 185 206 246 184 317 C 162 388 152 467 152 553 L 152 1516 L 408 1516 L 408 575 C 408 459 434 368 486 304 C 538 239 623 207 741 207 C 857 207 941 238 994 302 C 1046 365 1073 455 1073 573 L 1073 1516 L 1325 1516 L 1325 555 C 1325 469 1312 390 1288 319 C 1263 248 1226 187 1178 136 C 1130 84 1069 45 996 17 C 923 -11 837 -25 739 -25 Z M 893 1591 C 859 1591 828 1596 802 1608 C 775 1620 750 1633 726 1647 C 702 1661 679 1675 659 1687 C 639 1699 618 1706 596 1706 C 567 1706 546 1697 532 1680 C 518 1663 512 1635 512 1595 L 371 1595 C 371 1696 389 1769 427 1813 C 464 1857 516 1880 584 1880 C 618 1880 648 1873 675 1861 C 701 1849 726 1835 750 1821 C 774 1807 796 1794 818 1782 C 839 1770 861 1765 883 1765 C 910 1765 931 1773 945 1791 C 959 1808 967 1836 967 1876 L 1108 1876 C 1108 1776 1088 1703 1050 1658 C 1012 1613 959 1591 893 1591 Z" unicode="Ũ" />
<glyph horiz-adv-x="1235" d="M 442 -20 C 346 -20 270 7 214 62 C 157 117 129 199 129 307 L 129 1087 L 383 1087 L 383 367 C 383 249 437 190 545 190 C 601 190 652 203 699 229 C 746 255 793 289 840 332 L 840 1087 L 1094 1087 L 1094 0 L 840 0 L 840 147 C 822 128 800 109 775 89 C 749 69 720 50 688 34 C 655 18 618 5 577 -5 C 536 -15 491 -20 442 -20 Z M 772 1188 C 738 1188 707 1193 681 1205 C 654 1217 629 1230 605 1244 C 581 1258 558 1272 538 1284 C 518 1296 497 1303 475 1303 C 446 1303 425 1294 411 1277 C 397 1259 391 1231 391 1192 L 250 1192 C 250 1292 268 1365 306 1410 C 343 1454 395 1477 463 1477 C 497 1477 527 1470 554 1458 C 580 1446 606 1432 630 1418 C 654 1404 676 1391 697 1379 C 718 1367 740 1362 762 1362 C 789 1362 810 1370 824 1387 C 838 1404 846 1433 846 1473 L 987 1473 C 987 1373 967 1300 929 1255 C 891 1210 838 1188 772 1188 Z" unicode="ũ" />
<glyph horiz-adv-x="1477" d="M 739 -25 C 634 -25 545 -11 471 17 C 397 45 336 84 288 135 C 240 185 206 246 184 317 C 162 388 152 467 152 553 L 152 1516 L 408 1516 L 408 575 C 408 459 434 368 486 304 C 538 239 623 207 741 207 C 857 207 941 238 994 302 C 1046 365 1073 455 1073 573 L 1073 1516 L 1325 1516 L 1325 555 C 1325 469 1312 390 1288 319 C 1263 248 1226 187 1178 136 C 1130 84 1069 45 996 17 C 923 -11 837 -25 739 -25 Z M 418 1786 L 1057 1786 L 1057 1599 L 418 1599 L 418 1786 Z" unicode="Ū" />
<glyph horiz-adv-x="1235" d="M 442 -20 C 346 -20 270 7 214 62 C 157 117 129 199 129 307 L 129 1087 L 383 1087 L 383 367 C 383 249 437 190 545 190 C 601 190 652 203 699 229 C 746 255 793 289 840 332 L 840 1087 L 1094 1087 L 1094 0 L 840 0 L 840 147 C 822 128 800 109 775 89 C 749 69 720 50 688 34 C 655 18 618 5 577 -5 C 536 -15 491 -20 442 -20 Z M 297 1382 L 936 1382 L 936 1196 L 297 1196 L 297 1382 Z" unicode="ū" />
<glyph horiz-adv-x="1477" d="M 739 -25 C 634 -25 545 -11 471 17 C 397 45 336 84 288 135 C 240 185 206 246 184 317 C 162 388 152 467 152 553 L 152 1516 L 408 1516 L 408 575 C 408 459 434 368 486 304 C 538 239 623 207 741 207 C 857 207 941 238 994 302 C 1046 365 1073 455 1073 573 L 1073 1516 L 1325 1516 L 1325 555 C 1325 469 1312 390 1288 319 C 1263 248 1226 187 1178 136 C 1130 84 1069 45 996 17 C 923 -11 837 -25 739 -25 Z M 739 1589 C 685 1589 638 1597 598 1615 C 557 1633 522 1658 494 1690 C 465 1722 443 1761 427 1805 C 411 1849 401 1898 399 1952 L 541 1952 C 545 1913 553 1881 565 1856 C 577 1831 592 1811 610 1797 C 628 1783 647 1772 669 1766 C 691 1760 714 1757 739 1757 C 763 1757 787 1760 809 1766 C 831 1772 850 1783 868 1797 C 886 1811 901 1831 914 1856 C 927 1881 936 1913 940 1952 L 1079 1952 C 1076 1898 1067 1849 1051 1805 C 1035 1761 1013 1722 985 1690 C 956 1658 921 1633 880 1615 C 839 1597 792 1589 739 1589 Z" unicode="Ŭ" />
<glyph horiz-adv-x="1235" d="M 442 -20 C 346 -20 270 7 214 62 C 157 117 129 199 129 307 L 129 1087 L 383 1087 L 383 367 C 383 249 437 190 545 190 C 601 190 652 203 699 229 C 746 255 793 289 840 332 L 840 1087 L 1094 1087 L 1094 0 L 840 0 L 840 147 C 822 128 800 109 775 89 C 749 69 720 50 688 34 C 655 18 618 5 577 -5 C 536 -15 491 -20 442 -20 Z M 616 1186 C 563 1186 516 1194 475 1212 C 434 1230 399 1255 371 1287 C 342 1319 320 1357 304 1401 C 288 1445 279 1494 276 1548 L 418 1548 C 422 1510 430 1478 442 1453 C 454 1427 469 1407 487 1393 C 505 1379 525 1369 547 1363 C 569 1357 592 1354 616 1354 C 640 1354 664 1357 686 1363 C 708 1369 727 1379 745 1393 C 763 1407 778 1427 791 1453 C 804 1478 813 1510 817 1548 L 956 1548 C 953 1494 944 1445 928 1401 C 912 1357 890 1319 862 1287 C 833 1255 798 1230 757 1212 C 716 1194 669 1186 616 1186 Z" unicode="ŭ" />
<glyph horiz-adv-x="1477" d="M 737 1589 C 677 1589 627 1608 587 1648 C 547 1688 528 1738 528 1798 C 528 1858 547 1907 587 1946 C 627 1985 677 2005 737 2005 C 798 2005 848 1985 887 1946 C 926 1907 946 1858 946 1798 C 946 1738 926 1688 887 1648 C 848 1608 798 1589 737 1589 Z M 737 1694 C 767 1694 791 1703 810 1722 C 828 1741 838 1766 838 1798 C 838 1828 828 1853 810 1873 C 791 1893 767 1903 737 1903 C 708 1903 684 1893 665 1873 C 646 1853 637 1828 637 1798 C 637 1766 646 1741 665 1722 C 684 1703 708 1694 737 1694 Z M 739 -25 C 634 -25 545 -11 471 17 C 397 45 336 84 288 135 C 240 185 206 246 184 317 C 162 388 152 467 152 553 L 152 1516 L 408 1516 L 408 575 C 408 459 434 368 486 304 C 538 239 623 207 741 207 C 857 207 941 238 994 302 C 1046 365 1073 455 1073 573 L 1073 1516 L 1325 1516 L 1325 555 C 1325 469 1312 390 1288 319 C 1263 248 1226 187 1178 136 C 1130 84 1069 45 996 17 C 923 -11 837 -25 739 -25 Z" unicode="Ů" />
<glyph horiz-adv-x="1235" d="M 616 1186 C 556 1186 506 1205 467 1245 C 427 1285 408 1335 408 1395 C 408 1455 427 1504 467 1543 C 506 1582 556 1602 616 1602 C 678 1602 728 1582 767 1543 C 805 1504 825 1455 825 1395 C 825 1335 805 1285 767 1245 C 728 1205 678 1186 616 1186 Z M 616 1290 C 646 1290 671 1299 689 1319 C 707 1338 717 1363 717 1395 C 717 1425 707 1449 689 1469 C 671 1489 646 1499 616 1499 C 587 1499 563 1489 544 1469 C 525 1449 516 1425 516 1395 C 516 1363 525 1338 544 1319 C 563 1299 587 1290 616 1290 Z M 442 -20 C 346 -20 270 7 214 62 C 157 117 129 199 129 307 L 129 1087 L 383 1087 L 383 367 C 383 249 437 190 545 190 C 601 190 652 203 699 229 C 746 255 793 289 840 332 L 840 1087 L 1094 1087 L 1094 0 L 840 0 L 840 147 C 822 128 800 109 775 89 C 749 69 720 50 688 34 C 655 18 618 5 577 -5 C 536 -15 491 -20 442 -20 Z" unicode="ů" />
<glyph horiz-adv-x="1477" d="M 739 -25 C 634 -25 545 -11 471 17 C 397 45 336 84 288 135 C 240 185 206 246 184 317 C 162 388 152 467 152 553 L 152 1516 L 408 1516 L 408 575 C 408 459 434 368 486 304 C 538 239 623 207 741 207 C 857 207 941 238 994 302 C 1046 365 1073 455 1073 573 L 1073 1516 L 1325 1516 L 1325 555 C 1325 469 1312 390 1288 319 C 1263 248 1226 187 1178 136 C 1130 84 1069 45 996 17 C 923 -11 837 -25 739 -25 Z M 623 1946 L 897 1946 L 586 1606 L 418 1606 L 623 1946 Z M 999 1946 L 1274 1946 L 952 1606 L 784 1606 L 999 1946 Z" unicode="Ű" />
<glyph horiz-adv-x="1235" d="M 442 -20 C 346 -20 270 7 214 62 C 157 117 129 199 129 307 L 129 1087 L 383 1087 L 383 367 C 383 249 437 190 545 190 C 601 190 652 203 699 229 C 746 255 793 289 840 332 L 840 1087 L 1094 1087 L 1094 0 L 840 0 L 840 147 C 822 128 800 109 775 89 C 749 69 720 50 688 34 C 655 18 618 5 577 -5 C 536 -15 491 -20 442 -20 Z M 514 1542 L 788 1542 L 477 1202 L 309 1202 L 514 1542 Z M 891 1542 L 1165 1542 L 844 1202 L 676 1202 L 891 1542 Z" unicode="ű" />
<glyph horiz-adv-x="1477" d="M 768 -383 C 698 -383 645 -369 609 -341 C 573 -313 555 -274 555 -225 C 555 -189 567 -154 591 -120 C 615 -85 646 -53 684 -23 C 590 -17 509 0 441 30 C 373 59 318 99 275 149 C 232 199 201 259 181 327 C 161 395 152 471 152 553 L 152 1516 L 408 1516 L 408 575 C 408 459 434 368 486 304 C 538 239 623 207 741 207 C 857 207 941 238 994 302 C 1046 365 1073 455 1073 573 L 1073 1516 L 1325 1516 L 1325 555 C 1325 475 1314 403 1294 337 C 1274 271 1243 213 1202 163 C 1161 113 1110 72 1049 41 C 988 9 917 -10 836 -18 C 767 -74 733 -130 733 -186 C 733 -209 739 -229 753 -246 C 767 -263 793 -272 831 -272 C 869 -272 903 -267 931 -257 C 959 -247 986 -235 1012 -223 L 1063 -303 C 1020 -327 974 -347 926 -361 C 878 -375 825 -383 768 -383 Z" unicode="Ų" />
<glyph horiz-adv-x="1235" d="M 442 -20 C 346 -20 270 7 214 62 C 157 117 129 199 129 307 L 129 1087 L 383 1087 L 383 367 C 383 249 437 190 545 190 C 601 190 652 203 699 229 C 746 255 793 289 840 332 L 840 1087 L 1094 1087 L 1094 0 L 975 0 C 890 -60 848 -122 848 -186 C 848 -209 854 -229 868 -246 C 882 -263 908 -272 946 -272 C 984 -272 1017 -267 1045 -257 C 1073 -247 1100 -235 1126 -223 L 1178 -303 C 1135 -327 1089 -347 1041 -361 C 993 -375 940 -383 883 -383 C 813 -383 760 -369 724 -341 C 688 -313 670 -274 670 -225 C 670 -184 686 -143 719 -102 C 751 -61 792 -25 840 6 L 840 147 C 822 128 800 109 775 89 C 749 69 720 50 688 34 C 655 18 618 5 577 -5 C 536 -15 491 -20 442 -20 Z" unicode="ų" />
<glyph horiz-adv-x="1933" d="M 879 1946 L 1053 1946 L 1317 1606 L 1169 1606 L 965 1778 L 760 1606 L 614 1606 L 879 1946 Z M 463 0 L 59 1516 L 317 1516 L 510 731 C 524 669 538 610 552 554 C 566 497 578 439 590 379 L 594 379 C 604 437 616 495 629 552 C 642 608 656 667 672 729 L 854 1516 L 1100 1516 L 1288 725 C 1304 661 1319 603 1332 551 C 1345 499 1357 441 1368 379 L 1372 379 C 1377 411 1382 441 1388 469 C 1394 496 1400 523 1406 550 C 1412 576 1418 603 1425 630 C 1432 656 1439 686 1446 719 L 1634 1516 L 1874 1516 L 1475 0 L 1251 0 L 979 1161 L 975 1161 L 688 0 L 463 0 Z" unicode="Ŵ" />
<glyph horiz-adv-x="1565" d="M 694 1542 L 868 1542 L 1133 1202 L 985 1202 L 780 1374 L 575 1202 L 430 1202 L 694 1542 Z M 348 0 L 25 1087 L 281 1087 L 399 637 C 407 605 415 576 422 550 C 428 523 435 496 441 470 C 447 443 454 415 461 386 C 467 356 474 325 481 291 L 485 291 C 493 327 501 360 508 390 C 514 419 521 447 527 474 C 533 500 540 527 548 554 C 555 580 563 609 571 641 L 686 1087 L 891 1087 L 1012 633 C 1020 603 1027 574 1035 548 C 1043 521 1050 494 1056 468 C 1062 441 1068 413 1074 385 C 1080 356 1087 325 1096 291 L 1100 291 C 1108 326 1115 358 1122 387 C 1129 415 1136 443 1142 469 C 1148 495 1154 520 1162 546 C 1170 571 1178 599 1186 629 L 1309 1087 L 1538 1087 L 1214 0 L 979 0 L 782 756 L 778 756 L 582 0 L 348 0 Z" unicode="ŵ" />
<glyph horiz-adv-x="1354" d="M 547 0 L 547 653 L 31 1516 L 301 1516 L 680 870 L 1057 1516 L 1323 1516 L 805 653 L 805 0 L 547 0 Z M 588 1946 L 762 1946 L 1026 1606 L 879 1606 L 674 1778 L 469 1606 L 324 1606 L 588 1946 Z" unicode="Ŷ" />
<glyph horiz-adv-x="1120" d="M 256 -422 C 190 -422 138 -418 98 -410 C 58 -402 25 -395 -2 -389 L 55 -186 C 70 -190 94 -195 126 -201 C 158 -206 196 -209 240 -209 C 284 -209 320 -199 346 -180 C 372 -161 394 -130 412 -86 L 442 -6 L 25 1087 L 287 1087 L 567 295 L 571 295 L 850 1087 L 1100 1087 L 637 -119 C 619 -166 599 -208 577 -246 C 555 -284 530 -316 500 -342 C 470 -368 435 -387 395 -401 C 355 -415 309 -422 256 -422 Z M 481 1542 L 655 1542 L 920 1202 L 772 1202 L 567 1374 L 362 1202 L 217 1202 L 481 1542 Z" unicode="ŷ" />
<glyph horiz-adv-x="1354" d="M 547 0 L 547 653 L 31 1516 L 301 1516 L 680 870 L 1057 1516 L 1323 1516 L 805 653 L 805 0 L 547 0 Z M 358 1847 L 588 1847 L 588 1599 L 358 1599 L 358 1847 Z M 764 1847 L 993 1847 L 993 1599 L 764 1599 L 764 1847 Z" unicode="Ÿ" />
<glyph horiz-adv-x="1321" d="M 688 1946 L 958 1946 L 662 1606 L 496 1606 L 688 1946 Z M 72 0 L 72 178 L 909 1300 L 127 1300 L 127 1516 L 1231 1516 L 1231 1331 L 403 209 L 1231 209 L 1231 0 L 72 0 Z" unicode="Ź" />
<glyph horiz-adv-x="1065" d="M 586 1542 L 856 1542 L 559 1202 L 393 1202 L 586 1542 Z M 70 0 L 70 145 L 649 887 L 113 887 L 113 1087 L 965 1087 L 965 936 L 383 195 L 999 195 L 999 0 L 70 0 Z" unicode="ź" />
<glyph horiz-adv-x="1321" d="M 72 0 L 72 178 L 909 1300 L 127 1300 L 127 1516 L 1231 1516 L 1231 1331 L 403 209 L 1231 209 L 1231 0 L 72 0 Z M 524 1849 L 795 1849 L 795 1622 L 524 1622 L 524 1849 Z" unicode="Ż" />
<glyph horiz-adv-x="1065" d="M 70 0 L 70 145 L 649 887 L 113 887 L 113 1087 L 965 1087 L 965 936 L 383 195 L 999 195 L 999 0 L 70 0 Z M 397 1446 L 668 1446 L 668 1219 L 397 1219 L 397 1446 Z" unicode="ż" />
<glyph horiz-adv-x="1321" d="M 317 1962 L 465 1962 L 670 1790 L 874 1962 L 1020 1962 L 756 1622 L 582 1622 L 317 1962 Z M 72 0 L 72 178 L 909 1300 L 127 1300 L 127 1516 L 1231 1516 L 1231 1331 L 403 209 L 1231 209 L 1231 0 L 72 0 Z" unicode="Ž" />
<glyph horiz-adv-x="1065" d="M 186 1548 L 334 1548 L 539 1376 L 743 1548 L 889 1548 L 625 1208 L 451 1208 L 186 1548 Z M 70 0 L 70 145 L 649 887 L 113 887 L 113 1087 L 965 1087 L 965 936 L 383 195 L 999 195 L 999 0 L 70 0 Z" unicode="ž" />
<glyph horiz-adv-x="766" d="M 236 1198 C 236 1243 241 1285 252 1325 C 262 1364 281 1398 308 1428 C 334 1458 370 1481 415 1497 C 460 1513 518 1522 588 1522 C 600 1522 613 1521 628 1521 C 643 1520 658 1519 672 1518 C 686 1516 700 1515 712 1513 C 724 1511 733 1511 737 1511 L 737 1317 C 729 1319 716 1321 699 1323 C 682 1324 666 1325 651 1325 C 627 1325 606 1323 586 1319 C 566 1315 549 1307 535 1297 C 521 1287 509 1272 500 1254 C 491 1236 487 1212 487 1184 L 487 0 L 236 0 L 236 1198 Z" unicode="ſ" />
<glyph horiz-adv-x="788" d="M -166 -225 C -158 -227 -145 -229 -128 -231 C -110 -232 -95 -233 -82 -233 C -30 -233 12 -220 45 -196 C 77 -172 97 -130 104 -72 L 223 813 L 35 813 L 57 995 L 246 995 L 272 1198 C 278 1244 288 1287 304 1327 C 320 1366 343 1400 374 1429 C 404 1458 443 1481 491 1497 C 539 1513 598 1522 668 1522 C 680 1522 693 1521 708 1521 C 723 1520 738 1519 752 1518 C 766 1516 780 1515 792 1513 C 804 1511 813 1511 817 1511 L 793 1327 C 784 1329 771 1331 754 1333 C 737 1334 722 1335 709 1335 C 685 1335 663 1333 643 1329 C 622 1325 603 1317 587 1307 C 571 1297 557 1282 545 1264 C 533 1246 526 1222 524 1194 L 498 995 L 735 995 L 713 813 L 475 813 L 352 -113 C 346 -155 336 -194 320 -231 C 304 -268 282 -300 252 -327 C 222 -353 183 -374 136 -390 C 89 -406 31 -414 -39 -414 C -51 -414 -64 -413 -80 -413 C -96 -412 -111 -411 -125 -411 C -139 -410 -152 -409 -164 -408 C -176 -406 -184 -405 -188 -403 L -166 -225 Z" unicode="ƒ" />
<glyph horiz-adv-x="1049" d="M -33 0 L 860 1516 L 1081 1516 L 188 0 L -33 0 Z" unicode="⁄" />
<glyph horiz-adv-x="2410" d="M 1614 625 L 2281 625 L 2281 442 L 1614 442 L 1614 625 Z M 1948 737 C 1902 737 1857 744 1812 758 C 1767 772 1726 796 1690 828 C 1654 860 1625 901 1603 951 C 1581 1001 1571 1061 1571 1133 C 1571 1205 1581 1266 1603 1317 C 1625 1367 1654 1408 1690 1440 C 1726 1471 1767 1494 1812 1508 C 1857 1522 1902 1530 1948 1530 C 1992 1530 2037 1522 2081 1508 C 2125 1494 2166 1471 2202 1440 C 2238 1408 2267 1367 2289 1317 C 2311 1266 2322 1205 2322 1133 C 2322 1061 2311 1001 2289 951 C 2267 901 2238 860 2202 828 C 2166 796 2125 772 2081 758 C 2037 744 1992 737 1948 737 Z M 1948 877 C 2009 877 2056 900 2090 946 C 2123 992 2140 1054 2140 1130 C 2140 1206 2123 1268 2090 1314 C 2056 1360 2009 1384 1948 1384 C 1886 1384 1838 1361 1804 1316 C 1770 1271 1753 1209 1753 1130 C 1753 1056 1769 996 1803 948 C 1836 900 1884 877 1948 877 Z M 172 0 L 172 1516 L 432 1516 L 1149 434 L 1153 434 L 1153 1516 L 1391 1516 L 1391 0 L 1157 0 L 414 1104 L 410 1104 L 410 0 L 172 0 Z" unicode="№" />
<glyph horiz-adv-x="1421" d="M 747 2228 L 1017 2228 L 720 1888 L 555 1888 L 747 2228 Z M 575 1485 C 553 1499 536 1520 523 1546 C 510 1572 504 1600 504 1632 C 504 1690 523 1739 563 1779 C 603 1819 653 1839 713 1839 C 774 1839 824 1819 863 1779 C 902 1739 922 1690 922 1632 C 922 1600 915 1572 903 1547 C 891 1521 874 1501 852 1485 L 1376 0 L 1114 0 L 991 360 L 416 360 L 291 0 L 51 0 L 575 1485 Z M 918 588 L 709 1200 L 705 1200 L 492 588 L 918 588 Z M 713 1526 C 743 1526 767 1535 785 1555 C 803 1575 813 1600 813 1632 C 813 1662 803 1686 785 1706 C 767 1725 743 1735 713 1735 C 684 1735 660 1725 641 1706 C 621 1686 612 1662 612 1632 C 612 1600 621 1575 641 1555 C 660 1535 684 1526 713 1526 Z" unicode="Ǻ" />
<glyph horiz-adv-x="1153" d="M 588 2029 L 858 2029 L 561 1689 L 396 1689 L 588 2029 Z M 379 -16 C 335 -16 294 -10 257 2 C 219 14 187 31 160 55 C 132 78 111 107 95 142 C 79 177 72 217 72 262 C 72 320 85 374 111 424 C 137 473 178 516 236 554 C 293 591 366 623 456 650 C 545 676 653 697 780 713 L 780 745 C 780 799 765 839 737 864 C 708 888 663 901 602 901 C 525 901 456 885 396 855 C 335 824 282 790 236 754 L 113 911 C 171 964 245 1010 334 1049 C 422 1088 523 1108 637 1108 C 709 1108 770 1099 820 1082 C 870 1065 910 1040 941 1006 C 971 972 993 931 1007 882 C 1021 833 1028 777 1028 715 L 1028 266 C 1028 200 1030 146 1035 104 C 1039 62 1047 27 1059 0 L 805 0 C 798 23 792 44 787 63 C 782 82 780 107 780 139 C 724 81 663 41 599 18 C 534 -4 461 -16 379 -16 Z M 471 178 C 536 178 594 189 645 212 C 695 234 740 265 780 303 L 780 543 C 628 522 514 493 436 455 C 358 417 319 369 319 309 C 319 265 332 233 360 211 C 387 189 424 178 471 178 Z M 594 1186 C 534 1186 484 1205 444 1245 C 404 1285 385 1335 385 1395 C 385 1455 404 1504 444 1543 C 484 1582 534 1602 594 1602 C 655 1602 705 1582 744 1543 C 783 1504 803 1455 803 1395 C 803 1335 783 1285 744 1245 C 705 1205 655 1186 594 1186 Z M 594 1290 C 624 1290 648 1299 666 1319 C 684 1338 694 1363 694 1395 C 694 1425 684 1449 666 1469 C 648 1489 624 1499 594 1499 C 565 1499 541 1489 522 1469 C 503 1449 494 1425 494 1395 C 494 1363 503 1338 522 1319 C 541 1299 565 1290 594 1290 Z" unicode="ǻ" />
</font>
</defs>
</svg>
