<?xml version="1.0" encoding="UTF-8"?>
<svg xmlns="http://www.w3.org/2000/svg" xmlns:xlink="http://www.w3.org/1999/xlink" width="100" height="200" viewBox="0 0 100 200" class="eapl-cta__icon eapl-cta__icon--custom">
   <defs>
      <polygon id="ts4_svg-logo_plumbob-a" points="0 .653 28.926 .653 28.926 21.264 0 21.264" />
   </defs>
   <g fill="none" fill-rule="evenodd" transform="translate(3 2)">
      <polygon fill="#4E801A" fill-rule="nonzero" points="64.797 75.067 70.343 98.477 94.398 98.477 94.398 98.475 76.193 60.798" />
      <polygon fill="#76FF83" fill-rule="nonzero" points="70.343 98.477 66.652 114.062 92.645 101.833 92.746 101.883 94.398 98.478 94.398 98.477" />
      <polygon fill="#C7FFBD" fill-rule="nonzero" points="92.746 101.884 84.773 118.379 84.638 118.311 60.718 139.108 66.652 114.061 92.645 101.833" />
      <polygon fill="#5EEA03" fill-rule="nonzero" points="60.718 139.108 47.283 195.845 84.773 118.379 84.638 118.311" />
      <g transform="translate(0 .581)">
         <path fill="#5EEA03" fill-rule="nonzero" d="M69.7868527,46.9256421 L76.1923566,60.2160632 L64.7975116,74.4850105 L60.4989457,56.2864842 C63.7525116,53.4024842 66.8705736,50.2819579 69.7868527,46.9256421" />
         <polygon fill="#35BA2A" fill-rule="nonzero" points="64.797 74.485 70.343 97.895 46.457 97.895 46.457 97.474" />
         <path fill="#5EEA03" fill-rule="nonzero" d="M70.3434496,97.8950737 L66.6517054,113.479284 L66.6008915,113.496232 C66.6008915,113.496232 39.7821705,127.596442 32.0113178,131.037495 L24.1388372,97.8950737 L46.4572093,97.8950737 L70.3434496,97.8950737 Z" />
         <path fill="#76FF83" fill-rule="nonzero" d="M47.1990194,0.155547368 L69.7869264,46.9258632 C66.8706473,50.2814421 63.7525853,53.4019684 60.4990194,56.2859684 L47.1990194,0.155547368 Z" />
         <path fill="#258402" fill-rule="nonzero" d="M66.6519264,113.479579 L60.7177403,138.525579 L60.6507248,138.592632 L39.0570039,160.670632 L32.0108023,131.037053 C39.7823915,127.596 66.6011124,113.495789 66.6011124,113.495789 L66.6519264,113.479579 Z" />
         <path fill="#F6F7F5" fill-rule="nonzero" d="M60.4987248,56.2861895 L64.7972907,74.4847158 L46.4571357,97.4734526 L46.4571357,97.8949263 L24.1387636,97.8949263 L24.088686,97.7092421 L28.9263217,77.2847158 C38.7540349,72.3596632 50.2335698,65.4613474 60.4987248,56.2861895" />
         <polygon fill="#134401" fill-rule="nonzero" points="60.651 138.593 60.718 138.526 47.283 195.263 39.058 160.671" />
         <path fill="#C7FFBD" fill-rule="nonzero" d="M47.1990194,0.155547368 L60.4990194,56.2859684 C50.2331279,65.4611263 38.753593,72.3594421 28.9266163,77.2844947 L47.1990194,0.155547368 Z" />
         <polygon fill="#5EEA03" fill-rule="nonzero" points="39.058 160.671 47.283 195.263 33.849 167.603 38.703 161.024" />
         <path fill="#35BA2A" fill-rule="nonzero" d="M47.1990194,0.155547368 L28.9266163,77.2844947 C15.5588643,83.9971263 5.24215891,87.0329158 5.24215891,87.0329158 L47.1990194,0.155547368 Z M32.0111705,131.037126 L39.0573721,160.670705 L38.7031473,161.024389 L33.8485736,167.602916 L18.7450465,136.501547 C19.5875271,136.197968 24.8972171,134.190811 31.9603566,131.053337 C31.9772946,131.053337 31.9942326,131.037126 32.0111705,131.037126 L32.0111705,131.037126 Z" />
         <path fill="#4E801A" fill-rule="nonzero" d="M24.1390581,97.8950737 L32.0108023,131.037495 C31.9946008,131.037495 31.9776628,131.053705 31.9607248,131.053705 C24.8975853,134.191179 19.5871589,136.1976 18.7446783,136.501916 L0.000220930233,97.8950737 L24.1390581,97.8950737 Z" />
         <g transform="translate(0 76.632)">
            <mask id="ts4_svg-logo_plumbob-b" fill="#fff">
               <use xlink:href="#ts4_svg-logo_plumbob-a" />
            </mask>
            <path fill="#134401" fill-rule="nonzero" d="M28.9262481,0.652768421 L24.0886124,21.0780316 L24.1394264,21.2637158 L-0.000147286822,21.2637158 L5.24252713,10.4011895 C5.24252713,10.4011895 15.5592326,7.3654 28.9262481,0.652768421" mask="url(#ts4_svg-logo_plumbob-b)" />
         </g>
      </g>
   </g>
</svg>