<?xml version="1.0" standalone="no"?>
<!DOCTYPE svg PUBLIC "-//W3C//DTD SVG 1.1//EN" "http://www.w3.org/Graphics/SVG/1.1/DTD/svg11.dtd" >
<svg xmlns="http://www.w3.org/2000/svg">
<metadata></metadata>
<defs>
<font id="the_sims_sans_scbold" horiz-adv-x="640" >
<font-face units-per-em="1000" ascent="750" descent="-250" />
<missing-glyph horiz-adv-x="300" />
<glyph horiz-adv-x="0" />
<glyph horiz-adv-x="0" />
<glyph unicode="&#xd;" horiz-adv-x="300" />
<glyph unicode=" "  horiz-adv-x="300" />
<glyph unicode="&#x09;" horiz-adv-x="300" />
<glyph unicode="&#xa0;" horiz-adv-x="300" />
<glyph unicode="!" horiz-adv-x="295" d="M227 78q0 -34 -23.5 -57t-56.5 -23q-34 0 -57 23t-23 57q0 33 23 56.5t57 23.5q33 0 56.5 -23.5t23.5 -56.5zM226 725l-10 -502l-135 -38l-9 515z" />
<glyph unicode="&#x22;" horiz-adv-x="480" d="M205 700l-50 -255h-100l10 255h140zM435 700l-50 -255h-100l10 255h140z" />
<glyph unicode="#" horiz-adv-x="685" d="M612 410h-98l-16 -110h112l-33 -115h-96l-26 -185h-115l26 185h-100l-26 -185h-115l26 185h-111l33 115h95l16 110h-109l33 115h92l25 175h115l-25 -175h100l25 175h115l-25 -175h115zM383 300l16 110h-100l-16 -110h100z" />
<glyph unicode="$" horiz-adv-x="550" d="M339 421q50 -14 85.5 -37.5t50.5 -46.5t23 -44t8 -34v-13q0 -84 -46 -135.5t-117 -69.5v-80l-125 -27v101q-52 7 -95.5 26t-61.5 35l-18 15l85 108q56 -50 142 -50q9 0 19.5 2t25.5 7t24.5 17.5t9.5 30.5q0 8 -1 14.5t-4.5 12t-7 9.5t-11 9t-13.5 8t-18.5 8t-21.5 8 t-27 9.5t-31 11.5q-84 31 -121 65t-37 106q0 64 45 115t117 70v74l125 27v-98q42 -7 78.5 -24.5t52.5 -31.5l15 -14l-81 -101q-34 37 -82 48.5t-82.5 -5t-34.5 -51.5q0 -10 3 -18t11 -14t14.5 -10.5t21 -9.5t23.5 -7.5t28 -7.5t29 -8z" />
<glyph unicode="%" horiz-adv-x="870" d="M403 542q0 -71 -52.5 -120.5t-127.5 -49.5q-74 0 -127 50t-53 120t53 120t127 50q75 0 127.5 -50t52.5 -120zM144 542q0 -33 23.5 -56t55.5 -23q33 0 56 23t23 56q0 32 -23 55.5t-56 23.5q-32 0 -55.5 -23.5t-23.5 -55.5zM646 360q75 0 127.5 -49.5t52.5 -120.5 t-52.5 -120.5t-127.5 -49.5q-74 0 -127 50t-53 120t53 120t127 50zM646 111q33 0 56 23t23 56q0 32 -23 55.5t-56 23.5q-32 0 -55.5 -23.5t-23.5 -55.5q0 -33 23.5 -56t55.5 -23zM582 725h100l-400 -725h-120z" />
<glyph unicode="&#x26;" horiz-adv-x="760" d="M737 0h-181q-33 38 -79 91q-9 -8 -23 -20.5t-17 -15.5q-50 -46 -119 -64t-139 8t-107 101q-26 60 -25.5 115.5t39 107t110.5 83.5q-40 35 -51.5 88t4.5 101t63.5 83t114.5 35q27 0 56.5 -7.5t62.5 -25.5t54 -54.5t21 -87.5q0 -88 -118 -162q11 -13 40 -45t45 -51l101 87 l84 -95q-45 -41 -97 -90zM327 603q-6 0 -15 -1.5t-23.5 -17.5t-14.5 -44t44 -70q1 0 3.5 1.5t3.5 2.5q60 30 60 71q0 28 -16.5 43t-41.5 15zM214 156q30 -41 81.5 -31.5t98.5 61.5q-97 110 -107 121q-31 -15 -53.5 -36.5t-32.5 -52.5t13 -62z" />
<glyph unicode="'" horiz-adv-x="240" d="M155 445h-100l10 255h140z" />
<glyph unicode="(" horiz-adv-x="340" d="M300 -164l-72 -71q-95 93 -148.5 224t-53.5 281t55 280.5t151 223.5l77 -70q-173 -180 -173 -436q0 -126 43 -237.5t121 -194.5z" />
<glyph unicode=")" horiz-adv-x="340" d="M112 -235l-72 71q78 83 121 194.5t43 237.5q0 256 -173 436l77 70q96 -93 151 -223.5t55 -280.5t-53.5 -281t-148.5 -224z" />
<glyph unicode="*" horiz-adv-x="465" d="M424 558l-88 -47l88 -47l-55 -96l-85 52l3 -99h-110l2 99l-84 -52l-55 96l87 47l-87 47l55 96l84 -52l-2 99h110l-3 -99l85 52z" />
<glyph unicode="+" d="M580 414v-125h-195v-195h-125v195h-200v125h200v200h125v-200h195z" />
<glyph unicode="," horiz-adv-x="345" d="M285 200l-148 -325h-111l90 300z" />
<glyph unicode="-" horiz-adv-x="370" d="M320 288h-270v125h270v-125z" />
<glyph unicode="." horiz-adv-x="280" d="M220 78q0 -34 -23.5 -57t-56.5 -23t-56.5 23t-23.5 57q0 33 23.5 56.5t56.5 23.5t56.5 -23.5t23.5 -56.5z" />
<glyph unicode="/" horiz-adv-x="295" d="M222 705h127l-277 -718h-126z" />
<glyph unicode="0" horiz-adv-x="650" d="M325 -14q-15 0 -30.5 1.5t-44 9.5t-53 22t-51.5 41.5t-46.5 64.5t-32 95.5t-12.5 130.5t12.5 130.5t32 95.5t46.5 64.5t51.5 41.5t53 22t44 9.5t30.5 1.5t30.5 -1.5t44 -9.5t53 -22t51.5 -41.5t46.5 -64.5t32 -95.5t12.5 -130.5t-12.5 -130.5t-32 -95.5t-46.5 -64.5 t-51.5 -41.5t-53 -22t-44 -9.5t-30.5 -1.5zM325 573q-120 0 -120 -220t120 -220t120 220t-120 220z" />
<glyph unicode="1" horiz-adv-x="345" d="M115 0v549h-95l50 151h195v-700h-150z" />
<glyph unicode="2" horiz-adv-x="625" d="M349 145h225l-38 -145h-490q181 216 204 242l24 26q24 27 38 45.5t35 48t31.5 57t10.5 51.5q0 52 -31.5 75.5t-74.5 23.5q-30 0 -59.5 -22.5t-29.5 -64.5q0 -25 8 -43t16.5 -25t24.5 -18l-85 -112q-5 3 -12.5 8t-27 22.5t-34.5 38t-27 53.5t-12 68q0 102 69 170.5 t174 68.5q107 0 180 -60t73 -177q0 -24 -6.5 -51t-19.5 -52.5t-26 -48t-31 -46.5t-29 -37.5t-26 -31.5t-17 -20q-1 -1 -37 -44z" />
<glyph unicode="3" horiz-adv-x="600" d="M245 309l-1 105l45 1q38 0 65 23.5t27 57.5q0 33 -27 57t-65 24t-65 -24t-27 -57l-141 13q0 93 67 148t166 55q96 0 164.5 -59.5t68.5 -141.5q0 -90 -79 -150q97 -59 97 -167q0 -85 -73.5 -145.5t-177.5 -60.5q-103 0 -176.5 60.5t-73.5 145.5l145 25q0 -38 30.5 -65 t74.5 -27t74.5 27t30.5 65q0 35 -27 61t-67 29h-11h-44z" />
<glyph unicode="4" horiz-adv-x="655" d="M608 262l-38 -132h-70v-130h-149v130h-315v132l329 438h135v-438h108zM210 262h141v188z" />
<glyph unicode="5" horiz-adv-x="595" d="M238 443q127 29 215 -33t88 -173q0 -107 -81.5 -178t-192.5 -71q-64 0 -120 22.5t-81 45.5l-24 22l111 107q2 -2 5 -5.5t14 -13t23.5 -16.5t32.5 -12.5t41 -5.5q53 0 86.5 26t33.5 74q0 56 -42.5 78t-108.5 14t-149 -39v415h400l-38 -144h-213v-113z" />
<glyph unicode="6" horiz-adv-x="625" d="M277 457q36 14 75.5 15.5t78.5 -16t70 -44.5t50 -70t19 -92q0 -60 -20 -107.5t-49.5 -75.5t-67 -46t-68.5 -24.5t-59 -6.5q-24 0 -54 7.5t-65.5 27t-64 48t-47.5 75t-19 102.5q0 63 26 132.5t62.5 123.5t73 99.5t62.5 70.5l26 24h198q-57 -40 -113.5 -101t-84.5 -101z M315 135q46 0 78.5 32t32.5 78q0 45 -33 76.5t-79 31.5t-78 -31t-32 -77t32.5 -78t78.5 -32z" />
<glyph unicode="7" horiz-adv-x="610" d="M175 0l195 552h-309l40 148h464l-228 -700h-162z" />
<glyph unicode="8" horiz-adv-x="600" d="M448 368q102 -58 102 -169q0 -85 -73 -145.5t-177 -60.5t-177.5 60t-73.5 146q0 106 96 166q-78 57 -78 158q0 93 66.5 148t166.5 55q96 0 164.5 -60t68.5 -141q0 -93 -85 -157zM300 603q-38 0 -65 -24t-27 -57q0 -34 27 -57.5t65 -23.5t65 23.5t27 57.5q0 33 -27.5 57 t-64.5 24zM300 123q44 0 74.5 27t30.5 65t-30.5 65t-74.5 27t-74.5 -27t-30.5 -65t30.5 -65t74.5 -27z" />
<glyph unicode="9" horiz-adv-x="625" d="M349 243q-36 -14 -75.5 -15.5t-78.5 16t-70 44.5t-50 70t-19 92q0 60 20 107.5t49.5 75.5t67 46t68.5 24.5t59 6.5q24 0 54 -7.5t65.5 -27t64 -48t47.5 -75t19 -102.5q0 -63 -26 -132.5t-62.5 -123.5t-73 -99.5t-62.5 -70.5l-26 -24h-198q57 40 113.5 101t84.5 101z M311 564q-46 0 -78.5 -31.5t-32.5 -77.5q0 -45 33 -77t79 -32t78 31.5t32 77.5t-32.5 77.5t-78.5 31.5z" />
<glyph unicode=":" horiz-adv-x="280" d="M220 78q0 -34 -23.5 -57t-56.5 -23t-56.5 23t-23.5 57q0 33 23.5 56.5t56.5 23.5t56.5 -23.5t23.5 -56.5zM220 380q0 -33 -23.5 -56.5t-56.5 -23.5t-56.5 23.5t-23.5 56.5t23.5 56.5t56.5 23.5t56.5 -23.5t23.5 -56.5z" />
<glyph unicode=";" horiz-adv-x="280" d="M220 380q0 -33 -23.5 -56.5t-56.5 -23.5t-56.5 23.5t-23.5 56.5t23.5 56.5t56.5 23.5t56.5 -23.5t23.5 -56.5zM246 200l-148 -325h-111l90 300z" />
<glyph unicode="&#x3c;" horiz-adv-x="600" d="M553 127v-132l-506 220v82l506 220v-132l-342 -129z" />
<glyph unicode="=" horiz-adv-x="620" d="M570 414h-520v125h520v-125zM570 163h-520v125h520v-125z" />
<glyph unicode="&#x3e;" horiz-adv-x="600" d="M47 -5v132l342 129l-342 129v132l506 -220v-82z" />
<glyph unicode="?" horiz-adv-x="500" d="M322 516q0 33 -23 50.5t-58 17.5q-60 0 -104 -59l-112 75q3 5 8 12.5t24.5 27.5t43 35t63 27.5t83.5 12.5q101 0 160.5 -62t59.5 -133q0 -20 -2.5 -37.5t-10 -32.5t-11 -24t-17 -22.5t-16 -16.5t-19.5 -17l-17 -13l-16 -12t-17 -14t-13 -14t-11 -20t-3 -25v-48l-140 -40 v111q0 19 1.5 29.5t8 33.5t25.5 42.5t50 35.5l15 7.5t15 8t12 9t11.5 13t6.5 17.5t3 25zM326 78q0 -34 -23.5 -57t-56.5 -23t-56.5 23t-23.5 57q0 33 23.5 56.5t56.5 23.5t56.5 -23.5t23.5 -56.5z" />
<glyph unicode="@" horiz-adv-x="820" d="M432 64q55 0 102 13t66 27l20 13l38 -52q-91 -82 -227 -82q-90 0 -165 33t-120.5 86.5t-70.5 116.5t-25 126t24 126.5t69 118t118.5 88.5t163.5 34q139 0 241.5 -83.5t102.5 -221.5q0 -131 -70.5 -201.5t-169.5 -70.5q-30 -1 -45.5 18.5t-18.5 40.5q-18 -28 -52 -43 t-69 -11q-20 2 -43 13.5t-47.5 33t-38 61t-7.5 89.5q6 52 26 91.5t48.5 61t60 31.5t65.5 10q24 0 45.5 -7t34 -16.5t22 -19.5t12.5 -17l4 -7l11 61h87q-44 -220 -53 -261q-4 -16 2.5 -26.5t17.5 -10.5q6 0 15.5 3t24 13.5t26.5 26.5t21 46t9 68q0 42 -13 82t-42 77t-83 59.5 t-127 22.5q-69 0 -123 -25.5t-86.5 -67.5t-49 -92t-16.5 -103q0 -66 27 -120t69.5 -86t91.5 -49.5t97 -17.5zM482 299q18 35 9.5 69.5t-39.5 50.5q-31 17 -65.5 4.5t-53.5 -47.5q-18 -35 -9 -73t40 -54q31 -15 65.5 -0.5t52.5 50.5z" />
<glyph unicode="A" d="M476 0l-44 140h-224l-44 -140h-161l243 700h148l243 -700h-161zM246 260h148l-74 233z" />
<glyph unicode="B" horiz-adv-x="560" d="M392 368q6 -1 15 -3.5t33 -15.5t42.5 -30t33.5 -50t15 -74q0 -92 -67.5 -143.5t-196.5 -51.5h-215v700h195q262 0 262 -197q0 -49 -39 -92t-78 -43zM253 572h-51v-157h65q38 0 61.5 20.5t23.5 54.5q0 46 -31 64t-68 18zM261 128q44 0 77.5 20t33.5 62q0 39 -32 62t-73 23 h-65v-167h59z" />
<glyph unicode="C" horiz-adv-x="645" d="M502 178l115 -94q-100 -98 -237 -98q-147 0 -248.5 103.5t-101.5 261.5q0 151 102.5 258t247.5 107q138 0 236 -98l-105 -96q-54 46 -125 46q-82 0 -141 -64.5t-59 -150.5q0 -91 58.5 -153t141.5 -62q65 0 116 40z" />
<glyph unicode="D" horiz-adv-x="675" d="M295 700q145 0 247.5 -102.5t102.5 -247.5t-102.5 -247.5t-247.5 -102.5h-235v700h235zM262 135q94 0 159.5 61.5t65.5 153.5t-65.5 153.5t-159.5 61.5h-52v-430h52z" />
<glyph unicode="E" horiz-adv-x="540" d="M210 140h290l-40 -140h-400v700h385l40 -140h-275v-135h190v-140h-190v-145z" />
<glyph unicode="F" horiz-adv-x="480" d="M211 555v-165h190v-140h-190v-250h-150v700h363l42 -145h-255z" />
<glyph unicode="G" horiz-adv-x="740" d="M393 412h293v-361q-25 -17 -110 -41.5t-160 -24.5q-173 0 -279.5 105t-106.5 260q0 152 111.5 258.5t274.5 106.5q68 0 138 -25.5t121 -69.5l-92 -112q-72 56 -147.5 64t-130.5 -22t-90 -84.5t-35 -115.5q0 -95 71 -160.5t172 -65.5q60 0 113 25v133h-180z" />
<glyph unicode="H" horiz-adv-x="690" d="M477 700h150v-700h-150v292h-265v-292h-150v700h150v-278h265v278z" />
<glyph unicode="I" horiz-adv-x="275" d="M212 700v-700h-150v700h150z" />
<glyph unicode="J" horiz-adv-x="415" d="M355 700v-465q0 -58 -17 -103.5t-44.5 -72.5t-60.5 -45t-68 -24t-64 -6t-51 5l-42 149q63 -16 102.5 -10t59 28t27.5 45.5t8 42.5v18v438h150z" />
<glyph unicode="K" d="M368 346l261 -346h-182l-237 322v-322h-150v700h150v-337l232 337h180z" />
<glyph unicode="L" horiz-adv-x="480" d="M210 145h251l-41 -145h-360v700h150v-555z" />
<glyph unicode="M" horiz-adv-x="805" d="M15 0l119 700h144l124 -450l123 450h145l120 -700h-154l-57 355l-99 -355h-157l-99 355l-56 -355h-153z" />
<glyph unicode="N" horiz-adv-x="745" d="M535 700h150v-700h-164l-311 472v-472h-150v700h150l325 -479v479z" />
<glyph unicode="O" horiz-adv-x="800" d="M400 717q153 0 261.5 -107t108.5 -258t-108.5 -258t-261.5 -107q-154 0 -262 106.5t-108 258.5t108 258.5t262 106.5zM400 132q89 0 152 64.5t63 155.5t-63 155.5t-152 64.5t-152 -64.5t-63 -155.5t63 -155.5t152 -64.5z" />
<glyph unicode="P" horiz-adv-x="560" d="M280 700q50 0 93.5 -11t82.5 -35.5t61.5 -70t22.5 -108.5q0 -102 -75 -161t-175 -59h-80v-255h-150v700h220zM265 390q120 0 120 85t-120 85h-55v-170h55z" />
<glyph unicode="Q" horiz-adv-x="805" d="M821 0h-182l-42 41q-91 -56 -197 -56q-154 0 -262 106.5t-108 258.5t108 258.5t262 106.5q153 0 261.5 -107t108.5 -258q0 -127 -80 -226zM185 350q0 -91 63 -155.5t152 -64.5q45 0 88 19l-106 104l115 56l83 -79q35 54 35 120q0 91 -63 155.5t-152 64.5t-152 -64.5 t-63 -155.5z" />
<glyph unicode="R" horiz-adv-x="620" d="M428 0l-172 275h-46v-275h-150v700h220q50 0 93.5 -11t82.5 -35.5t61.5 -70t22.5 -108.5q0 -123 -136 -175l206 -300h-182zM210 560v-185h55q42 0 81 23.5t39 76.5q0 85 -120 85h-55z" />
<glyph unicode="S" horiz-adv-x="580" d="M526 637l-88 -111q-38 42 -91.5 54t-91.5 -7.5t-38 -60.5q0 -34 30.5 -51t95.5 -37q12 -3 18 -5q55 -16 94.5 -42t56 -52t25.5 -49t9 -38v-14q0 -63 -23.5 -111.5t-62 -76t-83 -41t-92.5 -13.5q-74 0 -137 21.5t-89 42.5l-26 21l94 120q9 -9 19.5 -16.5t19.5 -13t19 -9.5 t17.5 -6.5t17 -4.5t15.5 -3t14.5 -1.5t12 -0.5h9.5h7q10 0 23 2.5t30.5 9t29.5 21t12 35.5q0 15 -4 26t-9.5 18t-21 14.5t-27 12t-40 15t-48.5 18.5q-46 18 -73.5 32t-53.5 36.5t-37.5 54t-11.5 74.5q0 90 73 153t182 63q41 0 79 -8t63 -20t44.5 -24t28.5 -20z" />
<glyph unicode="T" horiz-adv-x="540" d="M520 700v-145h-175v-555h-150v555h-185l40 145h470z" />
<glyph unicode="U" horiz-adv-x="695" d="M342 -15q-38 0 -72 4.5t-74 20.5t-68.5 42t-48 73t-19.5 110v465h156v-435v-14.5t6 -32.5t17.5 -40.5t38 -32t64.5 -14.5q41 0 70 14t41.5 33.5t19 39t6.5 33.5v14v435h156v-455q0 -65 -20.5 -114.5t-50.5 -76.5t-72 -43.5t-76.5 -21t-73.5 -4.5z" />
<glyph unicode="V" horiz-adv-x="670" d="M491 700h161l-243 -700h-148l-244 700h162l156 -493z" />
<glyph unicode="W" horiz-adv-x="865" d="M651 0h-135l-83 355l-83 -355h-135l-194 700h158l107 -385l79 385h136l80 -385l106 385h158z" />
<glyph unicode="X" horiz-adv-x="725" d="M705 0h-182l-161 246l-161 -246h-182l254 369l-229 331h182l136 -203l135 203h182l-228 -331z" />
<glyph unicode="Y" d="M467 700h163l-303 -700h-163l115 265l-268 435h176l162 -273z" />
<glyph unicode="Z" horiz-adv-x="680" d="M286 140h370l-40 -140h-592l356 560h-344l40 140h568z" />
<glyph unicode="[" horiz-adv-x="315" d="M255 -214h-203v970h200v-90h-89v-790h92v-90z" />
<glyph unicode="\" horiz-adv-x="295" d="M-54 705h127l276 -718h-126z" />
<glyph unicode="]" horiz-adv-x="315" d="M263 -214h-203v90h92v790h-89v90h200v-970z" />
<glyph unicode="^" horiz-adv-x="550" d="M164 340h-116l176 360h102l176 -360h-117l-110 245z" />
<glyph unicode="_" horiz-adv-x="500" d="M500 -126h-500v75h500v-75z" />
<glyph unicode="`" horiz-adv-x="230" d="M-46 742h152l98 -148h-121z" />
<glyph unicode="a" horiz-adv-x="555" d="M552 0h-151l-36 116h-174l-37 -116h-151l207 597h135zM227 232h101l-50 158z" />
<glyph unicode="b" horiz-adv-x="490" d="M369 312q4 -1 10 -4t22.5 -14.5t29 -26t22.5 -40.5t10 -57q0 -43 -16.5 -75t-40.5 -49.5t-57 -28.5t-59.5 -14t-53.5 -3h-186v597h169q107 0 166.5 -42.5t59.5 -125.5q0 -36 -19 -65t-38 -40zM190 475v-115h41q29 0 48.5 15t19.5 41q0 24 -17.5 41.5t-56.5 17.5h-35z M231 122q35 0 59.5 15t24.5 45q0 23 -20 43t-59 20h-46v-123h41z" />
<glyph unicode="c" horiz-adv-x="565" d="M430 165l107 -87q-84 -90 -207 -90q-128 0 -214 88t-86 223q0 129 88 220t212 91q121 0 206 -91l-99 -89q-43 40 -103 40q-65 0 -111.5 -50t-46.5 -120q0 -71 45.5 -120.5t112.5 -49.5q55 0 96 35z" />
<glyph unicode="d" horiz-adv-x="590" d="M263 597q128 0 212.5 -89t84.5 -210q0 -75 -35 -142t-105 -111.5t-160 -44.5h-200v597h203zM237 128q80 0 130.5 51t50.5 119t-49 119.5t-132 51.5h-37v-341h37z" />
<glyph unicode="e" horiz-adv-x="480" d="M443 132l-37 -132h-346v597h333l38 -132h-231v-96h158v-132h-158v-105h243z" />
<glyph unicode="f" horiz-adv-x="425" d="M199 207v-207h-140v597h315l39 -136h-214v-121h158v-133h-158z" />
<glyph unicode="g" horiz-adv-x="645" d="M451 138v96h-155l38 124h257v-312q-39 -23 -106 -41t-125 -18q-143 0 -236.5 88t-93.5 223q0 132 96 221.5t234 89.5q129 0 226 -86l-88 -106q-61 59 -145 59q-75 0 -128 -52.5t-53 -126.5q0 -77 57 -128t134 -51q46 0 88 20z" />
<glyph unicode="h" horiz-adv-x="605" d="M545 0h-141v242h-204v-242h-140v597h140v-231h204v231h141v-597z" />
<glyph unicode="i" horiz-adv-x="260" d="M200 597v-597h-140v597h140z" />
<glyph unicode="j" horiz-adv-x="370" d="M172 597h141v-394q0 -56 -18.5 -99t-47.5 -66t-65 -37.5t-71 -13.5t-65 6l-40 141q31 -9 56 -11.5t52.5 3t42.5 31t15 69.5v371z" />
<glyph unicode="k" horiz-adv-x="565" d="M548 597l-216 -301l223 -296h-172l-184 251v-251h-141v597h141v-262l180 262h169z" />
<glyph unicode="l" horiz-adv-x="425" d="M410 136l-39 -136h-312v597h141v-461h210z" />
<glyph unicode="m" horiz-adv-x="685" d="M674 0h-141l-44 280l-78 -280h-137l-78 280l-44 -280h-140l101 597h133l97 -366l96 366h133z" />
<glyph unicode="n" horiz-adv-x="650" d="M592 597v-597h-148l-246 373v-373h-140v597h136l258 -379v379h140z" />
<glyph unicode="o" horiz-adv-x="690" d="M345 612q131 0 223 -91t92 -220t-92 -220t-223 -91t-223 91t-92 220t92 220t223 91zM345 126q71 0 120.5 51t49.5 124q0 72 -50 123.5t-120 51.5t-120 -51.5t-50 -123.5q0 -73 49.5 -124t120.5 -51z" />
<glyph unicode="p" horiz-adv-x="494" d="M251 597q26 0 51.5 -3.5t58 -16t56.5 -32.5t40.5 -57t16.5 -86q0 -85 -62 -137.5t-153 -52.5h-59v-212h-140v597h191zM238 340q60 0 79 22q13 15 13 40q0 63 -92 63h-38v-125h38z" />
<glyph unicode="q" horiz-adv-x="690" d="M713 0h-174l-33 32q-74 -44 -162 -44q-131 0 -223 91t-92 220t92 220t223 91t223 -91t92 -220q0 -103 -63 -187zM344 124q29 0 59 11l-87 85l110 54l65 -62q23 38 23 87q0 72 -50 123.5t-120 51.5t-120 -51.5t-50 -123.5q0 -73 49.5 -124t120.5 -51z" />
<glyph unicode="r" horiz-adv-x="550" d="M366 253l174 -253h-171l-142 228h-27v-228h-140v597h191q31 0 59.5 -5t59 -18t53 -34t37 -56.5t14.5 -81.5q0 -31 -11 -58t-27 -43t-32 -27.5t-27 -15.5zM238 327q34 0 63.5 16.5t29.5 58.5q0 23 -9.5 37t-28 19t-28.5 6t-27 1h-38v-138h38z" />
<glyph unicode="s" horiz-adv-x="510" d="M463 537l-84 -105q-4 6 -12 15t-36 24t-61 15q-32 0 -49.5 -16t-17.5 -37q0 -25 26 -39t89 -32q65 -18 112 -61.5t47 -107.5q0 -94 -63 -151t-162 -57q-41 0 -79 8t-62.5 19.5t-43 23t-27.5 19.5l-8 8l88 112q5 -6 13.5 -14.5t38.5 -22.5t63 -14q26 0 43.5 5.5t25.5 14.5 t11 16t3 14q0 26 -19 38t-101 42q-28 10 -44 17t-39 21.5t-36 30.5t-22.5 42t-9.5 59q0 80 64 133.5t155 53.5q57 0 106.5 -18.5t69.5 -36.5z" />
<glyph unicode="t" horiz-adv-x="475" d="M306 461v-461h-141v461h-156l38 136h404v-136h-145z" />
<glyph unicode="u" horiz-adv-x="610" d="M55 597h145v-369q0 -45 23 -74t74 -29q57 0 85 29t28 74v369h145v-386q0 -43 -13 -80.5t-40.5 -71t-79 -53t-120.5 -19.5q-71 0 -122 18.5t-77 51.5t-37 68.5t-11 77.5v394z" />
<glyph unicode="v" horiz-adv-x="575" d="M562 597l-208 -597h-134l-207 597h151l123 -390l124 390h151z" />
<glyph unicode="w" horiz-adv-x="730" d="M718 597l-165 -597h-125l-63 267l-62 -267h-125l-165 597h148l81 -293l60 293h127l60 -293l81 293h148z" />
<glyph unicode="x" horiz-adv-x="630" d="M399 314l216 -314h-170l-130 197l-130 -197h-170l216 314l-195 283h171l108 -162l108 162h171z" />
<glyph unicode="y" horiz-adv-x="560" d="M550 597l-258 -597h-153l99 228l-228 369h165l129 -217l94 217h152z" />
<glyph unicode="z" horiz-adv-x="595" d="M572 132l-38 -132h-512l296 465h-282l38 132h492l-297 -465h303z" />
<glyph unicode="{" horiz-adv-x="320" d="M211 366q0 -37 -18.5 -57.5t-57.5 -29.5q76 -19 76 -88v-245q0 -22 12.5 -36t24.5 -16l13 -3h25v-80h-50q-48 0 -86.5 29t-38.5 96v239q0 31 -23 46t-77 15v85q100 0 100 62v238q0 67 38.5 96t86.5 29h50v-80h-25q-2 0 -5.5 -0.5t-12 -4.5t-15 -9t-12 -16t-5.5 -25v-245z " />
<glyph unicode="|" horiz-adv-x="235" d="M173 -20h-111v720h111v-720z" />
<glyph unicode="}" horiz-adv-x="320" d="M109 366v245q0 22 -12.5 36t-24.5 17l-13 2h-25v80h50q48 0 86.5 -29t38.5 -96v-238q0 -62 100 -62v-85q-54 0 -77 -15t-23 -46v-239q0 -67 -38.5 -96t-86.5 -29h-50v80h25q2 0 5.5 0.5t12 4.5t15 9t12 16t5.5 25v245q0 69 76 88q-39 9 -57.5 29.5t-18.5 57.5z" />
<glyph unicode="~" horiz-adv-x="590" d="M64 262q1 3 4 9t14 21t24 26t35 20.5t47 9.5q43 0 116.5 -34t97.5 -34q22 0 44 18t33 36l11 18l36 -96q-2 -3 -5.5 -9t-15 -21t-25 -26t-35 -20.5t-44.5 -9.5q-38 0 -105 34.5t-112 34.5q-25 0 -46 -18.5t-30 -36.5l-8 -18z" />
<glyph unicode="&#xa1;" horiz-adv-x="295" d="M67 645q0 34 23.5 57t56.5 23q34 0 57 -23t23 -57q0 -33 -23 -56.5t-57 -23.5q-33 0 -56.5 23.5t-23.5 56.5zM68 -2l10 502l135 38l9 -515z" />
<glyph unicode="&#xa3;" horiz-adv-x="560" d="M469 130l55 -87q-6 -6 -16 -15t-41 -24t-62 -15q-38 0 -113 22t-99 22t-49 -10t-38 -20l-14 -10l-60 80q130 97 130 181q0 28 -17 62h-112v63h75q-49 80 -49 130q0 98 57 152t173 54q102 0 157.5 -56.5t55.5 -167.5h-103q0 121 -116 121q-55 0 -82 -28t-27 -72 q0 -14 8 -33t28 -53t27 -47h124v-63h-97q8 -26 8 -50q0 -45 -19 -82.5t-38 -52.5l-19 -15q16 10 69 10q28 0 73.5 -16t64.5 -16q18 0 34.5 9t24.5 18z" />
<glyph unicode="&#xa4;" horiz-adv-x="685" d="M568 346q0 -51 -22 -97l98 -97l-107 -107l-97 98q-46 -22 -97 -22t-97 22l-97 -98l-107 107l98 97q-22 46 -22 97t22 97l-98 97l107 107l97 -98q46 22 97 22t97 -22l97 98l107 -107l-98 -97q22 -46 22 -97zM343 246q41 0 70.5 29.5t29.5 70.5t-29.5 70.5t-70.5 29.5 t-70.5 -29.5t-29.5 -70.5t29.5 -70.5t70.5 -29.5z" />
<glyph unicode="&#xa5;" d="M608 700l-193 -417h95v-85h-120v-56h120v-85h-120v-57h-140v57h-130v85h130v56h-130v85h105l-193 417h148l140 -331l140 331h148z" />
<glyph unicode="&#xa7;" horiz-adv-x="665" d="M535 327q69 -67 69 -175q0 -31 -16.5 -67.5t-47 -72t-85 -59t-120.5 -23.5q-53 0 -100.5 13t-77.5 31t-53 36t-33 31l-10 13l101 112q57 -88 175 -88q58 0 88.5 22t30.5 57q0 22 -5 33q-49 -33 -109 -33q-81 0 -138 57t-57 138q0 10 1 14q-81 74 -81 176q0 88 75.5 156.5 t184.5 68.5q67 0 124.5 -18.5t82.5 -36.5l24 -19l-85 -118q-5 6 -14.5 15t-44.5 24.5t-76 15.5q-62 0 -88.5 -28t-26.5 -60q0 -20 4 -33q51 38 115 38q81 0 138 -57t57 -138q0 -17 -2 -25zM342 289q26 0 44.5 18.5t18.5 44.5t-18.5 44t-44.5 18t-44 -18t-18 -44t18 -44.5 t44 -18.5z" />
<glyph unicode="&#xa8;" horiz-adv-x="330" d="M365 668q0 -31 -22 -53t-53 -22t-53 22t-22 53t22 53t53 22t53 -22t22 -53zM115 668q0 -31 -22 -53t-53 -22t-53 22t-22 53t22 53t53 22t53 -22t22 -53z" />
<glyph unicode="&#xab;" horiz-adv-x="550" d="M381 473h129l-124 -173l120 -173h-129l-116 173zM158 473h129l-124 -173l120 -173h-129l-116 173z" />
<glyph unicode="&#xad;" horiz-adv-x="370" d="M320 288h-270v125h270v-125z" />
<glyph unicode="&#xaf;" horiz-adv-x="410" d="M360 328h-310v85h310v-85z" />
<glyph unicode="&#xb0;" horiz-adv-x="370" d="M185 700q60 0 102.5 -41t42.5 -99t-42.5 -99t-102.5 -41t-102.5 41t-42.5 99t42.5 99t102.5 41zM185 490q30 0 51.5 20.5t21.5 49.5t-21.5 49.5t-51.5 20.5t-51 -20.5t-21 -49.5t21 -49.5t51 -20.5z" />
<glyph unicode="&#xb4;" horiz-adv-x="230" d="M124 742h152l-129 -148h-121z" />
<glyph unicode="&#xb7;" horiz-adv-x="833" />
<glyph unicode="&#xb8;" horiz-adv-x="300" d="M25 -194l24 41q59 -20 91 -22q55 -3 55 38q0 22 -28.5 27.5t-56.5 -0.5l-29 -5l-25 25l55 90h60l-40 -60q68 19 105 -4t37 -76q0 -42 -31.5 -66t-87.5 -24q-33 0 -65.5 9t-48.5 18z" />
<glyph unicode="&#xbb;" horiz-adv-x="550" d="M40 473h129l120 -173l-116 -173h-129l120 173zM263 473h129l120 -173l-116 -173h-129l120 173z" />
<glyph unicode="&#xbf;" horiz-adv-x="500" d="M170 197q0 -33 23 -50.5t58 -17.5q60 0 104 59l112 -75q-3 -5 -8 -12.5t-24.5 -27.5t-43 -35t-63 -27.5t-83.5 -12.5q-101 0 -160.5 62t-59.5 133q0 20 2.5 37.5t10 32.5t11 24t17 22.5t16 16.5t19.5 16l17 14l16 12t17 14t13 14t11 20t3 25v48l140 40v-111 q0 -19 -1.5 -29.5t-8 -33.5t-25.5 -42.5t-50 -35.5l-15 -7.5t-15 -8t-12 -9t-11.5 -13t-6.5 -17.5t-3 -25zM166 635q0 34 23.5 57t56.5 23t56.5 -23t23.5 -57q0 -33 -23.5 -56.5t-56.5 -23.5t-56.5 23.5t-23.5 56.5z" />
<glyph unicode="&#xc0;" d="M162 898h152l98 -148h-121zM476 0l-44 140h-224l-44 -140h-161l243 700h148l243 -700h-161zM246 260h148l-74 233z" />
<glyph unicode="&#xc1;" d="M354 898h152l-129 -148h-121zM476 0l-44 140h-224l-44 -140h-161l243 700h148l243 -700h-161zM246 260h148l-74 233z" />
<glyph unicode="&#xc2;" d="M132 751l117 158h142l118 -158h-129l-60 80l-60 -80h-128zM476 0l-44 140h-224l-44 -140h-161l243 700h148l243 -700h-161zM246 260h148l-74 233z" />
<glyph unicode="&#xc3;" d="M155 815q1 3 3 8.5t11 19t19.5 23.5t29 18.5t40.5 8.5q37 0 90 -29.5t74 -29.5q19 0 37 14.5t27 29.5l8 14l31 -82q-1 -3 -4 -8t-12.5 -18t-20.5 -23t-29 -18t-38 -8q-33 0 -81 30t-86 30q-22 0 -39 -15.5t-23 -31.5l-6 -16zM476 0l-44 140h-224l-44 -140h-161l243 700 h148l243 -700h-161zM246 260h148l-74 233z" />
<glyph unicode="&#xc4;" d="M520 828q0 -31 -22 -53t-53 -22t-53 22t-22 53t22 53t53 22t53 -22t22 -53zM270 828q0 -31 -22 -53t-53 -22t-53 22t-22 53t22 53t53 22t53 -22t22 -53zM476 0l-44 140h-224l-44 -140h-161l243 700h148l243 -700h-161zM246 260h148l-74 233z" />
<glyph unicode="&#xc5;" d="M321 880q-21 0 -35 -14.5t-14 -34.5q0 -21 14 -34.5t35 -13.5q20 0 34 14t14 34t-14 34.5t-34 14.5zM321 724q-45 0 -76.5 31t-31.5 76t31.5 76.5t76.5 31.5q44 0 75.5 -32t31.5 -76q0 -45 -31.5 -76t-75.5 -31zM476 0l-44 140h-224l-44 -140h-161l243 700h148l243 -700 h-161zM246 260h148l-74 233z" />
<glyph unicode="&#xc6;" horiz-adv-x="940" d="M608 140h290l-40 -140h-400v268h-146l-139 -268h-167l372 700h465l40 -140h-275v-157h190v-140h-190v-123zM371 383h87v195z" />
<glyph unicode="&#xc7;" horiz-adv-x="645" d="M223 -194l24 41q59 -20 91 -22q55 -3 55 38q0 22 -28.5 27.5t-56.5 -0.5l-29 -5l-25 25l55 90h60l-40 -60q68 19 105 -4t37 -76q0 -42 -31.5 -66t-87.5 -24q-33 0 -65.5 9t-48.5 18zM502 178l115 -94q-100 -98 -237 -98q-147 0 -248.5 103.5t-101.5 261.5 q0 151 102.5 258t247.5 107q138 0 236 -98l-105 -96q-54 46 -125 46q-82 0 -141 -64.5t-59 -150.5q0 -91 58.5 -153t141.5 -62q65 0 116 40z" />
<glyph unicode="&#xc8;" horiz-adv-x="540" d="M150 900h152l98 -148h-121zM210 140h290l-40 -140h-400v700h385l40 -140h-275v-135h190v-140h-190v-145z" />
<glyph unicode="&#xc9;" horiz-adv-x="540" d="M254 898h152l-129 -148h-121zM210 140h290l-40 -140h-400v700h385l40 -140h-275v-135h190v-140h-190v-145z" />
<glyph unicode="&#xca;" horiz-adv-x="540" d="M91 750l117 158h142l118 -158h-129l-60 80l-60 -80h-128zM210 140h290l-40 -140h-400v700h385l40 -140h-275v-135h190v-140h-190v-145z" />
<glyph unicode="&#xcb;" horiz-adv-x="540" d="M465 826q0 -31 -22 -53t-53 -22t-53 22t-22 53t22 53t53 22t53 -22t22 -53zM215 826q0 -31 -22 -53t-53 -22t-53 22t-22 53t22 53t53 22t53 -22t22 -53zM210 140h290l-40 -140h-400v700h385l40 -140h-275v-135h190v-140h-190v-145z" />
<glyph unicode="&#xcc;" horiz-adv-x="275" d="M-16 898h152l98 -148h-121zM212 700v-700h-150v700h150z" />
<glyph unicode="&#xcd;" horiz-adv-x="275" d="M134 898h152l-129 -148h-121zM212 700v-700h-150v700h150z" />
<glyph unicode="&#xce;" horiz-adv-x="275" d="M-57 750l117 158h142l118 -158h-129l-60 80l-60 -80h-128zM212 700v-700h-150v700h150z" />
<glyph unicode="&#xcf;" horiz-adv-x="275" d="M333 824q0 -31 -22 -53t-53 -22t-53 22t-22 53t22 53t53 22t53 -22t22 -53zM83 824q0 -31 -22 -53t-53 -22t-53 22t-22 53t22 53t53 22t53 -22t22 -53zM212 700v-700h-150v700h150z" />
<glyph unicode="&#xd0;" horiz-adv-x="685" d="M302 700q145 0 247.5 -102.5t102.5 -247.5t-102.5 -247.5t-247.5 -102.5h-235v300h-100l40 140h60v260h235zM269 135q95 0 160 61.5t65 153.5t-65 153.5t-160 61.5h-52v-125h118l-40 -140h-78v-165h52z" />
<glyph unicode="&#xd1;" horiz-adv-x="745" d="M180 815q1 3 3 8.5t11 19t19.5 23.5t29 18.5t40.5 8.5q37 0 90 -29.5t74 -29.5q19 0 37 14.5t26 29.5l9 14l31 -82q-1 -3 -4 -8t-12.5 -18t-20.5 -23t-29 -18t-38 -8q-32 0 -80 30t-87 30q-22 0 -39 -15.5t-23 -31.5l-6 -16zM535 700h150v-700h-164l-311 472v-472h-150 v700h150l325 -479v479z" />
<glyph unicode="&#xd2;" horiz-adv-x="800" d="M274 898h152l98 -148h-121zM400 717q153 0 261.5 -107t108.5 -258t-108.5 -258t-261.5 -107q-154 0 -262 106.5t-108 258.5t108 258.5t262 106.5zM400 132q89 0 152 64.5t63 155.5t-63 155.5t-152 64.5t-152 -64.5t-63 -155.5t63 -155.5t152 -64.5z" />
<glyph unicode="&#xd3;" horiz-adv-x="800" d="M364 898h152l-129 -148h-121zM400 717q153 0 261.5 -107t108.5 -258t-108.5 -258t-261.5 -107q-154 0 -262 106.5t-108 258.5t108 258.5t262 106.5zM400 132q89 0 152 64.5t63 155.5t-63 155.5t-152 64.5t-152 -64.5t-63 -155.5t63 -155.5t152 -64.5z" />
<glyph unicode="&#xd4;" horiz-adv-x="800" d="M211 750l117 158h142l118 -158h-129l-60 80l-60 -80h-128zM400 717q153 0 261.5 -107t108.5 -258t-108.5 -258t-261.5 -107q-154 0 -262 106.5t-108 258.5t108 258.5t262 106.5zM400 132q89 0 152 64.5t63 155.5t-63 155.5t-152 64.5t-152 -64.5t-63 -155.5t63 -155.5 t152 -64.5z" />
<glyph unicode="&#xd5;" horiz-adv-x="800" d="M203 815q1 3 3 8.5t11 19t19.5 23.5t29 18.5t40.5 8.5q37 0 90 -29.5t74 -29.5q19 0 37 14.5t27 29.5l8 14l31 -82q-1 -3 -4 -8t-12.5 -18t-20.5 -23t-29 -18t-38 -8q-33 0 -81 30t-86 30q-22 0 -39 -15.5t-23 -31.5l-6 -16zM400 717q153 0 261.5 -107t108.5 -258 t-108.5 -258t-261.5 -107q-154 0 -262 106.5t-108 258.5t108 258.5t262 106.5zM400 132q89 0 152 64.5t63 155.5t-63 155.5t-152 64.5t-152 -64.5t-63 -155.5t63 -155.5t152 -64.5z" />
<glyph unicode="&#xd6;" horiz-adv-x="800" d="M600 824q0 -31 -22 -53t-53 -22t-53 22t-22 53t22 53t53 22t53 -22t22 -53zM350 824q0 -31 -22 -53t-53 -22t-53 22t-22 53t22 53t53 22t53 -22t22 -53zM400 717q153 0 261.5 -107t108.5 -258t-108.5 -258t-261.5 -107q-154 0 -262 106.5t-108 258.5t108 258.5t262 106.5 zM400 132q89 0 152 64.5t63 155.5t-63 155.5t-152 64.5t-152 -64.5t-63 -155.5t63 -155.5t152 -64.5z" />
<glyph unicode="&#xd7;" horiz-adv-x="555" d="M504 116l-89 -89l-138 138l-137 -138l-89 89l138 138l-141 141l88 88l141 -141l142 141l88 -88l-141 -141z" />
<glyph unicode="&#xd8;" horiz-adv-x="800" d="M615 646q72 -50 113.5 -128t41.5 -169q0 -152 -108 -258.5t-262 -106.5q-63 0 -121 20l-17 -32h-126l44 84q-69 50 -109.5 127t-40.5 166q0 151 108.5 258t261.5 107q60 0 114 -18l18 34h127zM185 349q0 -93 65 -158l195 373q-23 5 -45 5q-89 0 -152 -64.5t-63 -155.5z M400 129q89 0 152 64.5t63 155.5q0 98 -70 163l-198 -376q24 -7 53 -7z" />
<glyph unicode="&#xd9;" horiz-adv-x="695" d="M234 898h152l98 -148h-121zM342 -15q-38 0 -72 4.5t-74 20.5t-68.5 42t-48 73t-19.5 110v465h156v-435v-14.5t6 -32.5t17.5 -40.5t38 -32t64.5 -14.5q41 0 70 14t41.5 33.5t19 39t6.5 33.5v14v435h156v-455q0 -65 -20.5 -114.5t-50.5 -76.5t-72 -43.5t-76.5 -21 t-73.5 -4.5z" />
<glyph unicode="&#xda;" horiz-adv-x="695" d="M314 898h152l-129 -148h-121zM342 -15q-38 0 -72 4.5t-74 20.5t-68.5 42t-48 73t-19.5 110v465h156v-435v-14.5t6 -32.5t17.5 -40.5t38 -32t64.5 -14.5q41 0 70 14t41.5 33.5t19 39t6.5 33.5v14v435h156v-455q0 -65 -20.5 -114.5t-50.5 -76.5t-72 -43.5t-76.5 -21 t-73.5 -4.5z" />
<glyph unicode="&#xdb;" horiz-adv-x="695" d="M155 750l117 158h142l118 -158h-129l-60 80l-60 -80h-128zM342 -15q-38 0 -72 4.5t-74 20.5t-68.5 42t-48 73t-19.5 110v465h156v-435v-14.5t6 -32.5t17.5 -40.5t38 -32t64.5 -14.5q41 0 70 14t41.5 33.5t19 39t6.5 33.5v14v435h156v-455q0 -65 -20.5 -114.5t-50.5 -76.5 t-72 -43.5t-76.5 -21t-73.5 -4.5z" />
<glyph unicode="&#xdc;" horiz-adv-x="695" d="M543 824q0 -31 -22 -53t-53 -22t-53 22t-22 53t22 53t53 22t53 -22t22 -53zM293 824q0 -31 -22 -53t-53 -22t-53 22t-22 53t22 53t53 22t53 -22t22 -53zM342 -15q-38 0 -72 4.5t-74 20.5t-68.5 42t-48 73t-19.5 110v465h156v-435v-14.5t6 -32.5t17.5 -40.5t38 -32 t64.5 -14.5q41 0 70 14t41.5 33.5t19 39t6.5 33.5v14v435h156v-455q0 -65 -20.5 -114.5t-50.5 -76.5t-72 -43.5t-76.5 -21t-73.5 -4.5z" />
<glyph unicode="&#xdd;" d="M294 898h152l-129 -148h-121zM467 700h163l-303 -700h-163l115 265l-268 435h176l162 -273z" />
<glyph unicode="&#xde;" horiz-adv-x="570" d="M206 565q43 10 90 10q107 0 173 -63.5t66 -164.5q0 -107 -60.5 -172t-183.5 -65q-22 0 -43 2.5t-32 5.5l-10 2v-120h-150v700h150v-135zM286 247q38 0 69 27t31 71t-28.5 68t-66.5 24q-20 0 -41 -2.5t-32 -4.5l-12 -2v-170q34 -11 80 -11z" />
<glyph unicode="&#xdf;" horiz-adv-x="655" d="M478 406q138 -40 138 -188q0 -107 -73.5 -166.5t-165.5 -59.5q-87 0 -159 56v-48h-140v329h-96l37 134h59q1 30 5.5 58.5t20 65.5t40 64.5t69.5 46.5t104 19q61 0 107 -15t69.5 -35.5t38 -48t18 -46.5t3.5 -37q0 -82 -75 -129zM367 131q45 0 74 25.5t29 71.5 q0 25 -8.5 44.5t-25.5 30t-32.5 17.5t-40.5 9.5t-37.5 3t-34.5 0.5h-8v112q120 0 120 74q0 30 -21.5 49t-60.5 19q-19 0 -34.5 -6t-25 -14t-16.5 -22t-10.5 -25t-5 -28.5t-2 -25.5t0 -24t0.5 -17v-236l45 18q18 -76 94 -76z" />
<glyph unicode="&#xe0;" horiz-adv-x="555" d="M552 0h-151l-36 116h-174l-37 -116h-151l207 597h135zM227 232h101l-50 158zM134 792h152l98 -148h-121z" />
<glyph unicode="&#xe1;" horiz-adv-x="555" d="M552 0h-151l-36 116h-174l-37 -116h-151l207 597h135zM227 232h101l-50 158zM252 792h152l-129 -148h-121z" />
<glyph unicode="&#xe2;" horiz-adv-x="555" d="M552 0h-151l-36 116h-174l-37 -116h-151l207 597h135zM227 232h101l-50 158zM89 644l117 158h142l118 -158h-129l-60 80l-60 -80h-128z" />
<glyph unicode="&#xe3;" horiz-adv-x="555" d="M552 0h-151l-36 116h-174l-37 -116h-151l207 597h135zM227 232h101l-50 158zM92 709q1 3 3 8.5t11 19t19.5 23.5t29 18.5t40.5 8.5q37 0 90 -29.5t74 -29.5q19 0 37 14.5t26 29.5l9 14l31 -82q-1 -3 -4 -8t-12.5 -18t-20.5 -23t-29 -18t-38 -8q-32 0 -80 30t-87 30 q-22 0 -39 -15.5t-23 -31.5l-6 -16z" />
<glyph unicode="&#xe4;" horiz-adv-x="555" d="M552 0h-151l-36 116h-174l-37 -116h-151l207 597h135zM227 232h101l-50 158zM477 718q0 -31 -22 -53t-53 -22t-53 22t-22 53t22 53t53 22t53 -22t22 -53zM227 718q0 -31 -22 -53t-53 -22t-53 22t-22 53t22 53t53 22t53 -22t22 -53z" />
<glyph unicode="&#xe5;" horiz-adv-x="555" d="M552 0h-151l-36 116h-174l-37 -116h-151l207 597h135zM227 232h101l-50 158zM279 799q-21 0 -35 -14.5t-14 -34.5q0 -21 14 -34.5t35 -13.5q20 0 34 14t14 34t-14 34.5t-34 14.5zM279 643q-45 0 -76.5 31t-31.5 76t31.5 76.5t76.5 31.5q44 0 75.5 -32t31.5 -76 q0 -45 -31.5 -76t-75.5 -31z" />
<glyph unicode="&#xe6;" horiz-adv-x="850" d="M578 132h243l-38 -132h-346v222h-145l-127 -222h-161l360 597h406l38 -132h-230v-111h158v-132h-158v-90zM355 332h82v143z" />
<glyph unicode="&#xe7;" horiz-adv-x="565" d="M430 165l107 -87q-84 -90 -207 -90q-128 0 -214 88t-86 223q0 129 88 220t212 91q121 0 206 -91l-99 -89q-43 40 -103 40q-65 0 -111.5 -50t-46.5 -120q0 -71 45.5 -120.5t112.5 -49.5q55 0 96 35zM171 -194l24 41q59 -20 91 -22q55 -3 55 38q0 22 -28.5 27.5t-56.5 -0.5 l-29 -5l-25 25l55 90h60l-40 -60q68 19 105 -4t37 -76q0 -42 -31.5 -66t-87.5 -24q-33 0 -65.5 9t-48.5 18z" />
<glyph unicode="&#xe8;" horiz-adv-x="480" d="M406 0l37 132h-243v105h158v132h-158v96h231l-38 132h-333v-597h346zM130 792h152l98 -148h-121z" />
<glyph unicode="&#xe9;" horiz-adv-x="480" d="M406 0l37 132h-243v105h158v132h-158v96h231l-38 132h-333v-597h346zM224 792h152l-129 -148h-121z" />
<glyph unicode="&#xea;" horiz-adv-x="480" d="M406 0l37 132h-243v105h158v132h-158v96h231l-38 132h-333v-597h346zM51 644l117 158h142l118 -158h-129l-60 80l-60 -80h-128z" />
<glyph unicode="&#xeb;" horiz-adv-x="480" d="M443 132l-37 -132h-346v597h333l38 -132h-231v-96h158v-132h-158v-105h243zM445 718q0 -31 -22 -53t-53 -22t-53 22t-22 53t22 53t53 22t53 -22t22 -53zM195 718q0 -31 -22 -53t-53 -22t-53 22t-22 53t22 53t53 22t53 -22t22 -53z" />
<glyph unicode="&#xec;" horiz-adv-x="260" d="M200 0v597h-140v-597h140zM-40 792h152l98 -148h-121z" />
<glyph unicode="&#xed;" horiz-adv-x="260" d="M200 0v597h-140v-597h140zM134 792h152l-129 -148h-121z" />
<glyph unicode="&#xee;" horiz-adv-x="260" d="M200 0v597h-140v-597h140zM-55 644l117 158h142l118 -158h-129l-60 80l-60 -80h-128z" />
<glyph unicode="&#xef;" horiz-adv-x="260" d="M200 597v-597h-140v597h140zM330 718q0 -31 -22 -53t-53 -22t-53 22t-22 53t22 53t53 22t53 -22t22 -53zM80 718q0 -31 -22 -53t-53 -22t-53 22t-22 53t22 53t53 22t53 -22t22 -53z" />
<glyph unicode="&#xf0;" horiz-adv-x="595" d="M267 597q128 0 212.5 -89t84.5 -210q0 -75 -35 -142t-105 -111.5t-160 -44.5h-200v240h-93l37 130h56v227h203zM241 128q80 0 130.5 51t50.5 119t-49 119.5t-132 51.5h-37v-99h108l-38 -130h-70v-112h37z" />
<glyph unicode="&#xf1;" horiz-adv-x="650" d="M592 0v597h-140v-379l-258 379h-136v-597h140v373l246 -373h148zM142 719q1 3 3 8.5t11 19t19.5 23.5t29 18.5t40.5 8.5q37 0 90 -29.5t74 -29.5q19 0 37 14.5t26 29.5l9 14l31 -82q-1 -3 -4 -8t-12.5 -18t-20.5 -23t-29 -18t-38 -8q-32 0 -80 30t-87 30q-22 0 -39 -15.5 t-23 -31.5l-6 -16z" />
<glyph unicode="&#xf2;" horiz-adv-x="690" d="M345 612q131 0 223 -91t92 -220t-92 -220t-223 -91t-223 91t-92 220t92 220t223 91zM345 126q71 0 120.5 51t49.5 124q0 72 -50 123.5t-120 51.5t-120 -51.5t-50 -123.5q0 -73 49.5 -124t120.5 -51zM224 792h152l98 -148h-121z" />
<glyph unicode="&#xf3;" horiz-adv-x="690" d="M345 612q131 0 223 -91t92 -220t-92 -220t-223 -91t-223 91t-92 220t92 220t223 91zM345 126q71 0 120.5 51t49.5 124q0 72 -50 123.5t-120 51.5t-120 -51.5t-50 -123.5q0 -73 49.5 -124t120.5 -51zM314 792h152l-129 -148h-121z" />
<glyph unicode="&#xf4;" horiz-adv-x="690" d="M345 612q131 0 223 -91t92 -220t-92 -220t-223 -91t-223 91t-92 220t92 220t223 91zM345 126q71 0 120.5 51t49.5 124q0 72 -50 123.5t-120 51.5t-120 -51.5t-50 -123.5q0 -73 49.5 -124t120.5 -51zM156 644l117 158h142l118 -158h-129l-60 80l-60 -80h-128z" />
<glyph unicode="&#xf5;" horiz-adv-x="690" d="M345 612q131 0 223 -91t92 -220t-92 -220t-223 -91t-223 91t-92 220t92 220t223 91zM345 126q71 0 120.5 51t49.5 124q0 72 -50 123.5t-120 51.5t-120 -51.5t-50 -123.5q0 -73 49.5 -124t120.5 -51zM162 709q1 3 3 8.5t11 19t19.5 23.5t29 18.5t40.5 8.5q37 0 90 -29.5 t74 -29.5q19 0 37 14.5t26 29.5l9 14l31 -82q-1 -3 -4 -8t-12.5 -18t-20.5 -23t-29 -18t-38 -8q-32 0 -80 30t-87 30q-22 0 -39 -15.5t-23 -31.5l-6 -16z" />
<glyph unicode="&#xf6;" horiz-adv-x="690" d="M345 612q131 0 223 -91t92 -220t-92 -220t-223 -91t-223 91t-92 220t92 220t223 91zM345 126q71 0 120.5 51t49.5 124q0 72 -50 123.5t-120 51.5t-120 -51.5t-50 -123.5q0 -73 49.5 -124t120.5 -51zM547 718q0 -31 -22 -53t-53 -22t-53 22t-22 53t22 53t53 22t53 -22 t22 -53zM297 718q0 -31 -22 -53t-53 -22t-53 22t-22 53t22 53t53 22t53 -22t22 -53z" />
<glyph unicode="&#xf7;" horiz-adv-x="580" d="M370 423q0 -33 -23.5 -56.5t-56.5 -23.5q-34 0 -57 23.5t-23 56.5t23 56.5t57 23.5q33 0 56.5 -23.5t23.5 -56.5zM370 63q0 -33 -23.5 -56.5t-56.5 -23.5q-34 0 -57 23.5t-23 56.5t23 56.5t57 23.5q33 0 56.5 -23.5t23.5 -56.5zM530 190h-480v105h480v-105z" />
<glyph unicode="&#xf8;" horiz-adv-x="700" d="M351 605q131 0 223 -91t92 -220q0 -128 -92.5 -219.5t-222.5 -91.5t-222.5 91.5t-92.5 219.5q0 129 92 220t223 91zM351 114q73 0 124 53t51 127q0 75 -51 127.5t-124 52.5t-124 -52.5t-51 -127.5q0 -74 51 -127t124 -53zM111 -57l360 704h117l-361 -704h-116z" />
<glyph unicode="&#xf9;" horiz-adv-x="615" d="M55 597h145v-369q0 -45 23 -74t74 -29q57 0 85 29t28 74v369h145v-386q0 -43 -13 -80.5t-40.5 -71t-79 -53t-120.5 -19.5q-71 0 -122 18.5t-77 51.5t-37 68.5t-11 77.5v394zM178 792h152l98 -148h-121z" />
<glyph unicode="&#xfa;" horiz-adv-x="615" d="M55 597h145v-369q0 -45 23 -74t74 -29q57 0 85 29t28 74v369h145v-386q0 -43 -13 -80.5t-40.5 -71t-79 -53t-120.5 -19.5q-71 0 -122 18.5t-77 51.5t-37 68.5t-11 77.5v394zM269 792h152l-129 -148h-121z" />
<glyph unicode="&#xfb;" horiz-adv-x="615" d="M55 597h145v-369q0 -45 23 -74t74 -29q57 0 85 29t28 74v369h145v-386q0 -43 -13 -80.5t-40.5 -71t-79 -53t-120.5 -19.5q-71 0 -122 18.5t-77 51.5t-37 68.5t-11 77.5v394zM115 644l117 158h142l118 -158h-129l-60 80l-60 -80h-128z" />
<glyph unicode="&#xfc;" horiz-adv-x="615" d="M55 597h145v-369q0 -45 23 -74t74 -29q57 0 85 29t28 74v369h145v-386q0 -43 -13 -80.5t-40.5 -71t-79 -53t-120.5 -19.5q-71 0 -122 18.5t-77 51.5t-37 68.5t-11 77.5v394zM503 718q0 -31 -22 -53t-53 -22t-53 22t-22 53t22 53t53 22t53 -22t22 -53zM253 718 q0 -31 -22 -53t-53 -22t-53 22t-22 53t22 53t53 22t53 -22t22 -53z" />
<glyph unicode="&#xfd;" horiz-adv-x="615" d="M292 0l258 597h-152l-94 -217l-129 217h-165l228 -369l-99 -228h153zM264 792h152l-129 -148h-121z" />
<glyph unicode="&#xfe;" horiz-adv-x="650" d="M355 541q114 0 187 -81t73 -199q0 -115 -82.5 -197.5t-197.5 -82.5q-85 0 -140 57v-191l-140 -31v888l128 28v-278q66 87 172 87zM327 121q59 0 101 42t42 101t-42 101t-101 42t-101 -42t-42 -101t42 -101t101 -42z" />
<glyph unicode="&#xff;" horiz-adv-x="565" d="M550 597l-258 -597h-153l99 228l-228 369h165l129 -217l94 217h152zM505 718q0 -31 -22 -53t-53 -22t-53 22t-22 53t22 53t53 22t53 -22t22 -53zM255 718q0 -31 -22 -53t-53 -22t-53 22t-22 53t22 53t53 22t53 -22t22 -53z" />
<glyph unicode="&#x100;" d="M476 0l-44 140h-224l-44 -140h-161l243 700h148l243 -700h-161zM246 260h148l-74 233zM475 758h-310v85h310v-85z" />
<glyph unicode="&#x101;" horiz-adv-x="555" d="M552 0h-151l-36 116h-174l-37 -116h-151l207 597h135zM227 232h101l-50 158zM434 668h-310v85h310v-85z" />
<glyph unicode="&#x102;" d="M476 0l-44 140h-224l-44 -140h-161l243 700h148l243 -700h-161zM246 260h148l-74 233zM145 899h75q0 -3 0.5 -8t6 -18t15 -23t30 -18t48.5 -8q44 0 69 19t28 37l3 19h75q0 -6 -1 -16t-10.5 -36t-26 -46t-52.5 -36t-85 -16t-85 15.5t-52.5 37.5t-26 44t-10.5 38z" />
<glyph unicode="&#x103;" horiz-adv-x="555" d="M552 0h-151l-36 116h-174l-37 -116h-151l207 597h135zM227 232h101l-50 158zM104 791h75q0 -3 0.5 -8t6 -18t15 -23t30 -18t48.5 -8q44 0 69 19t28 37l3 19h75q0 -6 -1 -16t-10.5 -36t-26 -46t-52.5 -36t-85 -16t-85 15.5t-52.5 37.5t-26 44t-10.5 38z" />
<glyph unicode="&#x104;" d="M476 0l-44 140h-224l-44 -140h-161l243 700h148l243 -700h-161zM246 260h148l-74 233zM620 36v-36q-23 -5 -35 -8t-35.5 -12t-36.5 -18.5t-23.5 -26.5t-10.5 -38q0 -19 9 -35t29 -16q48 0 110 31l20 -50q-72 -51 -152 -51q-44 0 -76 32t-32 79q0 126 233 149z" />
<glyph unicode="&#x105;" horiz-adv-x="555" d="M552 0h-151l-36 116h-174l-37 -116h-151l207 597h135zM227 232h101l-50 158zM538 36v-36q-23 -5 -35 -8t-35.5 -12t-36.5 -18.5t-23.5 -26.5t-10.5 -38q0 -19 9 -35t29 -16q48 0 110 31l20 -50q-72 -51 -152 -51q-44 0 -76 32t-32 79q0 126 233 149z" />
<glyph unicode="&#x106;" horiz-adv-x="645" d="M502 178l115 -94q-100 -98 -237 -98q-147 0 -248.5 103.5t-101.5 261.5q0 151 102.5 258t247.5 107q138 0 236 -98l-105 -96q-54 46 -125 46q-82 0 -141 -64.5t-59 -150.5q0 -91 58.5 -153t141.5 -62q65 0 116 40zM324 898h152l-129 -148h-121z" />
<glyph unicode="&#x107;" horiz-adv-x="565" d="M430 165l107 -87q-84 -90 -207 -90q-128 0 -214 88t-86 223q0 129 88 220t212 91q121 0 206 -91l-99 -89q-43 40 -103 40q-65 0 -111.5 -50t-46.5 -120q0 -71 45.5 -120.5t112.5 -49.5q55 0 96 35zM254 802h152l-129 -148h-121z" />
<glyph unicode="&#x108;" horiz-adv-x="645" d="M502 178l115 -94q-100 -98 -237 -98q-147 0 -248.5 103.5t-101.5 261.5q0 151 102.5 258t247.5 107q138 0 236 -98l-105 -96q-54 46 -125 46q-82 0 -141 -64.5t-59 -150.5q0 -91 58.5 -153t141.5 -62q65 0 116 40zM171 750l117 158h142l118 -158h-129l-60 80l-60 -80 h-128z" />
<glyph unicode="&#x109;" horiz-adv-x="565" d="M430 165l107 -87q-84 -90 -207 -90q-128 0 -214 88t-86 223q0 129 88 220t212 91q121 0 206 -91l-99 -89q-43 40 -103 40q-65 0 -111.5 -50t-46.5 -120q0 -71 45.5 -120.5t112.5 -49.5q55 0 96 35zM121 644l117 158h142l118 -158h-129l-60 80l-60 -80h-128z" />
<glyph unicode="&#x10a;" horiz-adv-x="645" d="M502 178l115 -94q-100 -98 -237 -98q-147 0 -248.5 103.5t-101.5 261.5q0 151 102.5 258t247.5 107q138 0 236 -98l-105 -96q-54 46 -125 46q-82 0 -141 -64.5t-59 -150.5q0 -91 58.5 -153t141.5 -62q65 0 116 40zM446 817q0 -34 -23.5 -57t-56.5 -23t-56.5 23t-23.5 57 q0 33 23.5 56.5t56.5 23.5t56.5 -23.5t23.5 -56.5z" />
<glyph unicode="&#x10b;" horiz-adv-x="565" d="M430 165l107 -87q-84 -90 -207 -90q-128 0 -214 88t-86 223q0 129 88 220t212 91q121 0 206 -91l-99 -89q-43 40 -103 40q-65 0 -111.5 -50t-46.5 -120q0 -71 45.5 -120.5t112.5 -49.5q55 0 96 35zM390 731q0 -34 -23.5 -57t-56.5 -23t-56.5 23t-23.5 57q0 33 23.5 56.5 t56.5 23.5t56.5 -23.5t23.5 -56.5z" />
<glyph unicode="&#x10c;" horiz-adv-x="645" d="M502 178l115 -94q-100 -98 -237 -98q-147 0 -248.5 103.5t-101.5 261.5q0 151 102.5 258t247.5 107q138 0 236 -98l-105 -96q-54 46 -125 46q-82 0 -141 -64.5t-59 -150.5q0 -91 58.5 -153t141.5 -62q65 0 116 40zM278 750l-117 158h128l60 -80l60 80h129l-118 -158h-142 z" />
<glyph unicode="&#x10d;" horiz-adv-x="565" d="M430 165l107 -87q-84 -90 -207 -90q-128 0 -214 88t-86 223q0 129 88 220t212 91q121 0 206 -91l-99 -89q-43 40 -103 40q-65 0 -111.5 -50t-46.5 -120q0 -71 45.5 -120.5t112.5 -49.5q55 0 96 35zM238 664l-117 158h128l60 -80l60 80h129l-118 -158h-142z" />
<glyph unicode="&#x10e;" horiz-adv-x="675" d="M295 700q145 0 247.5 -102.5t102.5 -247.5t-102.5 -247.5t-247.5 -102.5h-235v700h235zM262 135q94 0 159.5 61.5t65.5 153.5t-65.5 153.5t-159.5 61.5h-52v-430h52zM207 750l-117 158h128l60 -80l60 80h129l-118 -158h-142z" />
<glyph unicode="&#x10f;" horiz-adv-x="590" d="M263 597q128 0 212.5 -89t84.5 -210q0 -75 -35 -142t-105 -111.5t-160 -44.5h-200v597h203zM237 128q80 0 130.5 51t50.5 119t-49 119.5t-132 51.5h-37v-341h37zM188 654l-117 158h128l60 -80l60 80h129l-118 -158h-142z" />
<glyph unicode="&#x110;" horiz-adv-x="685" d="M302 700q145 0 247.5 -102.5t102.5 -247.5t-102.5 -247.5t-247.5 -102.5h-235v300h-100l40 140h60v260h235zM269 135q95 0 160 61.5t65 153.5t-65 153.5t-160 61.5h-52v-125h118l-40 -140h-78v-165h52z" />
<glyph unicode="&#x111;" horiz-adv-x="595" d="M267 597q128 0 212.5 -89t84.5 -210q0 -75 -35 -142t-105 -111.5t-160 -44.5h-200v240h-93l37 130h56v227h203zM241 128q80 0 130.5 51t50.5 119t-49 119.5t-132 51.5h-37v-99h108l-38 -130h-70v-112h37z" />
<glyph unicode="&#x112;" horiz-adv-x="540" d="M210 140h290l-40 -140h-400v700h385l40 -140h-275v-135h190v-140h-190v-145zM422 758h-310v85h310v-85z" />
<glyph unicode="&#x113;" horiz-adv-x="480" d="M406 0l37 132h-243v105h158v132h-158v96h231l-38 132h-333v-597h346zM388 668h-310v85h310v-85z" />
<glyph unicode="&#x116;" horiz-adv-x="540" d="M210 140h290l-40 -140h-400v700h385l40 -140h-275v-135h190v-140h-190v-145zM340 817q0 -34 -23.5 -57t-56.5 -23t-56.5 23t-23.5 57q0 33 23.5 56.5t56.5 23.5t56.5 -23.5t23.5 -56.5z" />
<glyph unicode="&#x117;" horiz-adv-x="480" d="M443 132l-37 -132h-346v597h333l38 -132h-231v-96h158v-132h-158v-105h243zM310 731q0 -34 -23.5 -57t-56.5 -23t-56.5 23t-23.5 57q0 33 23.5 56.5t56.5 23.5t56.5 -23.5t23.5 -56.5z" />
<glyph unicode="&#x118;" horiz-adv-x="540" d="M210 140h290l-40 -140h-400v700h385l40 -140h-275v-135h190v-140h-190v-145zM459 36v-36q-23 -5 -35 -8t-35.5 -12t-36.5 -18.5t-23.5 -26.5t-10.5 -38q0 -19 9 -35t29 -16q48 0 110 31l20 -50q-72 -51 -152 -51q-44 0 -76 32t-32 79q0 126 233 149z" />
<glyph unicode="&#x119;" horiz-adv-x="480" d="M443 132l-37 -132h-346v597h333l38 -132h-231v-96h158v-132h-158v-105h243zM406 36v-36q-23 -5 -35 -8t-35.5 -12t-36.5 -18.5t-23.5 -26.5t-10.5 -38q0 -19 9 -35t29 -16q48 0 110 31l20 -50q-72 -51 -152 -51q-44 0 -76 32t-32 79q0 126 233 149z" />
<glyph unicode="&#x11a;" horiz-adv-x="540" d="M210 140h290l-40 -140h-400v700h385l40 -140h-275v-135h190v-140h-190v-145zM178 750l-117 158h128l60 -80l60 80h129l-118 -158h-142z" />
<glyph unicode="&#x11b;" horiz-adv-x="480" d="M406 0l37 132h-243v105h158v132h-158v96h231l-38 132h-333v-597h346zM158 664l-117 158h128l60 -80l60 80h129l-118 -158h-142z" />
<glyph unicode="&#x11c;" horiz-adv-x="740" d="M393 412h293v-361q-25 -17 -110 -41.5t-160 -24.5q-173 0 -279.5 105t-106.5 260q0 152 111.5 258.5t274.5 106.5q68 0 138 -25.5t121 -69.5l-92 -112q-72 56 -147.5 64t-130.5 -22t-90 -84.5t-35 -115.5q0 -95 71 -160.5t172 -65.5q60 0 113 25v133h-180zM211 750 l117 158h142l118 -158h-129l-60 80l-60 -80h-128z" />
<glyph unicode="&#x11d;" horiz-adv-x="645" d="M451 138v96h-155l38 124h257v-312q-39 -23 -106 -41t-125 -18q-143 0 -236.5 88t-93.5 223q0 132 96 221.5t234 89.5q129 0 226 -86l-88 -106q-61 59 -145 59q-75 0 -128 -52.5t-53 -126.5q0 -77 57 -128t134 -51q46 0 88 20zM161 644l117 158h142l118 -158h-129l-60 80 l-60 -80h-128z" />
<glyph unicode="&#x11e;" horiz-adv-x="740" d="M393 412h293v-361q-25 -17 -110 -41.5t-160 -24.5q-173 0 -279.5 105t-106.5 260q0 152 111.5 258.5t274.5 106.5q68 0 138 -25.5t121 -69.5l-92 -112q-72 56 -147.5 64t-130.5 -22t-90 -84.5t-35 -115.5q0 -95 71 -160.5t172 -65.5q60 0 113 25v133h-180zM230 899h75 q0 -3 0.5 -8t6 -18t15 -23t30 -18t48.5 -8q44 0 69 19t28 37l3 19h75q0 -6 -1 -16t-10.5 -36t-26 -46t-52.5 -36t-85 -16t-85 15.5t-52.5 37.5t-26 44t-10.5 38z" />
<glyph unicode="&#x11f;" horiz-adv-x="645" d="M451 138v96h-155l38 124h257v-312q-39 -23 -106 -41t-125 -18q-143 0 -236.5 88t-93.5 223q0 132 96 221.5t234 89.5q129 0 226 -86l-88 -106q-61 59 -145 59q-75 0 -128 -52.5t-53 -126.5q0 -77 57 -128t134 -51q46 0 88 20zM174 791h75q0 -3 0.5 -8t6 -18t15 -23 t30 -18t48.5 -8q44 0 69 19t28 37l3 19h75q0 -6 -1 -16t-10.5 -36t-26 -46t-52.5 -36t-85 -16t-85 15.5t-52.5 37.5t-26 44t-10.5 38z" />
<glyph unicode="&#x120;" horiz-adv-x="740" d="M393 412h293v-361q-25 -17 -110 -41.5t-160 -24.5q-173 0 -279.5 105t-106.5 260q0 152 111.5 258.5t274.5 106.5q68 0 138 -25.5t121 -69.5l-92 -112q-72 56 -147.5 64t-130.5 -22t-90 -84.5t-35 -115.5q0 -95 71 -160.5t172 -65.5q60 0 113 25v133h-180zM486 817 q0 -34 -23.5 -57t-56.5 -23t-56.5 23t-23.5 57q0 33 23.5 56.5t56.5 23.5t56.5 -23.5t23.5 -56.5z" />
<glyph unicode="&#x121;" horiz-adv-x="645" d="M451 138v96h-155l38 124h257v-312q-39 -23 -106 -41t-125 -18q-143 0 -236.5 88t-93.5 223q0 132 96 221.5t234 89.5q129 0 226 -86l-88 -106q-61 59 -145 59q-75 0 -128 -52.5t-53 -126.5q0 -77 57 -128t134 -51q46 0 88 20zM420 731q0 -34 -23.5 -57t-56.5 -23 t-56.5 23t-23.5 57q0 33 23.5 56.5t56.5 23.5t56.5 -23.5t23.5 -56.5z" />
<glyph unicode="&#x122;" horiz-adv-x="740" d="M393 412h293v-361q-25 -17 -110 -41.5t-160 -24.5q-173 0 -279.5 105t-106.5 260q0 152 111.5 258.5t274.5 106.5q68 0 138 -25.5t121 -69.5l-92 -112q-72 56 -147.5 64t-130.5 -22t-90 -84.5t-35 -115.5q0 -95 71 -160.5t172 -65.5q60 0 113 25v133h-180zM295 -194 l24 41q59 -20 91 -22q55 -3 55 38q0 22 -28.5 27.5t-56.5 -0.5l-29 -5l-25 25l55 90h60l-40 -60q68 19 105 -4t37 -76q0 -42 -31.5 -66t-87.5 -24q-33 0 -65.5 9t-48.5 18z" />
<glyph unicode="&#x123;" horiz-adv-x="645" d="M451 138v96h-155l38 124h257v-312q-39 -23 -106 -41t-125 -18q-143 0 -236.5 88t-93.5 223q0 132 96 221.5t234 89.5q129 0 226 -86l-88 -106q-61 59 -145 59q-75 0 -128 -52.5t-53 -126.5q0 -77 57 -128t134 -51q46 0 88 20zM245 -194l24 41q59 -20 91 -22q55 -3 55 38 q0 22 -28.5 27.5t-56.5 -0.5l-29 -5l-25 25l55 90h60l-40 -60q68 19 105 -4t37 -76q0 -42 -31.5 -66t-87.5 -24q-33 0 -65.5 9t-48.5 18z" />
<glyph unicode="&#x124;" horiz-adv-x="690" d="M477 700h150v-700h-150v292h-265v-292h-150v700h150v-278h265v278zM151 750l117 158h142l118 -158h-129l-60 80l-60 -80h-128z" />
<glyph unicode="&#x125;" horiz-adv-x="605" d="M545 0v597h-141v-231h-204v231h-140v-597h140v242h204v-242h141zM111 644l117 158h142l118 -158h-129l-60 80l-60 -80h-128z" />
<glyph unicode="&#x128;" horiz-adv-x="275" d="M212 700v-700h-150v700h150zM-48 819q1 3 3 8.5t11 19t19.5 23.5t29 18.5t40.5 8.5q37 0 90 -29.5t74 -29.5q19 0 37 14.5t26 29.5l9 14l31 -82q-1 -3 -4 -8t-12.5 -18t-20.5 -23t-29 -18t-38 -8q-32 0 -80 30t-87 30q-22 0 -39 -15.5t-23 -31.5l-6 -16z" />
<glyph unicode="&#x129;" horiz-adv-x="260" d="M200 597v-597h-140v597h140zM-56 714q1 3 3 8.5t11 19t19.5 23.5t29 18.5t40.5 8.5q37 0 90 -29.5t74 -29.5q19 0 37 14.5t26 28.5l9 15l31 -82q-1 -3 -4 -8t-12.5 -18t-20.5 -23t-29 -18t-38 -8q-32 0 -80 30t-87 30q-22 0 -39 -16t-23 -32l-6 -15z" />
<glyph unicode="&#x12a;" horiz-adv-x="275" d="M212 700v-700h-150v700h150zM292 758h-310v85h310v-85z" />
<glyph unicode="&#x12b;" horiz-adv-x="260" d="M200 0v597h-140v-597h140zM284 668h-310v85h310v-85z" />
<glyph unicode="&#x12e;" horiz-adv-x="275" d="M212 700v-700h-150v700h150zM212 36v-36q-23 -5 -35 -8t-35.5 -12t-36.5 -18.5t-23.5 -26.5t-10.5 -38q0 -19 9 -35t29 -16q48 0 110 31l20 -50q-72 -51 -152 -51q-44 0 -76 32t-32 79q0 126 233 149z" />
<glyph unicode="&#x12f;" horiz-adv-x="260" d="M200 597v-597h-140v597h140zM200 36v-36q-23 -5 -35 -8t-35.5 -12t-36.5 -18.5t-23.5 -26.5t-10.5 -38q0 -19 9 -35t29 -16q48 0 110 31l20 -50q-72 -51 -152 -51q-44 0 -76 32t-32 79q0 126 233 149z" />
<glyph unicode="&#x130;" horiz-adv-x="275" d="M212 700v-700h-150v700h150zM216 817q0 -34 -23.5 -57t-56.5 -23t-56.5 23t-23.5 57q0 33 23.5 56.5t56.5 23.5t56.5 -23.5t23.5 -56.5z" />
<glyph unicode="&#x131;" horiz-adv-x="260" d="M200 597v-597h-140v597h140z" />
<glyph unicode="&#x134;" horiz-adv-x="415" d="M355 700v-465q0 -58 -17 -103.5t-44.5 -72.5t-60.5 -45t-68 -24t-64 -6t-51 5l-42 149q63 -16 102.5 -10t59 28t27.5 45.5t8 42.5v18v438h150zM91 750l117 158h142l118 -158h-129l-60 80l-60 -80h-128z" />
<glyph unicode="&#x135;" horiz-adv-x="370" d="M172 597h141v-394q0 -56 -18.5 -99t-47.5 -66t-65 -37.5t-71 -13.5t-65 6l-40 141q31 -9 56 -11.5t52.5 3t42.5 31t15 69.5v371zM51 644l117 158h142l118 -158h-129l-60 80l-60 -80h-128z" />
<glyph unicode="&#x136;" d="M368 346l261 -346h-182l-237 322v-322h-150v700h150v-337l232 337h180zM195 -194l24 41q59 -20 91 -22q55 -3 55 38q0 22 -28.5 27.5t-56.5 -0.5l-29 -5l-25 25l55 90h60l-40 -60q68 19 105 -4t37 -76q0 -42 -31.5 -66t-87.5 -24q-33 0 -65.5 9t-48.5 18z" />
<glyph unicode="&#x137;" horiz-adv-x="565" d="M548 597l-216 -301l223 -296h-172l-184 251v-251h-141v597h141v-262l180 262h169zM165 -194l24 41q59 -20 91 -22q55 -3 55 38q0 22 -28.5 27.5t-56.5 -0.5l-29 -5l-25 25l55 90h60l-40 -60q68 19 105 -4t37 -76q0 -42 -31.5 -66t-87.5 -24q-33 0 -65.5 9t-48.5 18z" />
<glyph unicode="&#x138;" horiz-adv-x="565" d="M548 597l-216 -301l223 -296h-172l-184 251v-251h-141v597h141v-262l180 262h169z" />
<glyph unicode="&#x139;" horiz-adv-x="480" d="M210 145h251l-41 -145h-360v700h150v-555zM144 898h152l-129 -148h-121z" />
<glyph unicode="&#x13a;" horiz-adv-x="425" d="M371 0l39 136h-210v461h-141v-597h312zM154 802h152l-129 -148h-121z" />
<glyph unicode="&#x13b;" horiz-adv-x="480" d="M210 145h251l-41 -145h-360v700h150v-555zM125 -194l24 41q59 -20 91 -22q55 -3 55 38q0 22 -28.5 27.5t-56.5 -0.5l-29 -5l-25 25l55 90h60l-40 -60q68 19 105 -4t37 -76q0 -42 -31.5 -66t-87.5 -24q-33 0 -65.5 9t-48.5 18z" />
<glyph unicode="&#x13c;" horiz-adv-x="425" d="M410 136l-39 -136h-312v597h141v-461h210zM95 -194l24 41q59 -20 91 -22q55 -3 55 38q0 22 -28.5 27.5t-56.5 -0.5l-29 -5l-25 25l55 90h60l-40 -60q68 19 105 -4t37 -76q0 -42 -31.5 -66t-87.5 -24q-33 0 -65.5 9t-48.5 18z" />
<glyph unicode="&#x13d;" horiz-adv-x="480" d="M210 145h251l-41 -145h-360v700h150v-555zM395 445l50 255h-140l-10 -255h100z" />
<glyph unicode="&#x13e;" horiz-adv-x="425" d="M410 136l-39 -136h-312v597h141v-461h210zM365 342h-100l10 255h140z" />
<glyph unicode="&#x141;" horiz-adv-x="480" d="M200 145h251l-41 -145h-360v174l-48 -46v138l48 45v389h150v-247l152 144v-138l-152 -144v-170z" />
<glyph unicode="&#x142;" horiz-adv-x="425" d="M188 136h210l-39 -136h-312v162l-45 -42v133l45 42v302h141v-168l133 126v-133l-133 -126v-160z" />
<glyph unicode="&#x143;" horiz-adv-x="745" d="M535 700h150v-700h-164l-311 472v-472h-150v700h150l325 -479v479zM344 898h152l-129 -148h-121z" />
<glyph unicode="&#x144;" horiz-adv-x="650" d="M592 0v597h-140v-379l-258 379h-136v-597h140v373l246 -373h148zM264 802h152l-129 -148h-121z" />
<glyph unicode="&#x145;" horiz-adv-x="745" d="M535 700h150v-700h-164l-311 472v-472h-150v700h150l325 -479v479zM245 -194l24 41q59 -20 91 -22q55 -3 55 38q0 22 -28.5 27.5t-56.5 -0.5l-29 -5l-25 25l55 90h60l-40 -60q68 19 105 -4t37 -76q0 -42 -31.5 -66t-87.5 -24q-33 0 -65.5 9t-48.5 18z" />
<glyph unicode="&#x146;" horiz-adv-x="650" d="M592 597v-597h-148l-246 373v-373h-140v597h136l258 -379v379h140zM195 -194l24 41q59 -20 91 -22q55 -3 55 38q0 22 -28.5 27.5t-56.5 -0.5l-29 -5l-25 25l55 90h60l-40 -60q68 19 105 -4t37 -76q0 -42 -31.5 -66t-87.5 -24q-33 0 -65.5 9t-48.5 18z" />
<glyph unicode="&#x147;" horiz-adv-x="745" d="M535 700h150v-700h-164l-311 472v-472h-150v700h150l325 -479v479zM288 750l-117 158h128l60 -80l60 80h129l-118 -158h-142z" />
<glyph unicode="&#x148;" horiz-adv-x="650" d="M592 0v597h-140v-379l-258 379h-136v-597h140v373l246 -373h148zM248 664l-117 158h128l60 -80l60 80h129l-118 -158h-142z" />
<glyph unicode="&#x14a;" horiz-adv-x="740" d="M533 700h150v-751q0 -31 -2 -51t-8 -47.5t-21 -45.5t-39 -35t-63.5 -25t-91.5 -8l-41 126q71 0 96 20t25 66v46l-330 477v-472h-150v700h150l325 -479v479z" />
<glyph unicode="&#x14b;" horiz-adv-x="650" d="M452 597h140v-649q0 -37 -2.5 -61t-15 -56t-35 -50.5t-66.5 -31.5t-106 -13l-41 126q71 -4 98.5 17.5t27.5 68.5v47l-254 378v-373h-140v597h136l258 -379v379z" />
<glyph unicode="&#x14c;" horiz-adv-x="800" d="M400 717q153 0 261.5 -107t108.5 -258t-108.5 -258t-261.5 -107q-154 0 -262 106.5t-108 258.5t108 258.5t262 106.5zM400 132q89 0 152 64.5t63 155.5t-63 155.5t-152 64.5t-152 -64.5t-63 -155.5t63 -155.5t152 -64.5zM558 758h-310v85h310v-85z" />
<glyph unicode="&#x14d;" horiz-adv-x="690" d="M345 612q131 0 223 -91t92 -220t-92 -220t-223 -91t-223 91t-92 220t92 220t223 91zM345 126q71 0 120.5 51t49.5 124q0 72 -50 123.5t-120 51.5t-120 -51.5t-50 -123.5q0 -73 49.5 -124t120.5 -51zM500 668h-310v85h310v-85z" />
<glyph unicode="&#x150;" horiz-adv-x="800" d="M400 717q153 0 261.5 -107t108.5 -258t-108.5 -258t-261.5 -107q-154 0 -262 106.5t-108 258.5t108 258.5t262 106.5zM400 132q89 0 152 64.5t63 155.5t-63 155.5t-152 64.5t-152 -64.5t-63 -155.5t63 -155.5t152 -64.5zM330 755h-86l38 148h136zM512 755h-93l66 148h142 z" />
<glyph unicode="&#x151;" horiz-adv-x="690" d="M345 612q131 0 223 -91t92 -220t-92 -220t-223 -91t-223 91t-92 220t92 220t223 91zM345 126q71 0 120.5 51t49.5 124q0 72 -50 123.5t-120 51.5t-120 -51.5t-50 -123.5q0 -73 49.5 -124t120.5 -51zM270 645h-86l38 148h136zM452 645h-93l66 148h142z" />
<glyph unicode="&#x154;" horiz-adv-x="620" d="M428 0l-172 275h-46v-275h-150v700h220q50 0 93.5 -11t82.5 -35.5t61.5 -70t22.5 -108.5q0 -123 -136 -175l206 -300h-182zM210 560v-185h55q42 0 81 23.5t39 76.5q0 85 -120 85h-55zM214 898h152l-129 -148h-121z" />
<glyph unicode="&#x155;" horiz-adv-x="550" d="M366 253l174 -253h-171l-142 228h-27v-228h-140v597h191q31 0 59.5 -5t59 -18t53 -34t37 -56.5t14.5 -81.5q0 -31 -11 -58t-27 -43t-32 -27.5t-27 -15.5zM238 327q34 0 63.5 16.5t29.5 58.5q0 23 -9.5 37t-28 19t-28.5 6t-27 1h-38v-138h38zM204 802h152l-129 -148h-121z " />
<glyph unicode="&#x156;" horiz-adv-x="620" d="M428 0l-172 275h-46v-275h-150v700h220q50 0 93.5 -11t82.5 -35.5t61.5 -70t22.5 -108.5q0 -123 -136 -175l206 -300h-182zM210 560v-185h55q42 0 81 23.5t39 76.5q0 85 -120 85h-55zM185 -194l24 41q59 -20 91 -22q55 -3 55 38q0 22 -28.5 27.5t-56.5 -0.5l-29 -5 l-25 25l55 90h60l-40 -60q68 19 105 -4t37 -76q0 -42 -31.5 -66t-87.5 -24q-33 0 -65.5 9t-48.5 18z" />
<glyph unicode="&#x157;" horiz-adv-x="550" d="M366 253l174 -253h-171l-142 228h-27v-228h-140v597h191q31 0 59.5 -5t59 -18t53 -34t37 -56.5t14.5 -81.5q0 -31 -11 -58t-27 -43t-32 -27.5t-27 -15.5zM238 327q34 0 63.5 16.5t29.5 58.5q0 23 -9.5 37t-28 19t-28.5 6t-27 1h-38v-138h38zM165 -194l24 41 q59 -20 91 -22q55 -3 55 38q0 22 -28.5 27.5t-56.5 -0.5l-29 -5l-25 25l55 90h60l-40 -60q68 19 105 -4t37 -76q0 -42 -31.5 -66t-87.5 -24q-33 0 -65.5 9t-48.5 18z" />
<glyph unicode="&#x158;" horiz-adv-x="620" d="M428 0l-172 275h-46v-275h-150v700h220q50 0 93.5 -11t82.5 -35.5t61.5 -70t22.5 -108.5q0 -123 -136 -175l206 -300h-182zM210 560v-185h55q42 0 81 23.5t39 76.5q0 85 -120 85h-55zM197 750l-117 158h128l60 -80l60 80h129l-118 -158h-142z" />
<glyph unicode="&#x159;" horiz-adv-x="550" d="M366 253l174 -253h-171l-142 228h-27v-228h-140v597h191q31 0 59.5 -5t59 -18t53 -34t37 -56.5t14.5 -81.5q0 -31 -11 -58t-27 -43t-32 -27.5t-27 -15.5zM238 327q34 0 63.5 16.5t29.5 58.5q0 23 -9.5 37t-28 19t-28.5 6t-27 1h-38v-138h38zM178 664l-117 158h128l60 -80 l60 80h129l-118 -158h-142z" />
<glyph unicode="&#x15a;" horiz-adv-x="580" d="M526 637l-88 -111q-38 42 -91.5 54t-91.5 -7.5t-38 -60.5q0 -34 30.5 -51t95.5 -37q12 -3 18 -5q55 -16 94.5 -42t56 -52t25.5 -49t9 -38v-14q0 -63 -23.5 -111.5t-62 -76t-83 -41t-92.5 -13.5q-74 0 -137 21.5t-89 42.5l-26 21l94 120q9 -9 19.5 -16.5t19.5 -13t19 -9.5 t17.5 -6.5t17 -4.5t15.5 -3t14.5 -1.5t12 -0.5h9.5h7q10 0 23 2.5t30.5 9t29.5 21t12 35.5q0 15 -4 26t-9.5 18t-21 14.5t-27 12t-40 15t-48.5 18.5q-46 18 -73.5 32t-53.5 36.5t-37.5 54t-11.5 74.5q0 90 73 153t182 63q41 0 79 -8t63 -20t44.5 -24t28.5 -20zM264 898h152 l-129 -148h-121z" />
<glyph unicode="&#x15b;" horiz-adv-x="510" d="M463 537q-8 8 -22.5 20.5t-66 33t-108.5 20.5q-91 0 -155 -53.5t-64 -133.5q0 -33 9.5 -59t22.5 -42t36 -30.5t39 -21.5t44 -17q82 -30 101 -42t19 -38q0 -7 -3 -14t-11 -16t-25.5 -14.5t-43.5 -5.5q-33 0 -61.5 13t-41.5 25l-12 13l-88 -112l8.5 -8.5t26 -19t44 -23.5 t62 -18.5t79.5 -8.5q99 0 162 57t63 151q0 64 -47 107.5t-112 61.5q-32 10 -47.5 15t-34 13.5t-26 19t-7.5 23.5q0 21 17.5 37t49.5 16q33 0 60 -13.5t38 -26.5l11 -14zM214 802h152l-129 -148h-121z" />
<glyph unicode="&#x15c;" horiz-adv-x="580" d="M526 637l-88 -111q-38 42 -91.5 54t-91.5 -7.5t-38 -60.5q0 -34 30.5 -51t95.5 -37q12 -3 18 -5q55 -16 94.5 -42t56 -52t25.5 -49t9 -38v-14q0 -63 -23.5 -111.5t-62 -76t-83 -41t-92.5 -13.5q-74 0 -137 21.5t-89 42.5l-26 21l94 120q9 -9 19.5 -16.5t19.5 -13t19 -9.5 t17.5 -6.5t17 -4.5t15.5 -3t14.5 -1.5t12 -0.5h9.5h7q10 0 23 2.5t30.5 9t29.5 21t12 35.5q0 15 -4 26t-9.5 18t-21 14.5t-27 12t-40 15t-48.5 18.5q-46 18 -73.5 32t-53.5 36.5t-37.5 54t-11.5 74.5q0 90 73 153t182 63q41 0 79 -8t63 -20t44.5 -24t28.5 -20zM101 750 l117 158h142l118 -158h-129l-60 80l-60 -80h-128z" />
<glyph unicode="&#x15d;" horiz-adv-x="510" d="M463 537q-8 8 -22.5 20.5t-66 33t-108.5 20.5q-91 0 -155 -53.5t-64 -133.5q0 -33 9.5 -59t22.5 -42t36 -30.5t39 -21.5t44 -17q82 -30 101 -42t19 -38q0 -7 -3 -14t-11 -16t-25.5 -14.5t-43.5 -5.5q-33 0 -61.5 13t-41.5 25l-12 13l-88 -112l8.5 -8.5t26 -19t44 -23.5 t62 -18.5t79.5 -8.5q99 0 162 57t63 151q0 64 -47 107.5t-112 61.5q-32 10 -47.5 15t-34 13.5t-26 19t-7.5 23.5q0 21 17.5 37t49.5 16q33 0 60 -13.5t38 -26.5l11 -14zM71 644l117 158h142l118 -158h-129l-60 80l-60 -80h-128z" />
<glyph unicode="&#x15e;" horiz-adv-x="580" d="M526 637l-88 -111q-38 42 -91.5 54t-91.5 -7.5t-38 -60.5q0 -34 30.5 -51t95.5 -37q12 -3 18 -5q55 -16 94.5 -42t56 -52t25.5 -49t9 -38v-14q0 -63 -23.5 -111.5t-62 -76t-83 -41t-92.5 -13.5q-74 0 -137 21.5t-89 42.5l-26 21l94 120q9 -9 19.5 -16.5t19.5 -13t19 -9.5 t17.5 -6.5t17 -4.5t15.5 -3t14.5 -1.5t12 -0.5h9.5h7q10 0 23 2.5t30.5 9t29.5 21t12 35.5q0 15 -4 26t-9.5 18t-21 14.5t-27 12t-40 15t-48.5 18.5q-46 18 -73.5 32t-53.5 36.5t-37.5 54t-11.5 74.5q0 90 73 153t182 63q41 0 79 -8t63 -20t44.5 -24t28.5 -20zM185 -194 l24 41q59 -20 91 -22q55 -3 55 38q0 22 -28.5 27.5t-56.5 -0.5l-29 -5l-25 25l55 90h60l-40 -60q68 19 105 -4t37 -76q0 -42 -31.5 -66t-87.5 -24q-33 0 -65.5 9t-48.5 18z" />
<glyph unicode="&#x15f;" horiz-adv-x="510" d="M463 537l-84 -105q-4 6 -12 15t-36 24t-61 15q-32 0 -49.5 -16t-17.5 -37q0 -25 26 -39t89 -32q65 -18 112 -61.5t47 -107.5q0 -94 -63 -151t-162 -57q-41 0 -79 8t-62.5 19.5t-43 23t-27.5 19.5l-8 8l88 112q5 -6 13.5 -14.5t38.5 -22.5t63 -14q26 0 43.5 5.5t25.5 14.5 t11 16t3 14q0 26 -19 38t-101 42q-28 10 -44 17t-39 21.5t-36 30.5t-22.5 42t-9.5 59q0 80 64 133.5t155 53.5q57 0 106.5 -18.5t69.5 -36.5zM145 -194l24 41q59 -20 91 -22q55 -3 55 38q0 22 -28.5 27.5t-56.5 -0.5l-29 -5l-25 25l55 90h60l-40 -60q68 19 105 -4t37 -76 q0 -42 -31.5 -66t-87.5 -24q-33 0 -65.5 9t-48.5 18z" />
<glyph unicode="&#x160;" horiz-adv-x="580" d="M228 760l-117 158h128l60 -80l60 80h129l-118 -158h-142zM526 637l-88 -111q-38 42 -91.5 54t-91.5 -7.5t-38 -60.5q0 -34 30.5 -51t95.5 -37q12 -3 18 -5q55 -16 94.5 -42t56 -52t25.5 -49t9 -38v-14q0 -63 -23.5 -111.5t-62 -76t-83 -41t-92.5 -13.5q-74 0 -137 21.5 t-89 42.5l-26 21l94 120q9 -9 19.5 -16.5t19.5 -13t19 -9.5t17.5 -6.5t17 -4.5t15.5 -3t14.5 -1.5t12 -0.5h9.5h7q10 0 23 2.5t30.5 9t29.5 21t12 35.5q0 15 -4 26t-9.5 18t-21 14.5t-27 12t-40 15t-48.5 18.5q-46 18 -73.5 32t-53.5 36.5t-37.5 54t-11.5 74.5q0 90 73 153 t182 63q41 0 79 -8t63 -20t44.5 -24t28.5 -20z" />
<glyph unicode="&#x161;" horiz-adv-x="505" d="M463 537q-8 8 -22.5 20.5t-66 33t-108.5 20.5q-91 0 -155 -53.5t-64 -133.5q0 -33 9.5 -59t22.5 -42t36 -30.5t39 -21.5t44 -17q82 -30 101 -42t19 -38q0 -7 -3 -14t-11 -16t-25.5 -14.5t-43.5 -5.5q-33 0 -61.5 13t-41.5 25l-12 13l-88 -112l8.5 -8.5t26 -19t44 -23.5 t62 -18.5t79.5 -8.5q99 0 162 57t63 151q0 64 -47 107.5t-112 61.5q-32 10 -47.5 15t-34 13.5t-26 19t-7.5 23.5q0 21 17.5 37t49.5 16q33 0 60 -13.5t38 -26.5l11 -14zM178 654l-117 158h128l60 -80l60 80h129l-118 -158h-142z" />
<glyph unicode="&#x162;" horiz-adv-x="540" d="M520 700v-145h-175v-555h-150v555h-185l40 145h470zM155 -194l24 41q59 -20 91 -22q55 -3 55 38q0 22 -28.5 27.5t-56.5 -0.5l-29 -5l-25 25l55 90h60l-40 -60q68 19 105 -4t37 -76q0 -42 -31.5 -66t-87.5 -24q-33 0 -65.5 9t-48.5 18z" />
<glyph unicode="&#x163;" horiz-adv-x="470" d="M306 461v-461h-141v461h-156l38 136h404v-136h-145zM125 -194l24 41q59 -20 91 -22q55 -3 55 38q0 22 -28.5 27.5t-56.5 -0.5l-29 -5l-25 25l55 90h60l-40 -60q68 19 105 -4t37 -76q0 -42 -31.5 -66t-87.5 -24q-33 0 -65.5 9t-48.5 18z" />
<glyph unicode="&#x164;" horiz-adv-x="540" d="M520 700v-145h-175v-555h-150v555h-185l40 145h470zM200 750l-117 158h128l60 -80l60 80h129l-118 -158h-142z" />
<glyph unicode="&#x165;" horiz-adv-x="470" d="M306 0v461h145v136h-404l-38 -136h156v-461h141zM168 654l-117 158h128l60 -80l60 80h129l-118 -158h-142z" />
<glyph unicode="&#x166;" horiz-adv-x="540" d="M443 288h-350v125h350v-125zM520 700v-145h-175v-555h-150v555h-185l40 145h470z" />
<glyph unicode="&#x167;" horiz-adv-x="470" d="M413 208h-350v120h350v-120zM306 461v-461h-141v461h-156l38 136h404v-136h-145z" />
<glyph unicode="&#x168;" horiz-adv-x="695" d="M342 -15q-38 0 -72 4.5t-74 20.5t-68.5 42t-48 73t-19.5 110v465h156v-435v-14.5t6 -32.5t17.5 -40.5t38 -32t64.5 -14.5q41 0 70 14t41.5 33.5t19 39t6.5 33.5v14v435h156v-455q0 -65 -20.5 -114.5t-50.5 -76.5t-72 -43.5t-76.5 -21t-73.5 -4.5zM158 819q1 3 3 8.5 t11 19t19.5 23.5t29 18.5t40.5 8.5q37 0 90 -29.5t74 -29.5q19 0 37 14.5t26 29.5l9 14l31 -82q-1 -3 -4 -8t-12.5 -18t-20.5 -23t-29 -18t-38 -8q-32 0 -80 30t-87 30q-22 0 -39 -15.5t-23 -31.5l-6 -16z" />
<glyph unicode="&#x169;" horiz-adv-x="615" d="M55 597h145v-369q0 -45 23 -74t74 -29q57 0 85 29t28 74v369h145v-386q0 -43 -13 -80.5t-40.5 -71t-79 -53t-120.5 -19.5q-71 0 -122 18.5t-77 51.5t-37 68.5t-11 77.5v394zM118 714q1 3 3 8.5t11 19t19.5 23.5t29 18.5t40.5 8.5q37 0 90 -29.5t74 -29.5q19 0 37 14.5 t26 28.5l9 15l31 -82q-1 -3 -4 -8t-12.5 -18t-20.5 -23t-29 -18t-38 -8q-32 0 -80 30t-87 30q-22 0 -39 -16t-23 -32l-6 -15z" />
<glyph unicode="&#x16a;" horiz-adv-x="695" d="M342 -15q-38 0 -72 4.5t-74 20.5t-68.5 42t-48 73t-19.5 110v465h156v-435v-14.5t6 -32.5t17.5 -40.5t38 -32t64.5 -14.5q41 0 70 14t41.5 33.5t19 39t6.5 33.5v14v435h156v-455q0 -65 -20.5 -114.5t-50.5 -76.5t-72 -43.5t-76.5 -21t-73.5 -4.5zM498 758h-310v85h310 v-85z" />
<glyph unicode="&#x16b;" horiz-adv-x="615" d="M55 597h145v-369q0 -45 23 -74t74 -29q57 0 85 29t28 74v369h145v-386q0 -43 -13 -80.5t-40.5 -71t-79 -53t-120.5 -19.5q-71 0 -122 18.5t-77 51.5t-37 68.5t-11 77.5v394zM458 668h-310v85h310v-85z" />
<glyph unicode="&#x16c;" horiz-adv-x="695" d="M342 -15q-38 0 -72 4.5t-74 20.5t-68.5 42t-48 73t-19.5 110v465h156v-435v-14.5t6 -32.5t17.5 -40.5t38 -32t64.5 -14.5q41 0 70 14t41.5 33.5t19 39t6.5 33.5v14v435h156v-455q0 -65 -20.5 -114.5t-50.5 -76.5t-72 -43.5t-76.5 -21t-73.5 -4.5zM170 899h75q0 -3 0.5 -8 t6 -18t15 -23t30 -18t48.5 -8q44 0 69 19t28 37l3 19h75q0 -6 -1 -16t-10.5 -36t-26 -46t-52.5 -36t-85 -16t-85 15.5t-52.5 37.5t-26 44t-10.5 38z" />
<glyph unicode="&#x16d;" horiz-adv-x="615" d="M55 597h145v-369q0 -45 23 -74t74 -29q57 0 85 29t28 74v369h145v-386q0 -43 -13 -80.5t-40.5 -71t-79 -53t-120.5 -19.5q-71 0 -122 18.5t-77 51.5t-37 68.5t-11 77.5v394zM128 791h75q0 -3 0.5 -8t6 -18t15 -23t30 -18t48.5 -8q44 0 69 19t28 37l3 19h75q0 -6 -1 -16 t-10.5 -36t-26 -46t-52.5 -36t-85 -16t-85 15.5t-52.5 37.5t-26 44t-10.5 38z" />
<glyph unicode="&#x16e;" horiz-adv-x="695" d="M342 -15q-38 0 -72 4.5t-74 20.5t-68.5 42t-48 73t-19.5 110v465h156v-435v-14.5t6 -32.5t17.5 -40.5t38 -32t64.5 -14.5q41 0 70 14t41.5 33.5t19 39t6.5 33.5v14v435h156v-455q0 -65 -20.5 -114.5t-50.5 -76.5t-72 -43.5t-76.5 -21t-73.5 -4.5zM345 880 q-21 0 -35 -14.5t-14 -34.5q0 -21 14 -34.5t35 -13.5q20 0 34 14t14 34t-14 34.5t-34 14.5zM345 724q-45 0 -76.5 31t-31.5 76t31.5 76.5t76.5 31.5q44 0 75.5 -32t31.5 -76q0 -45 -31.5 -76t-75.5 -31z" />
<glyph unicode="&#x16f;" horiz-adv-x="615" d="M55 597h145v-369q0 -45 23 -74t74 -29q57 0 85 29t28 74v369h145v-386q0 -43 -13 -80.5t-40.5 -71t-79 -53t-120.5 -19.5q-71 0 -122 18.5t-77 51.5t-37 68.5t-11 77.5v394zM301 800q-21 0 -35 -14.5t-14 -34.5q0 -21 14 -34.5t35 -13.5q20 0 34 14t14 34t-14 34.5 t-34 14.5zM301 644q-45 0 -76.5 31t-31.5 76t31.5 76.5t76.5 31.5q44 0 75.5 -32t31.5 -76q0 -45 -31.5 -76t-75.5 -31z" />
<glyph unicode="&#x170;" horiz-adv-x="695" d="M342 -15q-38 0 -72 4.5t-74 20.5t-68.5 42t-48 73t-19.5 110v465h156v-435v-14.5t6 -32.5t17.5 -40.5t38 -32t64.5 -14.5q41 0 70 14t41.5 33.5t19 39t6.5 33.5v14v435h156v-455q0 -65 -20.5 -114.5t-50.5 -76.5t-72 -43.5t-76.5 -21t-73.5 -4.5zM280 755h-86l38 148h136 zM462 755h-93l66 148h142z" />
<glyph unicode="&#x171;" horiz-adv-x="615" d="M55 597h145v-369q0 -45 23 -74t74 -29q57 0 85 29t28 74v369h145v-386q0 -43 -13 -80.5t-40.5 -71t-79 -53t-120.5 -19.5q-71 0 -122 18.5t-77 51.5t-37 68.5t-11 77.5v394zM230 645h-86l38 148h136zM412 645h-93l66 148h142z" />
<glyph unicode="&#x172;" horiz-adv-x="695" d="M342 -15q-38 0 -72 4.5t-74 20.5t-68.5 42t-48 73t-19.5 110v465h156v-435v-14.5t6 -32.5t17.5 -40.5t38 -32t64.5 -14.5q41 0 70 14t41.5 33.5t19 39t6.5 33.5v14v435h156v-455q0 -65 -20.5 -114.5t-50.5 -76.5t-72 -43.5t-76.5 -21t-73.5 -4.5zM448 33v-36 q-23 -5 -35 -8t-35.5 -12t-36.5 -18.5t-23.5 -26.5t-10.5 -38q0 -19 9 -35t29 -16q48 0 110 31l20 -50q-72 -51 -152 -51q-44 0 -76 32t-32 79q0 126 233 149z" />
<glyph unicode="&#x173;" horiz-adv-x="615" d="M55 597h145v-369q0 -45 23 -74t74 -29q57 0 85 29t28 74v369h145v-386q0 -43 -13 -80.5t-40.5 -71t-79 -53t-120.5 -19.5q-71 0 -122 18.5t-77 51.5t-37 68.5t-11 77.5v394zM422 41v-36q-23 -5 -35 -8t-35.5 -12t-36.5 -18.5t-23.5 -26.5t-10.5 -38q0 -19 9 -35t29 -16 q48 0 110 31l20 -50q-72 -51 -152 -51q-44 0 -76 32t-32 79q0 126 233 149z" />
<glyph unicode="&#x178;" d="M535 824q0 -31 -22 -53t-53 -22t-53 22t-22 53t22 53t53 22t53 -22t22 -53zM285 824q0 -31 -22 -53t-53 -22t-53 22t-22 53t22 53t53 22t53 -22t22 -53zM467 700h163l-303 -700h-163l115 265l-268 435h176l162 -273z" />
<glyph unicode="&#x179;" horiz-adv-x="680" d="M286 140h370l-40 -140h-592l356 560h-344l40 140h568zM314 898h152l-129 -148h-121z" />
<glyph unicode="&#x17a;" horiz-adv-x="595" d="M534 0l38 132h-303l297 465h-492l-38 -132h282l-296 -465h512zM254 802h152l-129 -148h-121z" />
<glyph unicode="&#x17b;" horiz-adv-x="680" d="M286 140h370l-40 -140h-592l356 560h-344l40 140h568zM410 817q0 -34 -23.5 -57t-56.5 -23t-56.5 23t-23.5 57q0 33 23.5 56.5t56.5 23.5t56.5 -23.5t23.5 -56.5z" />
<glyph unicode="&#x17c;" horiz-adv-x="595" d="M572 132l-38 -132h-512l296 465h-282l38 132h492l-297 -465h303zM380 731q0 -34 -23.5 -57t-56.5 -23t-56.5 23t-23.5 57q0 33 23.5 56.5t56.5 23.5t56.5 -23.5t23.5 -56.5z" />
<glyph unicode="&#x17d;" horiz-adv-x="680" d="M297 750l-117 158h128l60 -80l60 80h129l-118 -158h-142zM286 140h370l-40 -140h-592l356 560h-344l40 140h568z" />
<glyph unicode="&#x17e;" horiz-adv-x="595" d="M534 0l38 132h-303l297 465h-492l-38 -132h282l-296 -465h512zM237 644l-117 158h128l60 -80l60 80h129l-118 -158h-142z" />
<glyph unicode="&#x2c6;" horiz-adv-x="280" d="M-49 594l117 158h142l118 -158h-129l-60 80l-60 -80h-128z" />
<glyph unicode="&#x2c7;" horiz-adv-x="280" d="M68 594l-117 158h128l60 -80l60 80h129l-118 -158h-142z" />
<glyph unicode="&#x2d8;" horiz-adv-x="310" d="M-20 743h75q0 -3 0.5 -8t6 -18t15 -23t30 -18t48.5 -8q44 0 69 19t28 37l3 19h75q0 -6 -1 -16t-10.5 -36t-26 -46t-52.5 -36t-85 -16t-85 15.5t-52.5 37.5t-26 44t-10.5 38z" />
<glyph unicode="&#x2d9;" horiz-adv-x="460" d="M310 661q0 -34 -23.5 -57t-56.5 -23t-56.5 23t-23.5 57q0 33 23.5 56.5t56.5 23.5t56.5 -23.5t23.5 -56.5z" />
<glyph unicode="&#x2da;" horiz-adv-x="270" d="M136 750q-21 0 -35 -14.5t-14 -34.5q0 -21 14 -34.5t35 -13.5q20 0 34 14t14 34t-14 34.5t-34 14.5zM136 594q-45 0 -76.5 31t-31.5 76t31.5 76.5t76.5 31.5q44 0 75.5 -32t31.5 -76q0 -45 -31.5 -76t-75.5 -31z" />
<glyph unicode="&#x2db;" horiz-adv-x="275" d="M258 36v-36q-23 -5 -35 -8t-35.5 -12t-36.5 -18.5t-23.5 -26.5t-10.5 -38q0 -19 9 -35t29 -16q48 0 110 31l20 -50q-72 -51 -152 -51q-44 0 -76 32t-32 79q0 126 233 149z" />
<glyph unicode="&#x2dc;" horiz-adv-x="310" d="M-28 659q1 3 3 8.5t11 19t19.5 23.5t29 18.5t40.5 8.5q37 0 90 -29.5t74 -29.5q19 0 37 14.5t26 29.5l9 14l31 -82q-1 -3 -4 -8t-12.5 -18t-20.5 -23t-29 -18t-38 -8q-32 0 -80 30t-87 30q-22 0 -39 -15.5t-23 -31.5l-6 -16z" />
<glyph unicode="&#x2dd;" horiz-adv-x="280" d="M60 599h-86l38 148h136zM242 599h-93l66 148h142z" />
<glyph unicode="&#x384;" horiz-adv-x="260" d="M192 545h-125v165h125v-165z" />
<glyph unicode="&#x385;" horiz-adv-x="400" d="M400 718q0 31 -22 53t-53 22t-53 -22t-22 -53t22 -53t53 -22t53 22t22 53zM150 718q0 31 -22 53t-53 22t-53 -22t-22 -53t22 -53t53 -22t53 22t22 53zM234 944h152l-129 -148h-121z" />
<glyph unicode="&#x386;" d="M476 0l-44 140h-224l-44 -140h-161l243 700h148l243 -700h-161zM246 260h148l-74 233zM74 744h152l-129 -148h-121z" />
<glyph unicode="&#x388;" horiz-adv-x="635" d="M320 140h290l-40 -140h-400v700h385l40 -140h-275v-135h190v-140h-190v-145zM34 744h152l-129 -148h-121z" />
<glyph unicode="&#x389;" horiz-adv-x="810" d="M597 700h150v-700h-150v292h-265v-292h-150v700h150v-278h265v278zM34 744h152l-129 -148h-121z" />
<glyph unicode="&#x38a;" horiz-adv-x="395" d="M332 700v-700h-150v700h150zM34 744h152l-129 -148h-121z" />
<glyph unicode="&#x38c;" horiz-adv-x="800" d="M400 717q153 0 261.5 -107t108.5 -258t-108.5 -258t-261.5 -107q-154 0 -262 106.5t-108 258.5t108 258.5t262 106.5zM400 132q89 0 152 64.5t63 155.5t-63 155.5t-152 64.5t-152 -64.5t-63 -155.5t63 -155.5t152 -64.5zM34 744h152l-129 -148h-121z" />
<glyph unicode="&#x38e;" horiz-adv-x="800" d="M627 700h163l-303 -700h-163l115 265l-268 435h176l162 -273zM34 744h152l-129 -148h-121z" />
<glyph unicode="&#x38f;" horiz-adv-x="830" d="M642 130h170l-37 -130h-303v175q72 14 119 69.5t47 128.5q0 83 -61 142.5t-146 59.5q-86 0 -147 -59.5t-61 -142.5q0 -68 42 -122t107 -72v-179h-288l-37 130h173q-69 42 -107.5 108t-38.5 147q0 139 104.5 237.5t252.5 98.5t252 -98.5t104 -237.5q0 -81 -38.5 -147 t-106.5 -108zM74 744h152l-129 -148h-121z" />
<glyph unicode="&#x390;" horiz-adv-x="260" d="M200 0v597h-140v-597h140zM330 718q0 31 -22 53t-53 22t-53 -22t-22 -53t22 -53t53 -22t53 22t22 53zM80 718q0 31 -22 53t-53 22t-53 -22t-22 -53t22 -53t53 -22t53 22t22 53zM164 942h152l-129 -148h-121z" />
<glyph unicode="&#x391;" d="M476 0l-44 140h-224l-44 -140h-161l243 700h148l243 -700h-161zM246 260h148l-74 233z" />
<glyph unicode="&#x392;" horiz-adv-x="560" d="M392 368q6 -1 15 -3.5t33 -15.5t42.5 -30t33.5 -50t15 -74q0 -92 -67.5 -143.5t-196.5 -51.5h-215v700h195q262 0 262 -197q0 -49 -39 -92t-78 -43zM253 572h-51v-157h65q38 0 61.5 20.5t23.5 54.5q0 46 -31 64t-68 18zM261 128q44 0 77.5 20t33.5 62q0 39 -32 62t-73 23 h-65v-167h59z" />
<glyph unicode="&#x393;" horiz-adv-x="495" d="M445 700l40 -140h-275v-560h-150v700h385z" />
<glyph unicode="&#x394;" horiz-adv-x="740" d="M731 0h-722l361 738zM231 130h278l-139 312z" />
<glyph unicode="&#x395;" horiz-adv-x="535" d="M210 140h290l-40 -140h-400v700h385l40 -140h-275v-135h190v-140h-190v-145z" />
<glyph unicode="&#x396;" horiz-adv-x="680" d="M286 140h370l-40 -140h-592l356 560h-344l40 140h568z" />
<glyph unicode="&#x397;" horiz-adv-x="690" d="M477 700h150v-700h-150v292h-265v-292h-150v700h150v-278h265v278z" />
<glyph unicode="&#x398;" horiz-adv-x="800" d="M400 715q153 0 261.5 -107t108.5 -258t-108.5 -258t-261.5 -107t-261.5 107t-108.5 258t108.5 258t261.5 107zM400 130q89 0 152 64.5t63 155.5t-63 155.5t-152 64.5t-152 -64.5t-63 -155.5t63 -155.5t152 -64.5zM570 287v125h-350v-125h350z" />
<glyph unicode="&#x399;" horiz-adv-x="275" d="M212 700v-700h-150v700h150z" />
<glyph unicode="&#x39a;" d="M368 346l261 -346h-182l-237 322v-322h-150v700h150v-337l232 337h180z" />
<glyph unicode="&#x39b;" horiz-adv-x="670" d="M652 0h-161l-156 493l-156 -493h-162l244 700h148z" />
<glyph unicode="&#x39c;" horiz-adv-x="805" d="M15 0l119 700h144l124 -450l123 450h145l120 -700h-154l-57 355l-99 -355h-157l-99 355l-56 -355h-153z" />
<glyph unicode="&#x39d;" horiz-adv-x="745" d="M535 700h150v-700h-164l-311 472v-472h-150v700h150l325 -479v479z" />
<glyph unicode="&#x39e;" horiz-adv-x="695" d="M82 700h523v-140h-563zM70 140h582l-40 -140h-542v140zM215 400h255v-140h-255v140z" />
<glyph unicode="&#x39f;" horiz-adv-x="800" d="M400 717q153 0 261.5 -107t108.5 -258t-108.5 -258t-261.5 -107q-154 0 -262 106.5t-108 258.5t108 258.5t262 106.5zM400 132q89 0 152 64.5t63 155.5t-63 155.5t-152 64.5t-152 -64.5t-63 -155.5t63 -155.5t152 -64.5z" />
<glyph unicode="&#x3a0;" horiz-adv-x="725" d="M664 700h1v-700h-150v560h-305v-560h-150l-1 700h1h604z" />
<glyph unicode="&#x3a1;" horiz-adv-x="560" d="M280 700q50 0 93.5 -11t82.5 -35.5t61.5 -70t22.5 -108.5q0 -102 -75 -161t-175 -59h-80v-255h-150v700h220zM265 390q120 0 120 85t-120 85h-55v-170h55z" />
<glyph unicode="&#x3a3;" horiz-adv-x="665" d="M288 140h338l-40 -140h-572l281 374l-261 326h542l40 -140h-297l137 -184z" />
<glyph unicode="&#x3a4;" horiz-adv-x="540" d="M520 700v-145h-175v-555h-150v555h-185l40 145h470z" />
<glyph unicode="&#x3a5;" d="M467 700h163l-303 -700h-163l115 265l-268 435h176l162 -273z" />
<glyph unicode="&#x3a6;" horiz-adv-x="855" d="M828 353q0 -128 -90.5 -194t-239.5 -73v-86h-140v81q-148 8 -239 76t-91 196q0 127 90.5 193t239.5 73v81h140v-81q149 -7 239.5 -72.5t90.5 -193.5zM183 353q0 -73 46 -103t129 -34v268q-85 -3 -130 -31t-45 -100zM498 216q84 4 129.5 34t45.5 103q0 72 -45 100t-130 31 v-268z" />
<glyph unicode="&#x3a7;" horiz-adv-x="725" d="M705 0h-182l-161 246l-161 -246h-182l254 369l-229 331h182l136 -203l135 203h182l-228 -331z" />
<glyph unicode="&#x3a8;" horiz-adv-x="833" d="M621 700h156v-285q0 -66 -20.5 -116t-50.5 -78.5t-71.5 -46t-77.5 -23.5t-73 -6h-2v-145h-140v145h-5q-37 0 -72 5.5t-74.5 23t-68.5 45t-48 75.5t-19 111v295h156v-275v-15.5t6 -34.5t17.5 -44t38 -34.5t64.5 -15.5h5v419h140v-419h2q41 0 70 15t41.5 36t19 42t6.5 36 v15v275z" />
<glyph unicode="&#x3a9;" horiz-adv-x="820" d="M622 130h170l-37 -130h-303v175q72 14 119 69.5t47 128.5q0 83 -61 142.5t-146 59.5q-86 0 -147 -59.5t-61 -142.5q0 -68 42 -122t107 -72v-179h-288l-37 130h173q-69 42 -107.5 108t-38.5 147q0 139 104.5 237.5t252.5 98.5t252 -98.5t104 -237.5q0 -81 -38.5 -147 t-106.5 -108z" />
<glyph unicode="&#x3aa;" horiz-adv-x="275" d="M333 824q0 -31 -22 -53t-53 -22t-53 22t-22 53t22 53t53 22t53 -22t22 -53zM83 824q0 -31 -22 -53t-53 -22t-53 22t-22 53t22 53t53 22t53 -22t22 -53zM212 700v-700h-150v700h150z" />
<glyph unicode="&#x3ab;" d="M535 824q0 -31 -22 -53t-53 -22t-53 22t-22 53t22 53t53 22t53 -22t22 -53zM285 824q0 -31 -22 -53t-53 -22t-53 22t-22 53t22 53t53 22t53 -22t22 -53zM467 700h163l-303 -700h-163l115 265l-268 435h176l162 -273z" />
<glyph unicode="&#x3ac;" horiz-adv-x="555" d="M552 0h-151l-36 116h-174l-37 -116h-151l207 597h135zM227 232h101l-50 158zM254 792h152l-129 -148h-121z" />
<glyph unicode="&#x3ad;" horiz-adv-x="480" d="M406 0l37 132h-243v105h158v132h-158v96h231l-38 132h-333v-597h346zM214 792h152l-129 -148h-121z" />
<glyph unicode="&#x3ae;" horiz-adv-x="605" d="M545 0v597h-141v-231h-204v231h-140v-597h140v242h204v-242h141zM264 792h152l-129 -148h-121z" />
<glyph unicode="&#x3af;" horiz-adv-x="260" d="M200 597v-597h-140v597h140zM134 792h152l-129 -148h-121z" />
<glyph unicode="&#x3b0;" horiz-adv-x="565" d="M292 0l258 597h-152l-94 -217l-129 217h-165l228 -369l-99 -228h153zM505 718q0 31 -22 53t-53 22t-53 -22t-22 -53t22 -53t53 -22t53 22t22 53zM255 718q0 31 -22 53t-53 22t-53 -22t-22 -53t22 -53t53 -22t53 22t22 53zM344 942h152l-129 -148h-121z" />
<glyph unicode="&#x3b1;" horiz-adv-x="555" d="M552 0h-151l-36 116h-174l-37 -116h-151l207 597h135zM227 232h101l-50 158z" />
<glyph unicode="&#x3b2;" horiz-adv-x="490" d="M369 312q4 -1 10 -4t22.5 -14.5t29 -26t22.5 -40.5t10 -57q0 -43 -16.5 -75t-40.5 -49.5t-57 -28.5t-59.5 -14t-53.5 -3h-186v597h169q107 0 166.5 -42.5t59.5 -125.5q0 -36 -19 -65t-38 -40zM190 475v-115h41q29 0 48.5 15t19.5 41q0 24 -17.5 41.5t-56.5 17.5h-35z M231 122q35 0 59.5 15t24.5 45q0 23 -20 43t-59 20h-46v-123h41z" />
<glyph unicode="&#x3b3;" horiz-adv-x="470" d="M460 457h-252v-457h-148v597h360z" />
<glyph unicode="&#x3b4;" horiz-adv-x="590" d="M577 0h-574l292 614zM193 120h197l-97 230z" />
<glyph unicode="&#x3b5;" horiz-adv-x="480" d="M443 132l-37 -132h-346v597h333l38 -132h-231v-96h158v-132h-158v-105h243z" />
<glyph unicode="&#x3b6;" horiz-adv-x="595" d="M572 132l-38 -132h-512l296 465h-282l38 132h492l-297 -465h303z" />
<glyph unicode="&#x3b7;" horiz-adv-x="605" d="M545 0h-141v242h-204v-242h-140v597h140v-231h204v231h141v-597z" />
<glyph unicode="&#x3b8;" horiz-adv-x="685" d="M457 236v125h-230v-125h230zM342 611q131 0 223 -91t92 -220t-92 -220t-223 -91t-223 91t-92 220t92 220t223 91zM342 125q71 0 120.5 51t49.5 124t-49.5 124t-120.5 51t-120.5 -51t-49.5 -124t49.5 -124t120.5 -51z" />
<glyph unicode="&#x3b9;" horiz-adv-x="260" d="M200 597v-597h-140v597h140z" />
<glyph unicode="&#x3ba;" horiz-adv-x="565" d="M548 597l-216 -301l223 -296h-172l-184 251v-251h-141v597h141v-262l180 262h169z" />
<glyph unicode="&#x3bb;" horiz-adv-x="555" d="M401 0l-123 390l-124 -390h-151l207 597h135l207 -597h-151z" />
<glyph unicode="&#x3bc;" horiz-adv-x="685" d="M674 0h-141l-44 280l-78 -280h-137l-78 280l-44 -280h-140l101 597h133l97 -366l96 366h133z" />
<glyph unicode="&#x3bd;" horiz-adv-x="650" d="M592 597v-597h-148l-246 373v-373h-140v597h136l258 -379v379h140z" />
<glyph unicode="&#x3be;" horiz-adv-x="630" d="M80 597h463v-140h-503zM68 140h522l-40 -140h-482v140zM203 373h215v-140h-215v140z" />
<glyph unicode="&#x3bf;" horiz-adv-x="690" d="M345 612q131 0 223 -91t92 -220t-92 -220t-223 -91t-223 91t-92 220t92 220t223 91zM345 126q71 0 120.5 51t49.5 124q0 72 -50 123.5t-120 51.5t-120 -51.5t-50 -123.5q0 -73 49.5 -124t120.5 -51z" />
<glyph unicode="&#x3c0;" horiz-adv-x="665" d="M55 597h555v-1v-596h-150v457h-254v-457h-150z" />
<glyph unicode="&#x3c1;" horiz-adv-x="495" d="M251 597q26 0 51.5 -3.5t58 -16t56.5 -32.5t40.5 -57t16.5 -86q0 -85 -62 -137.5t-153 -52.5h-59v-212h-140v597h191zM238 340q60 0 79 22q13 15 13 40q0 63 -92 63h-38v-125h38z" />
<glyph unicode="&#x3c2;" horiz-adv-x="495" d="M251 597q26 0 51.5 -3.5t58 -16t56.5 -32.5t40.5 -57t16.5 -86q0 -85 -62 -137.5t-153 -52.5h-59v-212h-140v597h191zM238 340q60 0 79 22q13 15 13 40q0 63 -92 63h-38v-125h38z" />
<glyph unicode="&#x3c3;" horiz-adv-x="629" d="M592 140l-40 -140h-539l247 312l-229 285h511l40 -139h-268l107 -144l-124 -174h295z" />
<glyph unicode="&#x3c4;" horiz-adv-x="470" d="M306 461v-461h-141v461h-156l38 136h404v-136h-145z" />
<glyph unicode="&#x3c5;" horiz-adv-x="560" d="M550 597l-258 -597h-153l99 228l-228 369h165l129 -217l94 217h152z" />
<glyph unicode="&#x3c6;" horiz-adv-x="735" d="M709 301q0 -110 -74.5 -167t-200.5 -63v-71h-133v67q-125 6 -200 64.5t-75 169.5q0 110 74.5 166.5t200.5 62.5v67h133v-67q126 -6 200.5 -62.5t74.5 -166.5zM303 401q-71 -3 -97.5 -20.5t-26.5 -79.5q0 -63 27 -82.5t97 -22.5v205zM432 196q71 3 100 23t29 82t-28 79.5 t-101 20.5v-205z" />
<glyph unicode="&#x3c7;" horiz-adv-x="630" d="M399 314l216 -314h-170l-130 197l-130 -197h-170l216 314l-195 283h171l108 -162l108 162h171z" />
<glyph unicode="&#x3c8;" horiz-adv-x="735" d="M532 597h148v-243q0 -56 -17 -98.5t-42 -67t-60 -39.5t-65 -20t-62 -5h-2v-124h-138v124h-5q-31 0 -60.5 5t-62 19.5t-56.5 38t-40 64.5t-16 94v252h148v-225q0 -117 85 -117h7v342h138v-342h4q28 0 47.5 10t28.5 22t14 32t5.5 29t0.5 24v225z" />
<glyph unicode="&#x3c9;" horiz-adv-x="705" d="M552 127h127l-36 -126h-255v169q55 11 90 52.5t35 97.5q0 64 -46.5 108t-112.5 44t-112.5 -44.5t-46.5 -108.5q0 -52 30.5 -93t78.5 -55v-170h-240l-37 126h129q-106 79 -106 202q0 119 89 202.5t215 83.5t214.5 -83.5t88.5 -202.5q0 -122 -105 -202z" />
<glyph unicode="&#x3ca;" horiz-adv-x="260" d="M200 597v-597h-140v597h140zM330 718q0 -31 -22 -53t-53 -22t-53 22t-22 53t22 53t53 22t53 -22t22 -53zM80 718q0 -31 -22 -53t-53 -22t-53 22t-22 53t22 53t53 22t53 -22t22 -53z" />
<glyph unicode="&#x3cb;" horiz-adv-x="565" d="M550 597l-258 -597h-153l99 228l-228 369h165l129 -217l94 217h152zM505 718q0 -31 -22 -53t-53 -22t-53 22t-22 53t22 53t53 22t53 -22t22 -53zM255 718q0 -31 -22 -53t-53 -22t-53 22t-22 53t22 53t53 22t53 -22t22 -53z" />
<glyph unicode="&#x3cc;" horiz-adv-x="690" d="M345 612q131 0 223 -91t92 -220t-92 -220t-223 -91t-223 91t-92 220t92 220t223 91zM345 126q71 0 120.5 51t49.5 124q0 72 -50 123.5t-120 51.5t-120 -51.5t-50 -123.5q0 -73 49.5 -124t120.5 -51zM294 792h152l-129 -148h-121z" />
<glyph unicode="&#x3cd;" horiz-adv-x="560" d="M292 0l258 597h-152l-94 -217l-129 217h-165l228 -369l-99 -228h153zM254 792h152l-129 -148h-121z" />
<glyph unicode="&#x3ce;" horiz-adv-x="705" d="M552 127h127l-36 -126h-255v169q55 11 90 52.5t35 97.5q0 64 -46.5 108t-112.5 44t-112.5 -44.5t-46.5 -108.5q0 -52 30.5 -93t78.5 -55v-170h-240l-37 126h129q-106 79 -106 202q0 119 89 202.5t215 83.5t214.5 -83.5t88.5 -202.5q0 -122 -105 -202zM284 792h152 l-129 -148h-121z" />
<glyph unicode="&#x401;" horiz-adv-x="525" d="M205 140h290l-40 -140h-400v700h385l40 -140h-275v-135h190v-140h-190v-145zM465 826q0 -31 -22 -53t-53 -22t-53 22t-22 53t22 53t53 22t53 -22t22 -53zM215 826q0 -31 -22 -53t-53 -22t-53 22t-22 53t22 53t53 22t53 -22t22 -53z" />
<glyph unicode="&#x402;" horiz-adv-x="760" d="M488 411q108 0 175 -68t67 -193q0 -145 -81 -232.5t-239 -87.5v118q88 0 134 48t46 154q0 194 -230 110v-260h-150v555h-185l40 145h470v-145h-175v-162q63 18 128 18z" />
<glyph unicode="&#x403;" horiz-adv-x="500" d="M445 700l40 -140h-275v-560h-150v700h385zM304 898h152l-129 -148h-121z" />
<glyph unicode="&#x404;" horiz-adv-x="645" d="M377 130q109 0 166 82l144 -52q-43 -81 -123 -128t-187 -47q-164 0 -259.5 104t-95.5 261t95.5 261t259.5 104q107 0 187 -47t123 -128l-140 -51q-53 81 -170 81q-83 0 -132.5 -40.5t-66.5 -109.5h224v-140h-222q19 -68 70 -109t127 -41z" />
<glyph unicode="&#x405;" horiz-adv-x="580" d="M526 637l-88 -111q-38 42 -91.5 54t-91.5 -7.5t-38 -60.5q0 -34 30.5 -51t95.5 -37q12 -3 18 -5q55 -16 94.5 -42t56 -52t25.5 -49t9 -38v-14q0 -63 -23.5 -111.5t-62 -76t-83 -41t-92.5 -13.5q-74 0 -137 21.5t-89 42.5l-26 21l94 120q9 -9 19.5 -16.5t19.5 -13t19 -9.5 t17.5 -6.5t17 -4.5t15.5 -3t14.5 -1.5t12 -0.5h9.5h7q10 0 23 2.5t30.5 9t29.5 21t12 35.5q0 15 -4 26t-9.5 18t-21 14.5t-27 12t-40 15t-48.5 18.5q-46 18 -73.5 32t-53.5 36.5t-37.5 54t-11.5 74.5q0 90 73 153t182 63q41 0 79 -8t63 -20t44.5 -24t28.5 -20z" />
<glyph unicode="&#x406;" horiz-adv-x="275" d="M212 700v-700h-150v700h150z" />
<glyph unicode="&#x407;" horiz-adv-x="330" d="M212 700v-700h-150v700h150zM363 824q0 -31 -22 -53t-53 -22t-53 22t-22 53t22 53t53 22t53 -22t22 -53zM113 824q0 -31 -22 -53t-53 -22t-53 22t-22 53t22 53t53 22t53 -22t22 -53z" />
<glyph unicode="&#x408;" horiz-adv-x="415" d="M355 700v-465q0 -58 -17 -103.5t-44.5 -72.5t-60.5 -45t-68 -24t-64 -6t-51 5l-42 149q63 -16 102.5 -10t59 28t27.5 45.5t8 42.5v18v438h150z" />
<glyph unicode="&#x409;" horiz-adv-x="1003" d="M719 420q105 0 177 -55t72 -155t-72 -155t-177 -55h-230v560h-150q-31 -346 -37 -399q-14 -133 -100.5 -186t-204.5 -16l45 135q45 -14 76 2q24 13 33 46q8 34 21.5 173.5t23.5 262.5l9 122h434v-280h80zM699 128q44 0 77 20t33 62t-33 62t-77 20h-60v-164h60z" />
<glyph unicode="&#x40a;" horiz-adv-x="940" d="M664 420q106 0 178 -55t72 -155t-72 -155t-178 -55h-69h-150v292h-250v-292h-150v700h150v-278h250v278h150v-280h69zM644 128q44 0 77.5 20t33.5 62t-33.5 62t-77.5 20h-49v-164h49z" />
<glyph unicode="&#x40b;" horiz-adv-x="700" d="M469 435q186 0 186 -225v-210h-142v200q0 102 -96 102q-70 0 -87 -81v-221h-150v555h-185l40 145h470v-145h-175v-184q54 64 139 64z" />
<glyph unicode="&#x40c;" d="M368 346l261 -346h-182l-237 322v-322h-150v700h150v-337l232 337h180zM314 898h152l-129 -148h-121z" />
<glyph unicode="&#x40e;" d="M467 700h163l-303 -700h-163l115 265l-268 435h176l162 -273zM150 893h75q0 -3 0.5 -8t6 -18t15 -23t30 -18t48.5 -8q44 0 69 19t28 37l3 19h75q0 -6 -1 -16t-10.5 -36t-26 -46t-52.5 -36t-85 -16t-85 15.5t-52.5 37.5t-26 44t-10.5 38z" />
<glyph unicode="&#x40f;" horiz-adv-x="735" d="M530 700h150v-700h-239v-150h-150v150h-236v700h150v-560h325v560z" />
<glyph unicode="&#x410;" d="M476 0l-44 140h-224l-44 -140h-161l243 700h148l243 -700h-161zM246 260h148l-74 233z" />
<glyph unicode="&#x411;" horiz-adv-x="560" d="M284 420q105 0 177 -55t72 -155t-72 -155t-177 -55h-230v700h405l40 -140h-295v-140h80zM264 128q44 0 77 20t33 62t-33 62t-77 20h-60v-164h60z" />
<glyph unicode="&#x412;" horiz-adv-x="560" d="M392 368q6 -1 15 -3.5t33 -15.5t42.5 -30t33.5 -50t15 -74q0 -92 -67.5 -143.5t-196.5 -51.5h-215v700h195q262 0 262 -197q0 -49 -39 -92t-78 -43zM253 572h-51v-157h65q38 0 61.5 20.5t23.5 54.5q0 46 -31 64t-68 18zM261 128q44 0 77.5 20t33.5 62q0 39 -32 62t-73 23 h-65v-167h59z" />
<glyph unicode="&#x413;" horiz-adv-x="495" d="M445 700l40 -140h-275v-560h-150v700h385z" />
<glyph unicode="&#x414;" horiz-adv-x="755" d="M727 140v-255h-150v115h-400v-115h-150v255h89q28 34 52 98q26 66 44 168q20 123 20 269v25h420v-560h75zM278 140h224v420h-133q-14 -258 -91 -420z" />
<glyph unicode="&#x415;" horiz-adv-x="538" d="M210 140h290l-40 -140h-400v700h385l40 -140h-275v-135h190v-140h-190v-145z" />
<glyph unicode="&#x416;" horiz-adv-x="1065" d="M870 0l-206 290h-57v-290h-150v290h-56l-206 -290h-182l261 346l-249 354h176l191 -280h65v280h150v-280h66l191 280h176l-249 -354l261 -346h-182z" />
<glyph unicode="&#x417;" horiz-adv-x="580" d="M241 309l-1 105l45 1q38 0 65 23.5t27 57.5q0 33 -27 57t-65 24t-65 -24t-27 -57l-141 13q0 93 67 148t166 55q96 0 164.5 -59.5t68.5 -141.5q0 -90 -79 -150q97 -59 97 -167q0 -85 -73.5 -145.5t-177.5 -60.5q-103 0 -176.5 60.5t-73.5 145.5l145 25q0 -38 30.5 -65 t74.5 -27t74.5 27t30.5 65q0 35 -27 61t-67 29h-11h-44z" />
<glyph unicode="&#x418;" horiz-adv-x="745" d="M60 700h150v-479l325 479h150v-700h-150v472l-311 -472h-164v700z" />
<glyph unicode="&#x419;" horiz-adv-x="745" d="M210 700h-150v-700h164l311 472v-472h150v700h-150l-325 -479v479zM180 883h75q0 -3 0.5 -8t6 -18t15 -23t30 -18t48.5 -8q44 0 69 19t28 37l3 19h75q0 -6 -1 -16t-10.5 -36t-26 -46t-52.5 -36t-85 -16t-85 15.5t-52.5 37.5t-26 44t-10.5 38z" />
<glyph unicode="&#x41a;" d="M368 346l261 -346h-182l-237 322v-322h-150v700h150v-337l232 337h180z" />
<glyph unicode="&#x41b;" horiz-adv-x="700" d="M341 560q-32 -346 -37 -399q-15 -133 -101.5 -186t-204.5 -16l45 135q45 -14 76 2q26 14 33 46q8 34 21.5 173.5t22.5 262.5l10 122h434v-700h-150v560h-149z" />
<glyph unicode="&#x41c;" horiz-adv-x="805" d="M15 0l119 700h144l124 -450l123 450h145l120 -700h-154l-57 355l-99 -355h-157l-99 355l-56 -355h-153z" />
<glyph unicode="&#x41d;" horiz-adv-x="690" d="M477 700h150v-700h-150v292h-265v-292h-150v700h150v-278h265v278z" />
<glyph unicode="&#x41e;" horiz-adv-x="800" d="M400 717q153 0 261.5 -107t108.5 -258t-108.5 -258t-261.5 -107q-154 0 -262 106.5t-108 258.5t108 258.5t262 106.5zM400 132q89 0 152 64.5t63 155.5t-63 155.5t-152 64.5t-152 -64.5t-63 -155.5t63 -155.5t152 -64.5z" />
<glyph unicode="&#x41f;" horiz-adv-x="725" d="M664 700h1v-700h-150v560h-305v-560h-150l-1 700h1h604z" />
<glyph unicode="&#x420;" horiz-adv-x="560" d="M280 700q50 0 93.5 -11t82.5 -35.5t61.5 -70t22.5 -108.5q0 -102 -75 -161t-175 -59h-80v-255h-150v700h220zM265 390q120 0 120 85t-120 85h-55v-170h55z" />
<glyph unicode="&#x421;" horiz-adv-x="645" d="M502 178l115 -94q-100 -98 -237 -98q-147 0 -248.5 103.5t-101.5 261.5q0 151 102.5 258t247.5 107q138 0 236 -98l-105 -96q-54 46 -125 46q-82 0 -141 -64.5t-59 -150.5q0 -91 58.5 -153t141.5 -62q65 0 116 40z" />
<glyph unicode="&#x422;" horiz-adv-x="540" d="M520 700v-145h-175v-555h-150v555h-185l40 145h470z" />
<glyph unicode="&#x423;" d="M467 700h163l-303 -700h-163l115 265l-268 435h176l162 -273z" />
<glyph unicode="&#x424;" horiz-adv-x="855" d="M828 353q0 -128 -90.5 -194t-239.5 -73v-86h-140v81q-148 8 -239 76t-91 196q0 127 90.5 193t239.5 73v81h140v-81q149 -7 239.5 -72.5t90.5 -193.5zM183 353q0 -73 46 -103t129 -34v268q-85 -3 -130 -31t-45 -100zM498 216q84 4 129.5 34t45.5 103q0 72 -45 100t-130 31 v-268z" />
<glyph unicode="&#x425;" horiz-adv-x="725" d="M705 0h-182l-161 246l-161 -246h-182l254 369l-229 331h182l136 -203l135 203h182l-228 -331z" />
<glyph unicode="&#x426;" horiz-adv-x="795" d="M673 140h75v-290h-150v150h-540v700h150v-560h315v560h150v-560z" />
<glyph unicode="&#x427;" horiz-adv-x="610" d="M401 700h150v-700h-150v289q-54 -64 -139 -64q-97 0 -154 57.5t-57 167.5v250h142v-240q0 -40 26 -71.5t82 -31.5q49 0 74.5 37.5t25.5 86.5v219z" />
<glyph unicode="&#x428;" horiz-adv-x="1020" d="M810 700h150v-700h-900v700h150v-560h225v560h150v-560h225v560z" />
<glyph unicode="&#x429;" horiz-adv-x="1080" d="M960 140h75v-290h-150v150h-825v700h150v-560h225v560h150v-560h225v560h150v-560z" />
<glyph unicode="&#x42a;" horiz-adv-x="735" d="M450 420q106 0 178 -55t72 -155t-72 -155t-178 -55h-229v560h-175l-40 140h365v-280h79zM430 128q44 0 77.5 20t33.5 62t-33.5 62t-77.5 20h-59v-164h59z" />
<glyph unicode="&#x42b;" horiz-adv-x="795" d="M289 420q105 0 177 -55t72 -155t-72 -155t-177 -55h-230v700h150v-280h80zM269 128q44 0 77 20t33 62t-33 62t-77 20h-60v-164h60zM738 0h-150v700h150v-700z" />
<glyph unicode="&#x42c;" horiz-adv-x="570" d="M290 420q105 0 177 -55t72 -155t-72 -155t-177 -55h-230v700h150v-280h80zM270 128q44 0 77 20t33 62t-33 62t-77 20h-60v-164h60z" />
<glyph unicode="&#x42d;" horiz-adv-x="645" d="M263 715q145 0 247.5 -107t102.5 -258q0 -158 -101.5 -261.5t-248.5 -103.5q-137 0 -237 98l115 94q51 -40 115 -40q66 0 117.5 39.5t71.5 103.5h-202v140h203q-22 64 -74 105.5t-116 41.5q-70 0 -124 -46l-105 96q98 98 236 98z" />
<glyph unicode="&#x42e;" horiz-adv-x="1085" d="M684 716q153 0 261.5 -107t108.5 -258t-108.5 -258t-261.5 -107q-133 0 -235 83.5t-128 209.5h-112v-279h-150v700h150v-271h113q28 124 129 205.5t233 81.5zM684 131q89 0 152 64.5t63 155.5t-63 155.5t-152 64.5t-152 -64.5t-63 -155.5t63 -155.5t152 -64.5z" />
<glyph unicode="&#x42f;" horiz-adv-x="620" d="M364 275l-172 -275h-182l206 300q-136 52 -136 175q0 63 22.5 108.5t61.5 70t82.5 35.5t93.5 11h220v-700h-150v275h-46zM410 375v185h-55q-120 0 -120 -85q0 -53 39 -76.5t81 -23.5h55z" />
<glyph unicode="&#x430;" horiz-adv-x="555" d="M552 0h-151l-36 116h-174l-37 -116h-151l207 597h135zM227 232h101l-50 158z" />
<glyph unicode="&#x431;" horiz-adv-x="540" d="M273 385q107 0 173 -47t66 -146t-66 -145.5t-173 -46.5h-220v597h385l36 -135h-271v-77h70zM253 128q32 0 50 3t34 17.5t16 43.5t-16 44t-34.5 18t-49.5 3h-50v-129h50z" />
<glyph unicode="&#x432;" horiz-adv-x="490" d="M369 312q4 -1 10 -4t22.5 -14.5t29 -26t22.5 -40.5t10 -57q0 -43 -16.5 -75t-40.5 -49.5t-57 -28.5t-59.5 -14t-53.5 -3h-186v597h169q107 0 166.5 -42.5t59.5 -125.5q0 -36 -19 -65t-38 -40zM190 475v-115h41q29 0 48.5 15t19.5 41q0 24 -17.5 41.5t-56.5 17.5h-35z M231 122q35 0 59.5 15t24.5 45q0 23 -20 43t-59 20h-46v-123h41z" />
<glyph unicode="&#x433;" horiz-adv-x="435" d="M54 535h335l36 -125h-231v-410h-140v535z" />
<glyph unicode="&#x434;" horiz-adv-x="715" d="M620 140h58v-255h-150v115h-340v-115h-150v255h66q28 28 50 72q34 67 47.5 178t13.5 207h405v-457zM475 140v327h-131q-17 -163 -19 -173q-20 -86 -56 -154h206z" />
<glyph unicode="&#x435;" horiz-adv-x="480" d="M443 132l-37 -132h-346v597h333l38 -132h-231v-96h158v-132h-158v-105h243z" />
<glyph unicode="&#x436;" horiz-adv-x="860" d="M630 293l222 -293h-168l-172 241h-13v-241h-139v241h-12l-172 -241h-168l222 293l-213 304h163l160 -235h20v235h139v-235h22l160 235h162z" />
<glyph unicode="&#x437;" horiz-adv-x="505" d="M252 -8q-89 0 -152 52.5t-63 126.5v6l136 24v-10q0 -28 23.5 -48t55.5 -20q33 0 56.5 20t23.5 48q0 26 -21 45q-19 19 -50 22h-53l-1 103l45 1q30 0 49 18q20 17 20 41t-20 42q-20 17 -49 17q-28 0 -48 -17q-20 -18 -20 -42v-9l-133 13v7q0 81 60 130q55 46 141 46 q83 0 142 -51q29 -24 44 -56q16 -34 16 -67q0 -73 -60 -124q75 -52 75 -139q0 -74 -63.5 -126.5t-153.5 -52.5z" />
<glyph unicode="&#x438;" horiz-adv-x="650" d="M58 0v597h140v-379l258 379h136v-597h-140v373l-246 -373h-148z" />
<glyph unicode="&#x439;" horiz-adv-x="650" d="M58 0v597h140v-379l258 379h136v-597h-140v373l-246 -373h-148zM154 791h75q0 -3 0.5 -8t6 -18t15 -23t30 -18t48.5 -8q44 0 69 19t28 37l3 19h75q0 -6 -1 -16t-10.5 -36t-26 -46t-52.5 -36t-85 -16t-85 15.5t-52.5 37.5t-26 44t-10.5 38z" />
<glyph unicode="&#x43a;" horiz-adv-x="565" d="M548 597l-216 -301l223 -296h-172l-184 251v-251h-141v597h141v-262l180 262h169z" />
<glyph unicode="&#x43b;" horiz-adv-x="600" d="M135 597h410v-597h-145v467h-140q-1 -11 -23 -297q-7 -57 -38 -103.5t-79 -69.5q-38 -20 -82 -20h-13v139q18 -6 39 3q35 19 40 63z" />
<glyph unicode="&#x43c;" horiz-adv-x="685" d="M674 0h-141l-44 280l-78 -280h-137l-78 280l-44 -280h-140l101 597h133l97 -366l96 366h133z" />
<glyph unicode="&#x43d;" horiz-adv-x="605" d="M545 0h-141v242h-204v-242h-140v597h140v-231h204v231h141v-597z" />
<glyph unicode="&#x43e;" horiz-adv-x="690" d="M345 612q131 0 223 -91t92 -220t-92 -220t-223 -91t-223 91t-92 220t92 220t223 91zM345 126q71 0 120.5 51t49.5 124q0 72 -50 123.5t-120 51.5t-120 -51.5t-50 -123.5q0 -73 49.5 -124t120.5 -51z" />
<glyph unicode="&#x43f;" horiz-adv-x="660" d="M57 597h545v-597h-150v457h-243v-457h-150z" />
<glyph unicode="&#x440;" horiz-adv-x="494" d="M251 597q26 0 51.5 -3.5t58 -16t56.5 -32.5t40.5 -57t16.5 -86q0 -85 -62 -137.5t-153 -52.5h-59v-212h-140v597h191zM238 340q60 0 79 22q13 15 13 40q0 63 -92 63h-38v-125h38z" />
<glyph unicode="&#x441;" horiz-adv-x="565" d="M430 165l107 -87q-84 -90 -207 -90q-128 0 -214 88t-86 223q0 129 88 220t212 91q121 0 206 -91l-99 -89q-43 40 -103 40q-65 0 -111.5 -50t-46.5 -120q0 -71 45.5 -120.5t112.5 -49.5q55 0 96 35z" />
<glyph unicode="&#x442;" horiz-adv-x="470" d="M306 461v-461h-141v461h-156l38 136h404v-136h-145z" />
<glyph unicode="&#x443;" horiz-adv-x="590" d="M550 597l-258 -597h-153l99 228l-228 369h165l129 -217l94 217h152z" />
<glyph unicode="&#x444;" horiz-adv-x="735" d="M709 301q0 -110 -74.5 -167t-200.5 -63v-71h-133v67q-125 6 -200 64.5t-75 169.5q0 110 74.5 166.5t200.5 62.5v67h133v-67q126 -6 200.5 -62.5t74.5 -166.5zM303 401q-71 -3 -97.5 -20.5t-26.5 -79.5q0 -63 27 -82.5t97 -22.5v205zM432 196q71 3 100 23t29 82t-28 79.5 t-101 20.5v-205z" />
<glyph unicode="&#x445;" horiz-adv-x="630" d="M399 314l216 -314h-170l-130 197l-130 -197h-170l216 314l-195 283h171l108 -162l108 162h171z" />
<glyph unicode="&#x446;" horiz-adv-x="710" d="M670 140v-290h-150v150h-470v597h150v-457h245v457h150v-457h75z" />
<glyph unicode="&#x447;" horiz-adv-x="595" d="M390 597h150v-597h-150v224q-54 -64 -134 -64q-96 0 -148.5 57t-52.5 168v212h142v-202q0 -103 98 -103q49 0 72 37t23 87v181z" />
<glyph unicode="&#x448;" horiz-adv-x="885" d="M677 597h150v-597h-770v597h150v-457h160v457h150v-457h160v457z" />
<glyph unicode="&#x449;" horiz-adv-x="930" d="M825 140h75v-260h-150v120h-695v597h150v-457h160v457h150v-457h160v457h150v-457z" />
<glyph unicode="&#x44a;" horiz-adv-x="695" d="M420 395q106 0 173 -50t67 -150q0 -99 -66.5 -147t-173.5 -48h-224v457h-155l-40 140h345v-202h74zM400 128q30 0 49.5 3.5t35.5 19t16 44.5q0 72 -101 72h-54v-139h54z" />
<glyph unicode="&#x44b;" horiz-adv-x="780" d="M723 0h-150v597h150v-597zM281 395q106 0 173 -50t67 -150q0 -99 -66.5 -147t-173.5 -48h-224v597h150v-202h74zM261 128q30 0 49.5 3.5t35.5 19t16 44.5q0 72 -101 72h-54v-139h54z" />
<glyph unicode="&#x44c;" horiz-adv-x="555" d="M280 395q106 0 173 -50t67 -150q0 -99 -66.5 -147t-173.5 -48h-224v597h150v-202h74zM260 128q30 0 49.5 3.5t35.5 19t16 44.5q0 72 -101 72h-54v-139h54z" />
<glyph unicode="&#x44d;" horiz-adv-x="575" d="M241 607q124 0 212 -91t88 -220q0 -135 -86 -223t-214 -88q-123 0 -207 90l107 87q41 -35 95 -35q51 0 90.5 29.5t57.5 76.5h-199v125h199q-18 49 -58 79t-90 30q-59 0 -102 -40l-99 89q85 91 206 91z" />
<glyph unicode="&#x44e;" horiz-adv-x="935" d="M589 612q131 0 223 -91t92 -220t-92 -220t-223 -91q-111 0 -197 68.5t-110 172.5h-86v-231h-141v597h141v-225h87q24 104 109.5 172t196.5 68zM589 126q71 0 120.5 51t49.5 124t-49.5 124t-120.5 51t-120.5 -51t-49.5 -124t49.5 -124t120.5 -51z" />
<glyph unicode="&#x44f;" horiz-adv-x="550" d="M10 0l174 253q-4 2 -11.5 5t-26 15.5t-33 28t-26 42.5t-11.5 58q0 46 14.5 81.5t37 56.5t53 34t59 18t59.5 5h191v-597h-140v228h-27l-142 -228h-171zM312 327h38v138h-38q-17 0 -27 -1t-28.5 -6t-28 -19t-9.5 -37q0 -42 29.5 -58.5t63.5 -16.5z" />
<glyph unicode="&#x451;" horiz-adv-x="480" d="M443 132l-37 -132h-346v597h333l38 -132h-231v-96h158v-132h-158v-105h243zM445 718q0 -31 -22 -53t-53 -22t-53 22t-22 53t22 53t53 22t53 -22t22 -53zM195 718q0 -31 -22 -53t-53 -22t-53 22t-22 53t22 53t53 22t53 -22t22 -53z" />
<glyph unicode="&#x452;" horiz-adv-x="600" d="M360 535q89 0 137.5 -57t48.5 -168v-361q0 -37 -2.5 -61t-15 -56t-35 -50.5t-66.5 -31.5t-106 -13l-36 126q69 0 95 22t26 64v351q0 102 -98 102q-31 0 -53.5 -20.5t-23.5 -59.5v-322h-140v562h-62v88h62v34l135 30v-64h155v-88h-155v-95q48 68 134 68z" />
<glyph unicode="&#x453;" horiz-adv-x="435" d="M54 535h335l36 -125h-231v-410h-140v535zM224 742h152l-129 -148h-121z" />
<glyph unicode="&#x454;" horiz-adv-x="575" d="M334 607q122 0 206 -91l-99 -89q-43 40 -102 40q-50 0 -90 -30t-58 -79h199v-125h-199q18 -47 57.5 -76.5t90.5 -29.5q54 0 95 35l107 -87q-84 -90 -207 -90q-128 0 -214 88t-86 223q0 129 88 220t212 91z" />
<glyph unicode="&#x455;" horiz-adv-x="445" d="M463 537l-84 -105q-4 6 -12 15t-36 24t-61 15q-32 0 -49.5 -16t-17.5 -37q0 -25 26 -39t89 -32q65 -18 112 -61.5t47 -107.5q0 -94 -63 -151t-162 -57q-41 0 -79 8t-62.5 19.5t-43 23t-27.5 19.5l-8 8l88 112q5 -6 13.5 -14.5t38.5 -22.5t63 -14q26 0 43.5 5.5t25.5 14.5 t11 16t3 14q0 26 -19 38t-101 42q-28 10 -44 17t-39 21.5t-36 30.5t-22.5 42t-9.5 59q0 80 64 133.5t155 53.5q57 0 106.5 -18.5t69.5 -36.5z" />
<glyph unicode="&#x456;" horiz-adv-x="260" d="M200 597v-597h-140v597h140z" />
<glyph unicode="&#x457;" horiz-adv-x="260" d="M200 597v-597h-140v597h140zM331 718q0 -31 -22 -53t-53 -22t-53 22t-22 53t22 53t53 22t53 -22t22 -53zM81 718q0 -31 -22 -53t-53 -22t-53 22t-22 53t22 53t53 22t53 -22t22 -53z" />
<glyph unicode="&#x458;" horiz-adv-x="370" d="M172 597h141v-394q0 -56 -18.5 -99t-47.5 -66t-65 -37.5t-71 -13.5t-65 6l-40 141q31 -9 56 -11.5t52.5 3t42.5 31t15 69.5v371z" />
<glyph unicode="&#x459;" horiz-adv-x="815" d="M582 337q208 0 208 -166q0 -76 -56.5 -123.5t-144.5 -47.5h-219v405h-123q-3 -37 -8.5 -98.5t-8.5 -96.5t-4 -40q-7 -58 -38 -104.5t-78 -69.5q-37 -19 -82 -19h-13v138q20 -6 39 3q33 18 38 64l33 353h390v-198h67zM584 117q15 0 36 12.5t21 37.5q0 28 -19.5 41.5 t-37.5 13.5h-69v-105h69z" />
<glyph unicode="&#x45a;" horiz-adv-x="820" d="M587 337q208 0 208 -166q0 -76 -56.5 -123.5t-144.5 -47.5h-57h-145v213h-195v-213h-145v536h145v-203h195v203h145v-199h50zM589 117q15 0 36 12.5t21 37.5q0 28 -19.5 41.5t-37.5 13.5h-52v-105h52z" />
<glyph unicode="&#x45b;" horiz-adv-x="655" d="M429 382q186 0 186 -225v-157h-142v147q0 102 -96 102q-70 0 -87 -81v-168h-150v452h-145l40 145h400v-145h-145v-134q54 64 139 64z" />
<glyph unicode="&#x45c;" horiz-adv-x="565" d="M332 296l216 301h-169l-180 -262v262h-141v-597h141v251l184 -251h172zM284 792h152l-129 -148h-121z" />
<glyph unicode="&#x45e;" horiz-adv-x="590" d="M292 0l258 597h-152l-94 -217l-129 217h-165l228 -369l-99 -228h153zM120 743h75q0 -3 0.5 -8t6 -18t15 -23t30 -18t48.5 -8q44 0 69 19t28 37l3 19h75q0 -6 -1 -16t-10.5 -36t-26 -46t-52.5 -36t-85 -16t-85 15.5t-52.5 37.5t-26 44t-10.5 38z" />
<glyph unicode="&#x45f;" horiz-adv-x="670" d="M620 597v-597h-210v-120h-150v120h-210v597h150v-457h270v457h150z" />
<glyph unicode="&#x2015;" horiz-adv-x="800" d="M80 238v80h640v-80h-640z" />
<glyph unicode="&#x2018;" horiz-adv-x="315" d="M181 452l-125 248h146l79 -248h-100z" />
<glyph unicode="&#x2019;" horiz-adv-x="310" d="M254 700l-125 -248h-100l79 248h146z" />
<glyph unicode="&#x201c;" horiz-adv-x="535" d="M406 452l-125 248h146l79 -248h-100zM181 452l-125 248h146l79 -248h-100z" />
<glyph unicode="&#x201d;" horiz-adv-x="535" d="M129 452h-100l79 248h146zM354 452h-100l79 248h146z" />
<glyph unicode="&#x2022;" horiz-adv-x="475" d="M70 444q0 70 48.5 118.5t118.5 48.5t119 -48.5t49 -118.5t-49 -119t-119 -49t-118.5 49t-48.5 119z" />
<glyph unicode="&#x2026;" horiz-adv-x="780" d="M220 78q0 -34 -23.5 -57t-56.5 -23t-56.5 23t-23.5 57q0 33 23.5 56.5t56.5 23.5t56.5 -23.5t23.5 -56.5zM470 78q0 -34 -23.5 -57t-56.5 -23t-56.5 23t-23.5 57q0 33 23.5 56.5t56.5 23.5t56.5 -23.5t23.5 -56.5zM720 78q0 -34 -23.5 -57t-56.5 -23t-56.5 23t-23.5 57 q0 33 23.5 56.5t56.5 23.5t56.5 -23.5t23.5 -56.5z" />
<glyph unicode="&#x2039;" horiz-adv-x="313" d="M158 473h129l-124 -173l120 -173h-129l-116 173z" />
<glyph unicode="&#x203a;" horiz-adv-x="320" d="M40 473h129l120 -173l-116 -173h-129l120 173z" />
<glyph unicode="&#x2044;" horiz-adv-x="280" d="M-27 -13h-86l420 718h86z" />
<glyph unicode="&#x20ac;" horiz-adv-x="750" d="M584 180l115 -94q-100 -98 -237 -98q-112 0 -201 62.5t-126 167.5h-91l-32 112h101q-1 8 -1 23q0 18 1 27h-69l-32 113h127q40 100 127.5 162.5t195.5 62.5q138 0 236 -98l-105 -96q-54 46 -125 46q-105 0 -162 -77h174l32 -113h-247q-1 -8 -1 -25q0 -16 1 -25h190 l32 -112h-181q57 -78 162 -78q65 0 116 40z" />
<glyph unicode="&#x2122;" horiz-adv-x="854" d="M376 700v-83h-112v-317h-86v317h-116v83h314zM444 700l-68 -400h88l32 203l56 -203h90l57 203l32 -203h88l-68 400h-83l-71 -257l-70 257h-83z" />
<glyph unicode="&#x25fc;" horiz-adv-x="595" d="M0 595h595v-595h-595v595z" />
</font>
</defs>
</svg>
